<svg width="57" height="15" viewBox="0 0 57 15" fill="" xmlns="http://www.w3.org/2000/svg">
<path d="M6.01337 9.27113L9.65625 14.0577H5.90879L3.0154 9.5692V14.0577H0V2.36297H4.70611C5.84488 2.37466 6.76867 2.70195 7.47749 3.34485C8.18631 3.97605 8.54073 4.88778 8.54073 6.08005C8.54073 6.89828 8.31414 7.59377 7.86095 8.16652C7.41939 8.72759 6.80353 9.10164 6.01337 9.28866V9.27113ZM3.0154 7.60546C3.11998 7.61715 3.22456 7.62299 3.32914 7.62299C3.43372 7.62299 3.5383 7.61715 3.64288 7.60546C4.09606 7.57039 4.50857 7.46519 4.88041 7.28986C5.25226 7.10283 5.43818 6.72879 5.43818 6.16772C5.43818 5.64172 5.25807 5.28521 4.89784 5.09818C4.54924 4.91116 4.15997 4.79427 3.73003 4.74752C3.60221 4.74752 3.4802 4.74752 3.364 4.74752C3.2478 4.73583 3.1316 4.72998 3.0154 4.72998V7.60546Z" fill=""/>
<path d="M13.9432 0.425293V14.0577H10.9278V2.75051L13.9432 0.425293Z" fill=""/>
<path d="M16.3917 14.0577V2.36297H20.8538C22.3993 2.37466 23.7414 2.96495 24.8802 4.13385C26.0189 5.29105 26.5883 6.65865 26.5883 8.23666C26.5883 9.80297 26.0189 11.1647 24.8802 12.3219C23.7414 13.4791 22.3993 14.0577 20.8538 14.0577H16.3917ZM19.4071 11.4803H20.1043C21.092 11.492 21.888 11.2056 22.4923 10.6212C23.1081 10.0368 23.416 9.24191 23.416 8.23666C23.416 7.79248 23.3405 7.37168 23.1895 6.97426C23.05 6.57683 22.8467 6.23201 22.5794 5.93979C22.1611 5.46054 21.673 5.18001 21.1153 5.09818C20.5691 5.00467 19.9998 4.95791 19.4071 4.95791V11.4803Z" fill=""/>
<path d="M35.1171 4.94038H31.5265V6.88659H34.9253V9.464H31.5265V11.4803H35.1171V14.0577H28.5111V2.36297H35.1171V4.94038Z" fill=""/>
<path d="M43.0522 9.27113L46.6951 14.0577H42.9477L40.0543 9.5692V14.0577H37.0389V2.36297H41.745C42.8837 2.37466 43.8075 2.70195 44.5164 3.34485C45.2252 3.97605 45.5796 4.88778 45.5796 6.08005C45.5796 6.89828 45.353 7.59377 44.8998 8.16652C44.4583 8.72759 43.8424 9.10164 43.0522 9.28866V9.27113ZM40.0543 7.60546C40.1588 7.61715 40.2634 7.62299 40.368 7.62299C40.4726 7.62299 40.5772 7.61715 40.6817 7.60546C41.1349 7.57039 41.5474 7.46519 41.9193 7.28986C42.2911 7.10283 42.477 6.72879 42.477 6.16772C42.477 5.64172 42.2969 5.28521 41.9367 5.09818C41.5881 4.91116 41.1988 4.79427 40.7689 4.74752C40.6411 4.74752 40.5191 4.74752 40.4029 4.74752C40.2867 4.73583 40.1705 4.72998 40.0543 4.72998V7.60546Z" fill=""/>
<path d="M55.5488 3.02924L54.3461 5.39625C54.0207 5.13909 53.6954 4.94623 53.37 4.81765C53.0563 4.68907 52.7425 4.62478 52.4288 4.62478C52.0221 4.62478 51.6909 4.72414 51.4353 4.92285C51.1912 5.10987 51.0692 5.35534 51.0692 5.65925C51.0692 5.93979 51.2029 6.16188 51.4701 6.32552C51.7374 6.47748 52.0686 6.61774 52.4636 6.74632C52.6379 6.80477 52.8122 6.86321 52.9865 6.92166C53.1725 6.96841 53.3584 7.02686 53.5443 7.09699C54.1602 7.31908 54.7237 7.65221 55.235 8.09639C55.7579 8.52888 56.0194 9.21853 56.0194 10.1653C56.0194 10.2939 56.0136 10.4342 56.0019 10.5861C55.9903 10.7264 55.9729 10.8725 55.9497 11.0245C55.9032 11.2699 55.8451 11.5096 55.7754 11.7433C55.7173 11.9771 55.6533 12.17 55.5836 12.3219C55.2699 12.9298 54.747 13.4207 54.0149 13.7947C53.2829 14.1688 52.4869 14.3558 51.627 14.3558C50.8833 14.3558 50.1513 14.2506 49.4308 14.0402C48.722 13.8181 48.0597 13.485 47.4438 13.0408L48.7336 10.5861C49.0474 10.8667 49.3495 11.0946 49.64 11.2699C49.9305 11.4453 50.221 11.5797 50.5115 11.6732C50.6625 11.7083 50.8078 11.7375 50.9472 11.7609C51.0983 11.7842 51.2493 11.7959 51.4004 11.7959C51.842 11.7959 52.1964 11.6907 52.4636 11.4803C52.7309 11.2699 52.8645 10.9894 52.8645 10.6387C52.8645 10.2998 52.7135 10.0484 52.4114 9.8848C52.1092 9.70946 51.7432 9.55166 51.3133 9.4114C51.1738 9.36464 51.0228 9.31788 50.8601 9.27113C50.709 9.22437 50.5522 9.17177 50.3895 9.11333C49.7736 8.90293 49.2042 8.58733 48.6813 8.16652C48.17 7.73403 47.9144 7.02686 47.9144 6.04499C47.9144 4.8644 48.2746 3.91176 48.9951 3.18704C49.7271 2.46233 50.6858 2.09997 51.871 2.09997C52.0918 2.09997 52.3126 2.11166 52.5334 2.13504C52.7658 2.15842 52.9924 2.18764 53.2131 2.22271C53.6198 2.30453 54.0149 2.41558 54.3984 2.55584C54.7935 2.68442 55.1769 2.84807 55.5488 3.04678V3.02924Z" fill=""/>
<path d="M11.0719 5.32992L10.7234 5.89244V5.46358L10.4746 5.13135L11.0719 5.32992Z" fill="url(#paint0_linear_4079_2835)"/>
<defs>
<linearGradient id="paint0_linear_4079_2835" x1="10.4761" y1="5.89244" x2="11.2153" y2="5.31232" gradientUnits="userSpaceOnUse">
<stop stop-color="#EA3223"/>
<stop offset="1" stop-color="#F19236"/>
</linearGradient>
</defs>
</svg>
