<svg width="18" height="19" viewBox="0 0 18 19" fill="none" xmlns="http://www.w3.org/2000/svg">
<path d="M17.5 0.696289L17.34 0.726289L12.6876 2.52976C12.2438 2.70179 11.7532 2.70991 11.304 2.55269L6.64829 0.923191C6.22814 0.776138 5.77094 0.773455 5.34909 0.915567L0.36 2.59629C0.15 2.66629 0 2.84629 0 3.07629V18.1963C0 18.3289 0.0526785 18.4561 0.146447 18.5498C0.240215 18.6436 0.367392 18.6963 0.5 18.6963L0.66 18.6663L5.31244 16.8628C5.75621 16.6908 6.24678 16.6827 6.69601 16.8399L11.3517 18.4694C11.7719 18.6164 12.2291 18.6191 12.6509 18.477L17.64 16.7963C17.85 16.7263 18 16.5463 18 16.3163V1.19629C18 1.06368 17.9473 0.936504 17.8536 0.842736C17.7598 0.748968 17.6326 0.696289 17.5 0.696289ZM7 3.44819C7 3.31042 7.13603 3.2139 7.26607 3.25941L10.6652 4.4491C10.8657 4.51929 11 4.70856 11 4.92103V15.9444C11 16.0822 10.864 16.1787 10.7339 16.1332L7.33482 14.9435C7.13428 14.8733 7 14.684 7 14.4715V3.44819ZM2 4.51553C2 4.30087 2.13702 4.11016 2.34047 4.04167L4.73619 3.23511C4.8658 3.19147 5 3.28789 5 3.42465V14.5035C5 14.7101 4.87298 14.8954 4.68032 14.9699L2.27213 15.9011C2.14108 15.9517 2 15.855 2 15.7145V4.51553ZM16 14.877C16 15.0917 15.863 15.2824 15.6595 15.3509L13.2638 16.1575C13.1342 16.2011 13 16.1047 13 15.9679V4.89903C13 4.69247 13.127 4.50718 13.3197 4.43268L15.7279 3.50151C15.8589 3.45084 16 3.54754 16 3.68805V14.877Z" fill="#B7A38C"/>
</svg>
