<svg width="18" height="16" viewBox="0 0 18 16" fill="none" xmlns="http://www.w3.org/2000/svg">
<path d="M5.96407 0.975586C5.96407 0.975586 4.5687 1.4418 3.48428 2.28394C2.98609 2.67083 2.59887 3.0126 2.02682 3.65256C-0.521882 6.66606 -0.707348 11.0527 1.70048 14.2056C2.01695 14.6291 2.38526 15.0244 2.38526 15.0244H6.6593L7.17314 14.3689C7.17314 14.3689 5.61022 14.0723 4.23301 12.7323C2.0887 10.6087 2.13042 8.28838 2.35928 7.0232C2.37336 6.94535 2.5088 5.65971 3.60784 4.2557C3.8299 3.97202 4.22056 3.59514 4.51273 3.48433C4.79239 3.39762 5.11005 3.47048 5.2905 3.90028L8.63977 14.631H9H9.36022L12.7095 3.90028C12.89 3.47048 13.2076 3.39762 13.4873 3.48433C13.7794 3.59514 14.1701 3.97202 14.3922 4.2557C15.4912 5.65971 15.6266 6.94535 15.6407 7.0232C15.8696 8.28838 15.9113 10.6087 13.767 12.7323C12.3898 14.0723 10.8269 14.3689 10.8269 14.3689L11.3407 15.0244H15.6147C15.6147 15.0244 15.983 14.6291 16.2995 14.2056C18.7073 11.0527 18.5219 6.66606 15.9732 3.65256C15.4011 3.0126 15.0139 2.67083 14.5157 2.28394C13.4313 1.4418 12.0359 0.975586 12.0359 0.975586L9 10.7182L5.96407 0.975586Z" fill="#453624"/>
</svg>
