<svg width="16" height="17" viewBox="0 0 16 17" fill="none" xmlns="http://www.w3.org/2000/svg">
<path d="M7.99093 8.72603C6.10759 8.72603 4.54226 7.16203 4.54226 5.31136C4.54226 3.3967 6.10759 1.83203 7.99159 1.83203C9.93959 1.83203 11.4403 3.39603 11.4403 5.31136C11.4369 6.22007 11.0729 7.09025 10.4282 7.73068C9.78354 8.3711 8.91096 8.72936 8.00226 8.7267L7.99093 8.72603ZM7.99093 3.84336C7.19359 3.84336 6.58693 4.51336 6.58693 5.31203C6.58693 6.10936 7.19359 6.71603 7.99159 6.71603C8.82159 6.71603 9.39626 6.10936 9.39626 5.31203C9.39693 4.5127 8.82159 3.84336 7.99093 3.84336ZM9.36426 11.5674L11.3129 13.4507C11.6963 13.8647 11.6963 14.4714 11.3129 14.8547C10.8983 15.2687 10.2589 15.2687 9.93959 14.8547L7.99159 12.9394L6.10759 14.8547C5.91626 15.046 5.66026 15.1414 5.37226 15.1414C5.14893 15.1414 4.89359 15.0454 4.66959 14.8547C4.28626 14.4714 4.28626 13.8647 4.66959 13.45L6.64959 11.5667C5.93455 11.355 5.24862 11.0551 4.60759 10.674C4.12826 10.4187 4.03293 9.7807 4.28826 9.30136C4.60759 8.8227 5.18226 8.69536 5.69359 9.0147C6.38599 9.43724 7.18145 9.66079 7.99259 9.66079C8.80374 9.66079 9.5992 9.43724 10.2916 9.0147C10.8029 8.69536 11.4089 8.8227 11.6963 9.30136C11.9843 9.7807 11.8556 10.418 11.4083 10.674C10.8023 11.0574 10.0996 11.3447 9.36493 11.568L9.36426 11.5674Z" fill="white"/>
</svg>
