<svg width="30" height="30" viewBox="0 0 30 30" fill="" xmlns="http://www.w3.org/2000/svg">
<path fill-rule="evenodd" clip-rule="evenodd" d="M21 4.5C21 3.672 20.328 3 19.5 3H10.5C9.672 3 9 3.672 9 4.5V25.5C9 26.328 9.672 27 10.5 27H19.5C20.328 27 21 26.328 21 25.5V4.5ZM24 3V27C24 28.6575 22.6575 30 21 30H9C7.3425 30 6 28.6575 6 27V3C6 1.3425 7.3425 0 9 0H21C22.6575 0 24 1.3425 24 3ZM16.5315 22.5C16.5315 23.328 15.8595 24 15.0315 24C14.2035 24 13.5315 23.328 13.5315 22.5C13.5315 21.672 14.2035 21 15.0315 21C15.8595 21 16.5315 21.672 16.5315 22.5Z" fill=""/>
</svg>
