<svg width="24" height="25" viewBox="0 0 24 25" fill="" xmlns="http://www.w3.org/2000/svg">
<path fill-rule="evenodd" clip-rule="evenodd" d="M10.8 3.21934C6.16081 3.21934 2.4 6.98014 2.4 11.6193C2.4 16.2586 6.1608 20.0193 10.8 20.0193C13.1182 20.0193 15.2171 19.0803 16.737 17.5618C16.7388 17.56 16.7406 17.5581 16.7424 17.5563C16.7438 17.5549 16.7451 17.5536 16.7465 17.5522C18.2626 16.0327 19.2 13.9355 19.2 11.6193C19.2 6.98014 15.4392 3.21934 10.8 3.21934ZM19.24 18.3584C20.7169 16.5111 21.6 14.1684 21.6 11.6193C21.6 5.65466 16.7647 0.819336 10.8 0.819336C4.83532 0.819336 0 5.65466 0 11.6193C0 17.584 4.83532 22.4193 10.8 22.4193C13.351 22.4193 15.6955 21.5349 17.5434 20.0559L21.9511 24.4675C22.4195 24.9363 23.1793 24.9367 23.6481 24.4682C24.117 23.9998 24.1173 23.24 23.6489 22.7712L19.24 18.3584ZM9.6 5.61934C9.6 4.95659 10.1373 4.41934 10.8 4.41934C14.7764 4.41934 18 7.64289 18 11.6193C18 12.2821 17.4627 12.8193 16.8 12.8193C16.1373 12.8193 15.6 12.2821 15.6 11.6193C15.6 8.96838 13.4509 6.81934 10.8 6.81934C10.1373 6.81934 9.6 6.28208 9.6 5.61934Z" fill=""/>
</svg>
