<svg width="38" height="38" viewBox="0 0 38 38" fill="" xmlns="http://www.w3.org/2000/svg">
<g opacity="" clip-path="url(#clip0_2122_14512)">
<path d="M37.8578 15.9073C37.8578 15.603 37.8351 15.3019 37.8032 15.0034C37.7896 15.0288 37.7766 15.0548 37.7629 15.0802C37.5997 13.1976 34.6103 11.7403 30.4185 10.8181C30.3892 10.5632 30.3294 10.3304 30.2345 10.1223C29.8989 9.38556 29.2779 9.23599 29.2519 9.23014C29.1979 9.21713 29.1446 9.23014 29.101 9.26135C28.6887 9.56634 28.4234 9.96497 28.2446 10.4039C25.9991 10.0378 23.5287 9.81735 21.027 9.73541C21.0381 9.62552 21.0517 9.51692 21.0556 9.40442C21.1245 7.4789 19.266 5.20223 19.1867 5.10599C19.1125 5.01495 18.9799 4.99609 18.8817 5.06047C18.7835 5.1255 18.7497 5.25426 18.8043 5.35895C19.2381 6.19328 18.6437 7.2448 17.8204 8.7008L17.5499 9.18137C17.4465 9.36735 17.375 9.54618 17.319 9.72176C15.2817 9.77703 13.2612 9.9266 11.3559 10.1731C11.3305 10.123 11.3136 10.0736 11.285 10.0235C11.2466 9.95846 11.1718 9.92205 11.1003 9.9331C11.058 9.93896 10.6588 10.0046 10.1782 10.3376C8.93484 10.5281 7.75131 10.7557 6.66858 11.0256C6.57689 10.9632 6.48519 10.902 6.38895 10.8565C5.65737 10.5086 5.08707 10.7954 5.06236 10.8077C5.01489 10.8325 4.97977 10.8767 4.96741 10.9293C4.91929 11.1322 4.90564 11.3306 4.90694 11.5263C2.26546 12.386 0.485608 13.5253 0.231994 14.9C0.226142 14.8909 0.216387 14.8825 0.211185 14.8734C0.170217 15.2148 0.143555 15.5594 0.143555 15.908C0.143555 19.6855 2.59515 23.0696 6.47219 25.399C4.78533 25.6435 3.50556 26.483 3.43858 26.5279L3.20057 26.6872L3.40607 26.8855C3.47695 26.9538 5.1677 28.562 7.47949 28.748C7.63231 28.7603 7.78448 28.7662 7.93404 28.7662C9.36013 28.7662 10.6152 28.244 11.3045 27.8889C10.7927 28.2596 10.0605 28.9132 9.69763 29.8145C9.11432 31.2594 9.71844 32.7427 9.74445 32.8058L9.8407 33.038L10.0637 32.9209C10.1288 32.8871 11.6459 32.0794 12.2247 30.6429C12.3866 30.2417 12.4516 29.8405 12.4685 29.4646C14.2679 29.9211 16.6863 30.1949 18.9877 30.1949C23.385 30.1949 28.2836 29.2181 28.2836 27.8168C28.2836 27.5651 28.1392 27.3414 27.8525 27.1411C33.8046 25.0004 37.8578 20.7741 37.8578 15.9073ZM37.1282 15.2414C37.1282 15.4749 37.0547 15.7103 36.9162 15.9444C36.5709 15.2148 35.55 14.4734 34.0049 13.8036C34.224 13.5136 34.3911 13.169 34.4822 12.7554C36.1853 13.5221 37.1282 14.3921 37.1282 15.2414ZM34.1245 12.7066C33.7324 14.3817 31.816 14.7973 30.5109 14.8818C30.1929 14.8467 29.908 14.8409 29.6863 14.8461C29.6661 14.7895 29.6486 14.7323 29.6128 14.6822C29.5907 14.651 29.5588 14.6315 29.5322 14.6048C31.9148 11.9711 33.6739 12.4998 34.1245 12.7066ZM28.8338 15.231C28.7889 15.1666 28.7713 15.0899 28.785 15.0125C28.8097 14.8708 28.9339 14.77 29.0724 14.77C29.0887 14.77 29.1056 14.7713 29.1225 14.7739C29.1992 14.7875 29.2668 14.8298 29.3117 14.8935C29.3566 14.9573 29.3741 15.0346 29.3605 15.1114C29.3332 15.2713 29.1849 15.378 29.0223 15.3507C28.9463 15.337 28.8786 15.2954 28.8338 15.231ZM28.4937 17.364C28.2121 17.7223 27.7543 17.9076 27.1313 17.9174C27.0559 17.7216 26.9219 17.2554 27.1111 16.7482C27.3075 16.2227 27.8004 15.7961 28.5619 15.4716C28.627 15.5536 28.7108 15.6121 28.8051 15.6544C28.8643 16.0738 28.902 16.8437 28.4937 17.364ZM29.6895 15.27C29.776 15.2726 29.8697 15.2752 29.9776 15.2752C30.1369 15.2752 30.3164 15.2707 30.5083 15.2596C31.3816 15.3663 32.4864 15.7135 33.0197 16.7469C32.3479 16.8847 30.3047 17.1552 29.3345 15.6641C29.501 15.5906 29.6291 15.4495 29.6895 15.27ZM30.4211 11.4645C31.3582 11.6772 32.2088 11.9132 32.9664 12.1675C32.4507 12.2026 31.8186 12.3704 31.0961 12.8022C30.8152 12.7118 30.5239 12.6247 30.2215 12.5408C30.3301 12.1532 30.3964 11.7949 30.4211 11.4645ZM30.8262 12.9752C30.4842 13.2054 30.1259 13.4889 29.7507 13.8518C29.9158 13.4733 30.0485 13.1163 30.1545 12.7768C30.3847 12.8412 30.6097 12.9075 30.8262 12.9752ZM29.246 9.61511C29.3917 9.67364 29.7071 9.84596 29.9035 10.2849C30.1766 10.8988 30.2195 12.1213 29.077 14.4143C28.9567 14.4143 28.8416 14.4416 28.7401 14.502C28.4085 13.4096 27.8056 10.7817 29.246 9.61511ZM28.4468 14.8864C28.4403 14.9085 28.426 14.9267 28.4221 14.9501C28.4176 14.9735 28.4247 14.9963 28.4234 15.0197C25.4587 14.6744 24.9307 12.6793 24.8397 12.0719C24.8923 12.0687 24.9444 12.0667 24.9957 12.0667C26.7782 12.0667 28.1106 14.2731 28.4468 14.8864ZM26.4667 12.1291C26.9843 12.2033 27.4844 12.2852 27.9689 12.3723C27.9955 12.8549 28.0651 13.3237 28.1542 13.7328C27.7465 13.1716 27.1697 12.5395 26.4667 12.1291ZM28.0593 11.0126C27.9851 11.3683 27.9526 11.7344 27.9578 12.1005C25.7488 11.7051 23.2399 11.4437 20.5393 11.3767C20.7025 11.0763 20.8352 10.7395 20.9236 10.3727C23.5664 10.4494 25.9666 10.6751 28.0593 11.0126ZM17.9524 9.40572L18.221 8.92775C18.8121 7.88209 19.318 6.98728 19.3993 6.18743C19.9293 6.99379 20.6336 8.28266 20.5939 9.38751C20.5471 10.6673 20.0034 11.5738 19.4514 11.9588C19.7102 11.6895 19.9079 11.2961 19.9813 10.8357C20.1374 9.86222 19.331 8.55123 19.2966 8.49596C19.2719 8.45564 19.2211 8.44134 19.1776 8.46149C19.1353 8.4823 19.1152 8.53173 19.1321 8.57595C19.3076 9.05391 18.9318 9.55073 18.4135 10.2381L18.2451 10.4618C17.875 10.9573 17.9524 11.4333 18.0844 11.7539C17.7606 11.3091 17.3652 10.4598 17.9524 9.40572ZM18.9981 11.8346C18.9773 11.7266 18.9181 11.6395 18.8485 11.6135C18.7809 11.5894 18.7172 11.6187 18.6684 11.6954C18.6008 11.8001 18.5461 11.9217 18.5 12.0505C18.4805 12.0394 18.4603 12.0316 18.4414 12.0179C18.381 11.9438 17.8692 11.2747 18.3933 10.573L18.5611 10.3499C18.9519 9.83296 19.2816 9.39531 19.3493 8.97327C19.5769 9.42783 19.8975 10.2036 19.8006 10.8064C19.7037 11.4112 19.3766 11.9223 18.9864 12.0791C18.9792 12.0817 18.9727 12.0823 18.9656 12.0849C18.9987 12.0101 19.015 11.9223 18.9981 11.8346ZM18.7952 13.327C18.7815 13.2632 18.7783 13.1989 18.7711 13.1351C20.3299 13.1364 21.1454 13.4336 21.1454 13.5929C21.1454 13.7529 20.326 14.0514 18.7594 14.0514C17.1929 14.0514 16.3735 13.7529 16.3735 13.5929C16.3735 13.4466 17.0641 13.1885 18.3751 13.1436C18.3849 13.2639 18.3933 13.3855 18.4187 13.5039C18.4467 13.6372 18.5227 13.7191 18.6066 13.7191C18.6268 13.7191 18.6476 13.7145 18.6684 13.7048C18.775 13.6547 18.8297 13.4921 18.7952 13.327ZM22.2665 15.4443C22.3165 15.5614 22.4492 15.616 22.5688 15.5666C22.7743 15.4794 22.9363 15.3884 23.0663 15.2967L23.0533 16.2695C23.052 16.3742 22.9935 16.4835 22.879 16.594C22.3133 17.1435 20.6758 17.5109 18.8836 17.4745C16.5062 17.4336 14.7387 16.728 14.7471 16.1239L14.7595 15.1465C15.549 15.7402 17.2586 16.0777 18.8999 16.1063C18.9818 16.1076 19.0638 16.1083 19.1451 16.1083C19.5762 16.1083 19.9995 16.0888 20.406 16.0497C20.5321 16.0374 20.6251 15.9255 20.6128 15.7987C20.6004 15.6719 20.4957 15.5731 20.3611 15.5913C19.8948 15.6355 19.4052 15.655 18.9071 15.6453C16.3332 15.601 14.7621 14.8955 14.7693 14.4097C14.7699 14.3291 14.8174 14.2426 14.9097 14.1528C15.1185 13.9506 15.5639 13.7484 16.1895 13.591C16.1895 13.5916 16.1888 13.5923 16.1888 13.5929C16.1888 14.0644 17.7255 14.2354 18.7588 14.2354C19.7628 14.2354 21.2305 14.0716 21.3131 13.6294C22.418 13.8817 23.0793 14.251 23.0748 14.5547C23.0722 14.7407 22.816 14.9605 22.3868 15.1419C22.271 15.192 22.2164 15.3273 22.2665 15.4443ZM17.1981 10.3734C17.1812 10.7538 17.256 11.0945 17.3704 11.3852C15.3233 11.4379 13.3906 11.5738 11.6257 11.7903C11.6745 11.4639 11.6641 11.1277 11.5835 10.785C13.2963 10.571 15.177 10.4293 17.1981 10.3734ZM11.5666 12.0791C13.3861 11.8521 15.3857 11.7116 17.494 11.6603C17.7482 12.1467 18.0714 12.4354 18.0786 12.4419C18.0916 12.453 18.1046 12.4621 18.1189 12.4699C18.2041 12.5167 18.2919 12.546 18.3803 12.5746C18.3693 12.6695 18.3673 12.7671 18.366 12.8646C16.6375 12.9101 15.1568 13.2723 14.5898 13.8218C14.4064 14 14.3121 14.1951 14.3088 14.4032C14.3082 14.465 14.3056 14.61 14.3056 14.61L14.2861 16.118C14.2711 17.2463 16.6395 17.8966 18.8765 17.9356C18.9545 17.9369 19.0326 17.9375 19.1099 17.9375C20.9685 17.9375 22.5591 17.5467 23.2003 16.925C23.4051 16.726 23.5111 16.5075 23.5137 16.276L23.5339 14.768C23.5339 14.768 23.5358 14.6165 23.5365 14.5619C23.5508 13.5078 21.1818 12.8978 18.9448 12.8588C18.8817 12.8581 18.8212 12.8607 18.7581 12.8607C18.7601 12.7879 18.762 12.715 18.7718 12.6461C18.7829 12.6461 18.7933 12.65 18.8043 12.65C19.0592 12.65 19.3174 12.5791 19.5658 12.438C19.8779 12.2611 20.153 11.988 20.38 11.6486C21.8145 11.6791 23.1795 11.7611 24.4618 11.8879C24.4605 11.8989 24.4514 11.9074 24.4514 11.9184C24.4527 11.9484 24.6212 14.7459 28.0098 15.3325C27.3823 15.6732 26.9577 16.1018 26.7645 16.6194C26.4589 17.4401 26.8315 18.158 26.8478 18.1886C26.879 18.2477 26.9401 18.2848 27.0064 18.2861C27.0318 18.2867 27.0559 18.2867 27.0806 18.2867C27.8486 18.2867 28.4215 18.0526 28.783 17.5909C29.1355 17.1416 29.2161 16.5693 29.209 16.1044C29.9379 16.9933 31.0428 17.2177 31.9298 17.2177C32.7095 17.2177 33.3143 17.0564 33.3279 17.0525C33.3786 17.0382 33.4216 17.0031 33.445 16.9556C33.4677 16.9081 33.4697 16.8535 33.4495 16.8047C33.0697 15.88 32.3421 15.3864 31.5968 15.125C32.4025 14.9657 33.2421 14.6458 33.8228 14.0299C35.4888 14.7466 36.5098 15.5217 36.7309 16.2052C35.085 18.249 28.3694 20.1446 18.9857 20.1446C9.64431 20.1446 2.94696 18.2659 1.26271 16.2325C1.50071 15.1133 3.05686 14.1067 5.52406 13.3218C5.97407 13.9805 6.58469 14.5417 7.12768 14.9592C5.92854 14.664 4.17016 14.5099 3.12254 15.7096C3.06076 15.7805 3.06206 15.8865 3.12579 15.9555C3.1401 15.9711 4.09407 16.9777 5.68794 16.9777C6.36554 16.9777 7.1602 16.7911 8.04654 16.2728C7.78708 16.938 7.73831 17.5396 7.92429 18.0591C8.21952 18.8837 8.96736 19.192 8.99857 19.205C9.02068 19.2141 9.04344 19.2186 9.06685 19.2186C9.10782 19.2186 9.14944 19.2043 9.18325 19.1776C9.80883 18.6704 10.1151 18.1066 10.0937 17.5012C10.0735 16.9354 9.76917 16.449 9.46548 16.0972C9.64626 16.1356 9.82314 16.1538 9.99612 16.1538C11.8488 16.1538 13.2066 14.2036 13.2229 14.1795C13.2521 14.1366 13.2625 14.0833 13.2495 14.0319C13.2372 13.9812 13.2034 13.9382 13.1565 13.9142C12.2513 13.4401 11.3565 13.5526 10.6113 13.8544C11.0294 13.3432 11.402 12.7372 11.5666 12.0791ZM8.09206 15.6518C8.10182 15.6726 8.10247 15.6953 8.11482 15.7161C8.12718 15.737 8.14734 15.7493 8.161 15.7688C5.67168 17.4147 3.98157 16.2305 3.52117 15.8247C4.85556 14.5248 7.41901 15.3916 8.09206 15.6518ZM8.53816 15.1302C8.58368 15.1029 8.63441 15.0906 8.68513 15.0906C8.78527 15.0906 8.88412 15.1426 8.93874 15.2356C8.97711 15.3026 8.98816 15.3812 8.96801 15.4567C8.9485 15.5321 8.90038 15.5958 8.8321 15.6349C8.76447 15.6745 8.68643 15.6849 8.611 15.6654C8.53556 15.6459 8.47248 15.5978 8.43347 15.5302C8.35218 15.391 8.39835 15.2115 8.53816 15.1302ZM7.90738 12.6409C8.17465 12.5798 8.45037 12.5232 8.73455 12.4712C8.59474 12.9088 8.48484 13.4187 8.42371 14.0195C8.26894 13.4993 8.09597 13.0421 7.90738 12.6409ZM8.55637 16.027C8.59994 16.0354 8.64286 16.0439 8.68643 16.0439C8.74886 16.0439 8.81064 16.0335 8.87046 16.0153C9.18585 16.2982 9.70284 16.8574 9.72625 17.5148C9.7412 17.9701 9.511 18.407 9.04084 18.8154C8.85681 18.7146 8.45428 18.4448 8.27154 17.9349C8.08296 17.4082 8.18441 16.7651 8.55637 16.027ZM9.28925 15.1426C9.4011 15.0548 9.53116 14.9462 9.67357 14.8207C10.3889 14.2862 11.5887 13.6424 12.7943 14.1463C12.3723 14.6848 10.9768 16.2175 9.27169 15.6583C9.2886 15.6219 9.31396 15.59 9.32437 15.5497C9.36078 15.4118 9.34062 15.2726 9.28925 15.1426ZM11.0294 10.3252C11.8956 12.029 10.3284 13.7497 9.37314 14.5872C9.25478 14.6796 9.15074 14.7667 9.0636 14.8448C8.96801 14.7778 8.85681 14.7466 8.74236 14.7362C8.86526 11.1869 10.5515 10.4572 11.0294 10.3252ZM9.40565 11.1062C9.19691 11.3891 8.99987 11.7377 8.8347 12.1727C8.47118 12.2377 8.11808 12.3093 7.78188 12.3906C7.60955 12.0602 7.42356 11.7786 7.22588 11.5432C7.90218 11.3826 8.63636 11.2389 9.40565 11.1062ZM5.30622 11.1056C5.45318 11.0568 5.80109 10.9846 6.23093 11.1895C6.8396 11.4788 7.67068 12.3671 8.2774 14.8786C8.1805 14.9573 8.10832 15.0548 8.0693 15.1673C7.11012 14.5456 4.95701 12.9251 5.30622 11.1056ZM4.99083 12.1753C5.07211 12.4913 5.20152 12.7957 5.37125 13.0825C3.00484 13.8524 1.4643 14.837 1.06177 15.9476C0.921953 15.7122 0.84717 15.4755 0.84717 15.2408C0.84717 14.1691 2.34869 13.0649 4.99083 12.1753ZM7.51591 28.2882C5.84271 28.153 4.48165 27.1808 3.95751 26.7535C4.55643 26.4173 6.10347 25.6702 7.78448 25.808C9.45768 25.9433 10.8187 26.9155 11.3429 27.3427C10.7433 27.6783 9.20341 28.4215 7.51591 28.2882ZM11.7981 30.4693C11.4099 31.4298 10.5111 32.097 10.0833 32.3714C9.9493 31.9175 9.7438 30.9278 10.1236 29.9855C10.5118 29.025 11.4105 28.3585 11.8377 28.0834C11.9717 28.5386 12.1765 29.5303 11.7981 30.4693ZM18.9877 29.5433C16.2168 29.5433 13.9629 29.1876 12.4445 28.7818C12.3898 28.3019 12.2773 27.9247 12.2162 27.7537C14.3245 28.3058 16.6024 28.6277 19 28.6277C21.8587 28.6277 24.5665 28.1965 26.9941 27.4285C27.565 27.6496 27.6327 27.8135 27.6333 27.8135C27.5566 28.3272 24.1204 29.5433 18.9877 29.5433ZM19.0007 27.9767C16.3449 27.9767 13.8237 27.5924 11.5464 26.9122C10.9293 26.4212 9.54937 25.4881 7.82154 25.3489C7.77667 25.345 7.7331 25.3457 7.68888 25.3431C3.80274 23.2927 1.19833 20.2201 0.838716 16.7391C3.12384 19.3045 11.1692 20.7936 18.989 20.7936C26.8348 20.7936 34.9055 19.2947 37.1594 16.713C36.5306 22.9936 28.6309 27.9767 19.0007 27.9767Z" fill=""/>
</g>
<defs>
<linearGradient id="" x1="0.143555" y1="19.0302" x2="37.8578" y2="19.0302" gradientUnits="userSpaceOnUse">
<stop stop-color="#EBDCCB"/>
<stop offset="1" stop-color="#F2CA9C"/>
</linearGradient>
<clipPath id="clip0_2122_14512">
<rect width="37.7143" height="37.7143" fill="white" transform="translate(0.143555 -0.00585938)"/>
</clipPath>
</defs>
</svg>
