<svg width="36" height="35" viewBox="0 0 36 35" fill="" xmlns="http://www.w3.org/2000/svg">
<path opacity="" fill-rule="evenodd" clip-rule="evenodd" d="M26.5064 0.829604C25.5258 1.28768 25.1648 2.45001 25.734 3.31687C25.8929 3.55882 25.8929 3.55882 25.0506 4.55745C23.6899 6.17075 21.9371 8.07071 21.8096 8.07071C21.7854 8.07071 21.7451 7.93338 21.7199 7.7656C21.6269 7.14457 21.4898 6.81887 21.2179 6.57296C20.7998 6.19482 19.8589 5.9978 18.4537 5.99425C17.0379 5.99063 15.8428 6.26697 14.6169 6.88136C13.4696 7.45639 12.3053 8.39407 12.3053 8.74304C12.3053 9.02268 12.3676 9.13775 12.5776 9.24652C12.827 9.37561 13.0262 9.29788 13.4696 8.89855C14.4216 8.04114 15.7519 7.39664 17.1313 7.12452C18.055 6.94232 20.1981 7.07295 20.508 7.33039C20.5533 7.36807 20.6441 7.68479 20.7098 8.03423C20.8814 8.94677 20.8281 10.3999 20.5896 11.3081C20.2716 12.5193 19.5566 13.798 18.7526 14.5931C18.3619 14.9796 18.3619 14.9796 16.091 14.9619C13.82 14.9442 13.82 14.9442 15.6774 13.2007C16.7597 12.1846 17.5517 11.3903 17.5756 11.2969C17.6726 10.917 17.3117 10.5456 16.9611 10.6644C16.8717 10.6947 15.9157 11.5484 14.8367 12.5614C12.8749 14.4033 12.8749 14.4033 12.7962 13.6873C12.6102 11.9938 12.038 10.5813 10.9934 9.23666C9.83228 7.74213 8.24732 6.72291 6.29178 6.21333C5.62768 6.04032 5.4767 6.0261 4.30048 6.02576C2.42842 6.0253 1.59457 6.24746 1.27491 6.83214C0.905082 7.50843 0.739291 9.50409 0.948757 10.758C1.19413 12.2269 1.78166 13.5599 2.72376 14.7847C2.859 14.9606 2.859 14.9606 2.54142 15.0034C1.93922 15.0845 1.36534 15.518 1.03215 16.1435C0.818066 16.5454 0.820076 17.5042 1.03577 17.9097C1.26587 18.3421 1.54949 18.6296 1.95529 18.8418C2.32405 19.0348 2.32405 19.0348 2.32425 19.8156C2.32466 21.9426 2.7326 23.7831 3.59291 25.5395C4.67105 27.7407 6.32662 29.5179 8.48418 30.79C9.20703 31.2162 10.6074 31.807 11.2943 31.9755C11.7532 32.0881 11.7532 32.0881 11.7823 32.6434C11.8052 33.0796 11.8527 33.2832 12.0041 33.5928C12.2505 34.0971 12.7015 34.5474 13.2105 34.7975C13.6116 34.9947 13.6116 34.9947 17.9992 34.9947C22.3868 34.9947 22.3868 34.9947 22.7878 34.7975C23.6483 34.3747 24.166 33.5975 24.2154 32.6549C24.244 32.1111 24.244 32.1111 24.789 31.9572C26.0651 31.5968 27.4682 30.9135 28.5786 30.1116C29.629 29.3531 31.1285 27.8081 31.1285 27.4844C31.1285 27.2349 30.8528 26.9589 30.6035 26.9589C30.4205 26.9589 30.2877 27.0687 29.6117 27.7787C28.1758 29.2874 26.7773 30.2008 24.9838 30.8014C23.3133 31.3608 22.4486 31.4273 17.3546 31.3876C14.0055 31.3615 13.2497 31.3382 12.7743 31.2463C10.3304 30.774 8.51252 29.8508 6.82078 28.2227C5.792 27.2326 5.08851 26.2565 4.47291 24.965C3.75213 23.4529 3.46516 22.1965 3.41338 20.3257C3.37862 19.0683 3.37862 19.0683 17.9904 19.0683C32.6022 19.0683 32.6022 19.0683 32.6009 20.0239C32.5986 21.6546 32.332 23.0788 31.7886 24.3616C31.2659 25.5957 31.2796 25.5411 31.4383 25.7546C31.803 26.2449 32.1597 26.0913 32.5362 25.2816C33.2938 23.6529 33.6737 21.8262 33.6741 19.811C33.6743 19.0348 33.6743 19.0348 34.0431 18.8418C34.4489 18.6296 34.7325 18.3421 34.9626 17.9097C35.0865 17.6767 35.1133 17.5196 35.1137 17.023C35.1141 16.4798 35.0945 16.3839 34.9168 16.0628C34.6965 15.6646 34.4119 15.3881 33.9903 15.1626C33.7101 15.0127 33.6753 15.0109 30.3389 14.9777C26.9704 14.9442 26.9704 14.9442 27.6662 14.1959C28.6137 13.1769 29.9368 11.9517 31.6929 10.4674C32.2908 9.96203 32.2908 9.96203 32.5325 10.1222C32.9998 10.4317 33.8276 10.4484 34.2967 10.1578C35.0268 9.70547 35.3167 8.87468 35.0386 8.03236C34.94 7.73415 34.602 7.37391 31.572 4.33891C29.7254 2.48923 28.1091 0.922748 27.9801 0.857768C27.6107 0.671748 26.8746 0.657666 26.5064 0.829604ZM27.4688 1.80101C27.75 1.93453 33.9819 8.18532 34.0706 8.42277C34.2339 8.85952 33.8906 9.34483 33.4184 9.34483C33.1839 9.34483 33.0259 9.1975 29.8397 6.00793C26.6732 2.83794 26.5064 2.65889 26.5064 2.42935C26.5064 2.06985 26.8244 1.72048 27.1662 1.70438C27.2159 1.7021 27.3521 1.74556 27.4688 1.80101ZM29.1192 6.76515C31.5639 9.21487 31.5639 9.21487 31.263 9.46426C29.1421 11.2221 27.2043 13.0761 26.0691 14.4338C25.6143 14.9777 25.6143 14.9777 22.7364 14.9777C19.938 14.9777 19.861 14.9743 19.9504 14.8525C20.6977 13.8337 21.0779 13.1421 21.4117 12.1949C21.6363 11.5576 21.8841 10.2812 21.8849 9.7573C21.8853 9.44843 21.8919 9.43924 22.5676 8.80836C23.3069 8.11812 24.6143 6.68944 25.8366 5.23622C26.2603 4.73248 26.6221 4.31926 26.6407 4.31792C26.6594 4.31651 27.7747 5.41781 29.1192 6.76515ZM5.17131 7.07215C7.32585 7.33642 9.32513 8.55957 10.5223 10.3458C11.2943 11.4977 11.6939 12.7253 11.7518 14.1227C11.7872 14.9777 11.7872 14.9777 11.1244 14.9777C10.4617 14.9777 10.4617 14.9777 8.28543 12.9283C7.08845 11.8011 6.01868 10.8205 5.90815 10.7492C5.65193 10.5838 5.53323 10.5855 5.31432 10.7579C5.17841 10.8649 5.13781 10.9561 5.13781 11.1543C5.13781 11.4047 5.18832 11.459 7.02113 13.1779C8.90445 14.9442 8.90445 14.9442 6.60247 14.9638C4.30048 14.9834 4.30048 14.9834 3.91283 14.5614C2.45535 12.9749 1.6988 10.7531 1.91966 8.70817C1.98202 8.13033 2.13582 7.36539 2.20314 7.298C2.22846 7.27265 3.21142 7.07899 3.49665 7.04311C3.92288 6.9896 4.59301 7.0012 5.17131 7.07215ZM33.5219 16.1153C33.8271 16.254 34.0494 16.5492 34.1166 16.9051C34.1821 17.2526 33.9129 17.7246 33.5425 17.9115C33.2437 18.0624 33.2437 18.0624 18.0017 18.061C3.1165 18.0595 2.75317 18.0565 2.47651 17.9307C2.17126 17.792 1.949 17.4969 1.88181 17.1409C1.81623 16.7935 2.08545 16.3215 2.45581 16.1345C2.75471 15.9836 2.75471 15.9836 17.9966 15.9851C32.8819 15.9865 33.2452 15.9896 33.5219 16.1153ZM5.22804 20.9166C5.06989 21.0749 5.06011 21.1184 5.10331 21.4698C5.1291 21.6796 5.23561 22.184 5.33998 22.5908C6.02297 25.2526 7.83984 27.4913 10.3343 28.7447C11.4665 29.3136 13.1215 29.7306 14.2472 29.7306C14.891 29.7306 15.0786 29.6171 15.0786 29.2277C15.0786 28.8328 14.9382 28.764 13.9386 28.6695C12.6732 28.55 11.8155 28.3103 10.7647 27.7826C9.12644 26.9601 7.75939 25.5955 6.95019 23.975C6.6511 23.3762 6.30277 22.2923 6.18146 21.583C6.10402 21.1306 6.04246 20.9501 5.93548 20.8621C5.72743 20.691 5.43054 20.7139 5.22804 20.9166ZM17.6308 32.3988C20.1729 32.4101 22.4745 32.3928 22.7456 32.3604C23.2384 32.3014 23.2384 32.3014 23.1948 32.6422C23.1354 33.1072 22.8575 33.5381 22.4573 33.7859C22.1294 33.9888 22.1294 33.9888 17.9992 33.9888C13.869 33.9888 13.869 33.9888 13.5411 33.7859C13.133 33.5333 12.8631 33.1083 12.8006 32.6198C12.7569 32.2789 12.7619 32.2605 12.8814 32.3175C12.9522 32.3513 15.0579 32.3873 17.6308 32.3988Z" fill=""/>
<defs>
<linearGradient id="paint0_linear_2122_14536" x1="0.856934" y1="17.8518" x2="35.1426" y2="17.8518" gradientUnits="userSpaceOnUse">
<stop stop-color="#EBDCCB"/>
<stop offset="1" stop-color="#F2CA9C"/>
</linearGradient>
</defs>
</svg>
