<svg width="44" height="44" viewBox="0 0 44 44" fill="" xmlns="http://www.w3.org/2000/svg">
<g opacity="" clip-path="url(#clip0_2122_14522)">
<path d="M10.976 8.07098C11.6663 8.07098 12.2274 7.41132 12.2274 6.60092C12.2274 5.79052 11.6663 5.13086 10.976 5.13086C10.2858 5.13086 9.72461 5.79052 9.72461 6.60092C9.72461 7.41132 10.2858 8.07098 10.976 8.07098ZM10.976 5.55397C11.4327 5.55397 11.8043 6.02334 11.8043 6.60017C11.8043 7.17701 11.4327 7.64713 10.976 7.64713C10.5193 7.64713 10.1477 7.17775 10.1477 6.60017C10.1477 6.0226 10.5186 5.55397 10.976 5.55397Z" fill=""/>
<path d="M43.0605 28.5407L42.7971 27.9489C42.5807 27.4661 42.365 26.9826 42.1598 26.4938C41.6987 25.3961 40.836 24.6499 39.5958 24.2753C38.6877 24.0007 37.7414 23.9156 36.7415 24.0104L37.8228 15.3833L37.8258 15.337C37.8258 15.2885 37.825 15.2385 37.8161 15.1878C37.8086 15.199 37.7996 15.2094 37.7922 15.2206C37.8011 15.1617 37.8258 15.1049 37.8258 15.0445C37.8258 12.4432 29.2166 11.0395 21.1163 11.0395C18.562 11.0395 16.0263 11.1731 13.7518 11.4268L13.7496 10.4664C13.7608 10.4097 13.8048 10.2575 13.8653 10.044C14.1138 9.17246 14.5757 7.54867 14.5436 6.70544C14.5436 4.81675 13.0071 3.28027 11.1184 3.28027C9.22972 3.28027 7.69325 4.81675 7.69325 6.71365C7.70668 7.32555 8.04397 8.59339 8.38873 9.83883C8.47529 10.1545 8.54171 10.3866 8.55141 10.4179V11.8835C8.55141 11.9671 8.54693 12.0342 8.5432 12.1021C8.53872 12.1745 8.53424 12.2484 8.53275 12.3402C5.7568 13.0513 4.40688 13.9371 4.40688 15.0437C4.40688 15.0982 4.41583 15.1512 4.4233 15.2042C4.41136 15.2639 4.40912 15.3236 4.40986 15.3818L6.45974 31.7211C6.42915 31.7151 6.40004 31.7077 6.36945 31.7017C3.55618 31.2181 0.969026 32.6039 0.860078 32.6628L0.571289 32.8195L0.786202 33.068C0.865301 33.1598 2.76146 35.3194 5.57696 35.8037C5.9941 35.8753 6.40527 35.9059 6.80524 35.9059C8.31709 35.9059 9.64089 35.4701 10.4043 35.1552C9.77074 35.5328 8.86855 36.2052 8.35963 37.1969C7.53281 38.8095 8.08651 40.5952 8.11039 40.6706L8.1977 40.9429L8.46186 40.8347C8.54021 40.8026 10.3931 40.0296 11.2147 38.4259C11.5094 37.8506 11.6244 37.2566 11.655 36.723C13.7936 37.426 16.8121 37.9297 21.1141 37.9297C25.3743 37.9297 28.736 37.4536 31.206 36.5387C31.9552 37.0775 32.8828 37.4752 34.0282 37.7357C34.6013 37.8648 35.17 37.9297 35.7348 37.9297C36.6632 37.9297 37.5773 37.7551 38.4683 37.4058C40.207 36.7245 41.5681 35.4918 42.515 33.7419C43.0904 32.6778 43.3971 31.5786 43.4262 30.4742C43.4471 29.7832 43.3224 29.1317 43.0605 28.5407ZM36.634 18.8756C36.2162 19.43 35.1326 19.9755 33.4872 20.4419L33.5902 18.345C33.5962 18.2279 33.5059 18.1286 33.3887 18.1234C33.2731 18.1182 33.1731 18.207 33.1671 18.3241L33.0574 20.5561C32.1567 20.7912 31.118 21.0038 29.9427 21.1837L29.9882 19.389C29.9912 19.2719 29.8994 19.1748 29.7822 19.1719C29.6419 19.1636 29.5688 19.2614 29.5658 19.3778L29.5188 21.2434C28.4017 21.4023 27.1757 21.5314 25.8548 21.6247L25.8653 20.2278C25.866 20.1114 25.772 20.0158 25.6556 20.0143C25.6549 20.0143 25.6549 20.0143 25.6541 20.0143C25.5384 20.0143 25.4437 20.1084 25.4429 20.2248L25.4347 21.3568C24.9556 20.568 24.4781 19.7785 24.0005 18.989C29.2509 18.7734 34.2573 17.9809 36.537 16.6623C36.5438 16.6631 36.5475 16.6698 36.5542 16.6698C36.64 16.6698 36.699 16.6116 36.7325 16.5384C36.8079 16.4899 36.8773 16.4414 36.9452 16.3914L36.634 18.8756ZM33.3089 24.0581L33.4656 20.8718C34.8289 20.4972 35.8998 20.0494 36.5512 19.5353L36.152 22.7276C35.652 23.1992 34.6789 23.6574 33.3089 24.0581ZM36.0781 23.3164L35.9781 24.1134C35.5162 24.1977 35.0431 24.3163 34.5551 24.4745C34.1036 24.6208 33.6768 24.7961 33.2634 24.9857L33.2872 24.4939C34.479 24.1574 35.4379 23.7634 36.0781 23.3164ZM29.8509 24.8021L29.9322 21.5941C31.0605 21.424 32.106 21.2202 33.0358 20.9852L32.879 24.1768C32.006 24.4111 30.9911 24.6223 29.8509 24.8021ZM32.8582 24.6118L32.8291 25.2066C31.644 25.8132 30.6187 26.5975 29.7815 27.5669L29.8412 25.2178C30.9366 25.0476 31.956 24.8461 32.8582 24.6118ZM27.695 25.0864L27.5779 24.8939C27.0003 23.9455 26.4287 22.9933 25.8519 22.0441V22.0396C27.1227 21.9471 28.3532 21.8187 29.5084 21.656L29.427 24.8685C28.8771 24.9491 28.2972 25.0215 27.695 25.0864ZM29.4158 25.2834L29.3517 27.8109L27.9293 25.4722C28.436 25.4155 28.9345 25.3536 29.4158 25.2834ZM23.558 18.257C23.149 17.5794 22.7349 16.9056 22.3274 16.2265C21.8028 15.3504 21.1783 14.555 20.4641 13.8125C20.6671 13.8102 20.8686 13.8073 21.0798 13.8073C29.1703 13.8073 35.0394 14.937 36.14 16.0765C34.2588 17.1265 29.6621 18.0563 23.558 18.257ZM9.00138 12.9939L9.30211 12.9207L9.28569 12.6118C9.27375 12.3879 9.28121 12.2656 9.28868 12.1477C9.2939 12.0656 9.29838 11.9857 9.29838 11.8842V10.4187C9.29838 10.3343 9.28271 10.2687 9.10884 9.64034C8.879 8.81128 8.45216 7.26735 8.44022 6.70619C8.44022 5.22941 9.64164 4.02724 11.1192 4.02724C12.5967 4.02724 13.7981 5.22941 13.7981 6.72037C13.8265 7.45913 13.3683 9.06724 13.1481 9.84033C13.0235 10.2784 13.0079 10.3388 13.0079 10.4187V12.2663L13.4257 12.2163C15.7749 11.935 18.4351 11.7857 21.1178 11.7857C30.5247 11.7857 37.081 13.5028 37.081 15.0445C37.081 15.3131 36.8811 15.587 36.502 15.8564C35.0603 14.246 27.8823 13.3841 21.0813 13.3841C20.7425 13.3841 20.3992 13.3871 20.0559 13.3909C19.7821 13.1289 19.497 12.873 19.1948 12.6252C18.7351 12.2103 18.2516 12.0193 17.6822 12.0745C16.7569 12.2603 16.2465 12.7372 16.1024 13.5125C10.9662 13.7811 6.35303 14.505 5.81799 15.9131C5.38593 15.6258 5.15609 15.3325 5.15609 15.0452C5.15385 14.7833 5.43144 13.8625 9.00138 12.9939ZM17.2457 15.2348C18.365 15.8825 19.262 16.8302 20.1455 18.2898C13.4242 18.2025 8.29321 17.2406 6.19632 16.1317C6.33661 15.2116 9.78342 14.2639 16.1301 13.9341C16.3054 14.4692 16.6666 14.8997 17.2457 15.2348ZM5.68889 19.6024C6.46646 20.177 7.76862 20.6673 9.41852 21.0628L9.58642 24.3715C7.61713 23.8992 6.35079 23.2933 6.06573 22.606L5.68889 19.6024ZM6.16797 23.4216C6.83882 23.9947 8.04771 24.4603 9.60955 24.8245L10.0461 33.4106C9.36479 32.8778 8.40067 32.2688 7.23432 31.9121L6.16797 23.4216ZM9.84685 21.1605C10.7946 21.371 11.84 21.5516 12.9541 21.7016L13.0399 24.973C11.9184 24.8335 10.9035 24.6648 10.0148 24.4693L9.84685 21.1605ZM6.28065 32.2241C6.57615 32.2748 6.85748 32.3502 7.1306 32.4367L8.12979 33.9449L6.47168 33.6613L5.46353 32.139C5.73217 32.1509 6.00529 32.1763 6.28065 32.2241ZM5.05759 32.1405L6.01275 33.5829L4.59344 33.3404L3.86736 32.2435C4.24495 32.1815 4.64418 32.1465 5.05759 32.1405ZM3.50469 32.3099L4.13525 33.2621L1.72346 32.8501C2.14881 32.6755 2.77041 32.4606 3.50469 32.3099ZM5.668 35.2836C3.80766 34.9634 2.34954 33.8262 1.64734 33.1807L10.2431 34.6493C9.34614 35.0194 7.54251 35.6052 5.668 35.2836ZM8.57678 34.021C8.57379 34.0142 8.57678 34.0075 8.57305 34.0008L7.6634 32.6278C8.84691 33.1098 9.76775 33.8374 10.2871 34.3127L8.57678 34.021ZM10.6587 38.0722C10.1058 39.1513 8.97899 39.8296 8.45514 40.099C8.34545 39.5609 8.20143 38.3834 8.74468 37.3245C9.29763 36.2462 10.4244 35.5679 10.9483 35.2978C11.058 35.8358 11.2012 37.0133 10.6587 38.0722ZM11.6445 35.9432C11.593 35.3836 11.4774 34.9888 11.4662 34.9545L11.3788 34.6821L11.3744 34.6836L11.161 34.4374C11.1341 34.406 10.8953 34.1366 10.4879 33.7777L10.0379 24.92C10.9483 25.114 11.9639 25.2767 13.0519 25.4088L13.3407 36.4305C12.7116 36.2828 12.1497 36.1186 11.6445 35.9432ZM13.3787 21.756C14.5451 21.9023 15.7756 22.015 17.0397 22.0918L17.0636 25.3185C15.7801 25.2513 14.5742 25.1521 13.4645 25.0245L13.3787 21.756ZM13.7339 36.5193C13.7444 36.4932 13.7645 36.4716 13.7638 36.4417L13.4757 25.4595C14.6122 25.5871 15.8219 25.6819 17.0666 25.7461L17.1494 37.0163C15.848 36.9006 14.7145 36.7305 13.7339 36.5193ZM21.2395 37.1842C21.1969 37.1842 21.1596 37.1864 21.1163 37.1864C19.8119 37.1857 18.6426 37.1357 17.5725 37.0529L17.4897 25.7677C18.6702 25.8215 19.8791 25.8483 21.0857 25.8483C21.1805 25.8483 21.2753 25.8438 21.3693 25.8438L21.2395 37.1842ZM21.3745 25.4192C21.2768 25.42 21.185 25.4237 21.0857 25.4237C19.8343 25.4237 18.6351 25.3924 17.4867 25.3394L17.4621 22.1172C18.6523 22.1814 19.8657 22.2157 21.073 22.2157C21.1857 22.2157 21.2984 22.2105 21.4111 22.2097L21.3745 25.4192ZM21.4305 20.4479L21.4148 21.7889C21.2991 21.7896 21.1895 21.7933 21.0723 21.7933C19.8067 21.7933 18.6045 21.7583 17.4583 21.6993L17.4509 20.6934C17.4501 20.577 17.3554 20.483 17.2397 20.483C17.2389 20.483 17.2389 20.483 17.2382 20.483C17.1218 20.4837 17.0278 20.5792 17.0285 20.6964L17.036 21.6747C15.7234 21.5978 14.4943 21.4881 13.3675 21.3464L13.3272 19.8136C13.3243 19.6987 13.2302 19.6077 13.1161 19.6077C13.1146 19.6077 13.1123 19.6077 13.1101 19.6077C12.9937 19.6106 12.9019 19.7076 12.9049 19.8248L12.9429 21.2896C11.7885 21.1337 10.7431 20.9479 9.82446 20.7389L9.72522 18.7935C9.7185 18.6764 9.61104 18.5913 9.50284 18.5928C9.38643 18.5988 9.29688 18.698 9.30211 18.8144L9.39464 20.6359C7.47087 20.1614 6.16125 19.5868 5.61054 18.995L5.28518 16.4011C7.6134 18.0846 14.2048 18.9995 20.6014 19.0457C20.8775 19.5092 21.1581 19.9688 21.4357 20.4315C21.4365 20.4375 21.4305 20.4412 21.4305 20.4479ZM25.3429 36.9977C24.2467 37.1006 23.0244 37.1633 21.6626 37.1767L21.7924 25.8364C22.7461 25.8259 23.6968 25.7953 24.6355 25.7431C24.6713 25.8021 24.7064 25.8618 24.743 25.9215C24.9601 26.2804 25.1758 26.6401 25.3937 26.999L25.3205 36.9402C25.3191 36.9618 25.3362 36.9768 25.3429 36.9977ZM22.4976 22.1926C23.1296 23.2403 23.7572 24.291 24.3908 25.3379C23.5587 25.3789 22.6923 25.4043 21.7969 25.414L21.8334 22.2038C22.0551 22.2008 22.276 22.1978 22.4976 22.1926ZM21.8379 21.7829L21.8454 21.1098C21.979 21.3322 22.1133 21.5553 22.2476 21.7777C22.1125 21.7799 21.9752 21.7814 21.8379 21.7829ZM29.1338 36.3947C28.1681 36.629 27.0473 36.8253 25.7332 36.9633C25.734 36.9559 25.7414 36.9506 25.7414 36.9432L25.8093 27.6908C26.6503 29.0802 27.4928 30.4689 28.3271 31.8621C28.6897 32.4673 28.9629 33.1374 29.2009 33.7561L29.1338 36.3947ZM29.5598 36.2873L29.6009 34.6791C29.8554 35.1739 30.1725 35.6089 30.5516 35.9895C30.2426 36.0925 29.9136 36.1925 29.5598 36.2873ZM42.6844 30.457C42.6568 31.4562 42.3882 32.4151 41.8621 33.3889C41.0017 34.9791 39.7689 36.0977 38.1989 36.7133C36.9079 37.2185 35.5602 37.3185 34.1961 37.0096C31.9821 36.5081 30.6523 35.4783 30.0098 33.7687C29.7404 33.0524 29.4151 32.2256 28.9681 31.4786C27.7794 29.4929 26.5802 27.5139 25.381 25.5342C23.8639 23.0313 22.3476 20.5285 20.8522 18.0115C19.8791 16.375 18.8829 15.3191 17.6203 14.5886C17.1882 14.3386 16.9322 14.0446 16.8196 13.6692C16.8994 13.1842 17.1949 12.9327 17.818 12.8096C18.0971 12.7887 18.3948 12.9088 18.7075 13.1901C19.9425 14.2042 20.9178 15.3228 21.6887 16.6101C23.4244 19.5099 25.1832 22.3963 26.9406 25.2834L28.9405 28.5698C28.9778 28.6295 29.0166 28.6877 29.0569 28.7474L29.4054 29.2757L29.9136 28.5989C30.0322 28.437 30.1464 28.281 30.2703 28.134C31.4262 26.7617 32.9037 25.7968 34.7871 25.1849C36.4848 24.6327 37.9862 24.5685 39.3816 24.9894C40.4129 25.3006 41.0972 25.8879 41.4733 26.7826C41.6808 27.2758 41.8987 27.7639 42.1173 28.2527L42.38 28.8429C42.6001 29.3399 42.7001 29.8682 42.6844 30.457Z" fill=""/>
<path d="M39.6153 26.236C38.9937 25.9047 38.334 25.8174 37.4042 25.7793H37.3915L37.3796 25.78C34.5171 25.9905 32.2791 27.1785 30.7277 29.3097C30.5024 29.6201 30.3181 30.0275 30.1815 30.5223C29.9539 31.3439 30.2584 32.023 31.0382 32.4356C31.6016 32.7334 32.2321 32.8789 32.9589 32.8789C33.0306 32.8789 33.103 32.8774 33.1768 32.8744C35.3006 32.7945 37.2064 32.0304 38.8414 30.6044C39.7354 29.8246 40.2555 29.0515 40.4771 28.1724C40.6891 27.3322 40.3831 26.6449 39.6153 26.236ZM40.0682 28.0695C39.8682 28.8612 39.3906 29.5649 38.5638 30.2857C37.0042 31.6461 35.1864 32.3752 33.1619 32.4513C32.4217 32.4819 31.7881 32.3528 31.2374 32.061C30.6337 31.7416 30.4158 31.2618 30.5904 30.6342C30.7136 30.1887 30.8755 29.8268 31.0717 29.5582C32.5448 27.5344 34.673 26.4054 37.3997 26.2017C38.2616 26.2382 38.869 26.3173 39.4168 26.6091C40.013 26.9262 40.2316 27.418 40.0682 28.0695Z" fill=""/>
</g>
<defs>
<linearGradient id="paint0_linear_2122_14522" x1="9.72461" y1="6.60092" x2="12.2274" y2="6.60092" gradientUnits="userSpaceOnUse">
<stop stop-color="#EBDCCB"/>
<stop offset="1" stop-color="#F2CA9C"/>
</linearGradient>
<linearGradient id="paint1_linear_2122_14522" x1="0.571289" y1="22.1116" x2="43.4284" y2="22.1116" gradientUnits="userSpaceOnUse">
<stop stop-color="#EBDCCB"/>
<stop offset="1" stop-color="#F2CA9C"/>
</linearGradient>
<linearGradient id="paint2_linear_2122_14522" x1="30.1079" y1="29.3291" x2="40.5427" y2="29.3291" gradientUnits="userSpaceOnUse">
<stop stop-color="#EBDCCB"/>
<stop offset="1" stop-color="#F2CA9C"/>
</linearGradient>
<clipPath id="clip0_2122_14522">
<rect width="42.8571" height="42.8571" fill="white" transform="translate(0.571289 0.422852)"/>
</clipPath>
</defs>
</svg>
