<svg width="33" height="29" viewBox="0 0 33 29" fill="" xmlns="http://www.w3.org/2000/svg">
<g opacity="">
<path d="M32.2865 21.04C32.2865 20.2575 31.422 19.637 30.1891 19.4673C30.6626 18.2967 30.5662 17.2235 29.8997 16.8319C29.2498 16.4498 28.2593 16.898 27.5077 17.885C26.7561 16.898 25.7656 16.4498 25.1156 16.8319C24.9923 16.9041 24.8949 17.0068 24.8115 17.1226C23.9783 16.556 22.9791 16.0538 21.8443 15.6439C23.695 14.6491 24.8246 13.2922 24.8246 11.7726C24.8246 9.92665 23.1598 8.27823 20.3368 7.24514C21.4689 6.51754 22.1415 5.58367 22.1415 4.55233C22.1415 2.17718 18.5834 0.316406 14.04 0.316406C9.49745 0.316406 5.93936 2.17718 5.93936 4.55146C5.93936 5.5828 6.61188 6.51667 7.74404 7.24427C4.92016 8.27736 3.25538 9.92578 3.25538 11.7718C3.25538 13.2905 4.38232 14.6456 6.23044 15.6395C2.66888 16.9198 0.572266 18.9799 0.572266 21.2715C0.572266 25.1384 6.4885 28.1671 14.04 28.1671C18.5026 28.1671 22.5828 27.0679 25.0887 25.2254C25.0983 25.2315 25.1061 25.2411 25.1156 25.2472C25.7647 25.631 26.7561 25.181 27.5077 24.1941C28.0725 24.9364 28.7589 25.3908 29.3584 25.3908C29.5565 25.3908 29.739 25.342 29.8997 25.2472C30.5662 24.8555 30.6626 23.7815 30.1891 22.6118C31.422 22.4429 32.2865 21.8224 32.2865 21.04ZM6.80825 4.55146C6.80825 2.72811 10.1196 1.18674 14.04 1.18674C17.9604 1.18674 21.2726 2.72811 21.2726 4.55146C21.2726 6.37481 17.9604 7.91617 14.04 7.91617C10.1196 7.91617 6.80825 6.37568 6.80825 4.55146ZM4.12427 11.7718C4.12427 10.1843 5.91677 8.67424 8.80321 7.80477C10.2065 8.41923 12.025 8.78651 14.04 8.78651C16.0549 8.78651 17.8744 8.41923 19.2767 7.80477C22.1632 8.67424 23.9557 10.1843 23.9557 11.7718C23.9557 14.3166 19.414 16.4672 14.04 16.4672C8.66592 16.4672 4.12427 14.3166 4.12427 11.7718ZM1.44115 21.2715C1.44115 19.2279 3.71502 17.2836 7.38171 16.1739C9.20463 16.9033 11.5037 17.3376 14.04 17.3376C16.5745 17.3376 18.8718 16.9041 20.6939 16.1757C22.2188 16.6378 23.536 17.261 24.5404 17.9868C24.5196 18.4246 24.6108 18.9337 24.8263 19.4673C23.5934 19.6361 22.7288 20.2567 22.7288 21.04C22.7288 21.8233 23.5934 22.4429 24.8263 22.6127C24.5378 23.3255 24.464 23.9991 24.5987 24.5082C22.2683 26.2298 18.2749 27.2968 14.04 27.2968C7.21141 27.2968 1.44115 24.5378 1.44115 21.2715ZM29.5174 21.7876C29.3636 21.7884 29.2211 21.8703 29.1438 22.0034C29.0656 22.1366 29.0647 22.3019 29.1403 22.436C29.7555 23.53 29.6729 24.3716 29.4592 24.4978C29.2029 24.6449 28.4165 24.1218 27.8839 23.1906C27.8066 23.0548 27.6632 22.9712 27.5068 22.9712C27.3504 22.9712 27.2071 23.0548 27.1297 23.1906C26.5971 24.1218 25.8429 24.6405 25.5892 24.4978C25.564 24.4821 25.5527 24.4552 25.5527 24.4186V24.4169C25.5527 24.1549 25.372 23.3925 25.9098 22.436C25.9854 22.3019 25.9671 22.1366 25.889 22.0034C25.8116 21.8703 25.6604 21.7884 25.5066 21.7876C24.3649 21.7841 23.602 21.3341 23.602 21.04C23.602 20.7458 24.358 20.2958 25.4997 20.2923C25.6535 20.2915 25.7951 20.2097 25.8716 20.0765C25.9498 19.9433 25.9498 19.778 25.8742 19.6439C25.4441 18.8798 25.3581 18.2453 25.4163 17.885C25.418 17.8798 25.4171 17.8754 25.418 17.8702C25.4441 17.7231 25.4919 17.6187 25.5544 17.5821C25.8116 17.4376 26.598 17.9581 27.1297 18.8894C27.2844 19.1609 27.7284 19.1609 27.883 18.8894C28.4148 17.9572 29.1994 17.4333 29.4583 17.5821C29.6721 17.7092 29.7546 18.5499 29.1394 19.6439C29.0639 19.778 29.0647 19.9433 29.1429 20.0765C29.2203 20.2097 29.3628 20.2915 29.5165 20.2923C30.6583 20.2958 31.4168 20.7458 31.4168 21.04C31.4168 21.3341 30.66 21.7841 29.5174 21.7876Z" fill=""/>
<path d="M11.9214 2.32558C9.53718 2.59538 8.23994 4.00184 8.18607 4.06103C8.02445 4.23945 8.03836 4.51447 8.21561 4.67548C8.29902 4.7512 8.40329 4.78863 8.50756 4.78863C8.62572 4.78863 8.74302 4.73989 8.82904 4.64589C8.84034 4.63284 9.95685 3.42394 12.0178 3.19069C12.2559 3.16371 12.428 2.94874 12.401 2.7094C12.375 2.47005 12.143 2.30121 11.9214 2.32558Z" fill=""/>
<path d="M10.2085 9.28945C7.82429 9.55925 6.52705 10.9657 6.47318 11.0249C6.31156 11.2033 6.32547 11.4783 6.50272 11.6394C6.58613 11.7151 6.6904 11.7525 6.79466 11.7525C6.91283 11.7525 7.03013 11.7038 7.11615 11.6098C7.12745 11.5967 8.24396 10.3878 10.305 10.1546C10.543 10.1276 10.7151 9.91261 10.6881 9.67326C10.6612 9.43392 10.4275 9.26508 10.2085 9.28945Z" fill=""/>
<path d="M8.95426 17.8608C5.8897 18.3935 4.32224 20.3091 4.25707 20.39C4.10675 20.5771 4.1363 20.8495 4.32311 21.001C4.40304 21.0654 4.49949 21.0967 4.59507 21.0967C4.72192 21.0967 4.84704 21.0419 4.93306 20.9357C4.94783 20.9174 6.37454 19.1916 9.10371 18.7164C9.33918 18.6754 9.49818 18.45 9.45648 18.2133C9.41651 17.9783 9.19234 17.8129 8.95426 17.8608Z" fill=""/>
</g>
<defs>
<linearGradient id="paint0_linear_2122_14499" x1="0.572266" y1="14.2418" x2="32.2865" y2="14.2418" gradientUnits="userSpaceOnUse">
<stop stop-color="#EBDCCB"/>
<stop offset="1" stop-color="#F2CA9C"/>
</linearGradient>
<linearGradient id="paint1_linear_2122_14499" x1="8.07324" y1="3.55593" x2="12.4038" y2="3.55593" gradientUnits="userSpaceOnUse">
<stop stop-color="#EBDCCB"/>
<stop offset="1" stop-color="#F2CA9C"/>
</linearGradient>
<linearGradient id="paint2_linear_2122_14499" x1="6.36035" y1="10.5198" x2="10.6909" y2="10.5198" gradientUnits="userSpaceOnUse">
<stop stop-color="#EBDCCB"/>
<stop offset="1" stop-color="#F2CA9C"/>
</linearGradient>
<linearGradient id="paint3_linear_2122_14499" x1="4.16113" y1="19.4746" x2="9.46312" y2="19.4746" gradientUnits="userSpaceOnUse">
<stop stop-color="#EBDCCB"/>
<stop offset="1" stop-color="#F2CA9C"/>
</linearGradient>
</defs>
</svg>
