<svg width="57" height="57" viewBox="0 0 57 57" fill="" xmlns="http://www.w3.org/2000/svg">
<g clip-path="url(#clip0_2121_11959)">
<path d="M48.3873 8.46411C43.0752 3.152 36.0125 0.226562 28.5 0.226562C20.9876 0.226562 13.9248 3.152 8.61266 8.46411C3.30055 13.7762 0.375 20.839 0.375 28.3515C0.375 35.8639 3.30055 42.9267 8.61266 48.2388C13.9248 53.5509 20.9876 56.4765 28.5 56.4765C28.8066 56.4765 29.1123 56.4698 29.4175 56.4601V56.4765C30.1795 56.4765 30.9287 56.4157 31.6611 56.2998C37.9777 55.5977 43.8277 52.7985 48.3873 48.2388C53.6995 42.9267 56.625 35.8639 56.625 28.3515C56.625 20.839 53.6995 13.7762 48.3873 8.46411ZM31.4481 54.5925C30.4759 54.6999 29.4924 54.7562 28.5 54.7562C21.4471 54.7563 14.8162 52.0097 9.82918 47.0225C4.84193 42.0353 2.09524 35.4043 2.09524 28.3515C2.09524 21.2986 4.84182 14.6678 9.82907 9.68063C12.7385 6.77123 16.2079 4.62604 19.9936 3.34207C16.6188 6.00043 14.4566 10.1251 14.4566 14.7477C14.4566 22.7547 20.9485 29.2689 28.9398 29.2689H29.3795C36.422 29.2689 42.1707 34.9858 42.1707 42.0125C42.1707 48.3459 37.4934 53.6141 31.4481 54.5925ZM47.1709 47.0226C44.9053 49.2881 42.2997 51.0895 39.4701 52.3828C42.1873 49.7528 43.8911 46.076 43.8911 42.0125C43.8911 34.0371 37.3708 27.5487 29.3795 27.5487H28.9398C21.8971 27.5487 16.177 21.8061 16.177 14.7477C16.177 7.69715 21.8482 1.96119 28.9588 1.96119V1.9524C35.84 2.06897 42.2921 4.80171 47.171 9.68063C52.1582 14.6679 54.9049 21.2987 54.9049 28.3516C54.9049 35.4045 52.1582 42.0353 47.1709 47.0226Z" fill=""/>
<path d="M34.9039 14.9181L33.7538 14.2791L34.9039 13.6402C36.6128 12.6909 37.5267 10.7715 37.1269 8.97248C36.9465 8.16081 36.5392 7.42 35.9492 6.82992C35.359 6.23974 34.6183 5.83258 33.8066 5.65219C32.0074 5.25218 30.0882 6.16624 29.1387 7.87516L28.4999 9.02521L27.861 7.87505C26.9118 6.16635 24.9923 5.25174 23.1934 5.65219C22.3818 5.83258 21.641 6.23985 21.0508 6.82992C20.4608 7.42 20.0535 8.16081 19.8731 8.97248C19.4732 10.7715 20.3873 12.6908 22.0961 13.6402L23.2462 14.2791L22.0961 14.9182C20.3873 15.8674 19.4732 17.7869 19.8731 19.5858C20.0535 20.3975 20.4608 21.1384 21.0508 21.7284C21.6409 22.3184 22.3816 22.7257 23.1933 22.9061C23.4758 22.969 23.7612 22.9994 24.0456 22.9994C25.5713 22.9994 27.0609 22.1236 27.861 20.6832L28.5 19.533L29.1389 20.6831C29.9392 22.1236 31.4287 22.9992 32.9544 22.9992C33.2387 22.9992 33.5242 22.9687 33.8067 22.9059C34.6184 22.7254 35.3592 22.3182 35.9493 21.7282C36.5394 21.1381 36.9465 20.3974 37.127 19.5856C37.5268 17.7868 36.6128 15.8673 34.9039 14.9181ZM30.6427 8.71056C31.2249 7.66269 32.3722 7.09535 33.4335 7.33145C33.9252 7.44076 34.3745 7.68785 34.7328 8.04633C35.0911 8.4047 35.3383 8.85404 35.4477 9.34568C35.6835 10.4066 35.1163 11.5542 34.0685 12.1363L31.0741 13.7999C31.0318 13.5696 30.9575 13.3482 30.8562 13.1392L32.2177 11.7778L31.0014 10.5615L29.6398 11.923C29.4308 11.8216 29.2094 11.7475 28.9791 11.7051L30.6427 8.71056ZM22.9314 12.1364C21.8835 11.5543 21.3165 10.4067 21.5522 9.34568C21.6616 8.85394 21.9086 8.4047 22.2671 8.04633C22.6256 7.68796 23.0747 7.44076 23.5665 7.33145C24.6271 7.09546 25.775 7.66269 26.3572 8.71045L27.516 10.7963L27.058 11.6206L25.9987 10.5613L24.7823 11.7776L25.8416 12.8369L25.0173 13.2948L22.9314 12.1364ZM26.3571 19.8477C25.7751 20.8955 24.6277 21.4628 23.5665 21.2267C23.0747 21.1174 22.6254 20.8703 22.2671 20.5119C21.9088 20.1536 21.6616 19.7043 21.5522 19.2126C21.3164 18.1517 21.8835 17.0041 22.9313 16.422L25.9257 14.7584C25.9681 14.9887 26.0423 15.2101 26.1435 15.4191L24.7821 16.7806L25.9985 17.9971L27.36 16.6357C27.569 16.7371 27.7903 16.8111 28.0206 16.8535L26.3571 19.8477ZM29.1356 14.9147C28.9657 15.0844 28.7402 15.178 28.5 15.178C28.26 15.1781 28.0342 15.0845 27.8643 14.9147C27.6946 14.7449 27.6011 14.5193 27.6011 14.2791C27.6011 14.0389 27.6947 13.8133 27.8644 13.6435C28.0343 13.4738 28.26 13.3803 28.5 13.3803C28.7401 13.3803 28.9658 13.4738 29.1356 13.6435C29.3053 13.8133 29.3989 14.0389 29.3989 14.2791C29.3989 14.519 29.3055 14.7449 29.1356 14.9147ZM35.4475 19.2126C35.3382 19.7044 35.0911 20.1536 34.7327 20.512C34.3744 20.8702 33.9251 21.1175 33.4333 21.2268C32.372 21.4627 31.2247 20.8955 30.6427 19.8478L29.4839 17.7619L29.9418 16.9376L31.0012 17.9969L32.2174 16.7804L31.1581 15.721L31.9825 15.2631L34.0683 16.4219C35.1164 17.0039 35.6835 18.1516 35.4475 19.2126Z" fill=""/>
<path d="M34.904 43.0624L33.7539 42.4234L34.904 41.7846C36.6129 40.8354 37.5269 38.9158 37.127 37.1168C36.9466 36.3051 36.5394 35.5643 35.9493 34.9743C35.3592 34.3842 34.6184 33.977 33.8067 33.7965C32.0075 33.3965 30.0883 34.3107 29.1389 36.0195L28.5 37.1697L27.8609 36.0195C26.9116 34.3108 24.9923 33.3966 23.1932 33.7966C22.3815 33.977 21.6408 34.3844 21.0507 34.9743C20.4605 35.5643 20.0534 36.3051 19.873 37.1168C19.4731 38.9157 20.3871 40.8352 22.096 41.7846L23.2461 42.4236L22.096 43.0626C20.3873 44.0119 19.4731 45.9315 19.8731 47.7303C20.0535 48.5419 20.4608 49.2829 21.0508 49.8728C21.6409 50.463 22.3817 50.8702 23.1933 51.0506C23.4758 51.1134 23.7612 51.1438 24.0456 51.1438C25.5712 51.1438 27.0609 50.268 27.861 48.8277L28.5001 47.6775L29.1392 48.8277C29.9393 50.2681 31.4288 51.1438 32.9545 51.1438C33.2387 51.1438 33.5243 51.1134 33.8067 51.0506C34.6184 50.8702 35.3592 50.4629 35.9494 49.8728C36.5395 49.2827 36.9466 48.542 37.1271 47.7303C37.5268 45.9313 36.6129 44.0117 34.904 43.0624ZM30.6427 36.8549C31.2249 35.8071 32.3724 35.2398 33.4334 35.4758C33.9252 35.5851 34.3745 35.8323 34.7328 36.1907C35.0911 36.549 35.3383 36.9983 35.4476 37.49C35.6835 38.551 35.1163 39.6986 34.0685 40.2807L31.9827 41.4394L31.1584 40.9815L32.2177 39.9222L31.0014 38.7057L29.9421 39.765L29.4842 38.9407L30.6427 36.8549ZM22.9314 40.2808C21.8835 39.6985 21.3165 38.551 21.5522 37.4899C21.6616 36.9982 21.9086 36.5489 22.2671 36.1906C22.6254 35.8323 23.0747 35.585 23.5665 35.4757C24.6274 35.2397 25.775 35.8069 26.3572 36.8547L28.0208 39.8491C27.7905 39.8915 27.5692 39.9657 27.3602 40.067L25.9987 38.7056L24.7823 39.9221L26.1435 41.2836C26.0421 41.4927 25.9681 41.7139 25.9257 41.9443L22.9314 40.2808ZM26.3571 47.9921C25.7751 49.04 24.6274 49.607 23.5664 49.3712C23.0747 49.2619 22.6255 49.0148 22.2671 48.6563C21.9088 48.298 21.6616 47.8487 21.5522 47.357C21.3164 46.296 21.8835 45.1485 22.9313 44.5662L25.0171 43.4075L25.8414 43.8654L24.7821 44.9247L25.9984 46.141L27.0577 45.0817L27.5156 45.906L26.3571 47.9921ZM28.4998 43.3224C28.2597 43.3224 28.0341 43.229 27.8642 43.0591C27.6945 42.8894 27.6009 42.6637 27.6009 42.4235C27.6009 42.1835 27.6945 41.9578 27.8642 41.788C28.034 41.6182 28.2596 41.5246 28.4997 41.5246C28.7399 41.5246 28.9656 41.6182 29.1355 41.788C29.3052 41.9577 29.3987 42.1834 29.3987 42.4235C29.3987 42.6637 29.3053 42.8894 29.1355 43.0591C28.9658 43.2288 28.7399 43.3224 28.4998 43.3224ZM35.4475 47.3568C35.3382 47.8486 35.0911 48.2979 34.7327 48.6562C34.3744 49.0146 33.925 49.2618 33.4333 49.3711C32.372 49.607 31.2247 49.0397 30.6427 47.9921L28.979 44.9976C29.2093 44.9552 29.4307 44.8811 29.6397 44.7798L31.0013 46.1412L32.2176 44.9249L30.8561 43.5635C30.9575 43.3544 31.0316 43.133 31.074 42.9028L34.0684 44.5663C35.1164 45.1484 35.6835 46.2959 35.4475 47.3568Z" fill=""/>
<path d="M22.6883 30.397L22.1218 32.0214C23.0029 32.3288 23.9173 32.563 24.8396 32.7178L25.1242 31.0213C24.2975 30.8825 23.478 30.6725 22.6883 30.397Z" fill=""/>
<path d="M12.649 16.257H10.9288C10.9288 22.53 14.3939 28.2164 19.9719 31.0966L20.7612 29.5681C15.7575 26.9843 12.649 21.8838 12.649 16.257Z" fill=""/>
<path d="M33.9193 24.8645L33.6349 26.561C34.4611 26.6996 35.2808 26.9096 36.0707 27.1852L36.6371 25.5608C35.7556 25.2533 34.8412 25.0191 33.9193 24.8645Z" fill=""/>
<path d="M38.787 26.4855L37.9977 28.014C43.0015 30.5979 46.1099 35.6984 46.1099 41.3251H47.8301C47.8301 35.052 44.365 29.3658 38.787 26.4855Z" fill=""/>
</g>
<defs>
<clipPath id="clip0_2121_11959">
<rect width="56.25" height="56.25" fill="white" transform="translate(0.375 0.226562)"/>
</clipPath>
</defs>
</svg>
