<svg width="16" height="15" viewBox="0 0 16 15" fill="" xmlns="http://www.w3.org/2000/svg">
<path d="M15.7431 1.47007C15.5266 3.94075 14.5897 9.9364 14.113 12.7036C13.9113 13.8745 13.5142 14.2671 13.1298 14.3055C12.2942 14.389 11.6598 13.7059 10.8506 13.1298C9.58424 12.2283 8.86886 11.6672 7.63969 10.7875C6.2192 9.77093 7.14007 9.21218 7.9496 8.29903C8.16145 8.0601 11.8428 4.42368 11.914 4.09381C11.923 4.05256 11.9312 3.89878 11.8471 3.81756C11.7629 3.73634 11.6388 3.76412 11.5492 3.78621C11.4222 3.81753 9.39922 5.26958 5.48036 8.14241C4.90618 8.57059 4.3861 8.77922 3.92008 8.76828C3.40635 8.75622 2.41821 8.45285 1.68357 8.1935C0.782561 7.87541 0.0664289 7.70726 0.128785 7.16707C0.161272 6.8857 0.518029 6.59795 1.19914 6.3038C5.39343 4.31928 8.19028 3.01094 9.58971 2.37882C13.5853 0.573983 14.4156 0.260486 14.9567 0.250111C15.0758 0.24783 15.3419 0.27986 15.5142 0.431766C15.6598 0.560015 15.6998 0.733294 15.719 0.854919C15.7382 0.976543 15.762 1.2536 15.7431 1.47007Z" fill=""/>
</svg>
