<svg width="17" height="17" viewBox="0 0 17 17" fill="" xmlns="http://www.w3.org/2000/svg">
<path d="M12.2471 9.6682C12.2167 9.65359 11.0776 9.09266 10.8752 9.01982C10.7925 8.99014 10.704 8.96117 10.6099 8.96117C10.456 8.96117 10.3268 9.03782 10.2262 9.18839C10.1124 9.35753 9.76794 9.76017 9.6615 9.88045C9.6476 9.89633 9.62863 9.91531 9.61727 9.91531C9.60707 9.91531 9.43078 9.84271 9.37741 9.81953C8.15547 9.28874 7.22797 8.01231 7.10079 7.79706C7.08263 7.76612 7.08187 7.75207 7.08172 7.75207C7.08618 7.73568 7.12727 7.69449 7.14848 7.67323C7.21052 7.61185 7.27774 7.53093 7.34277 7.45266C7.37357 7.41557 7.40441 7.37844 7.4347 7.34343C7.52906 7.23365 7.57106 7.14843 7.61976 7.04971L7.64528 6.99842C7.76419 6.76217 7.66263 6.5628 7.62981 6.49842C7.60287 6.44454 7.12189 5.28373 7.07076 5.16178C6.94779 4.86749 6.7853 4.73047 6.5595 4.73047C6.53855 4.73047 6.5595 4.73047 6.47163 4.73417C6.36464 4.73869 5.78201 4.81539 5.5244 4.97778C5.25122 5.15001 4.78906 5.69901 4.78906 6.66451C4.78906 7.53347 5.3405 8.35393 5.57726 8.66597C5.58314 8.67384 5.59395 8.68982 5.60962 8.71275C6.51633 10.0369 7.64665 11.0182 8.79249 11.476C9.89562 11.9166 10.418 11.9675 10.715 11.9675C10.715 11.9675 10.715 11.9675 10.715 11.9675C10.8398 11.9675 10.9397 11.9578 11.0278 11.9491L11.0837 11.9438C11.4648 11.91 12.3023 11.476 12.4928 10.9467C12.6428 10.5297 12.6824 10.0741 12.5826 9.90881C12.5142 9.79639 12.3963 9.73983 12.2471 9.6682Z" fill=""/>
<path d="M8.63865 0.6875C4.40693 0.6875 0.964171 4.10439 0.964171 8.3043C0.964171 9.6627 1.3277 10.9924 2.01637 12.1561L0.698243 16.0444C0.67369 16.1169 0.691952 16.197 0.745574 16.2516C0.784282 16.2911 0.836787 16.3124 0.890409 16.3124C0.910955 16.3124 0.931653 16.3093 0.951844 16.3029L5.00621 15.0145C6.11568 15.6073 7.36963 15.9202 8.6387 15.9202C12.87 15.9203 16.3124 12.5038 16.3124 8.3043C16.3124 4.10439 12.87 0.6875 8.63865 0.6875ZM8.63865 14.3336C7.44451 14.3336 6.28791 13.9888 5.2937 13.3364C5.26026 13.3145 5.22146 13.3032 5.18239 13.3032C5.16175 13.3032 5.14105 13.3064 5.12091 13.3127L3.08992 13.9583L3.74556 12.024C3.76677 11.9614 3.75616 11.8924 3.7171 11.839C2.96 10.8045 2.55979 9.5823 2.55979 8.3043C2.55979 4.97928 5.28675 2.27414 8.6386 2.27414C11.99 2.27414 14.7167 4.97928 14.7167 8.3043C14.7167 11.6289 11.9901 14.3336 8.63865 14.3336Z" fill=""/>
</svg>
