<svg width="141" height="56" viewBox="0 0 141 56" fill="none" xmlns="http://www.w3.org/2000/svg">
<path d="M63.423 25.8369V26.5591H61.9977V30.5633H61.1185V26.5591H59.6938V25.8369H63.423Z" fill="#C7B399"/>
<path d="M77.5743 30.5633H76.8947C76.8181 30.5633 76.7563 30.5441 76.7081 30.5064C76.6606 30.4681 76.6241 30.4205 76.6006 30.3637L76.2479 29.3999H74.29L73.9366 30.3637C73.9193 30.4137 73.8853 30.4601 73.8353 30.5009C73.7852 30.5429 73.7228 30.5633 73.6493 30.5633H72.9629L74.8225 25.8369H75.7178L77.5743 30.5633ZM74.5155 28.779H76.0217L75.4465 27.2066C75.4181 27.1368 75.3891 27.0546 75.3588 26.9595C75.3279 26.865 75.297 26.7624 75.2674 26.6512C75.2365 26.7624 75.2062 26.8662 75.1772 26.9614C75.1475 27.0571 75.1185 27.1411 75.0907 27.2134L74.5155 28.779Z" fill="#C7B399"/>
<path d="M80.2882 25.8359H81.1704V30.5623H80.2882V25.8359Z" fill="#C7B399"/>
<path d="M51.2803 36.6639C51.3124 36.7392 51.3433 36.8152 51.3736 36.8912C51.4039 36.8103 51.4354 36.7325 51.4681 36.6577C51.5009 36.5823 51.5361 36.5094 51.5725 36.4402L52.9682 33.8219C52.9861 33.7891 53.0046 33.7632 53.0244 33.7434C53.0436 33.7243 53.0646 33.7101 53.0881 33.7008C53.1103 33.6921 53.1362 33.6866 53.1647 33.6847C53.1931 33.6829 53.2264 33.6816 53.266 33.6816H53.9295V38.408H53.1548V35.3553C53.1548 35.2985 53.1566 35.2361 53.1597 35.1687C53.1628 35.1014 53.1678 35.0322 53.1745 34.963L51.7461 37.6431C51.6788 37.771 51.5756 37.8359 51.4354 37.8359H51.3112C51.1716 37.8359 51.0684 37.771 51.001 37.6431L49.5566 34.9531C49.5628 35.0248 49.5683 35.0952 49.5726 35.1638C49.577 35.2324 49.5788 35.296 49.5788 35.3553V38.408H48.8047V33.6816H49.4676C49.5072 33.6816 49.5411 33.6829 49.5696 33.6847C49.5974 33.6866 49.6233 33.6921 49.6462 33.7008C49.669 33.7101 49.6894 33.7243 49.7079 33.7434C49.7265 33.7632 49.745 33.7891 49.7623 33.8219L51.1771 36.447C51.2142 36.5162 51.2488 36.5885 51.2803 36.6639Z" fill="#C7B399"/>
<path d="M61.254 38.4074H60.5744C60.4978 38.4074 60.436 38.3882 60.3878 38.3505C60.3402 38.3122 60.3038 38.2647 60.2803 38.2078L59.9269 37.244H57.969L57.6163 38.2078C57.599 38.2579 57.565 38.3036 57.5149 38.345C57.4649 38.387 57.4025 38.4074 57.329 38.4074H56.6426L58.5022 33.6816H59.3975L61.254 38.4074ZM58.1952 36.6231H59.7014L59.1262 35.0507C59.0978 34.9809 59.0682 34.8988 59.0385 34.8036C59.0076 34.7091 58.9767 34.6059 58.9471 34.4953C58.9162 34.6059 58.8859 34.7097 58.8569 34.8055C58.8272 34.9012 58.7982 34.9852 58.7704 35.0569L58.1952 36.6231Z" fill="#C7B399"/>
<path d="M66.4835 34.5408C66.4575 34.5865 66.4291 34.6199 66.4001 34.6409C66.3704 34.6613 66.334 34.6718 66.2907 34.6718C66.245 34.6718 66.1956 34.6551 66.1418 34.6211C66.0887 34.5871 66.0244 34.5495 65.9509 34.5081C65.8768 34.4667 65.7903 34.4296 65.6908 34.3956C65.5913 34.3616 65.4746 34.345 65.3399 34.345C65.2175 34.345 65.1107 34.3592 65.0192 34.3888C64.9278 34.4185 64.8512 34.4593 64.7888 34.5118C64.727 34.5637 64.68 34.6267 64.6498 34.6996C64.6195 34.7725 64.6041 34.8528 64.6041 34.9399C64.6041 35.0505 64.6356 35.1432 64.6973 35.2173C64.7591 35.2915 64.8419 35.3551 64.9445 35.407C65.0464 35.4595 65.1632 35.5065 65.2935 35.5479C65.4245 35.5893 65.5586 35.6331 65.6957 35.6801C65.8335 35.727 65.9676 35.7814 66.0979 35.8432C66.2289 35.9056 66.3451 35.984 66.4476 36.0786C66.5502 36.1737 66.6324 36.2899 66.6948 36.427C66.7559 36.5642 66.7881 36.731 66.7881 36.9268C66.7881 37.1406 66.751 37.3402 66.6781 37.5268C66.6052 37.7127 66.4983 37.8752 66.358 38.0136C66.2172 38.152 66.0454 38.2607 65.8428 38.3404C65.6401 38.4201 65.4085 38.4597 65.1465 38.4597C64.9964 38.4597 64.8481 38.4448 64.7023 38.4152C64.5565 38.3861 64.4162 38.3441 64.2822 38.2898C64.1481 38.2354 64.0221 38.1699 63.9047 38.0939C63.7867 38.0173 63.6823 37.9327 63.5908 37.8388L63.8491 37.4174C63.8707 37.3865 63.8991 37.3612 63.9343 37.3402C63.9689 37.3198 64.0066 37.3093 64.0455 37.3093C64.0999 37.3093 64.1586 37.3315 64.2216 37.3766C64.2853 37.4211 64.3606 37.4705 64.4471 37.5255C64.5349 37.5793 64.6362 37.6293 64.7529 37.6738C64.8697 37.7183 65.0093 37.7405 65.1731 37.7405C65.4239 37.7405 65.6173 37.6812 65.7544 37.5632C65.8922 37.444 65.9608 37.2734 65.9608 37.051C65.9608 36.9268 65.9299 36.8255 65.8675 36.7471C65.8051 36.6686 65.7229 36.6025 65.6204 36.5494C65.5184 36.4962 65.4017 36.4505 65.2713 36.4134C65.1403 36.377 65.0075 36.3368 64.8722 36.293C64.7369 36.2491 64.6041 36.1972 64.4737 36.136C64.3427 36.0749 64.2259 35.9952 64.124 35.8976C64.0214 35.7993 63.9393 35.6764 63.8769 35.5299C63.8151 35.3823 63.7836 35.2013 63.7836 34.985C63.7836 34.8133 63.8182 34.6458 63.8868 34.4821C63.9553 34.319 64.0548 34.1738 64.1858 34.0472C64.3168 33.9211 64.478 33.8198 64.6695 33.7432C64.8617 33.6672 65.0816 33.6289 65.33 33.6289C65.6086 33.6289 65.8663 33.6728 66.101 33.7599C66.3364 33.847 66.5372 33.9693 66.7022 34.1263L66.4835 34.5408Z" fill="#C7B399"/>
<path d="M72.2911 34.5408C72.2651 34.5865 72.2373 34.6199 72.2077 34.6409C72.178 34.6613 72.1416 34.6718 72.0983 34.6718C72.0526 34.6718 72.0032 34.6551 71.95 34.6211C71.8963 34.5871 71.832 34.5495 71.7585 34.5081C71.6844 34.4667 71.5979 34.4296 71.4984 34.3956C71.3996 34.3616 71.2822 34.345 71.1475 34.345C71.0252 34.345 70.9183 34.3592 70.8268 34.3888C70.7354 34.4185 70.6588 34.4593 70.5964 34.5118C70.5346 34.5637 70.4883 34.6267 70.4574 34.6996C70.4271 34.7725 70.4123 34.8528 70.4123 34.9399C70.4123 35.0505 70.4432 35.1432 70.505 35.2173C70.5674 35.2915 70.6495 35.3551 70.7521 35.407C70.854 35.4595 70.9708 35.5065 71.1018 35.5479C71.2321 35.5893 71.3662 35.6331 71.5034 35.6801C71.6411 35.727 71.7752 35.7814 71.9056 35.8432C72.0365 35.9056 72.1533 35.984 72.2553 36.0786C72.3572 36.1737 72.44 36.2899 72.5024 36.427C72.5642 36.5642 72.5957 36.731 72.5957 36.9268C72.5957 37.1406 72.5586 37.3402 72.4857 37.5268C72.4128 37.7127 72.3059 37.8752 72.1657 38.0136C72.0248 38.152 71.853 38.2607 71.6504 38.3404C71.4484 38.4201 71.2161 38.4597 70.9547 38.4597C70.804 38.4597 70.6557 38.4448 70.5105 38.4152C70.3641 38.3861 70.2238 38.3441 70.0898 38.2898C69.9557 38.2354 69.8297 38.1699 69.7123 38.0939C69.5949 38.0173 69.4905 37.9327 69.3984 37.8388L69.6573 37.4174C69.6783 37.3865 69.7073 37.3612 69.7419 37.3402C69.7765 37.3198 69.8142 37.3093 69.8532 37.3093C69.9075 37.3093 69.9662 37.3315 70.0292 37.3766C70.0929 37.4211 70.1682 37.4705 70.2547 37.5255C70.3425 37.5793 70.4438 37.6293 70.5606 37.6738C70.6773 37.7183 70.817 37.7405 70.9807 37.7405C71.2315 37.7405 71.4249 37.6812 71.5621 37.5632C71.6998 37.444 71.7684 37.2734 71.7684 37.051C71.7684 36.9268 71.7375 36.8255 71.6751 36.7471C71.6127 36.6686 71.5305 36.6025 71.4286 36.5494C71.326 36.4962 71.2093 36.4505 71.0789 36.4134C70.9479 36.377 70.8151 36.3368 70.6798 36.293C70.5445 36.2491 70.4123 36.1972 70.2813 36.136C70.1503 36.0749 70.0336 35.9952 69.9316 35.8976C69.8291 35.7993 69.7469 35.6764 69.6845 35.5299C69.6227 35.3823 69.5912 35.2013 69.5912 34.985C69.5912 34.8133 69.6258 34.6458 69.6944 34.4821C69.763 34.319 69.8624 34.1738 69.9934 34.0472C70.1244 33.9211 70.2856 33.8198 70.4772 33.7432C70.6693 33.6672 70.8892 33.6289 71.1376 33.6289C71.4169 33.6289 71.6739 33.6728 71.9087 33.7599C72.144 33.847 72.3448 33.9693 72.5098 34.1263L72.2911 34.5408Z" fill="#C7B399"/>
<path d="M79.5372 38.4074H78.8576C78.781 38.4074 78.7198 38.3882 78.6716 38.3505C78.6235 38.3122 78.5876 38.2647 78.5635 38.2078L78.2107 37.244H76.2529L75.8995 38.2078C75.8828 38.2579 75.8488 38.3036 75.7988 38.345C75.7481 38.387 75.6857 38.4074 75.6122 38.4074H74.9258L76.7854 33.6816H77.6813L79.5372 38.4074ZM76.4784 36.6231H77.9852L77.41 35.0507C77.3816 34.9809 77.352 34.8988 77.3217 34.8036C77.2908 34.7091 77.2599 34.6059 77.2303 34.4953C77.1994 34.6059 77.1697 34.7097 77.1401 34.8055C77.111 34.9012 77.082 34.9852 77.0536 35.0569L76.4784 36.6231Z" fill="#C7B399"/>
<path d="M85.2395 38.3367C84.9683 38.4189 84.6779 38.459 84.3684 38.459C83.9828 38.459 83.6331 38.3991 83.3211 38.2799C83.0085 38.1594 82.741 37.9932 82.5204 37.7794C82.2993 37.5657 82.1287 37.3111 82.0089 37.0146C81.889 36.718 81.8291 36.3949 81.8291 36.044C81.8291 35.6887 81.8866 35.3631 82.0021 35.0666C82.1176 34.77 82.282 34.5155 82.4939 34.3017C82.7064 34.0879 82.964 33.923 83.2674 33.805C83.5695 33.687 83.9099 33.6289 84.2868 33.6289C84.4783 33.6289 84.6575 33.6437 84.8243 33.674C84.9911 33.7049 85.1462 33.7469 85.2889 33.8C85.4316 33.8538 85.5614 33.918 85.6794 33.9947C85.7968 34.0706 85.9049 34.1547 86.0031 34.2461L85.751 34.6452C85.7115 34.7082 85.6608 34.7472 85.5972 34.7608C85.5342 34.775 85.4656 34.7595 85.3915 34.7138C85.3198 34.6724 85.2475 34.631 85.1758 34.5896C85.1036 34.5482 85.0239 34.5118 84.9355 34.4815C84.8472 34.4512 84.7483 34.4259 84.6383 34.4061C84.5278 34.387 84.4011 34.3771 84.2571 34.3771C84.0242 34.3771 83.8135 34.416 83.6251 34.4945C83.4367 34.5729 83.2754 34.6854 83.1426 34.8312C83.0098 34.9776 82.9072 35.1531 82.8355 35.3576C82.7639 35.5621 82.728 35.7913 82.728 36.044C82.728 36.314 82.7663 36.5555 82.8436 36.7681C82.9208 36.9806 83.0301 37.1604 83.1704 37.3074C83.3113 37.4545 83.4805 37.5663 83.6789 37.6435C83.8772 37.7214 84.0984 37.7597 84.3424 37.7597C84.5166 37.7597 84.6723 37.7418 84.8095 37.7059C84.9473 37.6701 85.0813 37.62 85.2117 37.5576V36.6976H84.6167C84.5599 36.6976 84.516 36.6822 84.4845 36.6501C84.453 36.6186 84.4369 36.5802 84.4369 36.5345V36.0372H86.0056V37.9493C85.7659 38.1254 85.5107 38.2552 85.2395 38.3367Z" fill="#C7B399"/>
<path d="M92.0591 33.6816V34.3804H89.9604V35.6914H91.6143V36.3679H89.9604V37.7049H92.0591V38.4074H89.0781V33.6816H92.0591Z" fill="#C7B399"/>
<path d="M1.12011 14.6929H0.0389228C0.50229 14.1134 0.636975 13.4573 0.656746 12.6844C0.675898 11.6996 0.714203 10.5603 0.714203 9.15165V5.36687C0.714203 3.66786 0.733974 2.93388 0.695051 2.20053C0.656746 1.48632 0.48252 0.867882 0 0.211754H0.907582C1.94985 0.211754 2.97358 0.154297 3.95839 0.154297C6.69967 0.154297 7.97424 1.38994 7.97424 3.3781C7.97424 5.25134 7.08581 6.1583 5.81124 6.97012V6.98866C7.5881 7.31734 9.17096 8.24469 9.17096 10.5992C9.17096 12.9556 7.53003 14.8078 4.24753 14.8078C3.28188 14.8078 2.27853 14.6929 1.12011 14.6929ZM6.35246 3.86123C6.35246 2.12392 5.5221 1.10018 3.49502 1.10018C2.6066 1.10018 2.39406 1.15764 2.31684 1.23549C2.23961 1.3121 2.22046 1.4474 2.22046 1.62224V6.62229C2.33661 6.6989 2.51021 6.71928 2.72275 6.75697C2.97358 6.79528 3.37887 6.79528 3.74586 6.79528C5.54187 6.79528 6.35246 5.55963 6.35246 3.86123ZM7.47257 10.9854C7.47257 8.74636 6.0627 7.80047 3.91947 7.80047H2.33661C2.25938 7.80047 2.22046 7.83816 2.22046 7.93454V8.53321C2.22046 9.94308 2.22046 11.1015 2.25938 12.3569C2.27853 13.0909 2.45214 13.3603 3.01189 13.4962C3.53333 13.6315 4.09308 13.6889 4.71152 13.6889C6.37161 13.6889 7.47257 12.8197 7.47257 10.9854Z" fill="#C7B399"/>
<path d="M17.439 7.60725C17.439 3.26272 20.3347 0 24.7948 0C29.004 0 32.1123 3.06996 32.1123 7.3175C32.1123 11.6806 29.1393 14.8475 24.7373 14.8475C20.5855 14.8475 17.439 11.8554 17.439 7.60725ZM30.4522 7.58748C30.4522 3.97693 28.1347 1.1578 24.5242 1.1578C21.1459 1.1578 19.0799 3.78355 19.0799 7.3175C19.0799 10.9281 21.3967 13.7657 25.0456 13.7657C28.6376 13.7657 30.4522 11.0634 30.4522 7.58748Z" fill="#C7B399"/>
<path d="M41.6601 2.77974H41.5829C41.5829 5.98501 41.5637 9.28728 41.5637 12.4907C41.5637 13.3025 41.7954 14.2101 42.2779 14.6926H39.7485C40.1538 14.1131 40.3664 13.3414 40.3861 12.3955C40.4244 10.0398 40.4634 5.01935 40.4825 3.12696V0.0576172H41.332L51.4686 12.1243H51.5459V3.0695C51.5459 1.75601 51.2753 0.771202 50.7736 0.211454H53.4383C53.0138 0.713744 52.8396 1.36926 52.8204 2.35407C52.7815 4.34407 52.7241 9.28727 52.7241 11.5652V14.8471H51.8931L41.6601 2.77974Z" fill="#C7B399"/>
<path d="M90.5865 12.9745C90.6638 11.7778 90.6638 10.0979 90.6638 7.89785C90.6638 6.04315 90.6638 3.66885 90.644 1.27479H87.304C86.5701 1.27479 86.0295 1.56331 85.4697 2.22068L85.508 0.173828C86.0295 0.193598 86.5318 0.212133 87.0532 0.212133H95.7997C96.3212 0.212133 96.8228 0.193598 97.3634 0.173828L97.3054 2.22068C96.7456 1.56331 96.2822 1.27479 95.5674 1.27479H92.1311V7.89785C92.1311 10.0788 92.1502 11.6999 92.2275 12.9356C92.2664 13.6504 92.44 14.2108 92.8842 14.6933H89.9298C90.374 14.2682 90.5278 13.6504 90.5865 12.9745Z" fill="#C7B399"/>
<path d="M112.244 7.89701V7.85809H104.096V7.89701C104.096 10.0785 104.135 11.6991 104.193 12.9354C104.231 13.6502 104.424 14.2099 104.868 14.6931H101.914C102.339 14.2674 102.513 13.6502 102.552 12.9737C102.628 11.7776 102.628 10.1162 102.628 7.89701C102.628 5.75317 102.628 3.91885 102.571 2.10369C102.552 1.33203 102.358 0.809967 101.914 0.211914H104.849C104.347 0.791432 104.154 1.31226 104.135 2.04561C104.115 3.60994 104.096 5.11557 104.096 6.87328H112.244C112.244 5.17365 112.244 3.64886 112.186 2.10369C112.167 1.33203 111.973 0.809967 111.529 0.211914H114.465C113.963 0.791432 113.769 1.31226 113.75 2.04561C113.731 3.90032 113.711 5.69571 113.711 7.89701C113.711 10.0785 113.731 11.6991 113.808 12.9354C113.847 13.6502 114.039 14.2099 114.484 14.6931H111.529C111.955 14.2674 112.129 13.6502 112.167 12.9737C112.244 11.7776 112.244 10.1162 112.244 7.89701Z" fill="#C7B399"/>
<path d="M129.961 14.6931C130.154 14.4231 130.251 14.1333 130.251 13.8232C130.251 13.3221 130.02 12.7624 129.768 12.1248L128.784 9.57564H123.319L122.277 12.2996C122.084 12.8198 121.871 13.3796 121.871 13.8232C121.871 14.1333 121.948 14.4033 122.142 14.6931H119.535C120.191 13.9399 120.635 13.1874 121.041 12.1439L124.806 2.5479C125.134 1.73732 125.347 1.11888 125.347 0.520826C125.347 0.405293 125.327 0.28976 125.308 0.211914H127.103C127.084 0.308294 127.065 0.423827 127.065 0.520826C127.065 1.11888 127.316 1.73732 127.606 2.49045L131.294 12.0092C131.719 13.1096 132.181 13.9399 132.799 14.6931H129.961ZM128.397 8.59207L126.08 2.56767H126.003L123.705 8.59207H128.397Z" fill="#C7B399"/>
<path d="M138.527 12.9743C138.604 11.7776 138.604 10.1169 138.604 7.89763C138.604 5.75317 138.604 3.91947 138.546 2.10431C138.527 1.33203 138.333 0.810585 137.89 0.211914H140.863C140.361 0.791432 140.168 1.31226 140.148 2.04623C140.129 3.90032 140.11 5.69571 140.11 7.89763C140.11 10.0785 140.129 11.6997 140.206 12.9354C140.245 13.6502 140.419 14.2105 140.863 14.6931H137.89C138.315 14.268 138.488 13.6502 138.527 12.9743Z" fill="#C7B399"/>
<path d="M69.9798 0.173828H70.8843V14.6939H69.9798V0.173828Z" fill="#C7B399"/>
<path d="M71.1703 47.4023H70.8237V53.5472H71.1703V47.4023Z" fill="#C7B399"/>
<path d="M75.4475 50.889L75.2628 50.8754C74.3299 50.8167 73.0263 50.5807 72.1156 49.7985C70.9003 48.7532 70.8194 47.0887 70.8249 46.6044L70.8262 46.4326H70.9979C73.4377 46.4326 75.4345 48.3485 75.4463 50.7042L75.4475 50.889ZM71.1734 46.7835C71.1938 47.3705 71.3544 48.6864 72.3405 49.5353C73.1202 50.2057 74.2353 50.4417 75.0953 50.5164C74.9841 48.4955 73.2783 46.8694 71.1734 46.7835Z" fill="#C7B399"/>
<path d="M66.5474 50.889L66.5486 50.7042C66.5597 48.3485 68.5541 46.4326 70.9957 46.4326H71.1674L71.1687 46.6044C71.1755 47.0887 71.1001 48.7476 69.8787 49.7985C68.9674 50.5807 67.665 50.8167 66.7321 50.8754L66.5474 50.889ZM70.8215 46.7835C68.7153 46.8694 67.0095 48.4955 66.8995 50.5164C67.7601 50.4417 68.8735 50.2057 69.6532 49.5353C70.6448 48.6833 70.8029 47.3705 70.8215 46.7835Z" fill="#C7B399"/>
<path d="M71.1674 55.013H70.9957C68.5547 55.013 66.5597 53.0971 66.5492 50.7414L66.5474 50.5566L66.7327 50.5702C67.665 50.6289 68.9674 50.8649 69.8787 51.6502C71.1007 52.698 71.1755 54.3569 71.1687 54.8412L71.1674 55.013ZM66.9001 50.9292C67.0095 52.9495 68.7153 54.5768 70.8215 54.6621C70.8029 54.0751 70.6448 52.7647 69.6532 51.9128C68.8735 51.243 67.7601 51.0046 66.9001 50.9292Z" fill="#C7B399"/>
<path d="M70.9979 55.013H70.8262L70.8249 54.8412C70.8194 54.3569 70.9003 52.6925 72.1156 51.6502C73.0263 50.8649 74.3286 50.6289 75.2628 50.5702L75.4475 50.5566L75.4463 50.7414C75.4345 53.0971 73.4377 55.013 70.9979 55.013ZM75.0953 50.9292C74.2353 51.0046 73.1202 51.24 72.3405 51.9128C71.3544 52.7598 71.1938 54.0751 71.1734 54.6621C73.2783 54.5768 74.9841 52.9495 75.0953 50.9292Z" fill="#C7B399"/>
<path d="M70.2505 30.5633H69.3682V28.4973H67.1484V30.5633H66.2661V25.8369H67.1484V27.8702H69.3682V25.8369H70.2505V30.5633Z" fill="#C7B399"/>
</svg>
