<svg width="190" height="75" viewBox="0 0 190 75" fill="none" xmlns="http://www.w3.org/2000/svg">
<g opacity="0.5">
<path d="M85.5433 34.874V35.8482H83.6207V41.2491H82.4349V35.8482H80.5132V34.874H85.5433Z" fill="#5B5547"/>
<path d="M104.639 41.2491H103.722C103.619 41.2491 103.536 41.2233 103.471 41.1724C103.407 41.1208 103.357 41.0566 103.326 40.9799L102.85 39.6799H100.209L99.7323 40.9799C99.709 41.0474 99.6631 41.1099 99.5956 41.1649C99.5281 41.2216 99.444 41.2491 99.3448 41.2491H98.4189L100.927 34.874H102.135L104.639 41.2491ZM100.513 38.8424H102.545L101.769 36.7216C101.731 36.6274 101.691 36.5165 101.651 36.3882C101.609 36.2607 101.567 36.1224 101.527 35.9724C101.486 36.1224 101.445 36.2624 101.406 36.3907C101.366 36.5199 101.326 36.6332 101.289 36.7307L100.513 38.8424Z" fill="#5B5547"/>
<path d="M108.303 34.874H109.493V41.2491H108.303V34.874Z" fill="#5B5547"/>
<path d="M69.1659 49.4747C69.2092 49.5764 69.2509 49.6789 69.2917 49.7814C69.3325 49.6722 69.375 49.5672 69.4192 49.4664C69.4634 49.3647 69.5109 49.2664 69.56 49.173L71.4426 45.6413C71.4667 45.5972 71.4917 45.5621 71.5184 45.5355C71.5442 45.5096 71.5726 45.4905 71.6042 45.478C71.6342 45.4663 71.6692 45.4588 71.7076 45.4563C71.7459 45.4538 71.7909 45.4521 71.8442 45.4521H72.7393V51.8272H71.6942V47.7097C71.6942 47.633 71.6967 47.5488 71.7009 47.458C71.7051 47.3672 71.7117 47.2738 71.7209 47.1805L69.7942 50.7956C69.7034 50.9681 69.5642 51.0556 69.375 51.0556H69.2075C69.0192 51.0556 68.88 50.9681 68.7892 50.7956L66.8408 47.1672C66.8492 47.2638 66.8567 47.3588 66.8625 47.4513C66.8683 47.5438 66.8708 47.6297 66.8708 47.7097V51.8272H65.8267V45.4521H66.7208C66.7742 45.4521 66.82 45.4538 66.8583 45.4563C66.8958 45.4588 66.9308 45.4663 66.9617 45.478C66.9925 45.4905 67.02 45.5096 67.045 45.5355C67.07 45.5621 67.095 45.5972 67.1183 45.6413L69.0267 49.1822C69.0767 49.2755 69.1234 49.373 69.1659 49.4747Z" fill="#5B5547"/>
<path d="M82.6171 51.8264H81.7004C81.597 51.8264 81.5137 51.8006 81.4487 51.7497C81.3845 51.6981 81.3354 51.6339 81.3037 51.5572L80.827 50.2572H78.1862L77.7103 51.5572C77.687 51.6247 77.6412 51.6864 77.5737 51.7422C77.5062 51.7989 77.422 51.8264 77.3228 51.8264H76.397L78.9053 45.4521H80.1129L82.6171 51.8264ZM78.4912 49.4197H80.5229L79.747 47.2988C79.7087 47.2047 79.6687 47.0938 79.6287 46.9655C79.587 46.838 79.5454 46.6988 79.5054 46.5497C79.4637 46.6988 79.4228 46.8388 79.3837 46.968C79.3437 47.0972 79.3045 47.2105 79.267 47.3072L78.4912 49.4197Z" fill="#5B5547"/>
<path d="M89.6815 46.6079C89.6465 46.6696 89.6082 46.7146 89.569 46.7429C89.529 46.7705 89.4798 46.7846 89.4215 46.7846C89.3598 46.7846 89.2932 46.7621 89.2207 46.7163C89.149 46.6704 89.0623 46.6196 88.9632 46.5638C88.8632 46.5079 88.7465 46.4579 88.6123 46.4121C88.4782 46.3663 88.3207 46.3438 88.139 46.3438C87.974 46.3438 87.8298 46.3629 87.7065 46.4029C87.5831 46.4429 87.4798 46.4979 87.3956 46.5688C87.3123 46.6388 87.249 46.7238 87.2081 46.8221C87.1673 46.9205 87.1465 47.0288 87.1465 47.1463C87.1465 47.2955 87.189 47.4205 87.2723 47.5205C87.3556 47.6205 87.4673 47.7063 87.6056 47.7763C87.7431 47.8471 87.9006 47.9105 88.0765 47.9663C88.2532 48.0221 88.434 48.0813 88.619 48.1446C88.8048 48.208 88.9857 48.2813 89.1615 48.3646C89.3382 48.4488 89.4948 48.5546 89.6332 48.6821C89.7715 48.8105 89.8823 48.9671 89.9665 49.1522C90.049 49.3372 90.0923 49.5622 90.0923 49.8263C90.0923 50.1147 90.0423 50.3838 89.944 50.6355C89.8457 50.8863 89.7015 51.1055 89.5123 51.2922C89.3223 51.4789 89.0907 51.6255 88.8173 51.733C88.544 51.8405 88.2315 51.8939 87.8781 51.8939C87.6756 51.8939 87.4756 51.8739 87.279 51.8339C87.0823 51.7947 86.8931 51.738 86.7123 51.6647C86.5315 51.5914 86.3615 51.503 86.2031 51.4005C86.044 51.2972 85.9031 51.183 85.7798 51.0563L86.1281 50.488C86.1573 50.4463 86.1956 50.4122 86.2431 50.3838C86.2898 50.3563 86.3406 50.3422 86.3931 50.3422C86.4665 50.3422 86.5456 50.3722 86.6306 50.433C86.7165 50.493 86.8181 50.5597 86.9348 50.6338C87.0531 50.7063 87.1898 50.7738 87.3473 50.8338C87.5048 50.8938 87.6931 50.9238 87.914 50.9238C88.2523 50.9238 88.5132 50.8438 88.6982 50.6847C88.884 50.5238 88.9765 50.2938 88.9765 49.9938C88.9765 49.8263 88.9348 49.6897 88.8507 49.5838C88.7665 49.478 88.6557 49.3888 88.5173 49.3172C88.3798 49.2455 88.2223 49.1838 88.0465 49.1338C87.8698 49.0847 87.6906 49.0305 87.5081 48.9713C87.3256 48.9121 87.1465 48.8421 86.9706 48.7596C86.794 48.6771 86.6365 48.5696 86.499 48.438C86.3606 48.3055 86.2498 48.1396 86.1656 47.9421C86.0823 47.743 86.0398 47.4988 86.0398 47.2071C86.0398 46.9755 86.0865 46.7496 86.179 46.5288C86.2715 46.3088 86.4056 46.1129 86.5823 45.9421C86.759 45.7721 86.9765 45.6354 87.2348 45.5321C87.494 45.4296 87.7906 45.3779 88.1257 45.3779C88.5015 45.3779 88.849 45.4371 89.1657 45.5546C89.4832 45.6721 89.754 45.8371 89.9765 46.0488L89.6815 46.6079Z" fill="#5B5547"/>
<path d="M97.5116 46.6079C97.4766 46.6696 97.4391 46.7146 97.3991 46.7429C97.3591 46.7705 97.3099 46.7846 97.2516 46.7846C97.1899 46.7846 97.1232 46.7621 97.0516 46.7163C96.9791 46.6704 96.8924 46.6196 96.7932 46.5638C96.6932 46.5079 96.5766 46.4579 96.4424 46.4121C96.3091 46.3663 96.1507 46.3438 95.9691 46.3438C95.8041 46.3438 95.6599 46.3629 95.5366 46.4029C95.4132 46.4429 95.3099 46.4979 95.2257 46.5688C95.1424 46.6388 95.0799 46.7238 95.0382 46.8221C94.9974 46.9205 94.9774 47.0288 94.9774 47.1463C94.9774 47.2955 95.0191 47.4205 95.1024 47.5205C95.1866 47.6205 95.2974 47.7063 95.4357 47.7763C95.5732 47.8471 95.7307 47.9105 95.9074 47.9663C96.0832 48.0221 96.2641 48.0813 96.4491 48.1446C96.6349 48.208 96.8157 48.2813 96.9916 48.3646C97.1682 48.4488 97.3257 48.5546 97.4633 48.6821C97.6008 48.8105 97.7124 48.9671 97.7966 49.1522C97.8799 49.3372 97.9224 49.5622 97.9224 49.8263C97.9224 50.1147 97.8724 50.3838 97.7741 50.6355C97.6758 50.8863 97.5316 51.1055 97.3424 51.2922C97.1524 51.4789 96.9207 51.6255 96.6474 51.733C96.3749 51.8405 96.0616 51.8939 95.7091 51.8939C95.5057 51.8939 95.3057 51.8739 95.1099 51.8339C94.9124 51.7947 94.7232 51.738 94.5424 51.6647C94.3615 51.5914 94.1915 51.503 94.0332 51.4005C93.8749 51.2972 93.734 51.183 93.6099 51.0563L93.959 50.488C93.9874 50.4463 94.0265 50.4122 94.0732 50.3838C94.1199 50.3563 94.1707 50.3422 94.2232 50.3422C94.2965 50.3422 94.3757 50.3722 94.4607 50.433C94.5465 50.493 94.6482 50.5597 94.7649 50.6338C94.8832 50.7063 95.0199 50.7738 95.1774 50.8338C95.3349 50.8938 95.5232 50.9238 95.7441 50.9238C96.0824 50.9238 96.3432 50.8438 96.5282 50.6847C96.7141 50.5238 96.8066 50.2938 96.8066 49.9938C96.8066 49.8263 96.7649 49.6897 96.6807 49.5838C96.5966 49.478 96.4857 49.3888 96.3482 49.3172C96.2099 49.2455 96.0524 49.1838 95.8766 49.1338C95.6999 49.0847 95.5207 49.0305 95.3382 48.9713C95.1557 48.9121 94.9774 48.8421 94.8007 48.7596C94.624 48.6771 94.4665 48.5696 94.329 48.438C94.1907 48.3055 94.0799 48.1396 93.9957 47.9421C93.9124 47.743 93.8699 47.4988 93.8699 47.2071C93.8699 46.9755 93.9165 46.7496 94.009 46.5288C94.1015 46.3088 94.2357 46.1129 94.4124 45.9421C94.589 45.7721 94.8065 45.6354 95.0649 45.5321C95.3241 45.4296 95.6207 45.3779 95.9557 45.3779C96.3324 45.3779 96.6791 45.4371 96.9957 45.5546C97.3132 45.6721 97.5841 45.8371 97.8066 46.0488L97.5116 46.6079Z" fill="#5B5547"/>
<path d="M107.289 51.8264H106.373C106.269 51.8264 106.187 51.8006 106.122 51.7497C106.057 51.6981 106.009 51.6339 105.976 51.5572L105.5 50.2572H102.859L102.383 51.5572C102.36 51.6247 102.314 51.6864 102.247 51.7422C102.179 51.7989 102.094 51.8264 101.995 51.8264H101.069L103.578 45.4521H104.786L107.289 51.8264ZM103.164 49.4197H105.196L104.42 47.2988C104.382 47.2047 104.342 47.0938 104.301 46.9655C104.259 46.838 104.218 46.6988 104.178 46.5497C104.136 46.6988 104.096 46.8388 104.056 46.968C104.017 47.0972 103.978 47.2105 103.939 47.3072L103.164 49.4197Z" fill="#5B5547"/>
<path d="M114.98 51.728C114.615 51.8389 114.223 51.893 113.805 51.893C113.285 51.893 112.814 51.8122 112.393 51.6514C111.971 51.4889 111.61 51.2647 111.313 50.9763C111.015 50.688 110.785 50.3447 110.623 49.9447C110.461 49.5447 110.38 49.1088 110.38 48.6355C110.38 48.1563 110.458 47.7171 110.614 47.3171C110.77 46.9171 110.991 46.5738 111.277 46.2854C111.564 45.9971 111.911 45.7746 112.32 45.6154C112.728 45.4563 113.187 45.3779 113.695 45.3779C113.954 45.3779 114.195 45.3979 114.42 45.4388C114.645 45.4804 114.855 45.5371 115.047 45.6088C115.24 45.6813 115.415 45.7679 115.574 45.8713C115.732 45.9738 115.878 46.0871 116.01 46.2104L115.67 46.7488C115.617 46.8338 115.549 46.8863 115.463 46.9046C115.378 46.9238 115.285 46.903 115.185 46.8413C115.089 46.7855 114.991 46.7296 114.895 46.6738C114.797 46.6179 114.69 46.5688 114.57 46.5279C114.451 46.4871 114.318 46.4529 114.17 46.4263C114.02 46.4004 113.85 46.3871 113.655 46.3871C113.341 46.3871 113.057 46.4396 112.803 46.5454C112.549 46.6513 112.331 46.803 112.152 46.9996C111.973 47.1971 111.835 47.4338 111.738 47.7096C111.641 47.9855 111.593 48.2946 111.593 48.6355C111.593 48.9996 111.645 49.3255 111.749 49.6122C111.853 49.8988 112 50.1413 112.19 50.3397C112.38 50.538 112.608 50.6888 112.875 50.793C113.143 50.898 113.441 50.9497 113.77 50.9497C114.005 50.9497 114.215 50.9255 114.4 50.8772C114.586 50.8288 114.767 50.7613 114.943 50.6772V49.5172H114.14C114.064 49.5172 114.005 49.4963 113.962 49.453C113.92 49.4105 113.898 49.3588 113.898 49.2972V48.6263H116.014V51.2055C115.69 51.443 115.346 51.618 114.98 51.728Z" fill="#5B5547"/>
<path d="M124.167 45.4521V46.3947H121.337V48.163H123.567V49.0755H121.337V50.8789H124.167V51.8264H120.146V45.4521H124.167Z" fill="#5B5547"/>
<path d="M1.51086 19.8403H0.0525007C0.67751 19.0586 0.859179 18.1736 0.885846 17.1311C0.91168 15.8027 0.963347 14.266 0.963347 12.366V7.26092C0.963347 4.96922 0.990014 3.9792 0.937514 2.99002C0.885846 2.02667 0.650843 1.19249 0 0.307482H1.22418C2.63004 0.307482 4.01089 0.22998 5.33924 0.22998C9.0368 0.22998 10.756 1.89667 10.756 4.57838C10.756 7.10508 9.55764 8.32843 7.83845 9.42345V9.44845C10.2351 9.89179 12.3702 11.1426 12.3702 14.3185C12.3702 17.4969 10.1568 19.9953 5.72925 19.9953C4.42673 19.9953 3.07338 19.8403 1.51086 19.8403ZM8.56846 5.23005C8.56846 2.88669 7.44844 1.50583 4.71423 1.50583C3.51588 1.50583 3.22921 1.58333 3.12505 1.68833C3.02088 1.79167 2.99504 1.97417 2.99504 2.21001V8.95427C3.15171 9.05761 3.38588 9.08511 3.67255 9.13594C4.01089 9.18761 4.55757 9.18761 5.05257 9.18761C7.47511 9.18761 8.56846 7.52092 8.56846 5.23005ZM10.0793 14.8394C10.0793 11.8193 8.17762 10.5435 5.28674 10.5435H3.15171C3.04754 10.5435 2.99504 10.5943 2.99504 10.7243V11.5318C2.99504 13.4335 2.99504 14.996 3.04754 16.6894C3.07338 17.6794 3.30755 18.0427 4.06256 18.2261C4.7659 18.4086 5.52091 18.4861 6.35509 18.4861C8.59429 18.4861 10.0793 17.3136 10.0793 14.8394Z" fill="#5B5547"/>
<path d="M23.5186 10.281C23.5186 4.42092 27.4244 0.0200195 33.4404 0.0200195C39.1179 0.0200195 43.3105 4.16091 43.3105 9.89016C43.3105 15.7752 39.3004 20.047 33.3629 20.047C27.7628 20.047 23.5186 16.0111 23.5186 10.281ZM41.0713 10.2543C41.0713 5.38426 37.9454 1.58171 33.0754 1.58171C28.5186 1.58171 25.7319 5.12343 25.7319 9.89016C25.7319 14.7602 28.857 18.5878 33.7787 18.5878C38.6238 18.5878 41.0713 14.9427 41.0713 10.2543Z" fill="#5B5547"/>
<path d="M56.1868 3.76742H56.0826C56.0826 8.09082 56.0568 12.5451 56.0568 16.8659C56.0568 17.961 56.3693 19.1851 57.0201 19.836H53.6084C54.1551 19.0543 54.4417 18.0135 54.4684 16.7376C54.5201 13.5601 54.5726 6.7883 54.5984 4.23576V0.0957031H55.7443L69.417 16.3718H69.5211V4.15826C69.5211 2.38657 69.1561 1.05822 68.4794 0.303205H72.0737C71.5011 0.980715 71.2661 1.8649 71.2403 3.19325C71.1878 5.87745 71.1103 12.545 71.1103 15.6176V20.0443H69.9895L56.1868 3.76742Z" fill="#5B5547"/>
<path d="M122.184 17.518C122.288 15.9038 122.288 13.638 122.288 10.6704C122.288 8.16874 122.288 4.96619 122.261 1.73697H117.756C116.766 1.73697 116.037 2.12615 115.282 3.01283L115.334 0.251953C116.037 0.27862 116.715 0.303621 117.418 0.303621H129.216C129.919 0.303621 130.596 0.27862 131.325 0.251953L131.247 3.01283C130.492 2.12615 129.867 1.73697 128.902 1.73697H124.267V10.6704C124.267 13.6121 124.293 15.7988 124.397 17.4655C124.45 18.4297 124.684 19.1856 125.283 19.8364H121.298C121.897 19.2631 122.105 18.4297 122.184 17.518Z" fill="#5B5547"/>
<path d="M151.404 10.6736V10.6211H140.414V10.6736C140.414 13.6161 140.466 15.802 140.545 17.4695C140.596 18.4337 140.857 19.1887 141.456 19.8404H137.471C138.044 19.2662 138.279 18.4337 138.331 17.5212C138.434 15.9078 138.434 13.667 138.434 10.6736C138.434 7.7819 138.434 5.30769 138.357 2.85932C138.331 1.81847 138.07 1.1143 137.471 0.307617H141.43C140.752 1.0893 140.492 1.79181 140.466 2.78099C140.44 4.89102 140.414 6.92188 140.414 9.29275H151.404C151.404 7.00022 151.404 4.94352 151.326 2.85932C151.3 1.81847 151.039 1.1143 150.44 0.307617H154.399C153.723 1.0893 153.462 1.79181 153.435 2.78099C153.409 5.28269 153.383 7.70439 153.383 10.6736C153.383 13.6161 153.409 15.802 153.514 17.4695C153.566 18.4337 153.826 19.1887 154.425 19.8404H150.44C151.014 19.2662 151.248 18.4337 151.3 17.5212C151.404 15.9078 151.404 13.667 151.404 10.6736Z" fill="#5B5547"/>
<path d="M175.29 19.8404C175.551 19.4762 175.681 19.0854 175.681 18.6671C175.681 17.9912 175.369 17.2362 175.03 16.3762L173.703 12.9378H166.332L164.926 16.612C164.665 17.3137 164.378 18.0687 164.378 18.6671C164.378 19.0854 164.483 19.4496 164.743 19.8404H161.228C162.113 18.8246 162.712 17.8095 163.259 16.402L168.338 3.4585C168.779 2.36515 169.067 1.53097 169.067 0.72429C169.067 0.568454 169.04 0.412619 169.014 0.307617H171.436C171.41 0.437619 171.384 0.593455 171.384 0.72429C171.384 1.53097 171.723 2.36515 172.114 3.381L177.088 16.2204C177.661 17.7045 178.285 18.8246 179.119 19.8404H175.29ZM173.181 11.6111L170.055 3.48516H169.952L166.853 11.6111H173.181Z" fill="#5B5547"/>
<path d="M186.848 17.522C186.953 15.9078 186.953 13.6678 186.953 10.6744C186.953 7.7819 186.953 5.30852 186.874 2.86016C186.848 1.81847 186.588 1.11513 185.989 0.307617H190C189.323 1.0893 189.063 1.79181 189.036 2.78182C189.01 5.28269 188.984 7.70439 188.984 10.6744C188.984 13.6161 189.01 15.8028 189.114 17.4695C189.167 18.4337 189.401 19.1896 190 19.8404H185.989C186.563 19.2671 186.797 18.4337 186.848 17.522Z" fill="#5B5547"/>
<path d="M94.3942 0.251953H95.6143V19.8373H94.3942V0.251953Z" fill="#5B5547"/>
<path d="M96.0041 63.959H95.5366V72.2474H96.0041V63.959Z" fill="#5B5547"/>
<path d="M101.772 68.6618L101.523 68.6435C100.265 68.5643 98.5062 68.246 97.2778 67.1909C95.6386 65.7809 95.5294 63.5359 95.5369 62.8825L95.5386 62.6509H95.7703C99.0612 62.6509 101.755 65.2351 101.77 68.4126L101.772 68.6618ZM96.007 63.1242C96.0345 63.9159 96.2511 65.6909 97.5811 66.8359C98.6328 67.7401 100.137 68.0585 101.297 68.1593C101.147 65.4334 98.8462 63.2401 96.007 63.1242Z" fill="#5B5547"/>
<path d="M89.7563 68.6618L89.758 68.4126C89.773 65.2351 92.4631 62.6509 95.7564 62.6509H95.9881L95.9898 62.8825C95.9989 63.5359 95.8973 65.7734 94.2497 67.1909C93.0206 68.246 91.2639 68.5643 90.0055 68.6435L89.7563 68.6618ZM95.5214 63.1242C92.6806 63.2401 90.3797 65.4334 90.2314 68.1593C91.3922 68.0585 92.8939 67.7401 93.9456 66.8359C95.2831 65.6868 95.4964 63.9159 95.5214 63.1242Z" fill="#5B5547"/>
<path d="M95.9881 74.2248H95.7564C92.4639 74.2248 89.773 71.6406 89.7588 68.463L89.7563 68.2139L90.0064 68.2322C91.2639 68.3114 93.0206 68.6297 94.2497 69.6889C95.8981 71.1022 95.9989 73.3398 95.9898 73.9931L95.9881 74.2248ZM90.2322 68.7164C90.3797 71.4414 92.6806 73.6364 95.5214 73.7514C95.4964 72.9598 95.2831 71.1922 93.9456 70.0431C92.8939 69.1397 91.3922 68.818 90.2322 68.7164Z" fill="#5B5547"/>
<path d="M95.7703 74.2248H95.5386L95.5369 73.9931C95.5294 73.3398 95.6386 71.0947 97.2778 69.6889C98.5062 68.6297 100.263 68.3114 101.523 68.2322L101.772 68.2139L101.77 68.463C101.755 71.6406 99.0612 74.2248 95.7703 74.2248ZM101.297 68.7164C100.137 68.818 98.6328 69.1355 97.5811 70.0431C96.2511 71.1856 96.0345 72.9598 96.007 73.7514C98.8462 73.6364 101.147 71.4414 101.297 68.7164Z" fill="#5B5547"/>
<path d="M94.7536 41.2491H93.5636V38.4624H90.5694V41.2491H89.3794V34.874H90.5694V37.6166H93.5636V34.874H94.7536V41.2491Z" fill="#5B5547"/>
</g>
</svg>
