<svg width="240" height="94" viewBox="0 0 240 94" fill="none" xmlns="http://www.w3.org/2000/svg">
<path d="M108.059 44.0205V45.251H105.631V52.0731H104.133V45.251H101.706V44.0205H108.059Z" fill="#C7B399"/>
<path d="M132.17 52.0731H131.012C130.881 52.0731 130.776 52.0405 130.694 51.9763C130.613 51.911 130.551 51.83 130.511 51.7331L129.91 50.091H126.574L125.972 51.7331C125.942 51.8184 125.885 51.8973 125.799 51.9668C125.714 52.0384 125.608 52.0731 125.482 52.0731H124.313L127.481 44.0205H129.007L132.17 52.0731ZM126.958 49.0331H129.525L128.545 46.3542C128.496 46.2352 128.447 46.0952 128.395 45.9331C128.342 45.7721 128.29 45.5973 128.239 45.4079C128.187 45.5973 128.135 45.7742 128.086 45.9363C128.035 46.0994 127.986 46.2426 127.938 46.3658L126.958 49.0331Z" fill="#C7B399"/>
<path d="M136.793 44.0205H138.296V52.0731H136.793V44.0205Z" fill="#C7B399"/>
<path d="M87.3707 62.4673C87.4255 62.5957 87.4781 62.7252 87.5297 62.8546C87.5812 62.7167 87.6349 62.5841 87.6907 62.4567C87.7465 62.3283 87.8065 62.2041 87.8686 62.0862L90.2465 57.6252C90.277 57.5694 90.3086 57.5252 90.3423 57.4915C90.3749 57.4589 90.4107 57.4347 90.4507 57.4189C90.4886 57.4041 90.5328 57.3947 90.5812 57.3915C90.6297 57.3883 90.6865 57.3862 90.7539 57.3862H91.8844V65.4388H90.5644V60.2378C90.5644 60.141 90.5675 60.0346 90.5728 59.9199C90.5781 59.8052 90.5865 59.6873 90.5981 59.5694L88.1644 64.1357C88.0497 64.3536 87.8739 64.4641 87.6349 64.4641H87.4233C87.1855 64.4641 87.0097 64.3536 86.8949 64.1357L84.4339 59.5525C84.4444 59.6746 84.4539 59.7946 84.4612 59.9115C84.4686 60.0283 84.4718 60.1367 84.4718 60.2378V65.4388H83.1528V57.3862H84.2823C84.3497 57.3862 84.4076 57.3883 84.456 57.3915C84.5034 57.3947 84.5476 57.4041 84.5865 57.4189C84.6255 57.4347 84.6602 57.4589 84.6918 57.4915C84.7234 57.5252 84.7549 57.5694 84.7844 57.6252L87.1949 62.0978C87.2581 62.2157 87.317 62.3388 87.3707 62.4673Z" fill="#C7B399"/>
<path d="M104.363 65.4378H103.205C103.074 65.4378 102.969 65.4052 102.887 65.3409C102.806 65.2757 102.744 65.1946 102.704 65.0978L102.102 63.4557H98.7659L98.1648 65.0978C98.1353 65.1831 98.0774 65.2609 97.9922 65.3315C97.9069 65.403 97.8006 65.4378 97.6753 65.4378H96.5059L99.6743 57.3862H101.2L104.363 65.4378ZM99.1511 62.3978H101.717L100.737 59.7189C100.689 59.5999 100.638 59.4599 100.588 59.2978C100.535 59.1368 100.483 58.961 100.432 58.7725C100.38 58.961 100.328 59.1378 100.278 59.301C100.228 59.4641 100.178 59.6073 100.131 59.7294L99.1511 62.3978Z" fill="#C7B399"/>
<path d="M113.273 58.8452C113.229 58.9231 113.181 58.9799 113.131 59.0157C113.081 59.0504 113.018 59.0683 112.945 59.0683C112.867 59.0683 112.783 59.0399 112.691 58.982C112.601 58.9241 112.491 58.8599 112.366 58.7894C112.239 58.7189 112.092 58.6557 111.923 58.5978C111.753 58.5399 111.554 58.5115 111.325 58.5115C111.116 58.5115 110.934 58.5357 110.778 58.5862C110.623 58.6368 110.492 58.7062 110.386 58.7957C110.281 58.8841 110.201 58.9915 110.149 59.1157C110.097 59.2399 110.071 59.3768 110.071 59.5252C110.071 59.7136 110.125 59.8715 110.23 59.9978C110.335 60.1241 110.476 60.2325 110.651 60.321C110.825 60.4104 111.024 60.4904 111.246 60.561C111.469 60.6315 111.697 60.7062 111.931 60.7862C112.166 60.8662 112.394 60.9589 112.616 61.0641C112.839 61.1704 113.037 61.3041 113.212 61.4652C113.387 61.6273 113.527 61.8252 113.633 62.0589C113.737 62.2925 113.792 62.5768 113.792 62.9104C113.792 63.2746 113.729 63.6146 113.605 63.9325C113.481 64.2494 113.298 64.5262 113.059 64.762C112.819 64.9978 112.527 65.1831 112.182 65.3189C111.836 65.4546 111.442 65.522 110.995 65.522C110.739 65.522 110.487 65.4967 110.238 65.4462C109.99 65.3967 109.751 65.3252 109.523 65.2325C109.294 65.1399 109.079 65.0283 108.879 64.8989C108.678 64.7683 108.501 64.6241 108.345 64.4641L108.785 63.7462C108.822 63.6936 108.87 63.6504 108.93 63.6146C108.989 63.5799 109.053 63.562 109.119 63.562C109.212 63.562 109.312 63.5999 109.419 63.6767C109.528 63.7525 109.656 63.8367 109.804 63.9304C109.953 64.022 110.126 64.1073 110.325 64.1831C110.524 64.2589 110.762 64.2967 111.041 64.2967C111.468 64.2967 111.797 64.1957 112.031 63.9946C112.266 63.7915 112.383 63.501 112.383 63.122C112.383 62.9104 112.33 62.7378 112.224 62.6041C112.117 62.4704 111.977 62.3578 111.803 62.2673C111.629 62.1768 111.43 62.0989 111.208 62.0357C110.985 61.9736 110.758 61.9052 110.528 61.8304C110.297 61.7557 110.071 61.6673 109.849 61.5631C109.626 61.4589 109.427 61.3231 109.253 61.1568C109.078 60.9894 108.938 60.7799 108.832 60.5304C108.727 60.2789 108.673 59.9704 108.673 59.602C108.673 59.3094 108.732 59.0241 108.849 58.7452C108.966 58.4673 109.135 58.2199 109.358 58.0041C109.582 57.7894 109.856 57.6168 110.183 57.4862C110.51 57.3568 110.885 57.2915 111.308 57.2915C111.783 57.2915 112.222 57.3662 112.622 57.5147C113.023 57.6631 113.365 57.8715 113.646 58.1389L113.273 58.8452Z" fill="#C7B399"/>
<path d="M123.168 58.8452C123.124 58.9231 123.077 58.9799 123.026 59.0157C122.976 59.0504 122.913 59.0683 122.84 59.0683C122.762 59.0683 122.678 59.0399 122.587 58.982C122.496 58.9241 122.386 58.8599 122.261 58.7894C122.134 58.7189 121.987 58.6557 121.818 58.5978C121.649 58.5399 121.449 58.5115 121.22 58.5115C121.011 58.5115 120.829 58.5357 120.673 58.5862C120.518 58.6368 120.387 58.7062 120.281 58.7957C120.176 58.8841 120.097 58.9915 120.044 59.1157C119.992 59.2399 119.967 59.3768 119.967 59.5252C119.967 59.7136 120.02 59.8715 120.125 59.9978C120.231 60.1241 120.371 60.2325 120.546 60.321C120.72 60.4104 120.919 60.4904 121.142 60.561C121.364 60.6315 121.592 60.7062 121.826 60.7862C122.061 60.8662 122.289 60.9589 122.511 61.0641C122.734 61.1704 122.933 61.3041 123.107 61.4652C123.281 61.6273 123.422 61.8252 123.528 62.0589C123.633 62.2925 123.687 62.5768 123.687 62.9104C123.687 63.2746 123.624 63.6146 123.5 63.9325C123.376 64.2494 123.193 64.5262 122.954 64.762C122.714 64.9978 122.422 65.1831 122.077 65.3189C121.732 65.4546 121.337 65.522 120.891 65.522C120.634 65.522 120.382 65.4967 120.134 65.4462C119.885 65.3967 119.646 65.3252 119.418 65.2325C119.189 65.1399 118.974 65.0283 118.774 64.8989C118.574 64.7683 118.397 64.6241 118.24 64.4641L118.681 63.7462C118.717 63.6936 118.766 63.6504 118.825 63.6146C118.884 63.5799 118.948 63.562 119.014 63.562C119.107 63.562 119.207 63.5999 119.314 63.6767C119.423 63.7525 119.551 63.8367 119.699 63.9304C119.848 64.022 120.021 64.1073 120.22 64.1831C120.419 64.2589 120.657 64.2967 120.936 64.2967C121.363 64.2967 121.692 64.1957 121.926 63.9946C122.161 63.7915 122.278 63.501 122.278 63.122C122.278 62.9104 122.225 62.7378 122.119 62.6041C122.012 62.4704 121.872 62.3578 121.699 62.2673C121.524 62.1768 121.325 62.0989 121.103 62.0357C120.88 61.9736 120.653 61.9052 120.423 61.8304C120.192 61.7557 119.967 61.6673 119.744 61.5631C119.521 61.4589 119.322 61.3231 119.148 61.1568C118.973 60.9894 118.833 60.7799 118.727 60.5304C118.622 60.2789 118.568 59.9704 118.568 59.602C118.568 59.3094 118.627 59.0241 118.744 58.7452C118.861 58.4673 119.03 58.2199 119.253 58.0041C119.477 57.7894 119.751 57.6168 120.078 57.4862C120.405 57.3568 120.78 57.2915 121.203 57.2915C121.679 57.2915 122.117 57.3662 122.517 57.5147C122.918 57.6631 123.26 57.8715 123.541 58.1389L123.168 58.8452Z" fill="#C7B399"/>
<path d="M135.512 65.4378H134.354C134.224 65.4378 134.119 65.4052 134.037 65.3409C133.955 65.2757 133.894 65.1946 133.853 65.0978L133.252 63.4557H129.916L129.314 65.0978C129.286 65.1831 129.228 65.2609 129.143 65.3315C129.056 65.403 128.95 65.4378 128.825 65.4378H127.655L130.824 57.3862H132.35L135.512 65.4378ZM130.301 62.3978H132.868L131.888 59.7189C131.839 59.5999 131.789 59.4599 131.737 59.2978C131.685 59.1368 131.632 58.961 131.582 58.7725C131.529 58.961 131.478 59.1378 131.428 59.301C131.378 59.4641 131.329 59.6073 131.281 59.7294L130.301 62.3978Z" fill="#C7B399"/>
<path d="M145.229 65.3125C144.767 65.4525 144.273 65.521 143.745 65.521C143.088 65.521 142.493 65.4189 141.961 65.2157C141.428 65.0104 140.973 64.7273 140.597 64.3631C140.22 63.9989 139.929 63.5652 139.725 63.0599C139.521 62.5546 139.419 62.0041 139.419 61.4062C139.419 60.801 139.517 60.2462 139.714 59.741C139.911 59.2357 140.191 58.802 140.552 58.4378C140.914 58.0736 141.353 57.7926 141.869 57.5915C142.384 57.3905 142.964 57.2915 143.606 57.2915C143.933 57.2915 144.238 57.3168 144.522 57.3683C144.806 57.421 145.071 57.4926 145.314 57.5831C145.557 57.6747 145.778 57.7841 145.979 57.9147C146.179 58.0441 146.363 58.1873 146.531 58.3431L146.101 59.0231C146.034 59.1304 145.947 59.1968 145.839 59.2199C145.732 59.2441 145.615 59.2178 145.488 59.1399C145.366 59.0694 145.243 58.9989 145.121 58.9283C144.998 58.8578 144.862 58.7957 144.712 58.7441C144.561 58.6926 144.393 58.6494 144.205 58.6157C144.017 58.5831 143.801 58.5662 143.556 58.5662C143.159 58.5662 142.8 58.6326 142.479 58.7662C142.158 58.8999 141.883 59.0915 141.657 59.3399C141.431 59.5894 141.256 59.8883 141.134 60.2368C141.012 60.5852 140.951 60.9757 140.951 61.4062C140.951 61.8662 141.016 62.2778 141.147 62.6399C141.279 63.002 141.465 63.3083 141.704 63.5589C141.944 63.8094 142.233 63.9999 142.571 64.1315C142.908 64.2641 143.285 64.3294 143.701 64.3294C143.998 64.3294 144.263 64.2989 144.497 64.2378C144.732 64.1767 144.96 64.0915 145.182 63.9852V62.5199H144.168C144.072 62.5199 143.997 62.4936 143.943 62.4389C143.889 62.3852 143.862 62.3199 143.862 62.242V61.3947H146.535V64.6525C146.126 64.9525 145.692 65.1736 145.229 65.3125Z" fill="#C7B399"/>
<path d="M156.848 57.3862V58.5768H153.272V60.8104H156.09V61.9631H153.272V64.2409H156.848V65.4378H151.769V57.3862H156.848Z" fill="#C7B399"/>
<path d="M1.90842 25.0322H0.0663156C0.855787 24.0448 1.08526 22.9269 1.11894 21.6101C1.15158 19.9322 1.21684 17.9911 1.21684 15.5911V9.14275C1.21684 6.24802 1.25052 4.9975 1.18421 3.74802C1.11894 2.53119 0.822103 1.4775 0 0.359613H1.54631C3.3221 0.359613 5.0663 0.261719 6.74419 0.261719C11.4147 0.261719 13.5863 2.36698 13.5863 5.75433C13.5863 8.9459 12.0726 10.4912 9.90102 11.8743V11.9059C12.9284 12.4659 15.6252 14.0459 15.6252 18.0575C15.6252 22.0722 12.8294 25.228 7.23682 25.228C5.59156 25.228 3.88209 25.0322 1.90842 25.0322ZM10.8231 6.57749C10.8231 3.6175 9.40839 1.87329 5.95472 1.87329C4.44104 1.87329 4.07894 1.97119 3.94736 2.10382C3.81578 2.23434 3.78315 2.46487 3.78315 2.76276V11.2817C3.98104 11.4122 4.27683 11.447 4.63893 11.5112C5.0663 11.5764 5.75682 11.5764 6.38209 11.5764C9.44208 11.5764 10.8231 9.47117 10.8231 6.57749ZM12.7315 18.7154C12.7315 14.9006 10.3294 13.2891 6.67787 13.2891H3.98104C3.84946 13.2891 3.78315 13.3533 3.78315 13.5175V14.5375C3.78315 16.9396 3.78315 18.9132 3.84946 21.0522C3.88209 22.3027 4.17788 22.7617 5.13156 22.9932C6.01998 23.2238 6.97366 23.3217 8.02734 23.3217C10.8558 23.3217 12.7315 21.8406 12.7315 18.7154Z" fill="#C7B399"/>
<path d="M29.7129 12.961C29.7129 5.55893 34.6466 0 42.2455 0C49.417 0 54.7128 5.23051 54.7128 12.4673C54.7128 19.901 49.6476 25.2968 42.1476 25.2968C35.0739 25.2968 29.7129 20.1989 29.7129 12.961ZM51.8844 12.9273C51.8844 6.77577 47.936 1.97263 41.7844 1.97263C36.0287 1.97263 32.5087 6.4463 32.5087 12.4673C32.5087 18.6189 36.456 23.4536 42.6729 23.4536C48.7928 23.4536 51.8844 18.8494 51.8844 12.9273Z" fill="#C7B399"/>
<path d="M70.9795 4.73261H70.8479C70.8479 10.1936 70.8153 15.8199 70.8153 21.2778C70.8153 22.661 71.21 24.2073 72.0321 25.0294H67.7227C68.4132 24.042 68.7753 22.7273 68.809 21.1157C68.8742 17.102 68.9405 8.54839 68.9732 5.32418V0.0947266H70.4205L87.691 20.6536H87.8226V5.22629C87.8226 2.9884 87.3615 1.31051 86.5068 0.35683H91.0468C90.3236 1.21262 90.0268 2.32946 89.9942 4.00735C89.9279 7.39786 89.83 15.8199 89.83 19.701V25.2925H88.4142L70.9795 4.73261Z" fill="#C7B399"/>
<path d="M154.339 22.1038C154.471 20.0649 154.471 17.2028 154.471 13.4544C154.471 10.2944 154.471 6.24915 154.437 2.17022H148.747C147.496 2.17022 146.575 2.6618 145.622 3.78179L145.687 0.294434C146.575 0.328118 147.431 0.359697 148.319 0.359697H163.222C164.11 0.359697 164.965 0.328118 165.886 0.294434L165.787 3.78179C164.833 2.6618 164.044 2.17022 162.826 2.17022H156.971V13.4544C156.971 17.1702 157.004 19.9323 157.135 22.0375C157.202 23.2554 157.497 24.2102 158.254 25.0323H153.221C153.977 24.308 154.239 23.2554 154.339 22.1038Z" fill="#C7B399"/>
<path d="M191.239 13.4584V13.3921H177.357V13.4584C177.357 17.1752 177.422 19.9363 177.522 22.0426C177.587 23.2605 177.916 24.2142 178.673 25.0373H173.639C174.363 24.3121 174.66 23.2605 174.725 22.1078C174.856 20.07 174.856 17.2394 174.856 13.4584C174.856 9.80577 174.856 6.68052 174.758 3.5879C174.725 2.27316 174.396 1.38369 173.639 0.364746H178.64C177.784 1.35211 177.456 2.23948 177.422 3.48895C177.39 6.15421 177.357 8.71946 177.357 11.7142H191.239C191.239 8.81841 191.239 6.22052 191.14 3.5879C191.108 2.27316 190.778 1.38369 190.021 0.364746H195.022C194.168 1.35211 193.838 2.23948 193.804 3.48895C193.772 6.64894 193.739 9.70788 193.739 13.4584C193.739 17.1752 193.772 19.9363 193.904 22.0426C193.97 23.2605 194.298 24.2142 195.055 25.0373H190.021C190.746 24.3121 191.042 23.2605 191.108 22.1078C191.239 20.07 191.239 17.2394 191.239 13.4584Z" fill="#C7B399"/>
<path d="M221.424 25.0373C221.754 24.5773 221.918 24.0836 221.918 23.5552C221.918 22.7015 221.524 21.7478 221.096 20.6615L219.419 16.3184H210.108L208.333 20.9594C208.003 21.8457 207.641 22.7994 207.641 23.5552C207.641 24.0836 207.773 24.5436 208.102 25.0373H203.661C204.779 23.7542 205.536 22.4721 206.227 20.6942L212.642 4.34474C213.2 2.96369 213.563 1.91001 213.563 0.891061C213.563 0.694219 213.53 0.497377 213.497 0.364746H216.556C216.523 0.528956 216.49 0.725798 216.49 0.891061C216.49 1.91001 216.918 2.96369 217.412 4.24684L223.695 20.4647C224.419 22.3394 225.207 23.7542 226.26 25.0373H221.424ZM218.76 14.6426L214.812 4.37842H214.681L210.766 14.6426H218.76Z" fill="#C7B399"/>
<path d="M236.019 22.1089C236.15 20.07 236.15 17.2405 236.15 13.4594C236.15 9.80578 236.15 6.68157 236.051 3.58895C236.019 2.27316 235.689 1.38474 234.934 0.364746H240C239.144 1.35211 238.816 2.23948 238.782 3.49C238.749 6.64894 238.717 9.70788 238.717 13.4594C238.717 17.1752 238.749 19.9373 238.881 22.0426C238.947 23.2605 239.243 24.2152 240 25.0373H234.934C235.658 24.3131 235.954 23.2605 236.019 22.1089Z" fill="#C7B399"/>
<path d="M119.23 0.294434H120.771V25.0333H119.23V0.294434Z" fill="#C7B399"/>
<path d="M121.258 80.7646H120.668V91.2341H121.258V80.7646Z" fill="#C7B399"/>
<path d="M128.546 86.7044L128.231 86.6813C126.642 86.5813 124.421 86.1792 122.869 84.8465C120.799 83.0655 120.661 80.2297 120.67 79.4044L120.672 79.1118H120.965C125.122 79.1118 128.524 82.376 128.544 86.3897L128.546 86.7044ZM121.264 79.7097C121.299 80.7097 121.572 82.9518 123.252 84.3981C124.581 85.5402 126.481 85.9423 127.946 86.0697C127.757 82.6265 124.85 79.856 121.264 79.7097Z" fill="#C7B399"/>
<path d="M113.382 86.7044L113.384 86.3897C113.403 82.376 116.801 79.1118 120.961 79.1118H121.253L121.255 79.4044C121.267 80.2297 121.139 83.056 119.058 84.8465C117.505 86.1792 115.286 86.5813 113.697 86.6813L113.382 86.7044ZM120.664 79.7097C117.076 79.856 114.169 82.6265 113.982 86.0697C115.448 85.9423 117.345 85.5402 118.673 84.3981C120.363 82.9465 120.632 80.7097 120.664 79.7097Z" fill="#C7B399"/>
<path d="M121.253 93.7284H120.961C116.802 93.7284 113.403 90.4642 113.385 86.4505L113.382 86.1357L113.698 86.1589C115.286 86.2589 117.505 86.661 119.058 87.9989C121.14 89.7842 121.267 92.6105 121.255 93.4357L121.253 93.7284ZM113.983 86.7705C114.169 90.2126 117.076 92.9852 120.664 93.1305C120.632 92.1305 120.363 89.8978 118.673 88.4463C117.345 87.3052 115.448 86.8989 113.983 86.7705Z" fill="#C7B399"/>
<path d="M120.965 93.7284H120.672L120.67 93.4357C120.661 92.6105 120.799 89.7747 122.869 87.9989C124.421 86.661 126.64 86.2589 128.231 86.1589L128.546 86.1357L128.544 86.4505C128.524 90.4642 125.122 93.7284 120.965 93.7284ZM127.946 86.7705C126.481 86.8989 124.581 87.2999 123.252 88.4463C121.572 89.8894 121.299 92.1305 121.264 93.1305C124.85 92.9852 127.757 90.2126 127.946 86.7705Z" fill="#C7B399"/>
<path d="M119.689 52.0731H118.186V48.5531H114.404V52.0731H112.901V44.0205H114.404V47.4847H118.186V44.0205H119.689V52.0731Z" fill="#C7B399"/>
</svg>
