<svg width="40" height="61" viewBox="0 0 40 61" fill="none" xmlns="http://www.w3.org/2000/svg">
<path d="M20 0.425781C8.955 0.425781 0 9.38078 0 20.4258C0 24.7749 1.42583 28.7658 3.79583 32.0341C3.83833 32.1124 3.845 32.1999 3.89333 32.2749L17.2267 52.2749C17.845 53.2024 18.8867 53.7591 20 53.7591C21.1133 53.7591 22.155 53.2024 22.7733 52.2749L36.1067 32.2749C36.1558 32.1999 36.1617 32.1124 36.2042 32.0341C38.5742 28.7658 40 24.7749 40 20.4258C40 9.38078 31.045 0.425781 20 0.425781ZM20 27.0924C16.3183 27.0924 13.3333 24.1074 13.3333 20.4258C13.3333 16.7441 16.3183 13.7591 20 13.7591C23.6817 13.7591 26.6667 16.7441 26.6667 20.4258C26.6667 24.1074 23.6817 27.0924 20 27.0924Z" fill="url(#paint0_linear_4120_1032)"/>
<path d="M20 27.0924C16.3183 27.0924 13.3333 24.1074 13.3333 20.4258C13.3333 16.7441 16.3183 13.7591 20 13.7591C23.6817 13.7591 26.6667 16.7441 26.6667 20.4258C26.6667 24.1074 23.6817 27.0924 20 27.0924Z" fill="url(#paint1_linear_4120_1032)"/>
<path d="M22.6667 57.7591C22.6667 59.2319 21.4728 60.4258 20 60.4258C18.5272 60.4258 17.3333 59.2319 17.3333 57.7591C17.3333 56.2864 18.5272 55.0924 20 55.0924C21.4728 55.0924 22.6667 56.2864 22.6667 57.7591Z" fill="url(#paint2_linear_4120_1032)"/>
<path d="M20.3882 11.9365H19.6094V25.745H20.3882V11.9365Z" fill="#EFDABE"/>
<path d="M29.9999 19.7729L29.5848 19.7424C27.4884 19.6105 24.559 19.0801 22.5126 17.3225C19.7817 14.9734 19.5999 11.2332 19.6124 10.1447L19.6151 9.75879H20.0011C25.4837 9.75879 29.9708 14.064 29.9972 19.3578L29.9999 19.7729ZM20.3954 10.5474C20.4412 11.8663 20.8022 14.8235 23.018 16.731C24.7701 18.2374 27.276 18.7677 29.2086 18.9357C28.9587 14.3945 25.1255 10.7403 20.3954 10.5474Z" fill="#EFDABE"/>
<path d="M10 19.7729L10.0028 19.3578C10.0278 14.064 14.5093 9.75879 19.9961 9.75879H20.382L20.3848 10.1447C20.4001 11.2332 20.2307 14.9609 17.4859 17.3225C15.4381 19.0801 12.5115 19.6105 10.4151 19.7424L10 19.7729ZM19.6046 10.5474C14.8717 10.7403 11.0385 14.3945 10.7914 18.9357C12.7253 18.7677 15.2271 18.2374 16.9792 16.731C19.2075 14.8165 19.5629 11.8663 19.6046 10.5474Z" fill="#EFDABE"/>
<path d="M20.382 29.0405H19.9961C14.5107 29.0405 10.0278 24.7352 10.0042 19.4415L10 19.0264L10.4165 19.0569C12.5115 19.1888 15.4381 19.7191 17.4859 21.4837C20.2321 23.8384 20.4001 27.5661 20.3848 28.6545L20.382 29.0405ZM10.7927 19.8635C11.0385 24.4034 14.8717 28.0603 19.6046 28.2519C19.5629 26.933 19.2075 23.9883 16.9792 22.0738C15.2271 20.5688 12.7253 20.0329 10.7927 19.8635Z" fill="#EFDABE"/>
<path d="M20.0011 29.0405H19.6151L19.6124 28.6545C19.5999 27.5661 19.7817 23.8259 22.5126 21.4837C24.559 19.7191 27.4857 19.1888 29.5848 19.0569L29.9999 19.0264L29.9972 19.4415C29.9708 24.7352 25.4837 29.0405 20.0011 29.0405ZM29.2086 19.8635C27.276 20.0329 24.7701 20.5619 23.018 22.0738C20.8022 23.9772 20.4412 26.933 20.3954 28.2519C25.1255 28.0603 28.9587 24.4034 29.2086 19.8635Z" fill="#EFDABE"/>
<defs>
<linearGradient id="paint0_linear_4120_1032" x1="0" y1="30.4258" x2="40" y2="30.4258" gradientUnits="userSpaceOnUse">
<stop stop-color="#575757"/>
<stop offset="1" stop-color="#3E3D39"/>
</linearGradient>
<linearGradient id="paint1_linear_4120_1032" x1="0" y1="30.4258" x2="40" y2="30.4258" gradientUnits="userSpaceOnUse">
<stop stop-color="#575757"/>
<stop offset="1" stop-color="#3E3D39"/>
</linearGradient>
<linearGradient id="paint2_linear_4120_1032" x1="0" y1="30.4258" x2="40" y2="30.4258" gradientUnits="userSpaceOnUse">
<stop stop-color="#575757"/>
<stop offset="1" stop-color="#3E3D39"/>
</linearGradient>
</defs>
</svg>
