<svg width="39" height="38" viewBox="0 0 39 38" fill="none" xmlns="http://www.w3.org/2000/svg">
<g clip-path="url(#clip0_2122_13590)">
<path d="M4.76679 21.4782L3.83919 22.4164C4.35266 22.9277 5.18092 22.9277 5.69438 22.4164L4.76679 21.4782ZM8.64418 19.4792C9.16052 18.9651 9.16378 18.1282 8.65148 17.6101C8.13918 17.0918 7.3053 17.0886 6.78896 17.6026L8.64418 19.4792ZM2.74461 17.6026C2.22827 17.0886 1.39439 17.0918 0.882089 17.6101C0.369788 18.1282 0.373072 18.9651 0.889411 19.4792L2.74461 17.6026ZM30.9943 11.5965C31.3752 12.2183 32.1863 12.4125 32.806 12.0302C33.4255 11.6479 33.619 10.8339 33.2381 10.212L30.9943 11.5965ZM27.9695 4.92621C27.35 4.54361 26.5389 4.73741 26.1577 5.35909C25.7765 5.98076 25.9694 6.79489 26.589 7.17749L27.9695 4.92621ZM20.1907 5.19324C20.9172 5.22896 21.535 4.66686 21.5706 3.93777C21.6063 3.20867 21.0461 2.58865 20.3196 2.55292L20.1907 5.19324ZM19.5157 2.5332C10.6525 2.5332 3.44977 9.69035 3.44977 18.5409H6.0838C6.0838 11.1699 12.0877 5.17669 19.5157 5.17669V2.5332ZM3.44977 18.5409V21.4782H6.0838V18.5409H3.44977ZM5.69438 22.4164L8.64418 19.4792L6.78896 17.6026L3.83919 20.5399L5.69438 22.4164ZM5.69438 20.5399L2.74461 17.6026L0.889411 19.4792L3.83919 22.4164L5.69438 20.5399ZM33.2381 10.212C31.9223 8.06418 30.114 6.25066 27.9695 4.92621L26.589 7.17749C28.3833 8.28576 29.8955 9.80289 30.9943 11.5965L33.2381 10.212ZM20.3196 2.55292C20.0532 2.53983 19.7851 2.5332 19.5157 2.5332V5.17669C19.7421 5.17669 19.9672 5.18226 20.1907 5.19324L20.3196 2.55292Z" fill="#B7A38C"/>
<path d="M34.237 17.7885L35.1595 16.8485C34.6482 16.3396 33.8256 16.3396 33.3143 16.8485L34.237 17.7885ZM30.3637 19.7858C29.8482 20.2988 29.8433 21.1357 30.3528 21.6549C30.8624 22.1741 31.6932 22.179 32.2087 21.6658L30.3637 19.7858ZM36.2651 21.6658C36.7806 22.179 37.6114 22.1741 38.121 21.6549C38.6305 21.1357 38.6256 20.2988 38.1101 19.7856L36.2651 21.6658ZM7.99607 27.6683C7.61542 27.0471 6.80681 26.8543 6.19001 27.2377C5.57318 27.621 5.38173 28.4354 5.76239 29.0566L7.99607 27.6683ZM18.8722 34.0764C18.1481 34.0442 17.5351 34.6093 17.5031 35.3386C17.4712 36.0678 18.0322 36.6852 18.7563 36.7173L18.8722 34.0764ZM11.1375 34.4065C11.7583 34.7831 12.5648 34.5817 12.9389 33.9564C13.313 33.3313 13.113 32.5191 12.4921 32.1423L11.1375 34.4065ZM19.4836 36.7335C28.3419 36.7335 35.5494 29.5811 35.5494 20.7258H32.9246C32.9246 28.0921 26.9214 34.09 19.4836 34.09V36.7335ZM35.5494 20.7258V17.7885H32.9246V20.7258H35.5494ZM33.3143 16.8485L30.3637 19.7858L32.2087 21.6658L35.1595 18.7286L33.3143 16.8485ZM33.3143 18.7286L36.2651 21.6658L38.1101 19.7856L35.1595 16.8485L33.3143 18.7286ZM18.7563 36.7173C18.9975 36.728 19.24 36.7335 19.4836 36.7335V34.09C19.2785 34.09 19.0746 34.0854 18.8722 34.0764L18.7563 36.7173ZM5.76239 29.0566C7.10014 31.2398 8.94689 33.077 11.1375 34.4065L12.4921 32.1423C10.6577 31.029 9.11306 29.4912 7.99607 27.6683L5.76239 29.0566Z" fill="#B7A38C"/>
</g>
<defs>
<clipPath id="clip0_2122_13590">
<rect width="38" height="38" fill="white" transform="translate(0.5)"/>
</clipPath>
</defs>
</svg>
