<svg width="288" height="507" viewBox="0 0 288 507" fill="none" xmlns="http://www.w3.org/2000/svg">
<path opacity="0.5" fill-rule="evenodd" clip-rule="evenodd" d="M258.293 30.5381V32.1983C136.908 32.1983 38.4872 131.42 38.4872 253.841C38.4872 376.262 136.908 475.484 258.293 475.484V477.144C135.976 477.144 36.8252 377.164 36.8252 253.841C36.8252 130.518 135.976 30.5381 258.293 30.5381Z" fill="black" fill-opacity="0.2"/>
<circle cx="106" cy="416.852" r="30" fill="black" fill-opacity="0.2"/>
<g opacity="0.5" clip-path="url(#clip0_2122_14458)">
<path d="M94.976 403.071C95.6663 403.071 96.2274 402.411 96.2274 401.601C96.2274 400.791 95.6663 400.131 94.976 400.131C94.2858 400.131 93.7246 400.791 93.7246 401.601C93.7246 402.411 94.2858 403.071 94.976 403.071ZM94.976 400.554C95.4327 400.554 95.8043 401.023 95.8043 401.6C95.8043 402.177 95.4327 402.647 94.976 402.647C94.5193 402.647 94.1477 402.178 94.1477 401.6C94.1477 401.023 94.5186 400.554 94.976 400.554Z" fill="url(#paint0_linear_2122_14458)"/>
<path d="M127.061 423.541L126.797 422.949C126.581 422.466 126.365 421.983 126.16 421.494C125.699 420.396 124.836 419.65 123.596 419.275C122.688 419.001 121.741 418.916 120.742 419.01L121.823 410.383L121.826 410.337C121.826 410.289 121.825 410.239 121.816 410.188C121.809 410.199 121.8 410.209 121.792 410.221C121.801 410.162 121.826 410.105 121.826 410.044C121.826 407.443 113.217 406.04 105.116 406.04C102.562 406.04 100.026 406.173 97.7518 406.427L97.7496 405.466C97.7608 405.41 97.8048 405.257 97.8653 405.044C98.1138 404.172 98.5757 402.549 98.5436 401.705C98.5436 399.817 97.0071 398.28 95.1184 398.28C93.2297 398.28 91.6932 399.817 91.6932 401.714C91.7067 402.326 92.044 403.593 92.3887 404.839C92.4753 405.154 92.5417 405.387 92.5514 405.418V406.883C92.5514 406.967 92.5469 407.034 92.5432 407.102C92.5387 407.175 92.5342 407.248 92.5328 407.34C89.7568 408.051 88.4069 408.937 88.4069 410.044C88.4069 410.098 88.4158 410.151 88.4233 410.204C88.4114 410.264 88.4091 410.324 88.4099 410.382L90.4597 426.721C90.4291 426.715 90.4 426.708 90.3694 426.702C87.5562 426.218 84.969 427.604 84.8601 427.663L84.5713 427.82L84.7862 428.068C84.8653 428.16 86.7615 430.319 89.577 430.804C89.9941 430.875 90.4053 430.906 90.8052 430.906C92.3171 430.906 93.6409 430.47 94.4043 430.155C93.7707 430.533 92.8686 431.205 92.3596 432.197C91.5328 433.809 92.0865 435.595 92.1104 435.671L92.1977 435.943L92.4619 435.835C92.5402 435.803 94.3931 435.03 95.2147 433.426C95.5094 432.851 95.6244 432.257 95.655 431.723C97.7936 432.426 100.812 432.93 105.114 432.93C109.374 432.93 112.736 432.454 115.206 431.539C115.955 432.077 116.883 432.475 118.028 432.736C118.601 432.865 119.17 432.93 119.735 432.93C120.663 432.93 121.577 432.755 122.468 432.406C124.207 431.725 125.568 430.492 126.515 428.742C127.09 427.678 127.397 426.579 127.426 425.474C127.447 424.783 127.322 424.132 127.061 423.541ZM120.634 413.876C120.216 414.43 119.133 414.976 117.487 415.442L117.59 413.345C117.596 413.228 117.506 413.129 117.389 413.123C117.273 413.118 117.173 413.207 117.167 413.324L117.057 415.556C116.157 415.791 115.118 416.004 113.943 416.184L113.988 414.389C113.991 414.272 113.899 414.175 113.782 414.172C113.642 414.164 113.569 414.261 113.566 414.378L113.519 416.243C112.402 416.402 111.176 416.531 109.855 416.625L109.865 415.228C109.866 415.111 109.772 415.016 109.656 415.014C109.655 415.014 109.655 415.014 109.654 415.014C109.538 415.014 109.444 415.108 109.443 415.225L109.435 416.357C108.956 415.568 108.478 414.779 108 413.989C113.251 413.773 118.257 412.981 120.537 411.662C120.544 411.663 120.547 411.67 120.554 411.67C120.64 411.67 120.699 411.612 120.733 411.538C120.808 411.49 120.877 411.441 120.945 411.391L120.634 413.876ZM117.309 419.058L117.466 415.872C118.829 415.497 119.9 415.049 120.551 414.535L120.152 417.728C119.652 418.199 118.679 418.657 117.309 419.058ZM120.078 418.316L119.978 419.113C119.516 419.198 119.043 419.316 118.555 419.475C118.104 419.621 117.677 419.796 117.263 419.986L117.287 419.494C118.479 419.157 119.438 418.763 120.078 418.316ZM113.851 419.802L113.932 416.594C115.061 416.424 116.106 416.22 117.036 415.985L116.879 419.177C116.006 419.411 114.991 419.622 113.851 419.802ZM116.858 419.612L116.829 420.207C115.644 420.813 114.619 421.598 113.781 422.567L113.841 420.218C114.937 420.048 115.956 419.846 116.858 419.612ZM111.695 420.086L111.578 419.894C111 418.945 110.429 417.993 109.852 417.044V417.04C111.123 416.947 112.353 416.819 113.508 416.656L113.427 419.869C112.877 419.949 112.297 420.022 111.695 420.086ZM113.416 420.283L113.352 422.811L111.929 420.472C112.436 420.416 112.935 420.354 113.416 420.283ZM107.558 413.257C107.149 412.579 106.735 411.906 106.327 411.227C105.803 410.35 105.178 409.555 104.464 408.812C104.667 408.81 104.869 408.807 105.08 408.807C113.17 408.807 119.039 409.937 120.14 411.077C118.259 412.126 113.662 413.056 107.558 413.257ZM93.0014 407.994L93.3021 407.921L93.2857 407.612C93.2738 407.388 93.2812 407.266 93.2887 407.148C93.2939 407.066 93.2984 406.986 93.2984 406.884V405.419C93.2984 405.334 93.2827 405.269 93.1088 404.64C92.879 403.811 92.4522 402.267 92.4402 401.706C92.4402 400.229 93.6416 399.027 95.1192 399.027C96.5967 399.027 97.7981 400.229 97.7981 401.72C97.8265 402.459 97.3683 404.067 97.1481 404.84C97.0235 405.278 97.0079 405.339 97.0079 405.419V407.266L97.4257 407.216C99.7749 406.935 102.435 406.786 105.118 406.786C114.525 406.786 121.081 408.503 121.081 410.044C121.081 410.313 120.881 410.587 120.502 410.856C119.06 409.246 111.882 408.384 105.081 408.384C104.742 408.384 104.399 408.387 104.056 408.391C103.782 408.129 103.497 407.873 103.195 407.625C102.735 407.21 102.252 407.019 101.682 407.075C100.757 407.26 100.246 407.737 100.102 408.512C94.9662 408.781 90.353 409.505 89.818 410.913C89.3859 410.626 89.1561 410.333 89.1561 410.045C89.1538 409.783 89.4314 408.862 93.0014 407.994ZM101.246 410.235C102.365 410.883 103.262 411.83 104.145 413.29C97.4242 413.203 92.2932 412.241 90.1963 411.132C90.3366 410.212 93.7834 409.264 100.13 408.934C100.305 409.469 100.667 409.9 101.246 410.235ZM89.6889 414.602C90.4665 415.177 91.7686 415.667 93.4185 416.063L93.5864 419.372C91.6171 418.899 90.3508 418.293 90.0657 417.606L89.6889 414.602ZM90.168 418.422C90.8388 418.995 92.0477 419.46 93.6096 419.825L94.0461 428.411C93.3648 427.878 92.4007 427.269 91.2343 426.912L90.168 418.422ZM93.8469 416.161C94.7946 416.371 95.84 416.552 96.9541 416.702L97.0399 419.973C95.9184 419.833 94.9035 419.665 94.0148 419.469L93.8469 416.161ZM90.2806 427.224C90.5762 427.275 90.8575 427.35 91.1306 427.437L92.1298 428.945L90.4717 428.661L89.4635 427.139C89.7322 427.151 90.0053 427.176 90.2806 427.224ZM89.0576 427.14L90.0128 428.583L88.5934 428.34L87.8674 427.243C88.2449 427.182 88.6442 427.146 89.0576 427.14ZM87.5047 427.31L88.1353 428.262L85.7235 427.85C86.1488 427.676 86.7704 427.461 87.5047 427.31ZM89.668 430.284C87.8077 429.963 86.3495 428.826 85.6473 428.181L94.2431 429.649C93.3461 430.019 91.5425 430.605 89.668 430.284ZM92.5768 429.021C92.5738 429.014 92.5768 429.008 92.573 429.001L91.6634 427.628C92.8469 428.11 93.7678 428.837 94.2871 429.313L92.5768 429.021ZM94.6587 433.072C94.1058 434.151 92.979 434.83 92.4551 435.099C92.3454 434.561 92.2014 433.383 92.7447 432.325C93.2976 431.246 94.4244 430.568 94.9483 430.298C95.058 430.836 95.2012 432.013 94.6587 433.072ZM95.6445 430.943C95.593 430.384 95.4774 429.989 95.4662 429.954L95.3788 429.682L95.3744 429.684L95.161 429.437C95.1341 429.406 94.8953 429.137 94.4879 428.778L94.0379 419.92C94.9483 420.114 95.9639 420.277 97.0519 420.409L97.3407 431.431C96.7116 431.283 96.1497 431.119 95.6445 430.943ZM97.3787 416.756C98.5451 416.902 99.7756 417.015 101.04 417.092L101.064 420.319C99.7801 420.251 98.5742 420.152 97.4645 420.024L97.3787 416.756ZM97.7339 431.519C97.7444 431.493 97.7645 431.472 97.7638 431.442L97.4757 420.46C98.6122 420.587 99.8219 420.682 101.067 420.746L101.149 432.016C99.848 431.901 98.7145 431.731 97.7339 431.519ZM105.239 432.184C105.197 432.184 105.16 432.186 105.116 432.186C103.812 432.186 102.643 432.136 101.573 432.053L101.49 420.768C102.67 420.821 103.879 420.848 105.086 420.848C105.18 420.848 105.275 420.844 105.369 420.844L105.239 432.184ZM105.375 420.419C105.277 420.42 105.185 420.424 105.086 420.424C103.834 420.424 102.635 420.392 101.487 420.339L101.462 417.117C102.652 417.181 103.866 417.216 105.073 417.216C105.186 417.216 105.298 417.21 105.411 417.21L105.375 420.419ZM105.43 415.448L105.415 416.789C105.299 416.79 105.189 416.793 105.072 416.793C103.807 416.793 102.605 416.758 101.458 416.699L101.451 415.693C101.45 415.577 101.355 415.483 101.24 415.483C101.239 415.483 101.239 415.483 101.238 415.483C101.122 415.484 101.028 415.579 101.029 415.696L101.036 416.675C99.7234 416.598 98.4943 416.488 97.3675 416.346L97.3272 414.814C97.3243 414.699 97.2302 414.608 97.1161 414.608C97.1146 414.608 97.1123 414.608 97.1101 414.608C96.9937 414.611 96.9019 414.708 96.9049 414.825L96.9429 416.29C95.7885 416.134 94.7431 415.948 93.8245 415.739L93.7252 413.794C93.7185 413.676 93.611 413.591 93.5028 413.593C93.3864 413.599 93.2969 413.698 93.3021 413.814L93.3946 415.636C91.4709 415.161 90.1613 414.587 89.6105 413.995L89.2852 411.401C91.6134 413.085 98.2048 413.999 104.601 414.046C104.878 414.509 105.158 414.969 105.436 415.431C105.436 415.437 105.43 415.441 105.43 415.448ZM109.343 431.998C108.247 432.101 107.024 432.163 105.663 432.177L105.792 420.836C106.746 420.826 107.697 420.795 108.636 420.743C108.671 420.802 108.706 420.862 108.743 420.921C108.96 421.28 109.176 421.64 109.394 421.999L109.321 431.94C109.319 431.962 109.336 431.977 109.343 431.998ZM106.498 417.193C107.13 418.24 107.757 419.291 108.391 420.338C107.559 420.379 106.692 420.404 105.797 420.414L105.833 417.204C106.055 417.201 106.276 417.198 106.498 417.193ZM105.838 416.783L105.845 416.11C105.979 416.332 106.113 416.555 106.248 416.778C106.113 416.78 105.975 416.781 105.838 416.783ZM113.134 431.395C112.168 431.629 111.047 431.825 109.733 431.963C109.734 431.956 109.741 431.951 109.741 431.943L109.809 422.691C110.65 424.08 111.493 425.469 112.327 426.862C112.69 427.467 112.963 428.137 113.201 428.756L113.134 431.395ZM113.56 431.287L113.601 429.679C113.855 430.174 114.172 430.609 114.552 430.99C114.243 431.092 113.914 431.192 113.56 431.287ZM126.684 425.457C126.657 426.456 126.388 427.415 125.862 428.389C125.002 429.979 123.769 431.098 122.199 431.713C120.908 432.219 119.56 432.319 118.196 432.01C115.982 431.508 114.652 430.478 114.01 428.769C113.74 428.052 113.415 427.226 112.968 426.479C111.779 424.493 110.58 422.514 109.381 420.534C107.864 418.031 106.348 415.528 104.852 413.011C103.879 411.375 102.883 410.319 101.62 409.589C101.188 409.339 100.932 409.045 100.82 408.669C100.899 408.184 101.195 407.933 101.818 407.81C102.097 407.789 102.395 407.909 102.708 408.19C103.943 409.204 104.918 410.323 105.689 411.61C107.424 414.51 109.183 417.396 110.941 420.283L112.94 423.57C112.978 423.629 113.017 423.688 113.057 423.747L113.405 424.276L113.914 423.599C114.032 423.437 114.146 423.281 114.27 423.134C115.426 421.762 116.904 420.797 118.787 420.185C120.485 419.633 121.986 419.569 123.382 419.989C124.413 420.301 125.097 420.888 125.473 421.783C125.681 422.276 125.899 422.764 126.117 423.253L126.38 423.843C126.6 424.34 126.7 424.868 126.684 425.457Z" fill="url(#paint1_linear_2122_14458)"/>
<path d="M123.615 421.236C122.994 420.905 122.334 420.817 121.404 420.779H121.392L121.38 420.78C118.517 420.99 116.279 422.178 114.728 424.31C114.502 424.62 114.318 425.028 114.181 425.522C113.954 426.344 114.258 427.023 115.038 427.436C115.602 427.733 116.232 427.879 116.959 427.879C117.031 427.879 117.103 427.877 117.177 427.874C119.301 427.795 121.206 427.03 122.841 425.604C123.735 424.825 124.256 424.051 124.477 423.172C124.689 422.332 124.383 421.645 123.615 421.236ZM124.068 423.069C123.868 423.861 123.391 424.565 122.564 425.286C121.004 426.646 119.186 427.375 117.162 427.451C116.422 427.482 115.788 427.353 115.237 427.061C114.634 426.742 114.416 426.262 114.59 425.634C114.714 425.189 114.875 424.827 115.072 424.558C116.545 422.534 118.673 421.405 121.4 421.202C122.262 421.238 122.869 421.317 123.417 421.609C124.013 421.926 124.232 422.418 124.068 423.069Z" fill="url(#paint2_linear_2122_14458)"/>
</g>
<circle cx="258" cy="476.852" r="30" fill="black" fill-opacity="0.2"/>
<path opacity="0.5" fill-rule="evenodd" clip-rule="evenodd" d="M266.506 459.83C265.526 460.288 265.165 461.45 265.734 462.317C265.893 462.559 265.893 462.559 265.051 463.557C263.69 465.171 261.937 467.071 261.81 467.071C261.785 467.071 261.745 466.933 261.72 466.766C261.627 466.145 261.49 465.819 261.218 465.573C260.8 465.195 259.859 464.998 258.454 464.994C257.038 464.991 255.843 465.267 254.617 465.881C253.47 466.456 252.305 467.394 252.305 467.743C252.305 468.023 252.368 468.138 252.578 468.247C252.827 468.376 253.026 468.298 253.47 467.899C254.422 467.041 255.752 466.397 257.131 466.125C258.055 465.942 260.198 466.073 260.508 466.33C260.553 466.368 260.644 466.685 260.71 467.034C260.881 467.947 260.828 469.4 260.59 470.308C260.272 471.519 259.557 472.798 258.753 473.593C258.362 473.98 258.362 473.98 256.091 473.962C253.82 473.944 253.82 473.944 255.677 472.201C256.76 471.185 257.552 470.39 257.576 470.297C257.673 469.917 257.312 469.546 256.961 469.664C256.872 469.695 255.916 470.548 254.837 471.561C252.875 473.403 252.875 473.403 252.796 472.687C252.61 470.994 252.038 469.581 250.993 468.237C249.832 466.742 248.247 465.723 246.292 465.213C245.628 465.04 245.477 465.026 244.3 465.026C242.428 465.025 241.595 465.247 241.275 465.832C240.905 466.508 240.739 468.504 240.949 469.758C241.194 471.227 241.782 472.56 242.724 473.785C242.859 473.961 242.859 473.961 242.541 474.003C241.939 474.084 241.365 474.518 241.032 475.143C240.818 475.545 240.82 476.504 241.036 476.91C241.266 477.342 241.549 477.63 241.955 477.842C242.324 478.035 242.324 478.035 242.324 478.816C242.325 480.943 242.733 482.783 243.593 484.539C244.671 486.741 246.327 488.518 248.484 489.79C249.207 490.216 250.607 490.807 251.294 490.976C251.753 491.088 251.753 491.088 251.782 491.643C251.805 492.08 251.853 492.283 252.004 492.593C252.25 493.097 252.702 493.547 253.211 493.798C253.612 493.995 253.612 493.995 257.999 493.995C262.387 493.995 262.387 493.995 262.788 493.798C263.648 493.375 264.166 492.598 264.215 491.655C264.244 491.111 264.244 491.111 264.789 490.957C266.065 490.597 267.468 489.914 268.579 489.112C269.629 488.353 271.128 486.808 271.128 486.484C271.128 486.235 270.853 485.959 270.603 485.959C270.42 485.959 270.288 486.069 269.612 486.779C268.176 488.287 266.777 489.201 264.984 489.801C263.313 490.361 262.449 490.427 257.355 490.388C254.006 490.362 253.25 490.338 252.774 490.246C250.33 489.774 248.513 488.851 246.821 487.223C245.792 486.233 245.089 485.257 244.473 483.965C243.752 482.453 243.465 481.196 243.413 479.326C243.379 478.068 243.379 478.068 257.99 478.068C272.602 478.068 272.602 478.068 272.601 479.024C272.599 480.655 272.332 482.079 271.789 483.362C271.266 484.596 271.28 484.541 271.438 484.755C271.803 485.245 272.16 485.091 272.536 484.282C273.294 482.653 273.674 480.826 273.674 478.811C273.674 478.035 273.674 478.035 274.043 477.842C274.449 477.63 274.732 477.342 274.963 476.91C275.087 476.677 275.113 476.52 275.114 476.023C275.114 475.48 275.094 475.384 274.917 475.063C274.696 474.665 274.412 474.388 273.99 474.163C273.71 474.013 273.675 474.011 270.339 473.978C266.97 473.944 266.97 473.944 267.666 473.196C268.614 472.177 269.937 470.952 271.693 469.467C272.291 468.962 272.291 468.962 272.532 469.122C273 469.432 273.828 469.448 274.297 469.158C275.027 468.705 275.317 467.875 275.039 467.032C274.94 466.734 274.602 466.374 271.572 463.339C269.725 461.489 268.109 459.923 267.98 459.858C267.611 459.672 266.875 459.658 266.506 459.83ZM267.469 460.801C267.75 460.935 273.982 467.185 274.071 467.423C274.234 467.86 273.891 468.345 273.418 468.345C273.184 468.345 273.026 468.197 269.84 465.008C266.673 461.838 266.506 461.659 266.506 461.429C266.506 461.07 266.824 460.72 267.166 460.704C267.216 460.702 267.352 460.746 267.469 460.801ZM269.119 465.765C271.564 468.215 271.564 468.215 271.263 468.464C269.142 470.222 267.204 472.076 266.069 473.434C265.614 473.978 265.614 473.978 262.736 473.978C259.938 473.978 259.861 473.974 259.95 473.852C260.698 472.834 261.078 472.142 261.412 471.195C261.636 470.558 261.884 469.281 261.885 468.757C261.885 468.448 261.892 468.439 262.568 467.808C263.307 467.118 264.614 465.689 265.837 464.236C266.26 463.732 266.622 463.319 266.641 463.318C266.659 463.317 267.775 464.418 269.119 465.765ZM245.171 466.072C247.326 466.336 249.325 467.56 250.522 469.346C251.294 470.498 251.694 471.725 251.752 473.123C251.787 473.978 251.787 473.978 251.124 473.978C250.462 473.978 250.462 473.978 248.285 471.928C247.088 470.801 246.019 469.821 245.908 469.749C245.652 469.584 245.533 469.586 245.314 469.758C245.178 469.865 245.138 469.956 245.138 470.154C245.138 470.405 245.188 470.459 247.021 472.178C248.904 473.944 248.904 473.944 246.602 473.964C244.3 473.983 244.3 473.983 243.913 473.561C242.455 471.975 241.699 469.753 241.92 467.708C241.982 467.13 242.136 466.365 242.203 466.298C242.228 466.273 243.211 466.079 243.497 466.043C243.923 465.99 244.593 466.001 245.171 466.072ZM273.522 475.115C273.827 475.254 274.049 475.549 274.117 475.905C274.182 476.253 273.913 476.725 273.543 476.912C273.244 477.062 273.244 477.062 258.002 477.061C243.116 477.06 242.753 477.056 242.477 476.931C242.171 476.792 241.949 476.497 241.882 476.141C241.816 475.793 242.085 475.321 242.456 475.134C242.755 474.984 242.755 474.984 257.997 474.985C272.882 474.987 273.245 474.99 273.522 475.115ZM245.228 479.917C245.07 480.075 245.06 480.118 245.103 480.47C245.129 480.68 245.236 481.184 245.34 481.591C246.023 484.253 247.84 486.491 250.334 487.745C251.467 488.314 253.122 488.731 254.247 488.731C254.891 488.731 255.079 488.617 255.079 488.228C255.079 487.833 254.938 487.764 253.939 487.67C252.673 487.55 251.816 487.31 250.765 486.783C249.126 485.96 247.759 484.596 246.95 482.975C246.651 482.376 246.303 481.292 246.181 480.583C246.104 480.131 246.042 479.95 245.935 479.862C245.727 479.691 245.431 479.714 245.228 479.917ZM257.631 491.399C260.173 491.41 262.475 491.393 262.746 491.36C263.238 491.301 263.238 491.301 263.195 491.642C263.135 492.107 262.857 492.538 262.457 492.786C262.129 492.989 262.129 492.989 257.999 492.989C253.869 492.989 253.869 492.989 253.541 492.786C253.133 492.533 252.863 492.108 252.801 491.62C252.757 491.279 252.762 491.26 252.881 491.317C252.952 491.351 255.058 491.387 257.631 491.399Z" fill="url(#paint3_linear_2122_14458)"/>
<circle cx="37.5" cy="247.352" r="37.5" fill="black" fill-opacity="0.2"/>
<g clip-path="url(#clip1_2122_14458)">
<path d="M57.3873 227.464C52.0752 222.152 45.0125 219.227 37.5 219.227C29.9876 219.227 22.9248 222.152 17.6127 227.464C12.3005 232.776 9.375 239.839 9.375 247.351C9.375 254.864 12.3005 261.927 17.6127 267.239C22.9248 272.551 29.9876 275.476 37.5 275.476C37.8066 275.476 38.1123 275.47 38.4175 275.46V275.476C39.1795 275.476 39.9287 275.416 40.6611 275.3C46.9777 274.598 52.8277 271.798 57.3873 267.239C62.6995 261.927 65.625 254.864 65.625 247.351C65.625 239.839 62.6995 232.776 57.3873 227.464ZM40.4481 273.593C39.4759 273.7 38.4924 273.756 37.5 273.756C30.4471 273.756 23.8162 271.01 18.8292 266.023C13.8419 261.035 11.0952 254.404 11.0952 247.351C11.0952 240.299 13.8418 233.668 18.8291 228.681C21.7385 225.771 25.2079 223.626 28.9936 222.342C25.6188 225 23.4566 229.125 23.4566 233.748C23.4566 241.755 29.9485 248.269 37.9398 248.269H38.3795C45.422 248.269 51.1707 253.986 51.1707 261.013C51.1707 267.346 46.4934 272.614 40.4481 273.593ZM56.1709 266.023C53.9053 268.288 51.2997 270.09 48.4701 271.383C51.1873 268.753 52.8911 265.076 52.8911 261.013C52.8911 253.037 46.3708 246.549 38.3795 246.549H37.9398C30.8971 246.549 25.177 240.806 25.177 233.748C25.177 226.697 30.8482 220.961 37.9588 220.961V220.952C44.84 221.069 51.2921 223.802 56.171 228.681C61.1582 233.668 63.9049 240.299 63.9049 247.352C63.9049 254.404 61.1582 261.035 56.1709 266.023Z" fill="url(#paint4_linear_2122_14458)"/>
<path d="M43.9039 233.918L42.7538 233.279L43.9039 232.64C45.6127 231.691 46.5267 229.771 46.1269 227.972C45.9465 227.161 45.5392 226.42 44.9492 225.83C44.359 225.24 43.6183 224.833 42.8066 224.652C41.0074 224.252 39.0882 225.166 38.1387 226.875L37.4999 228.025L36.861 226.875C35.9118 225.166 33.9923 224.252 32.1934 224.652C31.3818 224.833 30.641 225.24 30.0508 225.83C29.4608 226.42 29.0535 227.161 28.8731 227.972C28.4732 229.771 29.3873 231.691 31.0961 232.64L32.2462 233.279L31.0961 233.918C29.3873 234.867 28.4732 236.787 28.8731 238.586C29.0535 239.397 29.4608 240.138 30.0508 240.728C30.6409 241.318 31.3816 241.726 32.1933 241.906C32.4758 241.969 32.7612 241.999 33.0456 241.999C34.5713 241.999 36.0609 241.124 36.861 239.683L37.5 238.533L38.1389 239.683C38.9392 241.124 40.4287 241.999 41.9544 241.999C42.2387 241.999 42.5242 241.969 42.8067 241.906C43.6184 241.725 44.3592 241.318 44.9493 240.728C45.5394 240.138 45.9465 239.397 46.127 238.586C46.5268 236.787 45.6127 234.867 43.9039 233.918ZM39.6427 227.711C40.2249 226.663 41.3722 226.095 42.4335 226.331C42.9252 226.441 43.3745 226.688 43.7328 227.046C44.0911 227.405 44.3383 227.854 44.4476 228.346C44.6835 229.407 44.1163 230.554 43.0685 231.136L40.0741 232.8C40.0318 232.57 39.9575 232.348 39.8562 232.139L41.2177 230.778L40.0014 229.562L38.6398 230.923C38.4308 230.822 38.2094 230.748 37.9791 230.705L39.6427 227.711ZM31.9314 231.136C30.8835 230.554 30.3165 229.407 30.5522 228.346C30.6616 227.854 30.9086 227.405 31.2671 227.046C31.6256 226.688 32.0747 226.441 32.5665 226.331C33.6271 226.095 34.775 226.663 35.3572 227.71L36.516 229.796L36.058 230.621L34.9987 229.561L33.7823 230.778L34.8416 231.837L34.0173 232.295L31.9314 231.136ZM35.3571 238.848C34.7751 239.896 33.6277 240.463 32.5665 240.227C32.0747 240.117 31.6254 239.87 31.2671 239.512C30.9088 239.154 30.6616 238.704 30.5522 238.213C30.3164 237.152 30.8835 236.004 31.9313 235.422L34.9257 233.758C34.9681 233.989 35.0423 234.21 35.1435 234.419L33.7821 235.781L34.9985 236.997L36.36 235.636C36.569 235.737 36.7903 235.811 37.0206 235.854L35.3571 238.848ZM38.1356 233.915C37.9657 234.084 37.7402 234.178 37.5 234.178C37.26 234.178 37.0342 234.085 36.8643 233.915C36.6946 233.745 36.6011 233.519 36.6011 233.279C36.6011 233.039 36.6947 232.813 36.8644 232.644C37.0343 232.474 37.26 232.38 37.5 232.38C37.7401 232.38 37.9658 232.474 38.1356 232.644C38.3053 232.813 38.3989 233.039 38.3989 233.279C38.3989 233.519 38.3055 233.745 38.1356 233.915ZM44.4475 238.213C44.3382 238.704 44.0911 239.154 43.7327 239.512C43.3744 239.87 42.9251 240.118 42.4333 240.227C41.372 240.463 40.2247 239.896 39.6427 238.848L38.4839 236.762L38.9418 235.938L40.0012 236.997L41.2174 235.78L40.1581 234.721L40.9824 234.263L43.0683 235.422C44.1164 236.004 44.6835 237.152 44.4475 238.213Z" fill="url(#paint5_linear_2122_14458)"/>
<path d="M43.904 262.062L42.7539 261.423L43.904 260.785C45.6129 259.835 46.5269 257.916 46.127 256.117C45.9466 255.305 45.5394 254.564 44.9493 253.974C44.3592 253.384 43.6184 252.977 42.8067 252.797C41.0075 252.397 39.0883 253.311 38.1389 255.019L37.5 256.17L36.8609 255.019C35.9116 253.311 33.9923 252.397 32.1932 252.797C31.3815 252.977 30.6408 253.384 30.0507 253.974C29.4605 254.564 29.0534 255.305 28.873 256.117C28.4731 257.916 29.3871 259.835 31.096 260.785L32.2461 261.424L31.096 262.063C29.3873 263.012 28.4731 264.931 28.8731 266.73C29.0535 267.542 29.4608 268.283 30.0508 268.873C30.6409 269.463 31.3817 269.87 32.1933 270.051C32.4758 270.113 32.7612 270.144 33.0456 270.144C34.5712 270.144 36.0609 269.268 36.861 267.828L37.5001 266.678L38.1392 267.828C38.9393 269.268 40.4288 270.144 41.9545 270.144C42.2387 270.144 42.5243 270.113 42.8067 270.051C43.6184 269.87 44.3592 269.463 44.9494 268.873C45.5395 268.283 45.9466 267.542 46.1271 266.73C46.5268 264.931 45.6129 263.012 43.904 262.062ZM39.6427 255.855C40.2249 254.807 41.3724 254.24 42.4334 254.476C42.9252 254.585 43.3745 254.832 43.7328 255.191C44.0911 255.549 44.3383 255.998 44.4476 256.49C44.6835 257.551 44.1163 258.699 43.0685 259.281L40.9827 260.439L40.1584 259.981L41.2177 258.922L40.0014 257.706L38.9421 258.765L38.4842 257.941L39.6427 255.855ZM31.9314 259.281C30.8835 258.698 30.3165 257.551 30.5522 256.49C30.6616 255.998 30.9086 255.549 31.2671 255.191C31.6254 254.832 32.0747 254.585 32.5665 254.476C33.6274 254.24 34.775 254.807 35.3572 255.855L37.0208 258.849C36.7905 258.892 36.5692 258.966 36.3602 259.067L34.9987 257.706L33.7823 258.922L35.1435 260.284C35.0421 260.493 34.9681 260.714 34.9257 260.944L31.9314 259.281ZM35.3571 266.992C34.7751 268.04 33.6274 268.607 32.5664 268.371C32.0747 268.262 31.6255 268.015 31.2671 267.656C30.9088 267.298 30.6616 266.849 30.5522 266.357C30.3164 265.296 30.8835 264.148 31.9313 263.566L34.0171 262.407L34.8414 262.865L33.7821 263.925L34.9984 265.141L36.0577 264.082L36.5156 264.906L35.3571 266.992ZM37.4998 262.322C37.2597 262.322 37.0341 262.229 36.8642 262.059C36.6945 261.889 36.6009 261.664 36.6009 261.424C36.6009 261.183 36.6945 260.958 36.8642 260.788C37.034 260.618 37.2596 260.525 37.4997 260.525C37.7399 260.525 37.9656 260.618 38.1355 260.788C38.3052 260.958 38.3987 261.183 38.3987 261.424C38.3987 261.664 38.3053 261.889 38.1355 262.059C37.9658 262.229 37.7399 262.322 37.4998 262.322ZM44.4475 266.357C44.3382 266.849 44.0911 267.298 43.7327 267.656C43.3744 268.015 42.925 268.262 42.4333 268.371C41.372 268.607 40.2247 268.04 39.6427 266.992L37.979 263.998C38.2093 263.955 38.4307 263.881 38.6397 263.78L40.0013 265.141L41.2176 263.925L39.8561 262.563C39.9575 262.354 40.0316 262.133 40.074 261.903L43.0684 263.566C44.1164 264.148 44.6835 265.296 44.4475 266.357Z" fill="url(#paint6_linear_2122_14458)"/>
<path d="M31.6883 249.397L31.1218 251.021C32.0029 251.329 32.9173 251.563 33.8396 251.718L34.1242 250.021C33.2975 249.883 32.478 249.672 31.6883 249.397Z" fill="url(#paint7_linear_2122_14458)"/>
<path d="M21.649 235.257H19.9288C19.9288 241.53 23.3939 247.216 28.9719 250.097L29.7612 248.568C24.7575 245.984 21.649 240.884 21.649 235.257Z" fill="url(#paint8_linear_2122_14458)"/>
<path d="M42.9193 243.865L42.6349 245.561C43.4611 245.7 44.2808 245.91 45.0707 246.185L45.6371 244.561C44.7556 244.253 43.8412 244.019 42.9193 243.865Z" fill="url(#paint9_linear_2122_14458)"/>
<path d="M47.787 245.485L46.9977 247.014C52.0015 249.598 55.1099 254.698 55.1099 260.325H56.8301C56.8301 254.052 53.365 248.366 47.787 245.485Z" fill="url(#paint10_linear_2122_14458)"/>
</g>
<circle cx="106" cy="94.8516" r="30" fill="black" fill-opacity="0.2"/>
<g opacity="0.5">
<path d="M122.287 102.04C122.287 101.258 121.422 100.637 120.189 100.467C120.663 99.2967 120.566 98.2235 119.9 97.8319C119.25 97.4498 118.259 97.898 117.508 98.885C116.756 97.898 115.766 97.4498 115.116 97.8319C114.992 97.9041 114.895 98.0068 114.812 98.1226C113.978 97.556 112.979 97.0538 111.844 96.6439C113.695 95.6491 114.825 94.2922 114.825 92.7726C114.825 90.9266 113.16 89.2782 110.337 88.2451C111.469 87.5175 112.141 86.5837 112.141 85.5523C112.141 83.1772 108.583 81.3164 104.04 81.3164C99.4974 81.3164 95.9394 83.1772 95.9394 85.5515C95.9394 86.5828 96.6119 87.5167 97.744 88.2443C94.9202 89.2774 93.2554 90.9258 93.2554 92.7718C93.2554 94.2905 94.3823 95.6456 96.2304 96.6395C92.6689 97.9198 90.5723 99.9799 90.5723 102.271C90.5723 106.138 96.4885 109.167 104.04 109.167C108.503 109.167 112.583 108.068 115.089 106.225C115.098 106.231 115.106 106.241 115.116 106.247C115.765 106.631 116.756 106.181 117.508 105.194C118.072 105.936 118.759 106.391 119.358 106.391C119.557 106.391 119.739 106.342 119.9 106.247C120.566 105.856 120.663 104.782 120.189 103.612C121.422 103.443 122.287 102.822 122.287 102.04ZM96.8082 85.5515C96.8082 83.7281 100.12 82.1867 104.04 82.1867C107.96 82.1867 111.273 83.7281 111.273 85.5515C111.273 87.3748 107.96 88.9162 104.04 88.9162C100.12 88.9162 96.8082 87.3757 96.8082 85.5515ZM94.1243 92.7718C94.1243 91.1843 95.9168 89.6742 98.8032 88.8048C100.206 89.4192 102.025 89.7865 104.04 89.7865C106.055 89.7865 107.874 89.4192 109.277 88.8048C112.163 89.6742 113.956 91.1843 113.956 92.7718C113.956 95.3166 109.414 97.4672 104.04 97.4672C98.6659 97.4672 94.1243 95.3166 94.1243 92.7718ZM91.4412 102.271C91.4412 100.228 93.715 98.2836 97.3817 97.1739C99.2046 97.9033 101.504 98.3376 104.04 98.3376C106.575 98.3376 108.872 97.9041 110.694 97.1757C112.219 97.6378 113.536 98.261 114.54 98.9868C114.52 99.4246 114.611 99.9337 114.826 100.467C113.593 100.636 112.729 101.257 112.729 102.04C112.729 102.823 113.593 103.443 114.826 103.613C114.538 104.325 114.464 104.999 114.599 105.508C112.268 107.23 108.275 108.297 104.04 108.297C97.2114 108.297 91.4412 105.538 91.4412 102.271ZM119.517 102.788C119.364 102.788 119.221 102.87 119.144 103.003C119.066 103.137 119.065 103.302 119.14 103.436C119.755 104.53 119.673 105.372 119.459 105.498C119.203 105.645 118.417 105.122 117.884 104.191C117.807 104.055 117.663 103.971 117.507 103.971C117.35 103.971 117.207 104.055 117.13 104.191C116.597 105.122 115.843 105.641 115.589 105.498C115.564 105.482 115.553 105.455 115.553 105.419V105.417C115.553 105.155 115.372 104.392 115.91 103.436C115.985 103.302 115.967 103.137 115.889 103.003C115.812 102.87 115.66 102.788 115.507 102.788C114.365 102.784 113.602 102.334 113.602 102.04C113.602 101.746 114.358 101.296 115.5 101.292C115.653 101.291 115.795 101.21 115.872 101.076C115.95 100.943 115.95 100.778 115.874 100.644C115.444 99.8798 115.358 99.2453 115.416 98.885C115.418 98.8798 115.417 98.8754 115.418 98.8702C115.444 98.7231 115.492 98.6187 115.554 98.5821C115.812 98.4376 116.598 98.9581 117.13 99.8894C117.284 100.161 117.728 100.161 117.883 99.8894C118.415 98.9572 119.199 98.4333 119.458 98.5821C119.672 98.7092 119.755 99.5499 119.139 100.644C119.064 100.778 119.065 100.943 119.143 101.076C119.22 101.21 119.363 101.291 119.517 101.292C120.658 101.296 121.417 101.746 121.417 102.04C121.417 102.334 120.66 102.784 119.517 102.788Z" fill="url(#paint11_linear_2122_14458)"/>
<path d="M101.921 83.3256C99.5372 83.5954 98.2399 85.0018 98.1861 85.061C98.0245 85.2394 98.0384 85.5145 98.2156 85.6755C98.299 85.7512 98.4033 85.7886 98.5076 85.7886C98.6257 85.7886 98.743 85.7399 98.829 85.6459C98.8403 85.6328 99.9569 84.4239 102.018 84.1907C102.256 84.1637 102.428 83.9487 102.401 83.7094C102.375 83.4701 102.143 83.3012 101.921 83.3256Z" fill="url(#paint12_linear_2122_14458)"/>
<path d="M100.209 90.2894C97.8243 90.5593 96.527 91.9657 96.4732 92.0249C96.3116 92.2033 96.3255 92.4783 96.5027 92.6394C96.5861 92.7151 96.6904 92.7525 96.7947 92.7525C96.9128 92.7525 97.0301 92.7038 97.1162 92.6098C97.1274 92.5967 98.244 91.3878 100.305 91.1546C100.543 91.1276 100.715 90.9126 100.688 90.6733C100.661 90.4339 100.427 90.2651 100.209 90.2894Z" fill="url(#paint13_linear_2122_14458)"/>
<path d="M98.9543 98.8608C95.8897 99.3935 94.3222 101.309 94.2571 101.39C94.1068 101.577 94.1363 101.85 94.3231 102.001C94.403 102.065 94.4995 102.097 94.5951 102.097C94.7219 102.097 94.847 102.042 94.9331 101.936C94.9478 101.917 96.3745 100.192 99.1037 99.7164C99.3392 99.6754 99.4982 99.45 99.4565 99.2133C99.4165 98.9783 99.1923 98.8129 98.9543 98.8608Z" fill="url(#paint14_linear_2122_14458)"/>
</g>
<circle cx="258" cy="30.8516" r="30" fill="black" fill-opacity="0.2"/>
<g opacity="0.5" clip-path="url(#clip2_2122_14458)">
<path d="M276.858 27.9073C276.858 27.603 276.835 27.3019 276.803 27.0034C276.79 27.0288 276.777 27.0548 276.763 27.0802C276.6 25.1976 273.61 23.7403 269.419 22.8181C269.389 22.5632 269.329 22.3304 269.234 22.1223C268.899 21.3856 268.278 21.236 268.252 21.2301C268.198 21.2171 268.145 21.2301 268.101 21.2614C267.689 21.5663 267.423 21.965 267.245 22.4039C264.999 22.0378 262.529 21.8174 260.027 21.7354C260.038 21.6255 260.052 21.5169 260.056 21.4044C260.125 19.4789 258.266 17.2022 258.187 17.106C258.113 17.015 257.98 16.9961 257.882 17.0605C257.784 17.1255 257.75 17.2543 257.804 17.359C258.238 18.1933 257.644 19.2448 256.82 20.7008L256.55 21.1814C256.447 21.3674 256.375 21.5462 256.319 21.7218C254.282 21.777 252.261 21.9266 250.356 22.1731C250.331 22.123 250.314 22.0736 250.285 22.0235C250.247 21.9585 250.172 21.922 250.1 21.9331C250.058 21.939 249.659 22.0046 249.178 22.3376C247.935 22.5281 246.751 22.7557 245.669 23.0256C245.577 22.9632 245.485 22.902 245.389 22.8565C244.657 22.5086 244.087 22.7954 244.062 22.8077C244.015 22.8325 243.98 22.8767 243.967 22.9293C243.919 23.1322 243.906 23.3306 243.907 23.5263C241.265 24.386 239.486 25.5253 239.232 26.9C239.226 26.8909 239.216 26.8825 239.211 26.8734C239.17 27.2148 239.144 27.5594 239.144 27.908C239.144 31.6855 241.595 35.0696 245.472 37.399C243.785 37.6435 242.506 38.483 242.439 38.5279L242.201 38.6872L242.406 38.8855C242.477 38.9538 244.168 40.562 246.479 40.748C246.632 40.7603 246.784 40.7662 246.934 40.7662C248.36 40.7662 249.615 40.244 250.305 39.8889C249.793 40.2596 249.06 40.9132 248.698 41.8145C248.114 43.2594 248.718 44.7427 248.744 44.8058L248.841 45.038L249.064 44.9209C249.129 44.8871 250.646 44.0794 251.225 42.6429C251.387 42.2417 251.452 41.8405 251.469 41.4646C253.268 41.9211 255.686 42.1949 257.988 42.1949C262.385 42.1949 267.284 41.2181 267.284 39.8168C267.284 39.5651 267.139 39.3414 266.852 39.1411C272.805 37.0004 276.858 32.7741 276.858 27.9073ZM276.128 27.2414C276.128 27.4749 276.055 27.7103 275.916 27.9444C275.571 27.2148 274.55 26.4734 273.005 25.8036C273.224 25.5136 273.391 25.169 273.482 24.7554C275.185 25.5221 276.128 26.3921 276.128 27.2414ZM273.125 24.7066C272.732 26.3817 270.816 26.7973 269.511 26.8818C269.193 26.8467 268.908 26.8409 268.686 26.8461C268.666 26.7895 268.649 26.7323 268.613 26.6822C268.591 26.651 268.559 26.6315 268.532 26.6048C270.915 23.9711 272.674 24.4998 273.125 24.7066ZM267.834 27.231C267.789 27.1666 267.771 27.0899 267.785 27.0125C267.81 26.8708 267.934 26.77 268.072 26.77C268.089 26.77 268.106 26.7713 268.122 26.7739C268.199 26.7875 268.267 26.8298 268.312 26.8935C268.357 26.9573 268.374 27.0346 268.36 27.1114C268.333 27.2713 268.185 27.378 268.022 27.3507C267.946 27.337 267.879 27.2954 267.834 27.231ZM267.494 29.364C267.212 29.7223 266.754 29.9076 266.131 29.9174C266.056 29.7216 265.922 29.2554 266.111 28.7482C266.308 28.2227 266.8 27.7961 267.562 27.4716C267.627 27.5536 267.711 27.6121 267.805 27.6544C267.864 28.0738 267.902 28.8437 267.494 29.364ZM268.69 27.27C268.776 27.2726 268.87 27.2752 268.978 27.2752C269.137 27.2752 269.316 27.2707 269.508 27.2596C270.382 27.3663 271.486 27.7135 272.02 28.7469C271.348 28.8847 269.305 29.1552 268.334 27.6641C268.501 27.5906 268.629 27.4495 268.69 27.27ZM269.421 23.4645C270.358 23.6772 271.209 23.9132 271.966 24.1675C271.451 24.2026 270.819 24.3704 270.096 24.8022C269.815 24.7118 269.524 24.6247 269.221 24.5408C269.33 24.1532 269.396 23.7949 269.421 23.4645ZM269.826 24.9752C269.484 25.2054 269.126 25.4889 268.751 25.8518C268.916 25.4733 269.048 25.1163 269.154 24.7768C269.385 24.8412 269.61 24.9075 269.826 24.9752ZM268.246 21.6151C268.392 21.6736 268.707 21.846 268.903 22.2849C269.177 22.8988 269.22 24.1213 268.077 26.4143C267.957 26.4143 267.842 26.4416 267.74 26.502C267.408 25.4096 266.806 22.7817 268.246 21.6151ZM267.447 26.8864C267.44 26.9085 267.426 26.9267 267.422 26.9501C267.418 26.9735 267.425 26.9963 267.423 27.0197C264.459 26.6744 263.931 24.6793 263.84 24.0719C263.892 24.0687 263.944 24.0667 263.996 24.0667C265.778 24.0667 267.111 26.2731 267.447 26.8864ZM265.467 24.1291C265.984 24.2033 266.484 24.2852 266.969 24.3723C266.996 24.8549 267.065 25.3237 267.154 25.7328C266.746 25.1716 266.17 24.5395 265.467 24.1291ZM267.059 23.0126C266.985 23.3683 266.953 23.7344 266.958 24.1005C264.749 23.7051 262.24 23.4437 259.539 23.3767C259.703 23.0763 259.835 22.7395 259.924 22.3727C262.566 22.4494 264.967 22.6751 267.059 23.0126ZM256.952 21.4057L257.221 20.9278C257.812 19.8821 258.318 18.9873 258.399 18.1874C258.929 18.9938 259.634 20.2827 259.594 21.3875C259.547 22.6673 259.003 23.5738 258.451 23.9588C258.71 23.6895 258.908 23.2961 258.981 22.8357C259.137 21.8622 258.331 20.5512 258.297 20.496C258.272 20.4556 258.221 20.4413 258.178 20.4615C258.135 20.4823 258.115 20.5317 258.132 20.5759C258.308 21.0539 257.932 21.5507 257.413 22.2381L257.245 22.4618C256.875 22.9573 256.952 23.4333 257.084 23.7539C256.761 23.3091 256.365 22.4598 256.952 21.4057ZM257.998 23.8346C257.977 23.7266 257.918 23.6395 257.849 23.6135C257.781 23.5894 257.717 23.6187 257.668 23.6954C257.601 23.8001 257.546 23.9217 257.5 24.0505C257.48 24.0394 257.46 24.0316 257.441 24.0179C257.381 23.9438 256.869 23.2747 257.393 22.573L257.561 22.3499C257.952 21.833 258.282 21.3953 258.349 20.9733C258.577 21.4278 258.897 22.2036 258.801 22.8064C258.704 23.4112 258.377 23.9223 257.986 24.0791C257.979 24.0817 257.973 24.0823 257.966 24.0849C257.999 24.0101 258.015 23.9223 257.998 23.8346ZM257.795 25.327C257.782 25.2632 257.778 25.1989 257.771 25.1351C259.33 25.1364 260.145 25.4336 260.145 25.5929C260.145 25.7529 259.326 26.0514 257.759 26.0514C256.193 26.0514 255.374 25.7529 255.374 25.5929C255.374 25.4466 256.064 25.1885 257.375 25.1436C257.385 25.2639 257.393 25.3855 257.419 25.5039C257.447 25.6372 257.523 25.7191 257.607 25.7191C257.627 25.7191 257.648 25.7145 257.668 25.7048C257.775 25.6547 257.83 25.4921 257.795 25.327ZM261.266 27.4443C261.317 27.5614 261.449 27.616 261.569 27.5666C261.774 27.4794 261.936 27.3884 262.066 27.2967L262.053 28.2695C262.052 28.3742 261.993 28.4835 261.879 28.594C261.313 29.1435 259.676 29.5109 257.884 29.4745C255.506 29.4336 253.739 28.728 253.747 28.1239L253.759 27.1465C254.549 27.7402 256.259 28.0777 257.9 28.1063C257.982 28.1076 258.064 28.1083 258.145 28.1083C258.576 28.1083 259 28.0888 259.406 28.0497C259.532 28.0374 259.625 27.9255 259.613 27.7987C259.6 27.6719 259.496 27.5731 259.361 27.5913C258.895 27.6355 258.405 27.655 257.907 27.6453C255.333 27.601 253.762 26.8955 253.769 26.4097C253.77 26.3291 253.817 26.2426 253.91 26.1528C254.118 25.9506 254.564 25.7484 255.189 25.591C255.189 25.5916 255.189 25.5923 255.189 25.5929C255.189 26.0644 256.725 26.2354 257.759 26.2354C258.763 26.2354 260.231 26.0716 260.313 25.6294C261.418 25.8817 262.079 26.251 262.075 26.5547C262.072 26.7407 261.816 26.9605 261.387 27.1419C261.271 27.192 261.216 27.3273 261.266 27.4443ZM256.198 22.3734C256.181 22.7538 256.256 23.0945 256.37 23.3852C254.323 23.4379 252.391 23.5738 250.626 23.7903C250.675 23.4639 250.664 23.1277 250.583 22.785C252.296 22.571 254.177 22.4293 256.198 22.3734ZM250.567 24.0791C252.386 23.8521 254.386 23.7116 256.494 23.6603C256.748 24.1467 257.071 24.4354 257.079 24.4419C257.092 24.453 257.105 24.4621 257.119 24.4699C257.204 24.5167 257.292 24.546 257.38 24.5746C257.369 24.6695 257.367 24.7671 257.366 24.8646C255.638 24.9101 254.157 25.2723 253.59 25.8218C253.406 26 253.312 26.1951 253.309 26.4032C253.308 26.465 253.306 26.61 253.306 26.61L253.286 28.118C253.271 29.2463 255.639 29.8966 257.876 29.9356C257.955 29.9369 258.033 29.9375 258.11 29.9375C259.968 29.9375 261.559 29.5467 262.2 28.925C262.405 28.726 262.511 28.5075 262.514 28.276L262.534 26.768C262.534 26.768 262.536 26.6165 262.536 26.5619C262.551 25.5078 260.182 24.8978 257.945 24.8588C257.882 24.8581 257.821 24.8607 257.758 24.8607C257.76 24.7879 257.762 24.715 257.772 24.6461C257.783 24.6461 257.793 24.65 257.804 24.65C258.059 24.65 258.317 24.5791 258.566 24.438C258.878 24.2611 259.153 23.988 259.38 23.6486C260.815 23.6791 262.179 23.7611 263.462 23.8879C263.461 23.8989 263.451 23.9074 263.451 23.9184C263.453 23.9484 263.621 26.7459 267.01 27.3325C266.382 27.6732 265.958 28.1018 265.765 28.6194C265.459 29.4401 265.832 30.158 265.848 30.1886C265.879 30.2477 265.94 30.2848 266.006 30.2861C266.032 30.2867 266.056 30.2867 266.081 30.2867C266.849 30.2867 267.421 30.0526 267.783 29.5909C268.135 29.1416 268.216 28.5693 268.209 28.1044C268.938 28.9933 270.043 29.2177 270.93 29.2177C271.709 29.2177 272.314 29.0564 272.328 29.0525C272.379 29.0382 272.422 29.0031 272.445 28.9556C272.468 28.9081 272.47 28.8535 272.45 28.8047C272.07 27.88 271.342 27.3864 270.597 27.125C271.403 26.9657 272.242 26.6458 272.823 26.0299C274.489 26.7466 275.51 27.5217 275.731 28.2052C274.085 30.249 267.369 32.1446 257.986 32.1446C248.644 32.1446 241.947 30.2659 240.263 28.2325C240.501 27.1133 242.057 26.1067 244.524 25.3218C244.974 25.9805 245.585 26.5417 246.128 26.9592C244.929 26.664 243.17 26.5099 242.123 27.7096C242.061 27.7805 242.062 27.8865 242.126 27.9555C242.14 27.9711 243.094 28.9777 244.688 28.9777C245.366 28.9777 246.16 28.7911 247.047 28.2728C246.787 28.938 246.738 29.5396 246.924 30.0591C247.22 30.8837 247.967 31.192 247.999 31.205C248.021 31.2141 248.043 31.2186 248.067 31.2186C248.108 31.2186 248.149 31.2043 248.183 31.1776C248.809 30.6704 249.115 30.1066 249.094 29.5012C249.074 28.9354 248.769 28.449 248.465 28.0972C248.646 28.1356 248.823 28.1538 248.996 28.1538C250.849 28.1538 252.207 26.2036 252.223 26.1795C252.252 26.1366 252.263 26.0833 252.25 26.0319C252.237 25.9812 252.203 25.9382 252.157 25.9142C251.251 25.4401 250.357 25.5526 249.611 25.8544C250.029 25.3432 250.402 24.7372 250.567 24.0791ZM247.092 27.6518C247.102 27.6726 247.102 27.6953 247.115 27.7161C247.127 27.737 247.147 27.7493 247.161 27.7688C244.672 29.4147 242.982 28.2305 242.521 27.8247C243.856 26.5248 246.419 27.3916 247.092 27.6518ZM247.538 27.1302C247.584 27.1029 247.634 27.0906 247.685 27.0906C247.785 27.0906 247.884 27.1426 247.939 27.2356C247.977 27.3026 247.988 27.3812 247.968 27.4567C247.948 27.5321 247.9 27.5958 247.832 27.6349C247.764 27.6745 247.686 27.6849 247.611 27.6654C247.536 27.6459 247.472 27.5978 247.433 27.5302C247.352 27.391 247.398 27.2115 247.538 27.1302ZM246.907 24.6409C247.175 24.5798 247.45 24.5232 247.735 24.4712C247.595 24.9088 247.485 25.4187 247.424 26.0195C247.269 25.4993 247.096 25.0421 246.907 24.6409ZM247.556 28.027C247.6 28.0354 247.643 28.0439 247.686 28.0439C247.749 28.0439 247.811 28.0335 247.87 28.0153C248.186 28.2982 248.703 28.8574 248.726 29.5148C248.741 29.9701 248.511 30.407 248.041 30.8154C247.857 30.7146 247.454 30.4448 247.272 29.9349C247.083 29.4082 247.184 28.7651 247.556 28.027ZM248.289 27.1426C248.401 27.0548 248.531 26.9462 248.674 26.8207C249.389 26.2862 250.589 25.6424 251.794 26.1463C251.372 26.6848 249.977 28.2175 248.272 27.6583C248.289 27.6219 248.314 27.59 248.324 27.5497C248.361 27.4118 248.341 27.2726 248.289 27.1426ZM250.029 22.3252C250.896 24.029 249.328 25.7497 248.373 26.5872C248.255 26.6796 248.151 26.7667 248.064 26.8448C247.968 26.7778 247.857 26.7466 247.742 26.7362C247.865 23.1869 249.551 22.4572 250.029 22.3252ZM248.406 23.1062C248.197 23.3891 248 23.7377 247.835 24.1727C247.471 24.2377 247.118 24.3093 246.782 24.3906C246.61 24.0602 246.424 23.7786 246.226 23.5432C246.902 23.3826 247.636 23.2389 248.406 23.1062ZM244.306 23.1056C244.453 23.0568 244.801 22.9846 245.231 23.1895C245.84 23.4788 246.671 24.3671 247.277 26.8786C247.181 26.9573 247.108 27.0548 247.069 27.1673C246.11 26.5456 243.957 24.9251 244.306 23.1056ZM243.991 24.1753C244.072 24.4913 244.202 24.7957 244.371 25.0825C242.005 25.8524 240.464 26.837 240.062 27.9476C239.922 27.7122 239.847 27.4755 239.847 27.2408C239.847 26.1691 241.349 25.0649 243.991 24.1753ZM246.516 40.2882C244.843 40.153 243.482 39.1808 242.958 38.7535C243.556 38.4173 245.103 37.6702 246.784 37.808C248.458 37.9433 249.819 38.9155 250.343 39.3427C249.743 39.6783 248.203 40.4215 246.516 40.2882ZM250.798 42.4693C250.41 43.4298 249.511 44.097 249.083 44.3714C248.949 43.9175 248.744 42.9278 249.124 41.9855C249.512 41.025 250.41 40.3585 250.838 40.0834C250.972 40.5386 251.177 41.5303 250.798 42.4693ZM257.988 41.5433C255.217 41.5433 252.963 41.1876 251.444 40.7818C251.39 40.3019 251.277 39.9247 251.216 39.7537C253.324 40.3058 255.602 40.6277 258 40.6277C260.859 40.6277 263.567 40.1965 265.994 39.4285C266.565 39.6496 266.633 39.8135 266.633 39.8135C266.557 40.3272 263.12 41.5433 257.988 41.5433ZM258.001 39.9767C255.345 39.9767 252.824 39.5924 250.546 38.9122C249.929 38.4212 248.549 37.4881 246.822 37.3489C246.777 37.345 246.733 37.3457 246.689 37.3431C242.803 35.2927 240.198 32.2201 239.839 28.7391C242.124 31.3045 250.169 32.7936 257.989 32.7936C265.835 32.7936 273.906 31.2947 276.159 28.713C275.531 34.9936 267.631 39.9767 258.001 39.9767Z" fill="url(#paint15_linear_2122_14458)"/>
</g>
<defs>
<linearGradient id="paint0_linear_2122_14458" x1="93.7246" y1="401.601" x2="96.2274" y2="401.601" gradientUnits="userSpaceOnUse">
<stop stop-color="#EBDCCB"/>
<stop offset="1" stop-color="#F2CA9C"/>
</linearGradient>
<linearGradient id="paint1_linear_2122_14458" x1="84.5713" y1="417.112" x2="127.428" y2="417.112" gradientUnits="userSpaceOnUse">
<stop stop-color="#EBDCCB"/>
<stop offset="1" stop-color="#F2CA9C"/>
</linearGradient>
<linearGradient id="paint2_linear_2122_14458" x1="114.108" y1="424.329" x2="124.543" y2="424.329" gradientUnits="userSpaceOnUse">
<stop stop-color="#EBDCCB"/>
<stop offset="1" stop-color="#F2CA9C"/>
</linearGradient>
<linearGradient id="paint3_linear_2122_14458" x1="240.857" y1="476.852" x2="275.143" y2="476.852" gradientUnits="userSpaceOnUse">
<stop stop-color="#EBDCCB"/>
<stop offset="1" stop-color="#F2CA9C"/>
</linearGradient>
<linearGradient id="paint4_linear_2122_14458" x1="9.375" y1="247.352" x2="65.625" y2="247.352" gradientUnits="userSpaceOnUse">
<stop stop-color="#EBDCCB"/>
<stop offset="1" stop-color="#F2CA9C"/>
</linearGradient>
<linearGradient id="paint5_linear_2122_14458" x1="9.375" y1="247.352" x2="65.625" y2="247.352" gradientUnits="userSpaceOnUse">
<stop stop-color="#EBDCCB"/>
<stop offset="1" stop-color="#F2CA9C"/>
</linearGradient>
<linearGradient id="paint6_linear_2122_14458" x1="9.375" y1="247.352" x2="65.625" y2="247.352" gradientUnits="userSpaceOnUse">
<stop stop-color="#EBDCCB"/>
<stop offset="1" stop-color="#F2CA9C"/>
</linearGradient>
<linearGradient id="paint7_linear_2122_14458" x1="9.375" y1="247.352" x2="65.625" y2="247.352" gradientUnits="userSpaceOnUse">
<stop stop-color="#EBDCCB"/>
<stop offset="1" stop-color="#F2CA9C"/>
</linearGradient>
<linearGradient id="paint8_linear_2122_14458" x1="9.375" y1="247.352" x2="65.625" y2="247.352" gradientUnits="userSpaceOnUse">
<stop stop-color="#EBDCCB"/>
<stop offset="1" stop-color="#F2CA9C"/>
</linearGradient>
<linearGradient id="paint9_linear_2122_14458" x1="9.375" y1="247.352" x2="65.625" y2="247.352" gradientUnits="userSpaceOnUse">
<stop stop-color="#EBDCCB"/>
<stop offset="1" stop-color="#F2CA9C"/>
</linearGradient>
<linearGradient id="paint10_linear_2122_14458" x1="9.375" y1="247.352" x2="65.625" y2="247.352" gradientUnits="userSpaceOnUse">
<stop stop-color="#EBDCCB"/>
<stop offset="1" stop-color="#F2CA9C"/>
</linearGradient>
<linearGradient id="paint11_linear_2122_14458" x1="90.5723" y1="95.2418" x2="122.287" y2="95.2418" gradientUnits="userSpaceOnUse">
<stop stop-color="#EBDCCB"/>
<stop offset="1" stop-color="#F2CA9C"/>
</linearGradient>
<linearGradient id="paint12_linear_2122_14458" x1="98.0732" y1="84.5559" x2="102.404" y2="84.5559" gradientUnits="userSpaceOnUse">
<stop stop-color="#EBDCCB"/>
<stop offset="1" stop-color="#F2CA9C"/>
</linearGradient>
<linearGradient id="paint13_linear_2122_14458" x1="96.3604" y1="91.5198" x2="100.691" y2="91.5198" gradientUnits="userSpaceOnUse">
<stop stop-color="#EBDCCB"/>
<stop offset="1" stop-color="#F2CA9C"/>
</linearGradient>
<linearGradient id="paint14_linear_2122_14458" x1="94.1611" y1="100.475" x2="99.4631" y2="100.475" gradientUnits="userSpaceOnUse">
<stop stop-color="#EBDCCB"/>
<stop offset="1" stop-color="#F2CA9C"/>
</linearGradient>
<linearGradient id="paint15_linear_2122_14458" x1="239.144" y1="31.0302" x2="276.858" y2="31.0302" gradientUnits="userSpaceOnUse">
<stop stop-color="#EBDCCB"/>
<stop offset="1" stop-color="#F2CA9C"/>
</linearGradient>
<clipPath id="clip0_2122_14458">
<rect width="42.8571" height="42.8571" fill="white" transform="translate(84.5713 395.423)"/>
</clipPath>
<clipPath id="clip1_2122_14458">
<rect width="56.25" height="56.25" fill="white" transform="translate(9.375 219.227)"/>
</clipPath>
<clipPath id="clip2_2122_14458">
<rect width="37.7143" height="37.7143" fill="white" transform="translate(239.144 11.9941)"/>
</clipPath>
</defs>
</svg>
