<svg width="699" height="651" viewBox="0 0 699 651" fill="none" xmlns="http://www.w3.org/2000/svg">
<g filter="url(#filter0_f_2121_11292)">
<path fill-rule="evenodd" clip-rule="evenodd" d="M638.29 418.052C614.67 412.6 556.677 398.999 509.417 387.827C423.933 367.617 314.799 346.029 296.184 345.644C288.495 345.486 286.416 344.487 274.225 335.1C266.819 329.397 260.812 324.293 260.874 323.756C260.937 323.22 267.222 324.656 274.837 326.947C304.651 335.919 377.665 351.592 406.994 355.318C467.995 363.067 534.754 367.145 565.182 364.985C589.732 363.241 635.729 353.44 636.463 349.795C636.634 348.946 633.622 348.019 629.771 347.737C625.918 347.452 605.874 344.299 585.226 340.726C544.349 333.654 507.508 328.38 454.444 322.004C435.617 319.742 400.783 314.858 377.035 311.153C320.886 302.392 285.072 298.009 269.762 298.028C262.986 298.035 250.557 297.698 242.142 297.278L226.844 296.514L211.73 283.316L196.614 270.12L243.126 279.425C285.858 287.976 307.214 291.185 374.703 299.203C429.002 305.654 476.272 308.266 504.025 306.348C540.847 303.805 575.639 296.202 590.749 287.397L597.727 283.331L590.248 282.827C554.004 280.38 533.776 278.224 508.615 274.128C448.799 264.394 445.276 264.055 235.343 247.774C213.791 246.103 190.035 244.765 182.552 244.799L168.947 244.864L153.04 228.934C144.292 220.174 137.38 212.868 137.684 212.706C137.986 212.541 142.608 213.972 147.955 215.888C168.202 223.138 224.652 235.512 256.855 239.759C349.033 251.915 428.692 252.703 478.1 241.946C497.186 237.789 528.281 226.011 537.534 219.431L542.576 215.848L533.177 216.739C496.554 220.214 419.572 216.195 337.454 206.521C243.077 195.403 224.363 193.526 186.897 191.411C165.717 190.217 141.274 189.834 132.575 190.559L116.762 191.881L110.145 184.789C106.505 180.889 99.4457 173.198 94.4565 167.697L85.3853 157.696L116.075 163.859C150.122 170.693 211.836 179.086 247.685 181.755C332.031 188.033 413.995 179.27 464.056 158.616C479.436 152.272 513.338 132.983 513.885 130.267C514.055 129.423 510.407 129.707 505.78 130.897C492.744 134.245 447.255 139.283 421.871 140.19C391.989 141.255 345.612 140.581 299.995 138.418C189.1 133.157 102.141 134.218 82.0753 141.076L73.5056 144.004L62.2899 131.1C56.1192 124.003 50.9776 117.621 50.8598 116.917C50.7433 116.215 56.2286 116.502 63.0486 117.558C112.959 125.288 241.468 123.578 310.542 114.264C364.596 106.977 387.616 101.554 416.521 89.297C432.295 82.6082 464.517 62.2736 462.986 59.9716C462.692 59.5296 456.361 60.1808 448.916 61.4192C417.95 66.5701 380.736 69.2143 306.83 71.5139C192.181 75.0841 69.3016 88.5086 42.0179 100.447C38.1653 102.132 36.636 100.776 21.9915 82.6778L6.13602 63.083L14.9386 64.3829C75.6811 73.3574 146.039 73.0347 201.344 63.5278C262.851 52.9548 329.896 29.9724 363.352 7.99294C376.571 -0.69047 397.835 -18.1284 398.354 -20.7097C398.444 -21.1578 372.687 -14.9945 341.114 -7.01464C242.042 18.0238 201.653 25.4194 129.105 31.8043C41.1453 39.5489 10.7141 43.691 1.08855 49.2291C-2.17188 51.107 -2.98076 50.8324 -6.55076 46.6413C-14.4559 37.3621 -32.7821 13.5283 -32.7157 12.6148C-32.6787 12.101 -23.3805 13.2828 -12.0535 15.2405C70.1034 29.441 195.922 11.4849 267.439 -24.6501C283.008 -32.5154 329.487 -62.3215 326.973 -62.8274C326.369 -62.9492 316.618 -61.0262 305.302 -58.556C180.503 -31.302 149.467 -26.1614 72.8582 -20.0576C5.01383 -14.6516 -30.4823 -9.26967 -39.9847 -2.95047C-43.2666 -0.767939 -44.4989 -1.84812 -56.0153 -17.0155C-62.8761 -26.0504 -68.1262 -33.889 -67.6828 -34.4348C-67.2395 -34.9805 -62.1898 -35.0426 -56.4625 -34.5739C-42.032 -33.394 35.4475 -37.5505 78.5436 -41.8158C131.643 -47.0737 162.709 -52.7201 236.892 -70.6033C260.992 -76.4122 294.105 -84.1617 310.477 -87.8262C357.027 -98.2427 354.481 -97.2028 338.352 -99.2079C271.976 -107.461 201.5 -107.304 130.569 -98.7437C86.2931 -93.4004 55.0661 -87.1687 5.37913 -73.7539C-47.3057 -59.5305 -64.4833 -54.1612 -72.0017 -49.5636L-77.4694 -46.2194L-88.7749 -61.6438C-94.9904 -70.128 -99.9548 -77.6817 -99.8041 -78.4304C-99.6534 -79.1791 -95.3178 -79.9118 -90.1719 -80.0569C-70.2569 -80.6199 6.60815 -93.7461 68.9702 -107.231C86.9508 -111.119 107.446 -115.497 114.515 -116.957C149.36 -124.159 213.905 -140.498 258.146 -153.319C271.903 -157.307 293.963 -162.055 307.166 -163.875C320.369 -165.692 331.325 -167.916 331.51 -168.816C332.022 -171.304 276.533 -179.81 257.064 -180.228C230.47 -180.799 197.309 -178.725 170.197 -174.794C96.4032 -164.094 52.0997 -155.111 16.6068 -143.654C-3.60631 -137.129 -84.9899 -104.426 -99.8823 -96.8434L-109.378 -92.0088L-117.042 -103.385C-121.258 -109.642 -124.59 -115.193 -124.444 -115.721C-124.3 -116.249 -119.831 -118.333 -114.51 -120.353C-109.192 -122.372 -99.4883 -126.498 -92.9505 -129.519C-86.411 -132.539 -70.7514 -138.313 -58.1514 -142.35C16.7247 -166.335 60.9309 -182.537 94.9114 -198.446C134.476 -216.969 184.092 -236.215 232.843 -251.95C236.858 -253.246 246.943 -256.743 255.254 -259.724C263.567 -262.704 273.089 -265.958 276.416 -266.952C285.194 -269.577 279.763 -270.363 251.072 -270.617C198.359 -271.081 163.686 -266.525 111.43 -252.266C55.6772 -237.053 19.928 -224.427 -19.6922 -205.957C-41.7227 -195.685 -103.921 -154.734 -122.144 -138.502L-132.923 -128.899L-136.501 -135.434C-140.646 -143.009 -140.624 -144.275 -136.318 -146.594C-134.575 -147.534 -125.305 -156.222 -115.719 -165.9C-92.9948 -188.846 -77.0594 -201.554 -37.8611 -227.992C-9.06349 -247.414 48.4844 -281.956 60.2921 -286.905C67.9169 -290.102 114.793 -318.129 115.138 -319.843C115.138 -319.843 80.5173 -324.415 35.5234 -319.273C-9.47053 -314.131 -54.0672 -284.831 -89.0163 -249.62C-110.278 -228.2 -132.474 -197.778 -144.065 -174.17C-147.225 -167.736 -150.339 -162.819 -150.987 -163.243C-151.635 -163.667 -155.67 -170.388 -159.955 -178.182C-166.755 -190.55 -167.33 -192.573 -164.479 -194.11C-158.242 -197.47 -131.15 -226.264 -113.441 -248.354C-103.649 -260.568 -91.5631 -274.768 -86.5846 -279.909C-68.7388 -298.333 -53.5209 -313.134 -38.0038 -327.162C-29.3285 -335.003 -22.139 -341.873 -22.0275 -342.427C-21.9164 -342.979 -33.5561 -345.794 -47.8933 -348.68L-73.9613 -353.927L-79.6194 -349.854C-101.348 -334.21 -126.583 -303.547 -147.868 -266.926C-158.239 -249.077 -174.443 -216.02 -175.576 -210.393C-175.822 -209.169 -182.337 -220.682 -187.151 -230.851L-190.67 -238.281L-179.472 -252.201C-173.315 -259.856 -160.557 -278.572 -151.121 -293.791C-141.686 -309.011 -127.645 -329.891 -119.922 -340.193C-112.2 -350.494 -105.818 -359.233 -105.743 -359.61C-105.667 -359.987 -115.075 -362.203 -126.649 -364.533L-147.696 -368.77L-154.014 -360.064C-170.862 -336.854 -188.686 -297.455 -194.475 -270.629C-196.469 -261.392 -198.264 -253.864 -198.464 -253.899C-198.665 -253.934 -201.54 -260.017 -204.855 -267.415L-210.878 -280.866L-203.259 -294.663C-194.205 -311.061 -189.185 -324.814 -181.809 -353.435L-176.336 -374.675L-194.334 -377.754L-212.333 -380.833L-217.095 -356.203C-220.095 -340.697 -221.682 -326.977 -221.382 -319.168C-221.118 -312.344 -221.168 -306.587 -221.492 -306.37C-222.247 -305.868 -240.362 -351.38 -248.124 -373.281L-254.065 -390.046L-268.331 -392.986L-282.599 -395.924L-277.731 -380.255C-266.789 -345.035 -252.916 -307.513 -241.8 -283.078C-237.783 -274.245 -236.131 -268.327 -237.323 -267.013C-238.358 -265.87 -243.937 -261.194 -249.719 -256.625C-264.291 -245.107 -275.097 -232.915 -294.623 -205.957C-314.392 -178.665 -330.271 -150.839 -337.31 -131.15C-342.95 -115.368 -352.635 -83.3512 -352.055 -82.4041C-351.848 -82.0668 -343.915 -91.5583 -334.426 -103.496C-324.937 -115.435 -305.776 -137.833 -291.847 -153.273C-265.841 -182.096 -244.608 -208.716 -230.651 -229.992L-222.726 -242.07L-219.211 -234.846C-215.149 -226.5 -215.226 -224.517 -219.698 -222.108C-229.1 -217.042 -244.074 -199.055 -261.6 -171.769C-285.901 -133.941 -289.946 -124.868 -305.431 -73.4664C-315.462 -40.164 -327.183 -8.5096 -332.668 0.0967594C-337.036 6.94727 -331.79 2.42099 -318.947 -11.74C-296.937 -36.0142 -291.548 -44.0523 -243.276 -124.604C-234.615 -139.056 -222.359 -161.656 -216.036 -174.83C-209.714 -188.005 -203.945 -199.181 -203.212 -199.667C-202.481 -200.152 -200.603 -197.735 -199.037 -194.294C-197.47 -190.853 -194.122 -184.533 -191.594 -180.25C-189.068 -175.966 -187.124 -171.85 -187.274 -171.105C-187.424 -170.358 -191.058 -166.502 -195.35 -162.535C-229.83 -130.66 -270.374 -64.6982 -291.814 -5.58664C-299.609 15.8987 -307.158 53.5712 -307.334 71.8516C-307.554 94.5318 -306.322 94.6168 -298.132 72.4851C-284.959 36.8847 -267.817 4.81651 -231.567 -52.0532C-219.676 -70.7086 -197.174 -109.937 -182.562 -137.492L-175.494 -150.816L-168.466 -140.411C-164.599 -134.689 -161.555 -129.41 -161.703 -128.678C-161.85 -127.947 -166.299 -122.783 -171.587 -117.202C-206.161 -80.7218 -242.182 -2.15054 -261.81 79.5956C-271.586 120.313 -271.97 144.467 -263.418 180.836C-259.831 196.09 -257.373 198.696 -257.901 186.685C-258.099 182.215 -255.762 165.839 -252.707 150.295C-247.852 125.587 -245.656 118.402 -235.245 93.1558C-228.696 77.273 -218.016 52.9812 -211.513 39.1741C-191.069 -4.22766 -155.671 -92.7391 -152.543 -108.28C-151.722 -112.36 -151.167 -111.945 -144.963 -102.614L-138.268 -92.5436L-158.337 -40.8856C-169.374 -12.473 -180.916 17.0909 -183.983 24.8136C-198.042 60.2127 -214.992 113.643 -226.093 157.548C-232.938 184.626 -236.331 213.831 -235.185 235.817C-234.476 249.382 -228.771 276.418 -226.518 276.879C-225.894 277.009 -224.13 269.473 -222.601 260.135C-219.277 239.855 -210.069 209.511 -201.051 189.125C-191.925 168.499 -174.674 120.07 -163.249 83.0073C-156.082 59.756 -150.271 35.2084 -140.507 -13.0519L-127.394 -77.877L-117.931 -65.3898L-108.466 -52.9022L-111.512 -43.0696C-122.885 -6.34872 -132.333 22.3818 -141.507 48.148C-185.069 170.497 -210.493 291.857 -204.167 347.242C-203.404 353.912 -202.158 359.492 -201.397 359.646C-200.636 359.799 -198.999 355.649 -197.758 350.427C-192.937 330.129 -176.364 281.679 -153.598 221.331C-123.794 142.322 -109.051 93.8962 -101.967 51.7476C-97.241 23.6189 -93.0328 -27.056 -94.9852 -32.326C-97.1119 -38.067 -91.0406 -31.0411 -76.9445 -11.4517L-71.3616 -3.6938L-77.0437 5.97788C-81.3542 13.3175 -84.9313 24.2525 -91.8725 51.3268C-96.9045 70.9497 -103.975 97.4976 -107.587 110.323C-125.673 174.56 -144.266 274.254 -145.402 313.106C-145.926 330.988 -144.062 365.428 -142.417 368.246C-140.97 370.723 -111.581 276.929 -91.9824 207.289C-65.6673 113.784 -56.8736 71.4713 -55.9668 33.997C-55.7218 23.8829 -55.2675 15.6571 -54.9597 15.7191C-53.0255 16.1084 -33.0555 41.8595 -33.4027 43.5183C-33.6366 44.6426 -35.5986 50.3226 -37.7648 56.1415C-39.9311 61.9605 -47.829 88.0915 -55.3189 114.21C-67.4531 156.529 -70.6041 170.544 -84.2765 242.958C-100.197 327.285 -102.359 343.033 -105.538 397.896C-108.399 447.282 -108.478 446.261 -102.892 431.599C-100.311 424.821 -93.9604 409.389 -88.7803 397.306C-76.3673 368.355 -66.5811 337.005 -53.4833 284.222C-39.2918 227.042 -17.9869 121.154 -16.8315 102.055C-15.8321 85.5668 -16.0944 66.6752 -17.3674 63.2365C-17.8169 62.0239 -17.3859 61.1914 -16.4079 61.3882C-15.4317 61.5848 -14.4913 62.4583 -14.3183 63.3309C-14.1467 64.2013 -9.30852 70.4996 -3.56631 77.3247C6.07067 88.7797 6.7033 90.1372 4.66656 94.9928C-9.48425 128.707 -32.9586 243.16 -46.3031 343.479C-52.7408 391.889 -65.8249 543.315 -63.404 541.418C-59.4391 538.31 -38.1838 483.818 -28.3748 451.61C-9.6925 390.271 15.7967 220.073 19.1984 133.948C19.6052 123.605 19.6159 113.158 19.219 110.733C18.8224 108.307 19.0886 106.457 19.812 106.62C20.5354 106.783 26.1018 112.862 32.1833 120.129L43.2402 133.342L36.6949 169.812C16.5081 282.29 13.764 431.333 29.5697 556.825L32.264 578.218L36.6928 563.946C39.1276 556.096 45.742 525.015 51.3898 494.877C59.4867 451.678 62.0267 433.938 63.3967 411.051C66.6958 355.873 67.4215 303.256 65.5734 253.219C64.7783 231.694 59.604 165.174 57.9724 155.495C57.1006 150.327 59.5107 148.371 61.1842 152.889C61.6152 154.053 67.8803 161.669 75.1066 169.811L88.2459 184.617L83.5069 210.768C78.3113 239.45 78.295 244.248 83.2169 303.209C89.8037 382.087 98.4029 445.743 108.096 487.337C113.519 510.613 129.59 566.206 131.948 569.852C134.401 573.643 144.983 493.828 145.775 465.559C146.685 433.063 139.934 374.71 128.707 318.053C122.628 287.368 106.758 216.925 103.511 206.203C101.354 199.081 101.287 199.035 119.703 217.677C134.775 232.936 134.882 233.113 133.437 240.611C128.927 264.031 142.988 356.77 162.446 431.937C174.71 479.308 188.923 516.168 209.407 553.731C218.834 571.018 232.515 591.043 235.278 591.599C236.892 591.924 232.408 549.716 227.768 520.903C217.996 460.232 181.398 319.832 162.587 270.852C156.161 254.122 156.297 254.741 159.677 257.72C161.334 259.18 167.665 265.054 173.747 270.775L184.804 281.173L186.616 296.62C190.834 332.598 211.617 401.786 237.443 465.817C259.947 521.617 277.095 552.875 298.316 576.789C310.46 590.475 334.631 611.276 336.749 609.867C337.281 609.514 332.476 596.255 326.07 580.401C312.326 546.374 309.685 539.334 294.668 496.679C275.331 441.752 254.899 393.753 221.994 325.956L211.558 304.452L225.608 315.673L239.658 326.896L244.895 346.541C254.612 382.996 271.482 418.284 321.515 506.814C353.017 562.556 377.294 594.495 404.653 616.191C413.399 623.126 430.029 633.037 431.394 632.128C432.519 631.38 388.05 544.592 360.948 494.641C345.39 465.968 312.078 410.436 292.73 380.922C282.693 365.611 274.671 353.12 274.902 353.167C275.135 353.214 281.53 357.795 289.114 363.348C302.182 372.916 303.427 374.481 312.841 393.238C318.304 404.124 331.441 427.386 342.032 444.927C399.119 539.479 432.926 572.267 488.097 586.593C502.063 590.219 504.648 590.51 501.324 588.08C465.272 561.738 462.115 558.2 414.226 490.48C382.697 445.895 364.52 423.606 342.834 402.944C336.889 397.279 332.438 392.371 332.941 392.036C334.506 390.996 342.792 397.563 359.552 413.127C398.299 449.108 455.056 488.155 497.535 508.053C515.488 516.463 553.005 528.524 574.961 532.942C602.287 538.442 656.309 542.112 649.741 538.022C616.957 517.611 466.109 441.162 388.354 405.556C345.641 385.997 332.325 379.245 323.009 372.424C314.606 366.271 316.276 366.74 341.896 377.733C413.379 408.402 530.552 437.1 589.803 438.448C617.609 439.083 644.028 437.38 661.723 433.817C671.231 431.902 679.511 429.801 680.122 429.149C680.733 428.496 661.908 423.501 638.29 418.052Z" fill="black" fill-opacity="0.2"/>
</g>
<defs>
<filter id="filter0_f_2121_11292" x="-370.18" y="-414.025" width="1068.42" height="1064.31" filterUnits="userSpaceOnUse" color-interpolation-filters="sRGB">
<feFlood flood-opacity="0" result="BackgroundImageFix"/>
<feBlend mode="normal" in="SourceGraphic" in2="BackgroundImageFix" result="shape"/>
<feGaussianBlur stdDeviation="9.05" result="effect1_foregroundBlur_2121_11292"/>
</filter>
</defs>
</svg>
