<svg width="708" height="1310" viewBox="0 0 708 1310" fill="none" xmlns="http://www.w3.org/2000/svg">
<g filter="url(#filter0_f_2121_11285)">
<path fill-rule="evenodd" clip-rule="evenodd" d="M269.172 71.0924C279.487 101.075 305.094 174.658 326.075 234.612C364.03 343.056 407.006 482.077 410.046 506.241C411.301 516.221 412.884 518.789 426.759 533.367C435.188 542.224 442.648 549.341 443.338 549.187C444.026 549.032 441.3 541.053 437.281 531.458C421.542 493.9 391.19 401.058 382.341 363.414C363.937 285.118 349.522 198.83 348.18 158.953C347.098 126.78 353.572 65.6063 358.213 64.1544C359.294 63.8163 360.911 67.6085 361.804 72.5793C362.699 77.5517 369.537 103.196 377.002 129.569C391.779 181.778 403.667 228.984 419.203 297.142C424.715 321.325 435.821 365.972 443.882 396.359C462.939 468.205 473.528 514.196 475.593 534.115C476.509 542.93 478.643 559.052 480.338 569.941L483.419 589.738L502.65 607.598L521.879 625.46L503.427 566.225C486.473 511.804 479.385 484.461 459.745 397.763C443.944 328.007 434.096 266.872 432.803 230.508C431.087 182.262 436.229 135.964 445.621 115.107L449.958 105.475L451.635 115.135C459.764 161.949 465.328 187.968 474.09 220.14C494.915 296.624 495.837 301.161 545.663 572.031C550.778 599.838 555.76 630.56 556.736 640.299L558.508 658.005L581.401 676.524C593.992 686.709 604.437 694.703 604.607 694.286C604.78 693.87 602.288 688.053 599.066 681.359C586.872 656.01 563.073 584.265 553.154 542.953C524.762 424.702 512.868 321.185 520.119 255.445C522.922 230.049 534 187.993 541.296 175.058L545.27 168.01L545.394 180.358C545.87 228.473 561.603 328.067 585.393 433.571C612.734 554.825 617.729 578.911 625.593 627.361C630.037 654.75 633.871 686.495 634.115 697.909L634.553 718.66L644.681 726.3C650.251 730.503 661.22 738.637 669.056 744.377L683.303 754.812L671.099 715.73C657.562 672.373 638.223 593.237 629.86 546.967C610.183 438.102 610.398 330.283 630.435 262.343C636.589 241.471 657.055 194.736 660.513 193.654C661.587 193.318 661.716 198.103 660.8 204.284C658.223 221.698 657.876 281.561 660.161 314.705C662.853 353.722 670.058 413.96 679.097 473.006C701.073 616.546 711.558 729.812 705.376 756.85L702.736 768.398L721.053 781.227C731.127 788.285 740.131 794.103 741.063 794.16C741.992 794.216 740.87 787.119 738.565 778.392C721.698 714.52 706.388 547.116 709.078 455.99C711.181 384.679 715.095 353.994 727.095 314.72C733.644 293.288 755.699 248.597 758.903 250.274C759.518 250.596 759.535 258.921 758.939 268.775C756.464 309.76 758.103 358.53 765.196 454.986C776.197 604.614 775.501 766.294 763.694 803.415C762.028 808.656 764 810.461 789.542 827.041L817.195 844.993L814.303 833.72C794.34 755.927 785.159 664.359 789.979 591.117C795.34 509.663 816.088 419.312 840.115 372.79C849.607 354.409 869.39 324.369 872.676 323.341C873.247 323.163 868.744 357.51 862.672 399.671C843.62 531.966 839.511 585.515 841.104 680.761C843.032 796.24 841.797 836.392 835.906 849.669C833.908 854.166 834.376 855.181 840.315 859.253C853.464 868.27 886.969 888.858 888.149 888.647C888.812 888.529 886.006 876.594 881.913 862.127C852.23 757.19 858.419 591.068 895.667 493.105C903.774 471.778 936.205 407.249 937.206 410.45C937.447 411.22 936.276 424.166 934.607 439.224C916.183 605.288 913.731 646.362 916.244 746.852C918.47 835.846 916.312 882.755 909.389 895.979C906.997 900.546 908.571 902.001 929.873 914.913C942.562 922.605 953.475 928.365 954.125 927.714C954.774 927.062 954.166 920.485 952.775 913.099C949.271 894.488 944.105 793.131 943.773 736.487C943.367 666.696 946.473 625.513 959.613 526.571C963.881 494.428 969.444 450.295 971.977 428.497C979.175 366.522 978.17 369.976 982.979 390.683C1002.77 475.903 1012.18 567.602 1010.73 661.042C1009.82 719.367 1005.97 760.84 995.303 827.305C983.99 897.782 979.349 920.86 974.394 931.268L970.79 938.837L992.398 951.439C1004.28 958.366 1014.79 963.793 1015.74 963.495C1016.69 963.197 1017.05 957.457 1016.54 950.743C1014.56 924.76 1021.14 822.979 1030.17 740.015C1032.78 716.094 1035.68 688.835 1036.61 679.441C1041.23 633.13 1053.67 546.936 1064.31 487.636C1067.62 469.196 1070.79 439.852 1071.36 422.427C1071.92 405.004 1073.32 390.449 1074.46 390.085C1077.63 389.08 1096.27 460.102 1099.47 485.371C1103.84 519.889 1105.66 563.309 1104.25 599.114C1100.4 696.569 1094.76 755.427 1084.7 803.162C1078.97 830.346 1047.53 940.677 1039.7 961.084L1034.71 974.096L1050.55 982.515C1059.27 987.145 1066.94 990.722 1067.61 990.46C1068.28 990.2 1070.38 984.102 1072.28 976.905C1074.18 969.711 1078.23 956.525 1081.26 947.608C1084.3 938.689 1089.67 917.531 1093.21 900.589C1114.19 799.913 1129.23 740.197 1145.29 693.822C1163.99 639.827 1182.25 572.658 1196.07 507.092C1197.21 501.692 1200.38 488.096 1203.13 476.878C1205.87 465.658 1208.8 452.827 1209.64 448.363C1211.86 436.587 1213.62 443.543 1217.87 480.832C1225.66 549.341 1224.47 595.066 1213.05 664.989C1200.87 739.592 1189.32 787.819 1170.7 841.88C1160.34 871.94 1115.56 958.438 1096.93 984.359L1085.91 999.692L1094.9 1003.45C1105.32 1007.81 1106.96 1007.61 1109.39 1001.69C1110.38 999.297 1120.41 986.052 1131.7 972.263C1158.44 939.57 1172.8 917.107 1201.85 862.508C1223.18 822.396 1260.26 742.821 1265.09 726.786C1268.21 716.431 1298.27 651.627 1300.45 650.944C1300.45 650.944 1311.12 695.357 1310.57 754.59C1310.02 813.822 1278 875.833 1236.96 926.102C1212 956.683 1175.45 989.708 1146.32 1008.01C1138.38 1013 1132.41 1017.72 1133.05 1018.5C1133.69 1019.29 1142.99 1023.62 1153.71 1028.13C1170.73 1035.29 1173.44 1035.76 1175.05 1031.84C1178.57 1023.27 1212.33 984.098 1238.65 958.048C1253.2 943.642 1270.02 925.983 1276.03 918.805C1297.56 893.077 1314.74 871.261 1330.87 849.161C1339.89 836.806 1347.84 826.516 1348.55 826.295C1349.25 826.075 1354.5 840.833 1360.21 859.089L1370.59 892.284L1366.07 900.2C1348.68 930.601 1312.24 967.612 1267.5 1000.3C1245.7 1016.23 1204.91 1041.81 1197.74 1044.06C1196.18 1044.54 1212.05 1051.45 1225.94 1056.32L1236.08 1059.89L1252.66 1043.42C1261.78 1034.36 1284.39 1015.22 1302.89 1000.86C1321.41 986.513 1346.65 965.399 1359 953.947C1371.35 942.495 1381.84 933.002 1382.32 932.851C1382.8 932.701 1386.97 944.638 1391.58 959.376L1399.96 986.177L1389.5 995.583C1361.61 1020.67 1312.79 1049.23 1278.68 1060.42C1266.94 1064.28 1257.39 1067.64 1257.46 1067.89C1257.53 1068.15 1265.84 1071.06 1275.92 1074.36L1294.24 1080.36L1311.14 1068.57C1331.24 1054.55 1348.45 1046.15 1384.67 1032.65L1411.55 1022.63L1418.01 1045.62L1424.48 1068.61L1393.09 1078.17C1373.32 1084.19 1355.69 1088.12 1345.49 1088.8C1336.58 1089.39 1329.1 1090.24 1328.86 1090.69C1328.31 1091.74 1389.99 1109.09 1419.54 1116.2L1442.16 1121.64L1447.93 1139.8L1453.7 1157.96L1432.65 1153.77C1385.34 1144.34 1334.64 1131.41 1301.33 1120.29C1289.29 1116.27 1281.37 1114.92 1279.82 1116.65C1278.48 1118.16 1273.16 1126.05 1268 1134.2C1255.01 1154.72 1240.62 1170.45 1208.22 1199.52C1175.41 1228.97 1141.38 1253.42 1116.73 1265.26C1096.97 1274.75 1056.64 1291.72 1055.33 1291.09C1054.86 1290.87 1066.13 1279.26 1080.36 1265.28C1094.6 1251.31 1121.12 1223.33 1139.3 1203.1C1173.25 1165.34 1204.98 1134.09 1230.75 1113.03L1245.38 1101.07L1235.51 1097.48C1224.1 1093.34 1221.53 1093.71 1219 1099.85C1213.7 1112.78 1192.34 1134.71 1159.24 1161.23C1113.34 1198 1102.09 1204.51 1037.34 1231.66C995.389 1249.26 955.81 1268.82 945.363 1277.13C937.048 1283.75 942.22 1276.31 958.889 1257.67C987.463 1225.72 997.183 1217.62 1095.38 1143.83C1113 1130.59 1140.73 1111.56 1157 1101.54C1173.28 1091.52 1187.03 1082.49 1187.56 1081.47C1188.09 1080.45 1184.69 1078.34 1180 1076.77C1175.31 1075.2 1166.63 1071.71 1160.72 1069.01C1154.8 1066.31 1149.18 1064.34 1148.23 1064.63C1147.28 1064.93 1142.76 1070.19 1138.18 1076.31C1101.43 1125.51 1021.15 1187.26 947.182 1223.21C920.296 1236.28 872.32 1251.24 848.564 1253.97C819.09 1257.35 818.812 1255.76 846.484 1242.08C890.997 1220.09 930.374 1193.41 999.407 1138.5C1022.05 1120.48 1070.01 1085.86 1103.86 1063.09L1120.23 1052.08L1105.74 1044.36C1097.77 1040.11 1090.48 1036.87 1089.55 1037.16C1088.62 1037.45 1082.51 1043.94 1075.97 1051.58C1033.23 1101.54 935.939 1159.12 832.278 1195.8C780.644 1214.08 749.276 1217.87 700.799 1211.71C680.466 1209.13 676.74 1206.28 692.438 1205.33C698.279 1204.98 719.263 1199.71 739.066 1193.61C770.545 1183.92 779.592 1180.09 811.013 1163.1C830.781 1152.41 860.923 1135.2 877.997 1124.86C931.667 1092.34 1041.98 1034.22 1061.77 1028.03C1066.96 1026.4 1066.35 1025.74 1053.36 1018.94L1039.35 1011.61L974.887 1044.76C939.432 1063 902.549 1082.04 892.921 1087.09C848.791 1110.21 781.598 1139.55 726 1159.98C691.709 1172.58 654.181 1180.98 625.423 1182.49C607.681 1183.42 571.732 1179.68 570.825 1176.82C570.571 1176.02 580.134 1172.7 592.073 1169.44C618 1162.34 656.217 1146.22 681.506 1131.71C707.091 1117.03 767.736 1087.98 814.39 1068.06C843.659 1055.56 874.799 1044.65 936.246 1025.37L1018.78 999.461L1001.25 988.855L983.713 978.246L971.338 983.551C925.122 1003.36 889.037 1019.57 856.771 1035.02C703.557 1108.38 549.155 1158.01 476.244 1157.34C467.463 1157.26 460.034 1156.4 459.73 1155.43C459.427 1154.46 464.602 1151.77 471.226 1149.44C496.973 1140.4 557.737 1112.23 633.135 1074.38C731.847 1024.83 792.83 999.039 846.692 984.072C882.639 974.086 947.985 961.697 955.107 963.518C962.865 965.501 952.897 958.562 925.491 942.898L914.637 936.694L902.831 945.405C893.872 952.014 880.135 958.16 845.862 970.884C821.023 980.107 787.452 992.927 771.262 999.377C690.166 1031.67 563.016 1069.46 512.631 1076.24C489.44 1079.36 444.384 1081.64 440.494 1079.88C437.075 1078.34 555.077 1027.31 642.994 992.309C761.039 945.317 814.881 928.104 863.506 921.811C876.63 920.112 887.268 918.398 887.146 918.007C886.375 915.544 850.152 893.08 848.041 893.758C846.611 894.215 839.49 897.543 832.216 901.155C824.942 904.767 792.027 918.606 759.073 931.914C705.678 953.473 687.876 959.485 595.542 987.152C488.017 1019.37 467.826 1024.33 396.892 1035.95C333.038 1046.41 334.376 1046.38 352.688 1037.11C361.153 1032.83 380.361 1022.46 395.373 1014.07C431.34 993.974 470.786 976.966 537.661 952.725C610.107 926.462 744.945 884.298 769.633 880.189C790.945 876.639 815.556 874.402 820.203 875.589C821.842 876.008 822.866 875.334 822.476 874.088C822.087 872.845 820.823 871.741 819.664 871.635C818.508 871.531 809.655 866.096 799.993 859.558C783.777 848.585 781.924 847.947 775.886 851.259C733.959 874.268 588.276 920.422 459.598 951.471C397.501 966.451 202.304 1004.13 204.441 1000.73C207.944 995.145 275.929 960.059 316.488 942.904C393.731 910.231 611.656 853.848 723.227 837.671C736.627 835.73 750.216 834.291 753.424 834.476C756.635 834.661 759.004 834.063 758.694 833.144C758.383 832.225 749.716 825.813 739.433 818.894L720.735 806.313L674.186 819.804C530.623 861.413 337.116 885.32 171.711 881.884L143.516 881.298L161.477 873.589C171.357 869.351 210.885 856.505 249.32 845.046C304.411 828.618 327.141 822.893 356.727 817.988C428.054 806.167 496.403 798.043 561.745 793.619C589.855 791.716 677.094 789.37 689.907 790.172C696.749 790.601 698.965 787.199 692.859 785.638C691.287 785.236 680.524 778.126 668.947 769.836L647.893 754.764L614.521 764.498C577.919 775.17 571.68 775.846 494.308 777.489C390.801 779.684 306.821 777.184 251.39 770.251C220.372 766.372 145.861 753.053 140.796 750.482C135.529 747.809 237.913 723.152 274.579 718.265C316.727 712.645 393.557 713.466 468.792 720.338C509.538 724.059 603.34 735.092 617.73 737.852C627.289 739.687 627.357 739.768 600.595 718.354C578.688 700.83 578.443 700.716 568.887 703.618C539.036 712.681 416.478 707.045 316.041 691.989C252.744 682.5 202.856 669.041 151.197 647.52C127.423 637.615 99.5067 622.551 98.4062 619.033C97.7634 616.978 153.281 617.051 191.395 619.155C271.653 623.589 459.287 652.038 525.57 669.825C548.21 675.902 547.386 675.808 543.049 671.818C540.925 669.863 532.419 662.428 524.148 655.297L509.111 642.332L488.77 642.083C441.393 641.506 348.554 623.911 261.735 599.053C186.076 577.393 143.074 559.351 109.07 535.009C89.6086 521.079 59.2521 492.474 60.7953 489.527C61.1827 488.787 79.0865 493.228 100.584 499.397C146.723 512.634 156.242 515.108 213.779 528.822C287.87 546.481 353.096 566.511 445.781 600.065L475.179 610.706L458.665 593.96L442.148 577.215L415.878 573.083C367.129 565.416 318.922 548.287 196.931 495.282C120.12 461.908 75.2599 434.686 43.3034 402.057C33.0882 391.626 17.9258 371.345 18.9229 369.445C19.7423 367.88 138.708 413.885 207.386 442.324C246.808 458.65 323.593 494.407 364.625 515.547C385.913 526.515 403.256 535.247 403.164 534.952C403.071 534.655 396.239 526.962 387.981 517.853C373.751 502.16 371.545 500.754 345.86 491.067C330.954 485.446 298.901 471.531 274.637 460.147C143.849 398.787 96.5837 359.284 70.4196 289.47C63.7965 271.797 63.0652 268.474 66.6797 272.466C105.867 315.769 110.899 319.394 205.528 372.45C267.829 407.38 299.304 427.984 329.142 453.374C337.322 460.336 344.315 465.456 344.681 464.755C345.821 462.578 336.147 452.696 313.614 433.017C261.521 387.523 202.982 319.019 171.3 266.475C157.91 244.268 137.101 197.11 128.359 169.151C117.474 134.354 105.329 64.5805 111.545 72.5661C142.571 112.429 262.603 298.228 319.533 394.517C350.805 447.411 361.405 463.812 371.548 474.999C380.7 485.091 379.862 482.983 362.065 451.155C312.415 362.351 259.094 213.843 249.255 136.95C244.635 100.865 243.245 66.2653 245.466 42.7602C246.659 30.1299 248.263 19.0721 249.028 18.1886C249.793 17.3051 258.859 41.1117 269.172 71.0924Z" fill="black" fill-opacity="0.2"/>
</g>
<defs>
<filter id="filter0_f_2121_11285" x="0.775976" y="0.0650387" width="1471.02" height="1309.15" filterUnits="userSpaceOnUse" color-interpolation-filters="sRGB">
<feFlood flood-opacity="0" result="BackgroundImageFix"/>
<feBlend mode="normal" in="SourceGraphic" in2="BackgroundImageFix" result="shape"/>
<feGaussianBlur stdDeviation="9.05" result="effect1_foregroundBlur_2121_11285"/>
</filter>
</defs>
</svg>
