<svg width="1010" height="1310" viewBox="0 0 1010 1310" fill="none" xmlns="http://www.w3.org/2000/svg">
<g filter="url(#filter0_f_2113_7266)">
<path fill-rule="evenodd" clip-rule="evenodd" d="M740.869 71.0924C730.554 101.075 704.948 174.658 683.966 234.612C646.011 343.056 603.035 482.077 599.995 506.241C598.74 516.221 597.157 518.789 583.282 533.367C574.853 542.224 567.393 549.341 566.703 549.187C566.015 549.032 568.741 541.053 572.76 531.458C588.499 493.9 618.851 401.058 627.7 363.414C646.104 285.118 660.519 198.83 661.862 158.953C662.943 126.78 656.469 65.6063 651.828 64.1544C650.747 63.8163 649.13 67.6085 648.238 72.5793C647.342 77.5517 640.504 103.196 633.04 129.569C618.262 181.778 606.374 228.984 590.838 297.142C585.326 321.325 574.221 365.972 566.16 396.359C547.102 468.205 536.513 514.196 534.449 534.115C533.532 542.93 531.398 559.052 529.703 569.941L526.622 589.738L507.391 607.598L488.162 625.46L506.614 566.225C523.568 511.804 530.656 484.461 550.296 397.763C566.097 328.007 575.945 266.872 577.238 230.508C578.954 182.262 573.812 135.964 564.42 115.107L560.083 105.475L558.406 115.135C550.277 161.949 544.713 187.968 535.951 220.14C515.126 296.624 514.204 301.161 464.378 572.031C459.263 599.838 454.281 630.56 453.305 640.299L451.533 658.005L428.64 676.524C416.05 686.709 405.604 694.703 405.434 694.286C405.261 693.87 407.753 688.053 410.975 681.359C423.169 656.01 446.968 584.265 456.888 542.953C485.279 424.702 497.173 321.185 489.923 255.445C487.12 230.049 476.041 187.993 468.745 175.058L464.771 168.01L464.647 180.358C464.171 228.473 448.439 328.067 424.648 433.571C397.307 554.825 392.312 578.911 384.448 627.361C380.004 654.75 376.171 686.495 375.926 697.909L375.489 718.66L365.36 726.3C359.79 730.503 348.821 738.637 340.985 744.377L326.738 754.812L338.942 715.73C352.479 672.373 371.818 593.237 380.181 546.967C399.858 438.102 399.643 330.283 379.606 262.343C373.453 241.471 352.986 194.736 349.528 193.654C348.454 193.318 348.325 198.103 349.241 204.284C351.818 221.698 352.165 281.561 349.881 314.705C347.188 353.722 339.984 413.96 330.944 473.006C308.968 616.546 298.483 729.812 304.666 756.85L307.305 768.398L288.988 781.227C278.914 788.285 269.91 794.103 268.978 794.16C268.049 794.216 269.171 787.119 271.476 778.392C288.343 714.52 303.653 547.116 300.963 455.99C298.86 384.679 294.946 353.994 282.946 314.72C276.397 293.288 254.342 248.597 251.139 250.274C250.523 250.596 250.507 258.921 251.102 268.775C253.577 309.76 251.938 358.53 244.845 454.986C233.844 604.614 234.54 766.294 246.347 803.415C248.013 808.656 246.041 810.461 220.499 827.041L192.846 844.993L195.738 833.72C215.701 755.927 224.882 664.359 220.062 591.117C214.701 509.663 193.953 419.312 169.926 372.79C160.434 354.409 140.652 324.369 137.365 323.341C136.794 323.163 141.297 357.51 147.369 399.671C166.421 531.966 170.531 585.515 168.937 680.761C167.009 796.24 168.244 836.392 174.135 849.669C176.133 854.166 175.665 855.181 169.726 859.253C156.577 868.27 123.072 888.858 121.893 888.647C121.229 888.529 124.035 876.594 128.128 862.127C157.811 757.19 151.622 591.068 114.375 493.105C106.267 471.778 73.8363 407.249 72.8353 410.45C72.5944 411.22 73.7653 424.166 75.4345 439.224C93.8584 605.288 96.3105 646.362 93.7969 746.852C91.5714 835.846 93.7288 882.755 100.652 895.979C103.044 900.546 101.47 902.001 80.1685 914.913C67.4792 922.605 56.5658 928.365 55.9164 927.714C55.2671 927.062 55.8754 920.485 57.2666 913.099C60.7705 894.488 65.9362 793.131 66.2684 736.487C66.6743 666.696 63.5684 625.513 50.4279 526.571C46.1599 494.428 40.5974 450.295 38.0645 428.497C30.8663 366.522 31.8716 369.976 27.0623 390.683C7.26919 475.903 -2.14383 567.602 -0.687228 661.042C0.221827 719.367 4.06729 760.84 14.7378 827.305C26.0512 897.782 30.6919 920.86 35.6467 931.268L39.251 938.837L17.6433 951.439C5.75854 958.366 -4.74519 963.793 -5.69855 963.495C-6.65193 963.197 -7.01346 957.457 -6.49993 950.743C-4.51487 924.76 -11.1014 822.979 -20.1334 740.015C-22.7382 716.094 -25.6359 688.835 -26.5707 679.441C-31.1844 633.13 -43.632 546.936 -54.2726 487.636C-57.5831 469.196 -60.7503 439.852 -61.3152 422.427C-61.8778 405.004 -63.2763 390.449 -64.4207 390.085C-67.5873 389.08 -86.2247 460.102 -89.4254 485.371C-93.7971 519.889 -95.6237 563.309 -94.21 599.114C-90.3601 696.569 -84.7205 755.427 -74.6593 803.162C-68.9295 830.346 -37.4936 940.677 -29.6618 961.084L-24.6684 974.096L-40.5135 982.515C-49.2272 987.145 -56.9036 990.722 -57.5703 990.46C-58.2378 990.2 -60.3387 984.102 -62.241 976.905C-64.1417 969.711 -68.1843 956.525 -71.2218 947.608C-74.2585 938.689 -79.6322 917.531 -83.1645 900.589C-104.149 799.913 -119.192 740.197 -135.251 693.822C-153.947 639.827 -172.213 572.658 -186.03 507.092C-187.168 501.692 -190.341 488.096 -193.084 476.878C-195.826 465.658 -198.76 452.827 -199.6 448.363C-201.817 436.587 -203.58 443.543 -207.826 480.832C-215.623 549.341 -214.427 595.066 -203.009 664.989C-190.827 739.592 -179.28 787.819 -160.66 841.88C-150.303 871.94 -105.52 958.438 -86.8911 984.359L-75.87 999.692L-84.8598 1003.45C-95.279 1007.81 -96.9223 1007.61 -99.3519 1001.69C-100.337 999.297 -110.373 986.052 -121.655 972.263C-148.403 939.57 -162.761 917.107 -191.804 862.508C-213.14 822.396 -250.221 742.821 -255.048 726.786C-258.165 716.431 -288.228 651.627 -290.411 650.944C-290.411 650.944 -301.082 695.357 -300.533 754.59C-299.983 813.822 -267.954 875.833 -226.919 926.102C-201.956 956.683 -165.41 989.708 -136.282 1008.01C-128.343 1013 -122.372 1017.72 -123.012 1018.5C-123.652 1019.29 -132.945 1023.62 -143.669 1028.13C-160.686 1035.29 -163.395 1035.76 -165.006 1031.84C-168.526 1023.27 -202.285 984.098 -228.605 958.048C-243.158 943.642 -259.981 925.983 -265.989 918.805C-287.52 893.077 -304.698 871.261 -320.829 849.161C-329.845 836.806 -337.801 826.516 -338.506 826.295C-339.209 826.075 -344.459 840.833 -350.17 859.089L-360.553 892.284L-356.026 900.2C-338.64 930.601 -302.196 967.612 -257.462 1000.3C-235.659 1016.23 -194.867 1041.81 -187.702 1044.06C-186.143 1044.54 -202.009 1051.45 -215.894 1056.32L-226.039 1059.89L-242.619 1043.42C-251.738 1034.36 -274.344 1015.22 -292.853 1000.86C-311.365 986.513 -336.611 965.399 -348.958 953.947C-361.305 942.495 -371.802 933.002 -372.282 932.851C-372.762 932.701 -376.929 944.638 -381.539 959.376L-389.922 986.177L-379.459 995.583C-351.566 1020.67 -302.746 1049.23 -268.638 1060.42C-256.895 1064.28 -247.348 1067.64 -247.42 1067.89C-247.493 1068.15 -255.798 1071.06 -265.874 1074.36L-284.194 1080.36L-301.102 1068.57C-321.198 1054.55 -338.404 1046.15 -374.629 1032.65L-401.512 1022.63L-407.973 1045.62L-414.435 1068.61L-383.045 1078.17C-363.284 1084.19 -345.652 1088.12 -335.453 1088.8C-326.54 1089.39 -319.057 1090.24 -318.819 1090.69C-318.269 1091.74 -379.946 1109.09 -409.495 1116.2L-432.115 1121.64L-437.886 1139.8L-443.655 1157.96L-422.607 1153.77C-375.299 1144.34 -324.594 1131.41 -291.291 1120.29C-279.253 1116.27 -271.329 1114.92 -269.782 1116.65C-268.436 1118.16 -263.115 1126.05 -257.96 1134.2C-244.966 1154.72 -230.58 1170.45 -198.176 1199.52C-165.371 1228.97 -131.34 1253.42 -106.688 1265.26C-86.9279 1274.75 -46.6003 1291.72 -45.289 1291.09C-44.822 1290.87 -56.0864 1279.26 -70.3214 1265.28C-84.5563 1251.31 -111.079 1223.33 -129.263 1203.1C-163.209 1165.34 -194.94 1134.09 -220.712 1113.03L-235.343 1101.07L-225.466 1097.48C-214.055 1093.34 -211.486 1093.71 -208.962 1099.85C-203.656 1112.78 -182.3 1134.71 -149.196 1161.23C-103.303 1198 -92.0535 1204.51 -27.3002 1231.66C14.6525 1249.26 54.2307 1268.82 64.6779 1277.13C72.9934 1283.75 67.8211 1276.31 51.1522 1257.67C22.5786 1225.72 12.8577 1217.62 -85.3417 1143.83C-102.959 1130.59 -130.686 1111.56 -146.961 1101.54C-163.236 1091.52 -176.988 1082.49 -177.52 1081.47C-178.052 1080.45 -174.651 1078.34 -169.961 1076.77C-165.271 1075.2 -156.592 1071.71 -150.676 1069.01C-144.758 1066.31 -139.139 1064.34 -138.19 1064.63C-137.239 1064.93 -132.719 1070.19 -128.144 1076.31C-91.3849 1125.51 -11.1104 1187.26 62.8594 1223.21C89.745 1236.28 137.721 1251.24 161.477 1253.97C190.951 1257.35 191.23 1255.76 163.557 1242.08C119.044 1220.09 79.6669 1193.41 10.6344 1138.5C-12.011 1120.48 -59.9714 1085.86 -93.8217 1063.09L-110.19 1052.08L-95.6956 1044.36C-87.725 1040.11 -80.442 1036.87 -79.5095 1037.16C-78.5793 1037.45 -72.4685 1043.94 -65.9303 1051.58C-23.1924 1101.54 74.1018 1159.12 177.763 1195.8C229.397 1214.08 260.765 1217.87 309.242 1211.71C329.576 1209.13 333.301 1206.28 317.604 1205.33C311.763 1204.98 290.779 1199.71 270.975 1193.61C239.496 1183.92 230.449 1180.09 199.028 1163.1C179.261 1152.41 149.118 1135.2 132.044 1124.86C78.3746 1092.34 -31.9356 1034.22 -51.7245 1028.03C-56.9205 1026.4 -56.3049 1025.74 -43.32 1018.94L-29.3065 1011.61L35.1545 1044.76C70.609 1063 107.492 1082.04 117.12 1087.09C161.25 1110.21 228.443 1139.55 284.042 1159.98C318.332 1172.58 355.86 1180.98 384.618 1182.49C402.36 1183.42 438.309 1179.68 439.216 1176.82C439.47 1176.02 429.907 1172.7 417.968 1169.44C392.042 1162.34 353.824 1146.22 328.536 1131.71C302.95 1117.03 242.305 1087.98 195.651 1068.06C166.382 1055.56 135.242 1044.65 73.795 1025.37L-8.74346 999.461L8.79185 988.855L26.3279 978.246L38.7031 983.551C84.9196 1003.36 121.004 1019.57 153.271 1035.02C306.484 1108.38 460.886 1158.01 533.797 1157.34C542.578 1157.26 550.007 1156.4 550.311 1155.43C550.614 1154.46 545.439 1151.77 538.815 1149.44C513.068 1140.4 452.304 1112.23 376.906 1074.38C278.194 1024.83 217.211 999.039 163.349 984.072C127.402 974.086 62.0559 961.697 54.9341 963.518C47.1757 965.501 57.1439 958.562 84.5503 942.898L95.4039 936.694L107.21 945.405C116.17 952.014 129.906 958.16 164.179 970.884C189.019 980.107 222.589 992.927 238.78 999.377C319.875 1031.67 447.025 1069.46 497.41 1076.24C520.601 1079.36 565.657 1081.64 569.547 1079.88C572.967 1078.34 454.964 1027.31 367.047 992.309C249.002 945.317 195.16 928.104 146.535 921.811C133.411 920.112 122.773 918.398 122.895 918.007C123.666 915.544 159.889 893.08 162 893.758C163.43 894.215 170.551 897.543 177.825 901.155C185.099 904.767 218.014 918.606 250.969 931.914C304.363 953.473 322.165 959.485 414.499 987.152C522.024 1019.37 542.215 1024.33 613.149 1035.95C677.003 1046.41 675.665 1046.38 657.353 1037.11C648.888 1032.83 629.68 1022.46 614.668 1014.07C578.701 993.974 539.255 976.966 472.38 952.725C399.934 926.462 265.096 884.298 240.409 880.189C219.096 876.639 194.485 874.402 189.838 875.589C188.199 876.008 187.175 875.334 187.565 874.088C187.954 872.845 189.218 871.741 190.377 871.635C191.533 871.531 200.386 866.096 210.048 859.558C226.265 848.585 228.117 847.947 234.155 851.259C276.082 874.268 421.765 920.422 550.443 951.471C612.54 966.451 807.738 1004.13 805.6 1000.73C802.097 995.145 734.112 960.059 693.553 942.904C616.31 910.231 398.385 853.848 286.814 837.671C273.414 835.73 259.825 834.291 256.617 834.476C253.407 834.661 251.037 834.063 251.347 833.144C251.658 832.225 260.325 825.813 270.608 818.894L289.306 806.313L335.855 819.804C479.418 861.413 672.925 885.32 838.33 881.884L866.525 881.298L848.564 873.589C838.684 869.351 799.156 856.505 760.721 845.046C705.63 828.618 682.9 822.893 653.315 817.988C581.987 806.167 513.638 798.043 448.296 793.619C420.186 791.716 332.947 789.37 320.134 790.172C313.292 790.601 311.076 787.199 317.182 785.638C318.754 785.236 329.517 778.126 341.095 769.836L362.148 754.764L395.52 764.498C432.122 775.17 438.362 775.846 515.733 777.489C619.241 779.684 703.22 777.184 758.651 770.251C789.67 766.372 864.18 753.053 869.245 750.482C874.512 747.809 772.128 723.152 735.463 718.265C693.314 712.645 616.484 713.466 541.249 720.338C500.504 724.059 406.702 735.092 392.311 737.852C382.752 739.687 382.684 739.768 409.446 718.354C431.354 700.83 431.598 700.716 441.154 703.618C471.005 712.681 593.564 707.045 694 691.989C757.297 682.5 807.185 669.041 858.844 647.52C882.618 637.615 910.534 622.551 911.635 619.033C912.278 616.978 856.76 617.051 818.646 619.155C738.388 623.589 550.754 652.038 484.471 669.825C461.831 675.902 462.655 675.808 466.992 671.818C469.116 669.863 477.622 662.428 485.894 655.297L500.93 642.332L521.271 642.083C568.648 641.506 661.487 623.911 748.307 599.053C823.965 577.393 866.967 559.351 900.971 535.009C920.433 521.079 950.789 492.474 949.246 489.527C948.858 488.787 930.955 493.228 909.457 499.397C863.318 512.634 853.799 515.108 796.262 528.822C722.171 546.481 656.945 566.511 564.26 600.065L534.862 610.706L551.377 593.96L567.893 577.215L594.163 573.083C642.912 565.416 691.119 548.287 813.11 495.282C889.921 461.908 934.781 434.686 966.738 402.057C976.953 391.626 992.115 371.345 991.118 369.445C990.299 367.88 871.333 413.885 802.655 442.324C763.233 458.65 686.448 494.407 645.416 515.547C624.128 526.515 606.785 535.247 606.877 534.952C606.97 534.655 613.802 526.962 622.06 517.853C636.29 502.16 638.497 500.754 664.181 491.067C679.088 485.446 711.14 471.531 735.404 460.147C866.192 398.787 913.457 359.284 939.621 289.47C946.245 271.797 946.976 268.474 943.361 272.466C904.175 315.769 899.142 319.394 804.513 372.45C742.212 407.38 710.737 427.984 680.899 453.374C672.719 460.336 665.727 465.456 665.36 464.755C664.22 462.578 673.894 452.696 696.427 433.017C748.52 387.523 807.06 319.019 838.741 266.475C852.131 244.268 872.94 197.11 881.683 169.151C892.567 134.354 904.712 64.5805 898.496 72.5661C867.47 112.429 747.438 298.228 690.508 394.517C659.237 447.411 648.636 463.812 638.493 474.999C629.341 485.091 630.179 482.983 647.976 451.155C697.626 362.351 750.947 213.843 760.786 136.95C765.406 100.865 766.796 66.2653 764.576 42.7602C763.382 30.1299 761.778 19.0721 761.013 18.1886C760.248 17.3051 751.182 41.1117 740.869 71.0924Z" fill="black" fill-opacity="0.2"/>
</g>
<defs>
<filter id="filter0_f_2113_7266" x="-461.755" y="0.0650387" width="1471.02" height="1309.15" filterUnits="userSpaceOnUse" color-interpolation-filters="sRGB">
<feFlood flood-opacity="0" result="BackgroundImageFix"/>
<feBlend mode="normal" in="SourceGraphic" in2="BackgroundImageFix" result="shape"/>
<feGaussianBlur stdDeviation="9.05" result="effect1_foregroundBlur_2113_7266"/>
</filter>
</defs>
</svg>
