<svg width="904" height="796" viewBox="0 0 904 796" fill="none" xmlns="http://www.w3.org/2000/svg">
<path fill-rule="evenodd" clip-rule="evenodd" d="M771.736 120.654C771.409 132.237 770.505 160.695 769.728 183.896C768.32 225.861 768.498 279.038 770.074 287.798C770.725 291.416 770.454 292.484 767.203 299.083C765.229 303.091 763.403 306.388 763.145 306.409C762.889 306.43 762.969 303.35 763.324 299.565C764.716 284.748 765.174 249.054 764.153 234.959C762.029 205.642 757.642 173.974 753.758 159.918C750.624 148.579 741.689 127.948 739.912 127.948C739.497 127.948 739.347 129.447 739.578 131.279C739.808 133.111 740.222 142.801 740.495 152.814C741.037 172.636 742.041 190.398 744.059 215.866C744.775 224.902 745.773 241.686 746.277 253.164C747.468 280.302 748.793 297.498 750.247 304.671C750.889 307.846 751.904 313.702 752.501 317.685L753.587 324.926L748.826 333.253L744.066 341.581L744.04 318.908C744.016 298.076 743.505 287.766 740.895 255.384C738.796 229.33 735.56 206.933 732.042 194.108C727.375 177.093 720.528 161.506 714.975 155.256L712.411 152.37L712.88 155.922C715.153 173.137 716.051 182.819 716.505 194.996C717.587 223.945 717.76 225.628 729.937 325.54C731.187 335.797 732.802 347.056 733.524 350.56L734.838 356.929L728.872 365.886C725.59 370.812 722.818 374.739 722.713 374.612C722.608 374.486 722.842 372.185 723.236 369.499C724.724 359.327 725.198 331.707 724.15 316.216C721.15 271.874 714.003 234.47 704.299 212.332C700.549 203.78 692.094 190.32 688.137 186.604L685.981 184.58L687.285 188.9C692.37 205.734 697.75 242.188 700.964 281.582C704.658 326.856 705.544 335.803 708.087 353.559C709.526 363.597 711.653 375.088 712.813 379.095L714.925 386.381L712.225 390.151C710.741 392.224 707.801 396.258 705.694 399.115L701.862 404.309L701.854 389.346C701.846 372.747 699.957 343.035 697.825 325.984C692.809 285.867 680.967 248.284 666.561 226.774C662.137 220.165 649.895 206.097 648.571 206.097C648.159 206.097 648.636 207.78 649.631 209.836C652.43 215.629 659.085 236.47 661.905 248.28C665.223 262.182 669.284 283.979 672.574 305.559C680.572 358.022 689.275 398.672 694.383 407.428L696.564 411.167L691.573 417.64C688.829 421.202 686.322 424.213 686.003 424.335C685.685 424.455 685.302 421.858 685.154 418.562C684.068 394.444 671.14 334.385 660.257 302.895C651.74 278.252 647.026 267.977 638.553 255.587C633.929 248.827 621.356 235.645 620.421 236.58C620.242 236.759 621.145 239.665 622.428 243.037C627.764 257.062 632.515 274.251 640.567 308.667C653.059 362.056 670.946 418.372 679.117 430.031C680.27 431.678 679.779 432.522 672.677 441.092L664.988 450.371L664.767 446.123C663.242 416.812 656.452 383.872 646.777 358.852C636.017 331.027 618.917 301.777 605.457 288.172C600.139 282.797 589.959 274.477 588.699 274.477C588.481 274.477 593.801 285.966 600.52 300.009C621.606 344.073 628.884 362.302 638.722 395.697C650.653 436.185 655.466 450.054 658.97 454.043C660.158 455.393 660.105 455.798 658.478 457.867C654.874 462.446 645.431 473.282 644.996 473.337C644.752 473.369 644.428 468.9 644.277 463.407C643.182 423.568 622.892 366.302 599.205 336.197C594.049 329.643 575.692 310.674 575.692 311.9C575.692 312.195 577.513 316.583 579.739 321.652C604.29 377.563 609.629 391.622 619.719 426.946C628.655 458.229 634.527 474.355 638.386 478.212C639.718 479.544 639.328 480.223 633.305 487.051C629.717 491.118 626.538 494.318 626.24 494.161C625.943 494.005 625.437 491.645 625.116 488.917C624.308 482.043 615.049 446.127 608.983 426.335C601.508 401.948 595.929 387.923 580.546 354.846C575.549 344.101 568.792 329.315 565.53 321.988C556.254 301.157 556.982 302.252 557.564 309.999C559.959 341.882 566.682 374.893 577.388 407.325C584.07 427.569 589.938 441.614 600.915 463.633C612.554 486.98 616.691 494.523 619.556 497.612L621.64 499.859L615.476 506.612C612.085 510.325 609.013 513.364 608.648 513.364C608.283 513.364 607.53 511.401 606.976 509.003C604.833 499.724 591.427 464.943 579.222 436.991C575.702 428.932 571.716 419.741 570.365 416.566C563.701 400.917 549.951 372.211 539.767 352.689C536.599 346.618 532.292 336.729 530.193 330.713C528.095 324.698 526.019 319.773 525.58 319.772C524.365 319.766 525.614 346.571 527.255 355.734C529.496 368.25 533.598 383.594 537.999 395.928C549.978 429.5 558.369 449.413 567.089 464.965C572.055 473.821 595.064 508.874 600.024 515.137L603.186 519.131L598.576 523.796C596.041 526.361 593.753 528.447 593.492 528.428C593.231 528.41 591.832 526.512 590.383 524.21C588.935 521.908 586.085 517.75 584.053 514.971C582.02 512.192 577.836 505.398 574.754 499.874C556.445 467.049 544.68 447.862 534.015 433.439C521.599 416.646 507.896 395.211 495.919 373.85C494.933 372.09 492.342 367.695 490.161 364.081C487.979 360.467 485.556 356.311 484.775 354.846C482.717 350.98 482.861 353.599 485.449 367.068C490.205 391.814 495.613 407.632 507.227 430.775C519.62 455.466 528.912 471.028 541.308 487.852C548.202 497.207 573.268 522.49 582.596 529.499L588.115 533.644L585.389 535.937C582.229 538.594 581.634 538.704 580.14 536.904C579.535 536.176 574.588 532.651 569.147 529.073C556.246 520.588 548.785 514.319 532.693 498.445C520.872 486.782 499.249 463.072 495.815 458.006C493.598 454.734 478.693 438.767 477.857 438.767C477.422 438.767 477.066 443.931 477.066 450.243V461.718L482.98 472.666C497.646 499.815 507.578 511.4 527.382 524.456C539.429 532.399 555.784 539.931 567.945 543.136C571.259 544.01 573.858 545.005 573.72 545.349C573.582 545.693 570.813 548.217 567.563 550.96C562.407 555.314 561.513 555.774 560.524 554.583C558.36 551.977 542.306 541.997 530.28 535.783C523.63 532.346 515.834 528.022 512.954 526.174C502.634 519.549 494.26 513.814 486.219 507.866C481.725 504.54 477.826 501.819 477.556 501.819C477.287 501.819 477.066 507.539 477.066 514.53V527.241L479.509 529.508C488.893 538.214 505.648 547.147 524.823 553.667C534.168 556.844 551.193 561.319 553.938 561.319C554.535 561.319 549.753 565.458 545.44 568.673L542.289 571.022L534.708 567.088C530.538 564.925 520.561 560.712 512.536 557.726C504.511 554.74 493.399 550.13 487.841 547.483C482.283 544.836 477.585 542.67 477.401 542.67C477.217 542.67 477.066 547.287 477.066 552.931V563.193L481.743 565.333C494.212 571.038 514.363 575.675 527.485 575.857C532.003 575.92 535.701 576.052 535.704 576.148C535.706 576.246 533.126 578.167 529.971 580.418L524.234 584.509L517.047 582.24C508.506 579.544 501.585 578.489 487.473 577.733L477 577.171L477.255 585.896L477.51 594.621L489.505 594.529C497.057 594.472 503.638 593.922 507.27 593.044C510.444 592.277 513.148 591.758 513.28 591.889C513.587 592.195 493.961 604.977 484.427 610.68L477.129 615.046L477.097 622.008L477.066 628.972L483.952 625.212C499.429 616.763 515.709 606.722 526.115 599.208C529.876 596.493 532.494 595.161 533.223 595.595C533.856 595.972 536.574 598.145 539.262 600.424C546.036 606.166 552.771 610.08 567.251 616.687C581.909 623.377 596.452 628.193 606.346 629.634C614.276 630.789 630.198 632.307 630.587 631.946C630.726 631.817 625.528 628.995 619.036 625.674C612.545 622.354 600.237 615.487 591.685 610.417C575.72 600.949 561.238 593.51 549.948 588.976L543.538 586.402L546.592 584.073C550.122 581.383 551.058 581.232 552.61 583.1C555.871 587.028 565.716 592.348 580.161 597.987C600.186 605.807 604.821 606.847 630.377 609.254C646.935 610.814 662.879 613.32 667.431 615.079C671.055 616.479 668.438 614.448 660.588 609.766C647.132 601.741 642.856 599.974 600.541 584.952C592.949 582.256 581.199 578.645 574.426 576.924C567.654 575.204 561.871 573.555 561.574 573.258C561.277 572.961 562.233 571.853 563.698 570.794C565.163 569.736 567.81 567.571 569.579 565.982C571.349 564.394 573.095 563.095 573.459 563.095C573.823 563.095 575.973 564.434 578.238 566.071C596.433 579.222 631.18 591.999 660.912 596.471C671.719 598.097 690.091 598.081 698.677 596.439C709.33 594.402 709.253 593.817 698.106 592.067C680.174 589.252 663.525 584.244 633.445 572.621C623.578 568.809 603.066 561.964 588.771 557.716L581.858 555.661L586.072 551.386C588.389 549.034 590.577 547.11 590.934 547.11C591.29 547.11 594.131 548.707 597.246 550.659C617.609 563.42 657.84 572.888 698.012 574.375C718.021 575.116 729.38 573.017 745.621 565.579C752.433 562.459 753.423 561.061 747.842 562.442C745.766 562.956 737.869 563.406 730.294 563.44C718.254 563.496 714.678 563.145 701.862 560.647C693.798 559.076 681.403 556.363 674.317 554.618C652.043 549.132 607.212 540.893 599.632 540.893C597.642 540.893 597.784 540.594 601.572 536.807L605.661 532.72L631.771 537.252C646.131 539.743 661.078 542.363 664.988 543.072C682.908 546.321 709.554 549.224 731.183 550.285C744.522 550.938 758.532 549.773 768.731 547.162C775.022 545.55 787.158 540.327 787.161 539.227C787.163 538.923 783.464 538.807 778.942 538.972C769.123 539.327 754.029 537.874 743.622 535.571C733.092 533.24 708.763 529.724 690.311 527.867C678.735 526.701 666.68 526.294 643.136 526.271L611.511 526.241L616.471 520.628L621.432 515.015L626.328 515.515C644.615 517.38 658.974 519.098 671.918 520.966C733.382 529.839 792.67 530.305 818.036 522.116C821.09 521.13 823.589 520.02 823.589 519.649C823.589 519.277 821.489 518.902 818.924 518.813C808.954 518.468 784.679 515.272 754.242 510.296C714.392 503.783 690.301 501.442 669.875 502.098C656.243 502.537 632.091 505.345 629.805 506.757C627.315 508.295 630.035 504.787 637.888 496.334L640.998 492.986L646.068 494.736C649.915 496.064 655.379 496.708 668.725 497.407C678.398 497.914 691.51 498.723 697.863 499.206C729.682 501.622 778.169 500.931 796.489 497.799C804.921 496.358 820.89 492.235 822.055 491.199C823.08 490.287 776.339 485.363 741.845 482.747C695.53 479.236 674.866 479.106 657.213 482.216C652.449 483.055 648.55 483.618 648.55 483.468C648.55 482.525 658.737 470.738 659.547 470.744C660.097 470.748 662.944 471.132 665.876 471.598C668.809 472.064 681.803 473.3 694.753 474.346C715.736 476.041 722.603 476.195 757.838 475.772C798.87 475.278 806.456 474.805 832.474 471.12C855.895 467.802 855.424 467.935 848.023 466.701C844.602 466.131 836.769 464.611 830.616 463.323C815.874 460.237 800.255 458.608 774.276 457.449C746.133 456.193 694.486 456.197 685.424 457.457C677.6 458.544 668.769 460.449 667.278 461.37C666.752 461.695 666.321 461.572 666.321 461.095C666.321 460.619 666.641 460.096 667.034 459.932C667.426 459.77 669.922 456.908 672.579 453.574C677.04 447.977 677.616 447.553 680.085 448.049C697.224 451.5 753.091 451.704 801.376 448.495C824.676 446.945 896.894 438.793 895.777 437.837C893.945 436.273 866.396 431.452 850.372 429.894C819.856 426.925 737.668 431.035 696.975 437.565C692.088 438.35 687.189 439.33 686.09 439.745C684.99 440.16 684.098 440.209 684.106 439.855C684.114 439.501 686.439 436.319 689.271 432.784L694.422 426.356L712.135 425.983C766.766 424.833 836.891 412.06 894.226 392.816L904 389.535L896.892 388.806C892.982 388.406 877.789 388.238 863.128 388.434C842.114 388.715 833.558 389.198 822.7 390.715C796.524 394.373 771.79 398.997 748.509 404.583C738.493 406.986 707.799 415.685 703.416 417.363C701.076 418.259 699.932 417.314 701.892 416.103C702.396 415.792 705.376 412.137 708.51 407.983L714.211 400.429L726.917 400.183C740.852 399.912 743.103 399.467 770.278 391.599C806.631 381.072 835.659 371.038 854.243 362.572C864.642 357.835 889.186 345.061 890.672 343.611C892.218 342.104 853.805 344.674 840.479 346.97C825.16 349.608 798.443 358.277 772.943 368.882C759.133 374.625 727.609 388.707 722.889 391.24C719.755 392.922 719.739 392.958 726.74 382.569C732.471 374.067 732.544 374.001 736.195 373.97C747.599 373.875 789.745 358.538 823.145 342.329C844.194 332.114 860.131 321.977 875.806 308.834C883.02 302.786 891.116 294.486 891.116 293.139C891.116 292.352 871.754 298.434 858.685 303.327C831.167 313.629 768.805 344.023 747.62 357.458C740.384 362.047 740.661 361.925 741.739 360.06C742.267 359.146 744.423 355.625 746.531 352.235L750.362 346.073L757.432 343.767C773.899 338.397 804.371 322.131 831.95 303.989C855.983 288.18 869.018 277.196 878.226 264.996C883.496 258.014 890.965 244.725 890.105 243.865C889.889 243.649 884.127 247.152 877.3 251.649C862.646 261.299 859.595 263.201 841.017 274.261C817.094 288.504 796.522 302.606 767.846 324.421L758.75 331.34L762.684 323.698L766.62 316.055L775.334 311.748C791.506 303.756 806.456 292.522 843.235 260.725C866.392 240.705 879.073 226.315 886.662 211.449C889.088 206.696 892.165 197.968 891.61 197.414C891.153 196.957 854.666 225.982 833.808 243.395C821.835 253.39 798.947 274.238 786.937 286.089C780.707 292.237 775.609 297.174 775.609 297.061C775.609 296.948 777.153 293.519 779.04 289.441C782.292 282.415 782.909 281.684 790.813 275.503C795.401 271.916 805.065 263.566 812.289 256.948C851.225 221.278 863.404 202.342 864.914 175.138C865.296 168.251 865.189 167.012 864.363 168.799C855.417 188.178 854.056 189.991 826.83 218.82C808.905 237.801 800.172 248.421 792.532 260.532C790.438 263.853 788.557 266.401 788.353 266.197C787.717 265.562 790.014 261.06 795.728 251.738C808.939 230.186 821.887 199.907 827.207 178.123C829.455 168.917 831.569 150.199 831.568 139.493C831.568 126.169 828.191 100.508 826.893 103.971C820.419 121.26 798.816 199.16 789.462 238.955C784.323 260.815 782.415 267.693 780.097 272.701C778.005 277.22 778.067 276.393 780.803 263.35C788.435 226.959 790.831 169.344 785.872 141.451C783.546 128.361 780.255 116.142 776.915 108.186C775.12 103.911 773.354 100.229 772.99 100.004C772.627 99.7793 772.062 109.072 771.736 120.654Z" fill="#35291D" fill-opacity="0.8"/>
<path fill-rule="evenodd" clip-rule="evenodd" d="M164.887 138.186C169.717 151.812 181.701 185.251 191.52 212.495C209.282 261.775 229.461 324.974 230.95 335.978C231.564 340.522 232.296 341.687 238.683 348.274C242.564 352.276 245.995 355.49 246.309 355.416C246.621 355.343 245.345 351.716 243.472 347.359C236.138 330.303 221.909 288.104 217.716 270.979C208.995 235.361 202.059 196.083 201.278 177.909C200.649 163.246 203.343 135.329 205.453 134.647C205.944 134.489 206.697 136.211 207.125 138.473C207.554 140.736 210.78 152.399 214.294 164.391C221.252 188.131 226.871 209.602 234.241 240.61C236.856 251.612 242.108 271.92 245.911 285.739C254.903 318.413 259.925 339.336 260.95 348.409C261.405 352.424 262.446 359.765 263.265 364.722L264.753 373.735L273.596 381.796L282.438 389.858L273.775 362.93C265.816 338.191 262.469 325.755 253.15 286.312C245.651 254.577 240.903 226.747 240.161 210.174C239.174 188.185 241.323 167.056 245.517 157.508L247.454 153.098L248.259 157.495C252.163 178.804 254.809 190.643 258.94 205.273C268.757 240.054 269.196 242.119 293.055 365.399C295.505 378.055 297.906 392.04 298.392 396.476L299.274 404.541L309.79 412.887C315.573 417.477 320.369 421.078 320.444 420.887C320.522 420.697 319.361 418.055 317.864 415.017C312.197 403.512 301.044 370.903 296.348 352.111C282.905 298.319 277.045 251.176 280.073 221.174C281.244 209.584 286.117 190.364 289.389 184.436L291.171 181.206L291.279 186.835C291.699 208.769 299.293 254.108 310.584 302.107C323.561 357.271 325.94 368.232 329.729 390.287C331.871 402.755 333.753 417.211 333.912 422.414L334.199 431.873L338.849 435.313C341.407 437.206 346.441 440.868 350.038 443.451L356.578 448.149L350.849 430.383C344.494 410.673 335.343 374.676 331.335 353.617C321.905 304.068 321.548 254.912 330.396 223.854C333.113 214.312 342.247 192.919 343.819 192.411C344.307 192.253 344.386 194.434 343.995 197.256C342.893 205.206 342.988 232.499 344.169 247.6C345.561 265.376 349.1 292.809 353.47 319.69C364.095 385.038 369.354 436.632 366.649 448.985L365.494 454.26L373.899 460.032C378.522 463.207 382.651 465.822 383.077 465.844C383.5 465.865 382.959 462.635 381.871 458.666C373.912 429.617 366.225 353.362 367.067 311.806C367.725 279.286 369.38 265.28 374.685 247.324C377.58 237.526 387.446 217.058 388.914 217.809C389.196 217.953 389.239 221.748 389.009 226.243C388.053 244.939 389.006 267.166 392.647 311.111C398.294 379.281 398.659 452.994 393.433 469.968C392.696 472.364 393.603 473.178 405.317 480.63L418 488.698L416.634 483.57C407.204 448.188 402.632 406.481 404.521 373.069C406.621 335.911 415.699 294.632 426.456 273.321C430.706 264.901 439.598 251.123 441.092 250.64C441.352 250.556 439.444 266.234 436.854 285.481C428.726 345.876 427.079 370.306 428.207 413.722C429.574 466.362 429.18 484.672 426.55 490.75C425.658 492.809 425.876 493.27 428.601 495.101C434.634 499.157 449.996 508.401 450.532 508.3C450.834 508.243 449.505 502.814 447.578 496.236C433.602 448.52 435.723 372.758 452.29 327.939C455.896 318.182 470.409 288.626 470.879 290.081C470.992 290.431 470.513 296.338 469.816 303.21C462.117 378.997 461.173 397.733 462.743 443.537C464.133 484.1 463.347 505.495 460.247 511.553C459.176 513.645 459.899 514.302 469.665 520.099C475.483 523.552 480.483 526.132 480.776 525.832C481.069 525.532 480.764 522.536 480.099 519.175C478.423 510.705 475.64 464.518 475.249 438.695C474.77 406.878 476.012 388.09 481.585 342.926C483.395 328.254 485.745 308.11 486.808 298.162C489.828 269.877 489.384 271.456 491.664 280.876C501.047 319.644 505.726 361.411 505.456 404.016C505.288 430.611 503.71 449.535 499.126 479.882C494.265 512.06 492.247 522.601 490.032 527.367L488.421 530.833L498.325 536.487C503.773 539.595 508.584 542.025 509.018 541.885C509.451 541.745 509.592 539.127 509.329 536.068C508.314 524.23 510.888 477.8 514.655 439.938C515.742 429.022 516.948 416.582 517.334 412.295C519.242 391.163 524.553 351.814 529.154 324.734C530.585 316.313 531.906 302.921 532.09 294.975C532.272 287.03 532.849 280.388 533.369 280.217C534.808 279.745 543.605 312.046 545.171 323.553C547.31 339.271 548.326 359.059 547.832 375.389C546.488 419.835 544.166 446.692 539.78 468.497C537.283 480.915 523.417 531.348 519.932 540.685L517.711 546.638L524.97 550.409C528.962 552.483 532.477 554.081 532.78 553.959C533.083 553.838 534.015 551.049 534.852 547.76C535.688 544.472 537.476 538.444 538.823 534.366C540.17 530.286 542.53 520.617 544.069 512.879C553.211 466.892 559.817 439.603 566.943 418.393C575.239 393.698 583.283 362.998 589.305 333.048C589.801 330.581 591.19 324.369 592.393 319.243C593.596 314.116 594.88 308.254 595.244 306.216C596.204 300.837 597.038 304.002 599.131 320.984C602.975 352.184 602.623 373.036 597.712 404.962C592.473 439.025 587.413 461.061 579.152 485.786C574.557 499.534 554.505 539.158 546.122 551.054L541.162 558.091L545.276 559.768C550.045 561.711 550.793 561.613 551.876 558.904C552.315 557.808 556.834 551.727 561.92 545.393C573.976 530.375 580.427 520.073 593.438 495.059C602.995 476.682 619.565 440.247 621.698 432.916C623.075 428.182 636.508 398.511 637.5 398.19C637.5 398.19 642.552 418.393 642.552 445.399C642.551 472.406 628.211 500.813 609.715 523.903C598.463 537.951 581.942 553.161 568.739 561.627C565.141 563.935 562.438 566.113 562.733 566.468C563.029 566.823 567.284 568.759 572.192 570.77C579.98 573.962 581.217 574.165 581.935 572.372C583.504 568.45 598.729 550.448 610.619 538.461C617.192 531.832 624.787 523.71 627.496 520.412C637.204 508.591 644.943 498.573 652.204 488.429C656.263 482.758 659.846 478.034 660.167 477.93C660.486 477.827 662.942 484.533 665.623 492.832L670.497 507.922L668.466 511.55C660.668 525.483 644.209 542.51 623.953 557.601C614.08 564.954 595.591 576.792 592.334 577.844C591.625 578.073 598.887 581.154 605.239 583.318L609.879 584.899L617.368 577.323C621.487 573.156 631.712 564.33 640.09 557.709C648.469 551.088 659.89 541.356 665.471 536.083C671.051 530.81 675.797 526.437 676.015 526.367C676.233 526.296 678.183 531.721 680.347 538.421L684.282 550.604L679.552 554.936C666.941 566.49 644.805 579.718 629.302 584.964C623.964 586.771 619.626 588.344 619.66 588.46C619.694 588.577 623.493 589.869 628.101 591.332L636.478 593.99L644.137 588.541C653.239 582.067 661.048 578.161 677.506 571.853L689.72 567.173L692.763 577.628L695.806 588.084L681.535 592.573C672.552 595.4 664.53 597.269 659.883 597.62C655.822 597.925 652.414 598.345 652.307 598.552C652.061 599.033 680.253 606.684 693.755 609.8L704.09 612.186L706.798 620.439L709.505 628.694L699.891 626.87C678.283 622.772 655.112 617.093 639.882 612.161C634.377 610.379 630.759 609.801 630.061 610.596C629.454 611.287 627.061 614.908 624.745 618.644C618.908 628.057 612.415 635.285 597.765 648.679C582.934 662.24 567.522 673.531 556.333 679.035C547.364 683.445 529.05 691.351 528.45 691.071C528.236 690.972 533.323 685.629 539.753 679.198C546.184 672.768 558.158 659.899 566.363 650.601C581.679 633.242 596.014 618.859 607.674 609.149L614.294 603.636L609.776 602.042C604.556 600.201 603.387 600.381 602.262 603.193C599.897 609.107 590.254 619.196 575.273 631.428C554.506 648.387 549.405 651.398 519.998 664.052C500.946 672.25 482.984 681.338 478.257 685.171C474.493 688.222 476.82 684.808 484.341 676.24C497.233 661.555 501.63 657.818 546.088 623.764C554.064 617.655 566.625 608.863 574.003 604.225C581.38 599.587 587.611 595.412 587.85 594.945C588.088 594.479 586.528 593.53 584.384 592.835C582.239 592.14 578.267 590.584 575.559 589.376C572.849 588.169 570.279 587.296 569.848 587.436C569.416 587.575 567.377 589.989 565.317 592.8C548.766 615.388 512.429 643.875 478.858 660.58C466.656 666.653 444.847 673.677 434.028 675.018C420.605 676.684 420.471 675.96 433.029 669.609C453.23 659.394 471.07 647.067 502.31 621.739C512.558 613.43 534.277 597.442 549.614 586.919L557.03 581.83L550.389 578.37C546.737 576.467 543.403 575.02 542.979 575.157C542.556 575.294 539.798 578.279 536.849 581.791C517.576 604.745 473.462 631.407 426.357 648.57C402.895 657.119 388.609 658.982 366.483 656.377C357.202 655.284 355.491 654.004 362.644 653.505C365.305 653.319 374.85 650.825 383.852 647.963C398.163 643.414 402.271 641.626 416.525 633.749C425.491 628.793 439.161 620.821 446.901 616.033C471.232 600.982 521.278 574.017 530.273 571.111C532.635 570.349 532.352 570.048 526.403 567.004L519.984 563.719L490.736 579.107C474.649 587.57 457.914 596.41 453.546 598.75C433.524 609.476 403.015 623.136 377.753 632.686C362.173 638.575 345.1 642.562 331.995 643.372C323.91 643.87 307.505 642.32 307.08 641.016C306.961 640.656 311.306 639.101 316.735 637.562C328.526 634.22 345.881 626.71 357.349 619.987C368.952 613.183 396.477 599.683 417.663 590.405C430.954 584.585 445.105 579.48 473.037 570.427L510.558 558.269L502.518 553.508L494.479 548.745L488.859 551.216C467.873 560.44 451.49 567.983 436.845 575.163C367.304 609.256 297.121 632.536 263.878 632.537C259.874 632.537 256.483 632.177 256.341 631.736C256.199 631.296 258.546 630.045 261.557 628.956C273.257 624.725 300.84 611.626 335.055 594.052C379.849 571.044 407.542 559.03 432.035 551.98C448.381 547.275 478.12 541.351 481.375 542.151C484.921 543.023 480.347 539.901 467.786 532.876L462.811 530.093L457.466 534.114C453.409 537.165 447.172 540.025 431.601 545.97C420.315 550.28 405.065 556.267 397.711 559.275C360.875 574.34 303.066 592.105 280.124 595.409C269.565 596.93 249.033 598.157 247.252 597.374C245.687 596.684 299.269 572.921 339.203 556.594C392.822 534.673 417.296 526.598 439.438 523.523C445.414 522.694 450.257 521.867 450.199 521.689C449.837 520.57 433.228 510.481 432.269 510.799C431.619 511.014 428.386 512.561 425.085 514.238C421.784 515.916 406.837 522.364 391.869 528.57C367.617 538.625 359.526 541.44 317.548 554.444C268.663 569.586 259.479 571.933 227.188 577.53C198.121 582.569 198.731 582.547 207.041 578.245C210.882 576.257 219.595 571.449 226.403 567.562C242.716 558.247 260.628 550.327 291.014 538.993C323.932 526.713 385.227 506.922 396.465 504.944C406.166 503.236 417.377 502.112 419.501 502.633C420.249 502.818 420.714 502.506 420.531 501.94C420.348 501.375 419.767 500.877 419.238 500.833C418.711 500.79 414.652 498.35 410.219 495.41C402.78 490.476 401.933 490.193 399.194 491.728C380.176 502.395 313.953 524.052 255.42 538.75C227.173 545.842 138.34 563.846 139.301 562.283C140.874 559.724 171.72 543.441 190.139 535.449C225.217 520.227 324.331 493.602 375.129 485.756C381.23 484.815 387.419 484.101 388.882 484.172C390.347 484.243 391.425 483.96 391.279 483.542C391.134 483.125 387.155 480.238 382.438 477.127L373.861 471.47L352.696 477.818C287.42 497.393 199.3 509.109 123.877 508.241L111.02 508.093L119.177 504.502C123.663 502.528 141.63 496.505 159.104 491.119C184.151 483.397 194.489 480.691 207.957 478.329C240.425 472.639 271.552 468.647 301.323 466.354C314.13 465.368 353.893 463.93 359.738 464.242C362.859 464.408 363.855 462.848 361.064 462.162C360.346 461.986 355.409 458.789 350.096 455.059L340.434 448.277L325.261 452.855C308.618 457.875 305.777 458.209 270.51 459.285C223.33 460.723 185.032 459.937 159.732 457.01C145.574 455.373 111.548 449.615 109.228 448.465C106.816 447.268 153.389 435.595 170.084 433.212C189.276 430.472 224.307 430.522 258.636 433.338C277.227 434.862 320.039 439.496 326.611 440.693C330.977 441.49 331.008 441.526 318.717 431.877C308.655 423.98 308.543 423.929 304.199 425.292C290.628 429.55 234.729 427.498 188.876 421.058C159.979 416.999 137.178 411.074 113.535 401.48C102.655 397.065 89.8642 390.315 89.3476 388.715C89.0459 387.781 114.357 387.58 131.742 388.379C168.351 390.061 254.014 402.239 284.308 410.069C294.655 412.744 294.279 412.704 292.285 410.903C291.308 410.021 287.399 406.667 283.598 403.451L276.688 397.604L267.413 397.576C245.812 397.513 203.412 389.883 163.725 378.917C129.141 369.361 109.46 361.317 93.8545 350.363C84.9233 344.095 70.9629 331.182 71.654 329.832C71.8275 329.493 80.0087 331.442 89.8356 334.164C110.926 340.004 115.277 341.091 141.566 347.101C175.419 354.839 205.24 363.695 247.637 378.602L261.085 383.329L253.485 375.764L245.884 368.199L233.89 366.427C211.633 363.137 189.583 355.531 133.743 331.881C98.5838 316.99 78.017 304.769 63.3101 290.028C58.609 285.315 51.6108 276.133 52.0573 275.263C52.4243 274.546 106.856 295.017 138.286 307.693C156.327 314.97 191.485 330.947 210.281 340.412C220.033 345.323 227.976 349.23 227.933 349.096C227.89 348.961 224.742 345.483 220.939 341.365C214.385 334.27 213.373 333.639 201.623 329.331C194.803 326.831 180.132 320.622 169.021 315.535C109.136 288.113 87.4203 270.302 75.1973 238.584C72.1032 230.555 71.7558 229.043 73.4205 230.848C91.4688 250.425 93.7785 252.056 137.144 275.845C165.695 291.507 180.131 300.767 193.842 312.217C197.6 315.356 200.81 317.661 200.974 317.34C201.485 316.343 197.032 311.878 186.677 303.002C162.735 282.48 135.758 251.496 121.092 227.675C114.894 217.607 105.208 196.196 101.104 183.486C95.9949 167.668 90.1634 135.909 93.0309 139.524C107.344 157.566 162.852 241.766 189.212 285.424C203.693 309.407 208.595 316.839 213.266 321.897C217.481 326.459 217.09 325.502 208.842 311.066C185.832 270.79 160.896 203.309 156.085 168.295C153.827 151.863 153.047 136.095 153.96 125.37C154.451 119.606 155.135 114.558 155.48 114.152C155.826 113.746 160.059 124.562 164.887 138.186Z" fill="#595959" fill-opacity="0.8"/>
</svg>
