<svg width="375" height="363" viewBox="0 0 375 363" fill="none" xmlns="http://www.w3.org/2000/svg">
<path fill-rule="evenodd" clip-rule="evenodd" d="M111.376 50.8783C111.202 57.0617 110.719 72.2538 110.304 84.639C109.553 107.041 109.648 135.429 110.489 140.106C110.837 142.037 110.692 142.607 108.956 146.13C107.902 148.27 106.927 150.029 106.79 150.041C106.652 150.052 106.695 148.408 106.885 146.387C107.628 138.477 107.873 119.423 107.328 111.898C106.194 96.2481 103.851 79.3422 101.777 71.839C100.104 65.7856 95.333 54.7724 94.3837 54.7724C94.1626 54.7724 94.0824 55.5726 94.2058 56.5501C94.3286 57.5281 94.5492 62.7012 94.6954 68.0464C94.9848 78.6282 95.5209 88.1102 96.5983 101.706C96.9807 106.529 97.5135 115.489 97.7825 121.617C98.4187 136.104 99.1261 145.284 99.9023 149.113C100.245 150.808 100.787 153.934 101.106 156.06L101.686 159.926L99.1437 164.371L96.6021 168.817L96.5879 156.713C96.5751 145.593 96.3023 140.089 94.9089 122.802C93.7878 108.894 92.0599 96.937 90.1816 90.0909C87.6899 81.0076 84.0339 72.6867 81.0687 69.3501L79.6995 67.8094L79.95 69.7057C81.1636 78.8956 81.6433 84.0644 81.8857 90.5649C82.4631 106.019 82.5556 106.917 89.0577 160.254C89.7252 165.729 90.5873 171.74 90.973 173.61L91.6747 177.01L88.4888 181.791C86.7368 184.421 85.2565 186.518 85.2005 186.45C85.1441 186.383 85.2693 185.155 85.4795 183.72C86.2742 178.29 86.5271 163.546 85.9677 155.276C84.366 131.605 80.5497 111.638 75.3679 99.8193C73.3658 95.254 68.8511 88.0685 66.738 86.0849L65.587 85.004L66.2835 87.3104C68.9987 96.297 71.8714 115.757 73.5874 136.787C75.5596 160.956 76.0326 165.732 77.3909 175.211C78.159 180.57 79.2948 186.704 79.9144 188.843L81.0422 192.733L79.6004 194.745C78.8076 195.852 77.2381 198.005 76.1128 199.53L74.0666 202.303L74.0628 194.316C74.058 185.454 73.0494 169.593 71.9112 160.491C69.233 139.075 62.9098 119.012 55.2178 107.529C52.8552 104.001 46.3189 96.4909 45.6115 96.4909C45.3919 96.4909 45.6466 97.3892 46.1775 98.4867C47.6725 101.579 51.2255 112.705 52.7313 119.009C54.5033 126.431 56.6715 138.067 58.4283 149.587C62.6987 177.594 67.3458 199.294 70.0733 203.968L71.238 205.964L68.5731 209.42C67.1076 211.321 65.7692 212.929 65.5989 212.994C65.429 213.058 65.2246 211.671 65.1453 209.912C64.5656 197.037 57.6626 164.976 51.8513 148.165C47.3038 135.01 44.7865 129.524 40.2623 122.911C37.7934 119.301 31.0801 112.265 30.581 112.763C30.4852 112.859 30.9672 114.41 31.6523 116.21C34.5017 123.697 37.0385 132.874 41.3378 151.246C48.0079 179.747 57.5592 209.811 61.922 216.035C62.5379 216.914 62.2755 217.365 58.4834 221.939L54.3776 226.892L54.2595 224.625C53.4454 208.978 49.8197 191.393 44.6536 178.037C38.9083 163.183 29.7778 147.568 22.5906 140.305C19.7512 137.436 14.3151 132.995 13.6428 132.995C13.5261 132.995 16.3665 139.128 19.9547 146.624C31.2134 170.147 35.0995 179.879 40.3529 197.706C46.7231 219.32 49.2931 226.724 51.1643 228.853C51.7986 229.574 51.7706 229.79 50.9015 230.894C48.9771 233.339 43.9349 239.124 43.7029 239.153C43.5724 239.17 43.3997 236.784 43.3191 233.852C42.7341 212.584 31.9004 182.014 19.2525 165.943C16.4994 162.444 6.69713 152.318 6.69713 152.972C6.69713 153.129 7.66972 155.472 8.85817 158.178C21.9677 188.026 24.8181 195.531 30.2057 214.388C34.9771 231.088 38.1126 239.696 40.1731 241.755C40.8848 242.466 40.6765 242.829 37.4603 246.474C35.5445 248.645 33.847 250.353 33.6881 250.27C33.5292 250.186 33.2592 248.926 33.0879 247.47C32.6562 243.8 27.7121 224.627 24.4732 214.061C20.4818 201.043 17.5033 193.556 9.28943 175.898C6.62122 170.162 3.01316 162.269 1.27105 158.358C-3.68156 147.237 -3.293 147.822 -2.98224 151.958C-1.70365 168.978 1.88638 186.6 7.60282 203.913C11.171 214.72 14.3042 222.218 20.1653 233.972C26.3799 246.436 28.5894 250.462 30.1189 252.112L31.2315 253.311L27.9403 256.916C26.1299 258.898 24.4893 260.52 24.2943 260.52C24.0993 260.52 23.6975 259.473 23.4019 258.193C22.2576 253.239 15.0993 234.672 8.58205 219.75C6.70282 215.448 4.57452 210.541 3.85291 208.846C0.294662 200.492 -7.04718 185.168 -12.4851 174.747C-14.1765 171.506 -16.4765 166.227 -17.5971 163.015C-18.7173 159.804 -19.826 157.175 -20.0604 157.174C-20.7089 157.171 -20.0424 171.481 -19.1661 176.372C-17.9691 183.054 -15.7791 191.245 -13.4292 197.829C-7.03295 215.751 -2.55241 226.381 2.10368 234.683C4.75528 239.411 17.0412 258.124 19.6895 261.467L21.378 263.599L18.9166 266.089C17.5631 267.459 16.3414 268.572 16.2019 268.562C16.0624 268.553 15.3157 267.54 14.5419 266.31C13.7686 265.082 12.247 262.862 11.1615 261.379C10.076 259.895 7.84194 256.268 6.19661 253.319C-3.57956 235.796 -9.86199 225.553 -15.5561 217.854C-22.1859 208.889 -29.503 197.446 -35.8979 186.043C-36.4245 185.104 -37.808 182.757 -38.9727 180.828C-40.1374 178.899 -41.4317 176.68 -41.8482 175.898C-42.9475 173.835 -42.8706 175.233 -41.4886 182.423C-38.949 195.633 -36.0616 204.077 -29.8598 216.432C-23.2429 229.613 -18.2813 237.92 -11.662 246.901C-7.98087 251.895 5.40288 265.393 10.3839 269.134L13.3307 271.347L11.8751 272.571C10.188 273.989 9.87014 274.048 9.07262 273.087C8.74953 272.698 6.10789 270.817 3.20246 268.906C-3.68583 264.377 -7.66964 261.031 -16.2621 252.556C-22.5744 246.33 -34.1197 233.673 -35.9534 230.969C-37.1376 229.222 -45.0962 220.698 -45.5426 220.698C-45.7746 220.698 -45.9649 223.455 -45.9649 226.824V232.95L-42.8071 238.795C-34.9761 253.287 -29.6724 259.472 -19.0982 266.442C-12.6654 270.682 -3.93253 274.703 2.56055 276.414C4.33018 276.88 5.7179 277.412 5.64436 277.595C5.57083 277.779 4.09202 279.126 2.35702 280.591C-0.396114 282.915 -0.87339 283.16 -1.40191 282.525C-2.55715 281.134 -11.1292 275.806 -17.5506 272.488C-21.1013 270.654 -25.2644 268.345 -26.8021 267.359C-32.3126 263.822 -36.7841 260.761 -41.0773 257.585C-43.477 255.81 -45.5588 254.357 -45.703 254.357C-45.8468 254.357 -45.9649 257.411 -45.9649 261.143V267.928L-44.6602 269.139C-39.6497 273.786 -30.7033 278.555 -20.4646 282.036C-15.4745 283.732 -6.38393 286.12 -4.9184 286.12C-4.59959 286.12 -7.15298 288.33 -9.45588 290.046L-11.1382 291.301L-15.1866 289.2C-17.4131 288.046 -22.7405 285.797 -27.0251 284.202C-31.3101 282.608 -37.2439 280.148 -40.2114 278.734C-43.179 277.321 -45.6878 276.165 -45.786 276.165C-45.8842 276.165 -45.9649 278.63 -45.9649 281.643V287.121L-43.4675 288.263C-36.8093 291.309 -26.0496 293.784 -19.0432 293.881C-16.6307 293.915 -14.6561 293.985 -14.6547 294.037C-14.6533 294.089 -16.031 295.115 -17.7157 296.316L-20.7792 298.5L-24.6164 297.289C-29.1771 295.85 -32.8724 295.287 -40.4079 294.883L-46 294.583L-45.8638 299.24L-45.7277 303.898L-39.3228 303.849C-35.2906 303.819 -31.7765 303.525 -29.837 303.057C-28.1424 302.647 -26.6987 302.37 -26.628 302.44C-26.4643 302.604 -36.9436 309.427 -42.0342 312.471L-45.9312 314.802L-45.9483 318.519L-45.9649 322.236L-42.288 320.229C-34.0239 315.718 -25.3309 310.358 -19.7748 306.347C-17.7665 304.898 -16.3684 304.186 -15.9793 304.418C-15.6411 304.62 -14.1898 305.78 -12.7546 306.996C-9.13754 310.062 -5.54133 312.151 2.19002 315.678C10.0172 319.249 17.7823 321.82 23.0651 322.59C27.2994 323.206 35.8012 324.016 36.009 323.824C36.083 323.755 33.3076 322.248 29.8414 320.476C26.3752 318.703 19.8033 315.038 15.2369 312.331C6.71231 307.276 -1.02047 303.305 -7.04908 300.885L-10.4716 299.511L-8.84054 298.268C-6.95609 296.831 -6.45604 296.751 -5.62768 297.748C-3.88604 299.845 1.37067 302.685 9.08353 305.695C19.7763 309.87 22.2509 310.425 35.897 311.71C44.7381 312.542 53.2518 313.881 55.6823 314.819C57.617 315.567 56.2198 314.483 52.0282 311.983C44.8434 307.699 42.56 306.756 19.9656 298.736C15.912 297.298 9.63766 295.37 6.02154 294.451C2.40541 293.533 -0.682671 292.653 -0.841129 292.494C-0.999592 292.336 -0.489101 291.744 0.29324 291.179C1.07558 290.614 2.48891 289.458 3.43351 288.61C4.37858 287.762 5.31084 287.069 5.50488 287.069C5.6994 287.069 6.84752 287.783 8.05685 288.657C17.7723 295.678 36.3254 302.499 52.2014 304.886C57.9719 305.754 67.7818 305.745 72.3662 304.869C78.0542 303.782 78.0134 303.469 72.0611 302.535C62.4866 301.032 53.5962 298.359 37.5353 292.154C32.2667 290.119 21.3139 286.465 13.6808 284.197L9.98969 283.1L12.2399 280.818C13.4772 279.563 14.6453 278.535 14.836 278.535C15.0263 278.535 16.543 279.388 18.2064 280.43C29.0794 287.242 50.5608 292.297 72.0109 293.09C82.6951 293.486 88.7602 292.365 97.4324 288.395C101.07 286.729 101.598 285.983 98.6185 286.72C97.5097 286.995 93.293 287.234 89.2484 287.253C82.8194 287.283 80.9103 287.095 74.0666 285.762C69.7611 284.923 63.1428 283.475 59.3592 282.544C47.4656 279.615 23.5276 275.217 19.4802 275.217C18.4175 275.217 18.4934 275.057 20.5164 273.035L22.6997 270.853L36.641 273.273C44.3087 274.603 52.2901 276.001 54.3776 276.38C63.9464 278.114 78.1742 279.664 89.7229 280.23C96.8455 280.579 104.326 279.957 109.772 278.563C113.131 277.703 119.611 274.914 119.613 274.327C119.614 274.165 117.639 274.103 115.225 274.191C109.981 274.38 101.922 273.605 96.3649 272.376C90.7424 271.131 77.7515 269.254 67.8989 268.263C61.718 267.641 55.2809 267.423 42.7094 267.411L25.8229 267.395L28.4717 264.398L31.1205 261.402L33.7351 261.669C43.4994 262.665 51.1667 263.582 58.0782 264.579C90.8971 269.315 122.555 269.564 136.099 265.193C137.73 264.666 139.064 264.074 139.064 263.875C139.064 263.677 137.943 263.477 136.573 263.429C131.249 263.245 118.287 261.539 102.035 258.883C80.7575 255.406 67.8937 254.156 56.987 254.506C49.7083 254.741 36.8122 256.24 35.5915 256.993C34.2617 257.814 35.7144 255.942 39.9074 251.429L41.5679 249.642L44.275 250.576C46.3293 251.285 49.2466 251.629 56.3731 252.002C61.5382 252.273 68.5394 252.705 71.9316 252.963C88.9215 254.252 114.812 253.883 124.594 252.211C129.096 251.442 137.623 249.241 138.245 248.688C138.792 248.201 113.834 245.572 95.416 244.176C70.6858 242.302 59.6519 242.233 50.2263 243.893C47.6824 244.341 45.6006 244.641 45.6006 244.561C45.6006 244.058 51.04 237.765 51.4727 237.769C51.7659 237.771 53.2864 237.975 54.8521 238.224C56.4177 238.473 63.3563 239.133 70.2711 239.692C81.4748 240.596 85.1417 240.679 103.956 240.452C125.865 240.189 129.916 239.937 143.808 237.969C156.314 236.198 156.062 236.269 152.111 235.61C150.284 235.306 146.102 234.494 142.816 233.807C134.944 232.159 126.604 231.29 112.733 230.671C97.7057 230.001 70.1283 230.003 65.2896 230.676C61.1122 231.256 56.3968 232.273 55.6002 232.764C55.3194 232.938 55.0893 232.872 55.0893 232.617C55.0893 232.363 55.2605 232.084 55.4702 231.997C55.6795 231.91 57.0121 230.383 58.4312 228.602C60.8128 225.615 61.1207 225.388 62.4387 225.653C71.5905 227.495 101.421 227.605 127.203 225.891C139.645 225.064 178.206 220.712 177.609 220.202C176.631 219.367 161.921 216.793 153.365 215.961C137.071 214.376 93.1857 216.57 71.4572 220.056C68.8478 220.475 66.2323 220.999 65.6454 221.22C65.058 221.442 64.5817 221.468 64.586 221.279C64.5902 221.09 65.8314 219.391 67.3439 217.504L70.0941 214.073L79.5524 213.873C108.723 213.26 146.167 206.441 176.781 196.168L182 194.417L178.205 194.027C176.117 193.813 168.004 193.724 160.176 193.829C148.955 193.978 144.387 194.236 138.589 195.046C124.612 196.999 111.405 199.467 98.9743 202.449C93.6265 203.732 77.2372 208.376 74.8968 209.272C73.6472 209.75 73.0361 209.246 74.0827 208.599C74.3522 208.433 75.943 206.482 77.6168 204.264L80.6607 200.232L87.4451 200.101C94.8861 199.956 96.0878 199.719 110.598 195.518C130.009 189.899 145.509 184.542 155.432 180.023C160.985 177.494 174.09 170.674 174.884 169.901C175.709 169.096 155.198 170.468 148.082 171.694C139.903 173.102 125.637 177.73 112.021 183.391C104.647 186.457 87.8147 193.974 85.2945 195.326C83.6207 196.225 83.6126 196.244 87.3507 190.698C90.4108 186.159 90.4497 186.124 92.3991 186.107C98.4885 186.056 120.993 177.869 138.827 169.216C150.066 163.763 158.576 158.351 166.946 151.336C170.798 148.107 175.121 143.676 175.121 142.957C175.121 142.537 164.782 145.784 157.804 148.395C143.11 153.895 109.812 170.12 98.4998 177.292C94.6361 179.743 94.7841 179.677 95.3596 178.682C95.6414 178.194 96.7928 176.314 97.9182 174.504L99.9639 171.215L103.739 169.984C112.532 167.117 128.802 158.434 143.528 148.749C156.361 140.31 163.321 134.446 168.238 127.933C171.052 124.206 175.04 117.112 174.581 116.653C174.466 116.538 171.389 118.407 167.743 120.808C159.919 125.96 158.29 126.975 148.37 132.879C135.596 140.483 124.611 148.011 109.299 159.656L104.443 163.35L106.543 159.27L108.645 155.19L113.298 152.891C121.933 148.624 129.916 142.627 149.554 125.653C161.919 114.966 168.69 107.284 172.742 99.3476C174.038 96.8104 175.681 92.1512 175.384 91.8554C175.14 91.6117 155.658 107.106 144.52 116.401C138.127 121.737 125.906 132.867 119.493 139.193C116.167 142.475 113.444 145.111 113.444 145.051C113.444 144.99 114.269 143.16 115.277 140.983C117.013 137.232 117.342 136.842 121.563 133.542C124.012 131.627 129.173 127.17 133.03 123.637C153.82 104.595 160.324 94.4865 161.13 79.9637C161.334 76.2873 161.276 75.6259 160.836 76.5798C156.059 86.925 155.332 87.8931 140.795 103.283C131.223 113.415 126.56 119.085 122.481 125.55C121.363 127.323 120.358 128.683 120.249 128.574C119.91 128.235 121.136 125.832 124.188 120.855C131.241 109.351 138.155 93.1861 140.996 81.5575C142.196 76.6428 143.325 66.6503 143.324 60.9353C143.324 53.8223 141.521 40.1235 140.828 41.9724C137.371 51.2016 125.836 92.7874 120.841 114.032C118.098 125.701 117.079 129.373 115.841 132.046C114.724 134.458 114.757 134.017 116.218 127.054C120.293 107.628 121.572 76.8708 118.925 61.9806C117.683 54.9928 115.925 48.4695 114.142 44.2223C113.184 41.9401 112.24 39.9746 112.046 39.8547C111.852 39.7347 111.551 44.6954 111.376 50.8783Z" fill="#595959" fill-opacity="0.8"/>
<path fill-rule="evenodd" clip-rule="evenodd" d="M225.849 63.5811C228.041 69.7663 233.482 84.9456 237.939 97.3131C246.002 119.683 255.162 148.372 255.838 153.367C256.116 155.43 256.449 155.958 259.348 158.949C261.11 160.766 262.667 162.224 262.81 162.191C262.952 162.158 262.372 160.511 261.522 158.534C258.193 150.791 251.734 131.635 249.83 123.861C245.871 107.693 242.723 89.8631 242.369 81.6128C242.083 74.9566 243.306 62.284 244.263 61.9747C244.486 61.9026 244.828 62.6843 245.023 63.7114C245.217 64.7387 246.682 70.0328 248.277 75.4764C251.435 86.2531 253.986 95.9998 257.332 110.076C258.519 115.07 260.903 124.288 262.629 130.562C266.711 145.394 268.991 154.892 269.456 159.01C269.663 160.833 270.135 164.165 270.507 166.415L271.182 170.507L275.196 174.166L279.21 177.826L275.278 165.602C271.665 154.372 270.146 148.727 265.915 130.822C262.511 116.416 260.356 103.783 260.019 96.2594C259.571 86.2778 260.547 76.6864 262.45 72.3519L263.33 70.3504L263.695 72.3463C265.467 82.019 266.668 87.3933 268.543 94.0345C273 109.823 273.199 110.76 284.03 166.723C285.142 172.468 286.232 178.816 286.452 180.83L286.853 184.491L291.626 188.279C294.252 190.363 296.429 191.998 296.463 191.911C296.498 191.824 295.971 190.625 295.292 189.246C292.719 184.023 287.657 169.221 285.524 160.691C279.422 136.272 276.762 114.872 278.137 101.253C278.668 95.9917 280.88 87.2667 282.366 84.5757L283.174 83.1095L283.224 85.6647C283.415 95.6215 286.861 116.203 291.987 137.992C297.878 163.033 298.958 168.008 300.678 178.02C301.65 183.68 302.504 190.242 302.577 192.604L302.707 196.898L304.818 198.46C305.979 199.319 308.264 200.981 309.897 202.154L312.865 204.286L310.265 196.221C307.38 187.274 303.226 170.934 301.407 161.374C297.126 138.882 296.964 116.568 300.981 102.469C302.214 98.1376 306.36 88.4265 307.074 88.1959C307.295 88.1244 307.331 89.1143 307.153 90.3952C306.653 94.0041 306.696 106.394 307.233 113.249C307.865 121.318 309.471 133.771 311.455 145.973C316.278 175.637 318.665 199.058 317.437 204.666L316.913 207.061L320.728 209.68C322.827 211.122 324.701 212.309 324.894 212.319C325.087 212.328 324.841 210.862 324.347 209.06C320.734 195.874 317.245 161.258 317.627 142.394C317.926 127.632 318.677 121.274 321.085 113.123C322.399 108.675 326.878 99.3842 327.544 99.7251C327.672 99.7905 327.692 101.513 327.587 103.554C327.154 112.041 327.586 122.131 329.239 142.079C331.802 173.024 331.968 206.486 329.596 214.191C329.261 215.279 329.673 215.648 334.99 219.031L340.748 222.693L340.128 220.365C335.847 204.304 333.772 185.371 334.629 170.204C335.582 153.337 339.703 134.599 344.586 124.925C346.515 121.102 350.552 114.848 351.23 114.629C351.348 114.591 350.482 121.708 349.306 130.445C345.617 157.86 344.869 168.95 345.381 188.659C346.001 212.554 345.823 220.866 344.629 223.625C344.224 224.559 344.323 224.768 345.56 225.6C348.298 227.441 355.272 231.637 355.515 231.591C355.653 231.566 355.049 229.101 354.174 226.115C347.83 204.455 348.793 170.063 356.313 149.718C357.95 145.289 364.538 131.872 364.752 132.532C364.803 132.691 364.586 135.373 364.269 138.492C360.774 172.895 360.346 181.4 361.058 202.193C361.689 220.606 361.333 230.318 359.925 233.068C359.439 234.018 359.768 234.316 364.201 236.947C366.842 238.515 369.111 239.686 369.244 239.55C369.378 239.414 369.239 238.054 368.937 236.528C368.176 232.683 366.913 211.717 366.736 199.995C366.518 185.552 367.082 177.023 369.612 156.521C370.433 149.861 371.5 140.717 371.982 136.201C373.353 123.361 373.152 124.078 374.187 128.354C378.446 145.953 380.57 164.912 380.448 184.253C380.371 196.325 379.655 204.915 377.574 218.691C375.368 233.298 374.452 238.083 373.446 240.247L372.715 241.82L377.211 244.387C379.683 245.798 381.868 246.901 382.064 246.837C382.261 246.773 382.325 245.585 382.206 244.196C381.745 238.823 382.913 217.746 384.624 200.559C385.117 195.604 385.664 189.957 385.84 188.011C386.706 178.418 389.117 160.556 391.205 148.263C391.855 144.44 392.454 138.361 392.538 134.754C392.621 131.147 392.882 128.132 393.118 128.055C393.772 127.841 397.765 142.503 398.476 147.727C399.447 154.862 399.908 163.845 399.684 171.257C399.074 191.433 398.02 203.625 396.029 213.523C394.895 219.16 388.601 242.054 387.019 246.292L386.011 248.995L389.306 250.706C391.118 251.648 392.714 252.374 392.851 252.318C392.989 252.263 393.412 250.997 393.792 249.504C394.171 248.011 394.983 245.275 395.594 243.424C396.206 241.572 397.277 237.183 397.976 233.67C402.126 212.794 405.124 200.407 408.359 190.779C412.125 179.568 415.776 165.633 418.51 152.037C418.735 150.917 419.366 148.097 419.912 145.771C420.458 143.443 421.041 140.782 421.206 139.857C421.642 137.415 422.02 138.852 422.971 146.561C424.715 160.724 424.556 170.189 422.327 184.682C419.948 200.145 417.651 210.148 413.901 221.371C411.816 227.612 402.713 245.599 398.907 250.999L396.656 254.194L398.524 254.955C400.688 255.837 401.028 255.792 401.52 254.563C401.719 254.065 403.77 251.305 406.079 248.429C411.552 241.612 414.48 236.936 420.386 225.581C424.725 217.238 432.246 200.699 433.215 197.371C433.84 195.222 439.937 181.753 440.388 181.608C440.388 181.608 442.681 190.779 442.681 203.038C442.681 215.298 436.171 228.193 427.775 238.674C422.668 245.051 415.168 251.956 409.174 255.799C407.541 256.846 406.314 257.835 406.448 257.996C406.582 258.158 408.514 259.036 410.742 259.949C414.277 261.398 414.839 261.49 415.165 260.676C415.877 258.896 422.788 250.724 428.185 245.283C431.17 242.273 434.617 238.587 435.847 237.09C440.254 231.724 443.767 227.176 447.063 222.571C448.905 219.997 450.532 217.852 450.677 217.805C450.822 217.758 451.937 220.802 453.154 224.57L455.367 231.42L454.445 233.067C450.905 239.391 443.434 247.121 434.238 253.971C429.757 257.309 421.364 262.683 419.885 263.161C419.563 263.264 422.86 264.663 425.743 265.645L427.85 266.363L431.249 262.924C433.119 261.032 437.761 257.026 441.564 254.02C445.367 251.015 450.552 246.597 453.085 244.203C455.618 241.81 457.773 239.825 457.872 239.793C457.971 239.761 458.856 242.223 459.838 245.264L461.624 250.795L459.477 252.762C453.753 258.006 443.704 264.011 436.667 266.392C434.244 267.213 432.274 267.927 432.29 267.979C432.305 268.033 434.03 268.619 436.121 269.283L439.924 270.49L443.401 268.016C447.533 265.077 451.078 263.304 458.549 260.441L464.093 258.316L465.474 263.062L466.855 267.809L460.377 269.846C456.299 271.13 452.658 271.978 450.548 272.137C448.705 272.276 447.158 272.467 447.11 272.561C446.998 272.779 459.796 276.252 465.924 277.667L470.616 278.749L471.845 282.496L473.074 286.243L468.71 285.415C458.901 283.555 448.383 280.977 441.469 278.738C438.97 277.929 437.328 277.667 437.011 278.028C436.735 278.341 435.649 279.985 434.598 281.681C431.948 285.954 429.001 289.235 422.351 295.315C415.618 301.471 408.622 306.597 403.543 309.095C399.472 311.097 391.158 314.686 390.886 314.559C390.788 314.514 393.097 312.088 396.017 309.169C398.936 306.25 404.371 300.409 408.096 296.188C415.049 288.308 421.556 281.779 426.849 277.371L429.854 274.868L427.803 274.145C425.433 273.309 424.903 273.391 424.392 274.667C423.318 277.352 418.941 281.932 412.141 287.484C402.713 295.183 400.398 296.55 387.049 302.294C378.4 306.015 370.247 310.141 368.101 311.88C366.392 313.266 367.449 311.716 370.863 307.826C376.715 301.161 378.711 299.464 398.892 284.005C402.513 281.232 408.215 277.241 411.564 275.136C414.913 273.03 417.741 271.135 417.85 270.923C417.958 270.712 417.25 270.281 416.276 269.965C415.303 269.65 413.5 268.944 412.27 268.395C411.04 267.848 409.874 267.451 409.678 267.514C409.482 267.578 408.556 268.674 407.621 269.95C400.108 280.203 383.613 293.135 368.374 300.718C362.835 303.475 352.934 306.663 348.023 307.272C341.93 308.028 341.869 307.699 347.57 304.816C356.74 300.179 364.838 294.583 379.02 283.086C383.672 279.315 393.531 272.057 400.493 267.28L403.859 264.97L400.845 263.399C399.187 262.535 397.673 261.879 397.481 261.941C397.289 262.003 396.037 263.358 394.698 264.952C385.949 275.372 365.924 287.475 344.541 295.266C333.891 299.147 327.406 299.992 317.362 298.81C313.149 298.314 312.372 297.733 315.619 297.506C316.827 297.422 321.16 296.29 325.247 294.99C331.743 292.925 333.608 292.114 340.078 288.538C344.148 286.288 350.354 282.669 353.867 280.496C364.912 273.664 387.63 261.423 391.713 260.104C392.786 259.758 392.657 259.621 389.957 258.239L387.042 256.748L373.765 263.734C366.463 267.575 358.866 271.588 356.883 272.65C347.795 277.52 333.945 283.72 322.478 288.055C315.406 290.729 307.655 292.539 301.706 292.906C298.036 293.132 290.59 292.429 290.396 291.837C290.342 291.673 292.315 290.967 294.779 290.269C300.132 288.752 308.01 285.343 313.216 282.291C318.483 279.202 330.978 273.074 340.595 268.862C346.628 266.22 353.052 263.903 365.731 259.794L382.763 254.275L379.114 252.113L375.465 249.951L372.914 251.073C363.387 255.26 355.95 258.684 349.302 261.943C317.735 277.42 285.875 287.987 270.785 287.988C268.968 287.988 267.428 287.824 267.364 287.624C267.299 287.424 268.365 286.856 269.731 286.362C275.043 284.442 287.564 278.495 303.095 270.518C323.429 260.074 336 254.62 347.119 251.419C354.539 249.284 368.039 246.595 369.516 246.958C371.126 247.353 369.049 245.936 363.348 242.747L361.089 241.484L358.663 243.31C356.821 244.695 353.99 245.993 346.922 248.692C341.799 250.648 334.876 253.366 331.537 254.731C314.816 261.57 288.574 269.634 278.16 271.134C273.367 271.824 264.046 272.381 263.238 272.026C262.527 271.713 286.851 260.926 304.978 253.514C329.318 243.563 340.428 239.898 350.479 238.502C353.192 238.125 355.39 237.75 355.364 237.669C355.2 237.161 347.66 232.581 347.225 232.726C346.93 232.823 345.462 233.526 343.964 234.287C342.465 235.048 335.68 237.976 328.886 240.793C317.877 245.357 314.204 246.635 295.148 252.538C272.957 259.412 268.788 260.477 254.13 263.018C240.935 265.305 241.212 265.295 244.984 263.342C246.728 262.44 250.683 260.257 253.774 258.493C261.179 254.265 269.31 250.669 283.104 245.524C298.046 239.95 325.871 230.966 330.972 230.068C335.376 229.292 340.465 228.782 341.429 229.019C341.769 229.103 341.979 228.961 341.896 228.704C341.814 228.448 341.55 228.222 341.31 228.202C341.07 228.182 339.228 227.075 337.216 225.74C333.839 223.5 333.454 223.372 332.211 224.069C323.578 228.911 293.517 238.742 266.946 245.414C254.123 248.633 213.798 256.806 214.234 256.097C214.948 254.935 228.951 247.543 237.312 243.915C253.235 237.006 298.228 224.919 321.287 221.358C324.056 220.93 326.866 220.606 327.53 220.639C328.195 220.671 328.684 220.542 328.618 220.353C328.552 220.163 326.746 218.853 324.605 217.441L320.711 214.873L311.103 217.754C281.472 226.64 241.471 231.959 207.233 231.564L201.397 231.497L205.099 229.868C207.136 228.971 215.292 226.237 223.224 223.792C234.594 220.287 239.287 219.058 245.4 217.986C260.139 215.403 274.269 213.591 287.783 212.55C293.597 212.103 311.647 211.45 314.3 211.591C315.717 211.667 316.169 210.959 314.902 210.647C314.576 210.567 312.335 209.116 309.923 207.423L305.537 204.344L298.649 206.422C291.095 208.701 289.805 208.853 273.796 209.341C252.379 209.994 234.994 209.638 223.509 208.309C217.082 207.566 201.636 204.952 200.583 204.43C199.488 203.886 220.63 198.587 228.208 197.506C236.92 196.262 252.822 196.285 268.405 197.563C276.845 198.255 296.279 200.358 299.262 200.902C301.244 201.263 301.258 201.28 295.679 196.9C291.111 193.315 291.061 193.292 289.088 193.911C282.928 195.843 257.553 194.912 236.739 191.988C223.621 190.146 213.271 187.456 202.538 183.101C197.599 181.097 191.793 178.033 191.558 177.307C191.422 176.883 202.911 176.791 210.803 177.154C227.421 177.918 266.308 183.446 280.059 187C284.756 188.214 284.586 188.196 283.68 187.379C283.237 186.978 281.462 185.456 279.737 183.996L276.6 181.342L272.39 181.329C262.584 181.3 243.337 177.837 225.322 172.859C209.622 168.521 200.688 164.87 193.604 159.897C189.55 157.052 183.213 151.19 183.527 150.577C183.605 150.423 187.319 151.308 191.78 152.544C201.354 155.195 203.329 155.688 215.262 158.416C230.63 161.929 244.167 165.949 263.413 172.716L269.517 174.862L266.067 171.428L262.617 167.994L257.173 167.189C247.069 165.696 237.06 162.243 211.712 151.507C195.751 144.748 186.415 139.2 179.739 132.508C177.605 130.369 174.428 126.201 174.631 125.806C174.797 125.48 199.506 134.773 213.774 140.527C221.963 143.831 237.923 151.084 246.455 155.38C250.882 157.609 254.488 159.383 254.468 159.322C254.449 159.261 253.02 157.682 251.293 155.813C248.318 152.592 247.859 152.305 242.525 150.35C239.429 149.215 232.769 146.397 227.726 144.087C200.541 131.639 190.684 123.554 185.135 109.156C183.73 105.511 183.573 104.825 184.328 105.644C192.521 114.531 193.57 115.272 213.255 126.07C226.216 133.18 232.769 137.383 238.993 142.581C240.699 144.006 242.156 145.052 242.23 144.907C242.462 144.454 240.441 142.427 235.74 138.398C224.872 129.082 212.626 115.017 205.969 104.204C203.155 99.6337 198.758 89.914 196.895 84.1446C194.576 76.9641 191.929 62.5474 193.23 64.1882C199.728 72.3785 224.925 110.6 236.891 130.419C243.464 141.305 245.69 144.679 247.81 146.975C249.724 149.046 249.546 148.611 245.802 142.059C235.357 123.775 224.037 93.1432 221.854 77.2487C220.828 69.7897 220.474 62.6318 220.889 57.7631C221.112 55.1469 221.422 52.8554 221.579 52.6711C221.736 52.4868 223.658 57.3963 225.849 63.5811Z" fill="#35291D" fill-opacity="0.8"/>
</svg>
