<?xml version="1.0" encoding="UTF-8"?> <svg xmlns="http://www.w3.org/2000/svg" width="661" height="571" viewBox="0 0 661 571" fill="none"> <path d="M261.994 0.0618368C263.816 -0.0741271 265.42 0.0210473 266.766 0.27938C268.126 0.537712 269.254 0.986393 270.151 1.58464C271.049 2.18288 271.742 2.95787 272.204 3.88243C272.68 4.83418 272.966 5.9083 273.047 7.11838C273.102 7.85259 273.034 8.5596 272.857 9.25302C272.666 9.93284 272.367 10.5855 271.96 11.2109C271.538 11.8363 270.994 12.3938 270.328 12.8969C269.662 13.4135 268.86 13.8486 267.949 14.2157C270.165 14.474 271.864 15.1403 273.061 16.2144C274.244 17.2749 274.896 18.7297 275.032 20.606C275.127 21.8705 274.978 23.0262 274.583 24.1003C274.189 25.1744 273.577 26.1262 272.734 26.942C271.892 27.7578 270.831 28.3968 269.553 28.9134C268.275 29.4165 266.807 29.7292 265.135 29.8516L254.598 30.5994L252.478 0.741658L261.994 0.0618368ZM256.719 3.6377L257.44 13.835L262.783 13.4543C263.925 13.3727 264.904 13.1688 265.719 12.8697C266.549 12.5705 267.215 12.1491 267.731 11.6732C268.248 11.1973 268.615 10.6263 268.833 9.97363C269.05 9.3346 269.132 8.61399 269.077 7.87978C268.955 6.09865 268.33 4.86137 267.215 4.11357C266.114 3.39296 264.441 3.09384 262.225 3.257L256.719 3.6377ZM264.849 26.6428C266.005 26.5613 266.984 26.3709 267.799 26.0446C268.615 25.7047 269.268 25.2968 269.771 24.7665C270.274 24.2499 270.627 23.6516 270.831 22.9718C271.035 22.3056 271.103 21.5714 271.049 20.7828C270.94 19.2464 270.301 18.0635 269.145 17.2477C267.976 16.4319 266.304 16.092 264.101 16.2552L257.657 16.7175L258.391 27.0915L264.849 26.6428Z" fill="#757154"></path> <path d="M361.96 58.3367C360.315 59.8595 358.561 60.988 356.699 61.7358C354.85 62.4836 352.987 62.8235 351.111 62.8099C349.248 62.7691 347.413 62.3476 345.632 61.5047C343.865 60.6753 342.22 59.4516 340.724 57.8336C339.242 56.2293 338.155 54.5025 337.475 52.667C336.795 50.8315 336.51 48.9552 336.632 47.0925C336.741 45.2298 337.244 43.4079 338.141 41.6268C339.038 39.8184 340.303 38.1733 341.948 36.6505C343.606 35.1277 345.347 33.9856 347.209 33.2514C349.058 32.49 350.934 32.1365 352.81 32.1637C354.687 32.2045 356.508 32.626 358.303 33.4553C360.07 34.2575 361.702 35.4812 363.197 37.0992C364.693 38.7171 365.78 40.4439 366.46 42.3066C367.14 44.1421 367.412 45.9912 367.289 47.8675C367.181 49.7302 366.664 51.5793 365.78 53.3604C364.883 55.1552 363.605 56.8003 361.96 58.3367ZM359.146 55.2639C360.492 54.0267 361.539 52.7214 362.273 51.3754C363.007 50.0157 363.428 48.6425 363.551 47.2829C363.673 45.9232 363.483 44.5908 362.993 43.2583C362.504 41.9259 361.715 40.6614 360.614 39.4785C359.54 38.3092 358.344 37.4255 357.066 36.8272C355.774 36.229 354.442 35.9435 353.082 35.9435C351.709 35.9435 350.322 36.2562 348.909 36.8816C347.495 37.5071 346.108 38.4316 344.762 39.6825C343.402 40.9334 342.369 42.225 341.635 43.5846C340.901 44.9443 340.48 46.2903 340.371 47.6636C340.262 49.0232 340.439 50.3828 340.942 51.7017C341.431 53.0205 342.22 54.2714 343.307 55.4543C344.409 56.6372 345.591 57.5345 346.883 58.1328C348.161 58.731 349.48 59.0301 350.839 59.0165C352.212 59.0029 353.599 58.6902 355.013 58.0784C356.413 57.4665 357.786 56.5148 359.146 55.2639Z" fill="#757154"></path> <path d="M434.109 115.672C433.837 117.874 433.239 119.859 432.315 121.613C431.39 123.34 430.208 124.781 428.766 125.937C427.325 127.093 425.653 127.895 423.763 128.398C421.874 128.887 419.834 128.996 417.659 128.738L406.565 127.405L410.141 97.6835L421.235 99.0159C423.424 99.2743 425.368 99.8725 427.081 100.811C428.807 101.749 430.235 102.945 431.363 104.414C432.478 105.869 433.294 107.554 433.769 109.458C434.259 111.375 434.368 113.442 434.109 115.672ZM429.976 115.168C430.194 113.333 430.153 111.674 429.827 110.192C429.501 108.683 428.943 107.391 428.141 106.276C427.353 105.161 426.333 104.278 425.096 103.584C423.872 102.918 422.445 102.469 420.84 102.279L413.771 101.422L410.97 124.632L418.04 125.475C419.658 125.678 421.14 125.597 422.499 125.216C423.859 124.849 425.055 124.237 426.088 123.353C427.121 122.483 427.964 121.341 428.644 119.968C429.31 118.581 429.759 116.99 429.976 115.168Z" fill="#757154"></path> <path d="M510.487 127.908L509.059 139.751L505.035 139.275L506.463 127.419L497.721 108.234L501.256 108.669C501.609 108.71 501.881 108.846 502.071 109.036C502.262 109.227 502.411 109.472 502.534 109.771L507.945 122.13C508.135 122.66 508.298 123.136 508.461 123.585C508.611 124.033 508.747 124.468 508.842 124.931C509.046 124.509 509.277 124.101 509.522 123.721C509.766 123.313 510.038 122.878 510.324 122.429L518.495 111.701C518.644 111.47 518.848 111.266 519.093 111.117C519.337 110.94 519.623 110.886 519.976 110.926L523.511 111.348L510.487 127.908Z" fill="#757154"></path> <path d="M607.109 151.554L603.533 151.132C603.125 151.078 602.813 150.983 602.568 150.86C602.337 150.738 602.092 150.507 601.834 150.167L599.196 146.768C597.742 147.869 596.124 148.698 594.343 149.229C592.562 149.773 590.658 149.909 588.619 149.677C587.518 149.541 586.457 149.215 585.438 148.712C584.432 148.223 583.548 147.556 582.787 146.754C582.025 145.938 581.454 144.987 581.074 143.913C580.68 142.825 580.571 141.628 580.72 140.337C580.829 139.385 581.101 138.488 581.536 137.658C581.957 136.829 582.515 136.095 583.181 135.428C583.847 134.762 584.609 134.191 585.465 133.715C586.335 133.212 587.246 132.831 588.238 132.519C587.532 131.349 587.028 130.221 586.757 129.188C586.471 128.127 586.39 127.067 586.525 125.979C586.648 124.973 586.947 124.048 587.409 123.219C587.885 122.362 588.51 121.655 589.285 121.084C590.047 120.513 590.958 120.105 591.977 119.82C593.01 119.575 594.152 119.521 595.376 119.657C596.477 119.806 597.442 120.078 598.299 120.554C599.155 121.016 599.876 121.574 600.461 122.24C601.032 122.893 601.467 123.627 601.766 124.443C602.051 125.245 602.16 126.074 602.119 126.903L599.767 127.094C599.305 127.148 598.992 126.903 598.829 126.332C598.775 125.965 598.666 125.557 598.503 125.15C598.326 124.742 598.095 124.361 597.796 123.994C597.497 123.64 597.116 123.328 596.668 123.069C596.219 122.784 595.661 122.621 595.036 122.553C594.343 122.457 593.704 122.498 593.119 122.661C592.535 122.811 592.018 123.056 591.569 123.396C591.134 123.749 590.781 124.184 590.509 124.701C590.237 125.19 590.06 125.761 589.992 126.387C589.938 126.863 589.924 127.325 589.979 127.774C590.047 128.249 590.169 128.725 590.346 129.188C590.536 129.691 590.794 130.18 591.107 130.71C591.42 131.214 591.814 131.757 592.276 132.356L599.781 142.063C600.42 141.193 600.95 140.255 601.399 139.276C601.834 138.311 602.16 137.318 602.378 136.326C602.446 136.067 602.554 135.877 602.704 135.728C602.867 135.592 603.071 135.551 603.316 135.578L605.572 135.836C605.368 137.441 604.933 138.963 604.267 140.432C603.601 141.9 602.731 143.246 601.657 144.484L607.109 151.554ZM589.72 134.613C588.157 135.211 586.947 136.027 586.077 137.046C585.193 138.052 584.677 139.208 584.527 140.513C584.418 141.411 584.486 142.227 584.744 142.947C584.989 143.668 585.356 144.307 585.832 144.837C586.322 145.367 586.893 145.802 587.559 146.129C588.211 146.455 588.905 146.645 589.625 146.741C591.175 146.931 592.603 146.809 593.908 146.387C595.213 145.979 596.382 145.34 597.429 144.511L589.72 134.613Z" fill="#757154"></path> <path d="M643.585 230.684C643.354 230.602 643.164 230.507 643.028 230.385C642.892 230.249 642.81 230.099 642.769 229.909C642.715 229.664 642.769 229.365 642.933 229.012C643.096 228.631 643.259 228.196 643.436 227.666C643.612 227.135 643.748 226.51 643.83 225.803C643.911 225.096 643.857 224.267 643.653 223.328C643.449 222.458 643.164 221.697 642.769 221.071C642.389 220.46 641.94 219.97 641.437 219.603C640.921 219.236 640.363 218.978 639.765 218.882C639.167 218.774 638.541 218.787 637.902 218.923C637.087 219.1 636.461 219.467 636.013 219.984C635.564 220.5 635.224 221.126 634.979 221.887C634.748 222.621 634.585 223.437 634.49 224.335C634.395 225.232 634.3 226.156 634.191 227.095C634.082 228.046 633.946 228.971 633.756 229.882C633.566 230.806 633.253 231.663 632.831 232.452C632.396 233.227 631.825 233.92 631.078 234.491C630.343 235.089 629.365 235.511 628.155 235.769C626.877 236.068 625.626 236.109 624.416 235.919C623.192 235.728 622.078 235.32 621.072 234.668C620.052 234.015 619.168 233.131 618.42 232.016C617.686 230.902 617.142 229.583 616.803 228.019C616.368 226.116 616.34 224.307 616.68 222.608C617.034 220.908 617.659 219.399 618.584 218.039L620.718 218.76C620.881 218.814 621.044 218.937 621.18 219.073C621.316 219.195 621.411 219.372 621.439 219.549C621.493 219.725 621.466 219.943 621.371 220.201C621.275 220.473 621.153 220.759 620.99 221.085C620.84 221.411 620.677 221.792 620.501 222.213C620.324 222.649 620.174 223.124 620.065 223.641C619.943 224.144 619.875 224.715 619.875 225.354C619.862 225.98 619.943 226.673 620.106 227.421C620.31 228.359 620.636 229.175 621.044 229.855C621.466 230.507 621.969 231.065 622.553 231.459C623.124 231.867 623.777 232.139 624.497 232.261C625.204 232.397 625.966 232.37 626.768 232.207C627.652 232.003 628.331 231.649 628.807 231.105C629.283 230.589 629.636 229.95 629.868 229.216C630.099 228.495 630.262 227.679 630.343 226.755C630.425 225.857 630.507 224.946 630.588 224.008C630.683 223.084 630.806 222.145 630.996 221.235C631.173 220.31 631.485 219.453 631.92 218.665C632.369 217.89 632.981 217.196 633.769 216.612C634.558 216.014 635.591 215.565 636.883 215.279C637.916 215.062 638.963 215.035 640.023 215.211C641.07 215.415 642.063 215.796 642.973 216.408C643.898 217.006 644.7 217.822 645.393 218.842C646.087 219.875 646.59 221.112 646.916 222.567C647.283 224.199 647.351 225.749 647.134 227.19C646.916 228.645 646.427 230.004 645.665 231.228L643.585 230.684Z" fill="#757154"></path> <path d="M646.888 329.421C644.659 329.625 642.579 329.435 640.648 328.891C638.718 328.333 637.032 327.463 635.577 326.294C634.122 325.111 632.953 323.643 632.056 321.902C631.159 320.148 630.615 318.19 630.438 315.974C630.248 313.799 630.452 311.773 631.036 309.897C631.634 308.047 632.545 306.416 633.782 304.988C635.02 303.601 636.542 302.473 638.35 301.603C640.159 300.733 642.171 300.202 644.414 300.012C646.644 299.822 648.724 300.012 650.654 300.556C652.571 301.113 654.271 301.983 655.725 303.153C657.193 304.336 658.376 305.777 659.274 307.531C660.171 309.258 660.715 311.229 660.905 313.418C661.082 315.634 660.878 317.66 660.28 319.523C659.681 321.399 658.771 323.044 657.52 324.445C656.283 325.845 654.746 326.974 652.952 327.844C651.144 328.7 649.118 329.244 646.888 329.421ZM646.535 325.288C648.37 325.125 649.988 324.744 651.416 324.132C652.816 323.507 653.999 322.691 654.923 321.685C655.848 320.692 656.527 319.509 656.962 318.15C657.397 316.817 657.533 315.322 657.411 313.731C657.275 312.126 656.881 310.699 656.228 309.448C655.576 308.183 654.706 307.137 653.618 306.294C652.544 305.451 651.252 304.852 649.757 304.472C648.248 304.091 646.589 303.982 644.754 304.145C642.932 304.295 641.301 304.689 639.9 305.301C638.486 305.926 637.331 306.742 636.393 307.735C635.468 308.768 634.789 309.937 634.367 311.27C633.946 312.629 633.796 314.098 633.932 315.702C634.068 317.307 634.462 318.734 635.101 320.012C635.754 321.263 636.61 322.31 637.698 323.126C638.772 323.955 640.063 324.567 641.559 324.961C643.041 325.329 644.699 325.437 646.535 325.288Z" fill="#757154"></path> <path d="M633.034 408.471C632.871 409.695 632.953 410.823 633.252 411.843C633.537 412.849 634.013 413.733 634.679 414.508C635.346 415.269 636.175 415.895 637.167 416.371C638.16 416.86 639.275 417.159 640.525 417.322L658.58 419.539L658.09 423.536L640.036 421.32C638.323 421.116 636.76 420.653 635.359 419.919C633.973 419.185 632.803 418.26 631.852 417.105C630.914 415.963 630.22 414.617 629.785 413.08C629.364 411.53 629.269 409.858 629.486 408.05C629.704 406.2 630.22 404.596 630.995 403.196C631.797 401.822 632.79 400.68 633.986 399.783C635.182 398.899 636.542 398.26 638.078 397.907C639.601 397.553 641.232 397.471 642.945 397.675L661 399.892L660.497 403.889L642.47 401.673C641.232 401.523 640.063 401.55 638.989 401.795C637.902 402.013 636.95 402.407 636.121 402.992C635.291 403.563 634.611 404.324 634.068 405.249C633.524 406.16 633.184 407.247 633.034 408.471Z" fill="#757154"></path> <path d="M604.58 499.552L601.576 497.948L609.529 482.965L635.958 496.983L634.068 500.531L610.644 488.104L604.58 499.552Z" fill="#757154"></path> <path d="M571.815 560.749C572.264 561.565 572.549 562.421 572.644 563.292C572.739 564.189 572.658 565.045 572.413 565.875C572.182 566.704 571.774 567.452 571.23 568.159C570.687 568.88 569.993 569.451 569.15 569.927C568.307 570.389 567.437 570.674 566.554 570.77C565.656 570.878 564.786 570.797 563.957 570.566C563.128 570.334 562.366 569.94 561.646 569.396C560.952 568.852 560.368 568.173 559.906 567.357C559.47 566.555 559.212 565.712 559.117 564.828C559.035 563.944 559.117 563.088 559.362 562.258C559.593 561.429 559.987 560.667 560.545 559.947C561.102 559.24 561.795 558.642 562.638 558.179C563.467 557.717 564.338 557.432 565.221 557.336C566.119 557.255 566.975 557.323 567.804 557.554C568.634 557.799 569.395 558.193 570.102 558.737C570.795 559.267 571.366 559.947 571.815 560.749ZM569.504 562.013C569.232 561.497 568.865 561.062 568.443 560.722C568.008 560.382 567.532 560.151 567.029 559.988C566.513 559.838 565.996 559.811 565.439 559.852C564.895 559.92 564.351 560.083 563.848 560.368C563.332 560.654 562.91 561.007 562.57 561.442C562.23 561.878 561.986 562.34 561.836 562.87C561.687 563.373 561.659 563.917 561.714 564.447C561.782 564.991 561.958 565.521 562.244 566.038C562.529 566.555 562.883 566.976 563.318 567.33C563.753 567.683 564.215 567.928 564.732 568.077C565.248 568.241 565.779 568.281 566.336 568.227C566.88 568.159 567.41 567.982 567.913 567.724C568.43 567.425 568.851 567.071 569.205 566.636C569.545 566.201 569.776 565.725 569.925 565.209C570.061 564.706 570.102 564.148 570.034 563.618C569.966 563.06 569.789 562.503 569.504 562.013Z" fill="#757154"></path> <path d="M463.272 547.194L471.986 551.45L483.624 527.629L487.24 529.397L475.603 553.217L484.331 557.487L482.835 560.546L461.776 550.253L463.272 547.194Z" fill="#757154"></path> <path d="M395.663 484.664L398.885 486.242C399.551 486.554 399.918 487.057 399.986 487.724L402.27 500.735C402.338 501.157 402.46 501.456 402.637 501.714C402.814 501.973 403.167 502.204 403.67 502.476L406.43 503.822L411.909 492.605L415.539 494.359L402.406 521.252L394.806 517.541C393.107 516.725 391.72 515.814 390.646 514.862C389.586 513.924 388.797 512.918 388.308 511.885C387.818 510.851 387.601 509.763 387.669 508.649C387.723 507.561 388.036 506.432 388.593 505.277C389.055 504.338 389.64 503.523 390.347 502.829C391.054 502.163 391.842 501.619 392.74 501.252C393.623 500.871 394.589 500.654 395.635 500.586C396.682 500.531 397.784 500.64 398.939 500.885C398.599 500.409 398.382 499.838 398.3 499.172L395.663 484.664ZM401.318 504.61C400.271 504.08 399.279 503.767 398.341 503.618C397.403 503.482 396.56 503.509 395.785 503.727C395.01 503.917 394.33 504.284 393.732 504.801C393.134 505.317 392.645 505.97 392.264 506.759C391.489 508.349 391.421 509.818 392.074 511.15C392.726 512.483 394.099 513.638 396.206 514.685L400.19 516.616L405.139 506.46L401.318 504.61Z" fill="#757154"></path> <path d="M295.302 473.162L298.28 472.169C298.62 472.047 298.919 472.047 299.191 472.156C299.463 472.237 299.694 472.4 299.884 472.645L304.846 478.587L317.571 474.317L317.925 466.567C317.925 466.309 317.993 466.037 318.156 465.779C318.319 465.534 318.564 465.344 318.904 465.221L321.867 464.229L320.073 496.412L316.185 497.717L295.302 473.162ZM306.845 480.993L315.179 491.055C315.423 491.34 315.695 491.694 315.994 492.102C316.293 492.509 316.606 492.945 316.905 493.42C316.824 492.251 316.796 491.259 316.851 490.456L317.435 477.445L306.845 480.993Z" fill="#757154"></path> <path d="M210.97 511.708C210.495 509.532 210.386 507.452 210.685 505.494C210.97 503.563 211.609 501.796 212.588 500.232C213.567 498.696 214.872 497.35 216.476 496.262C218.094 495.161 219.984 494.386 222.118 493.896L233.035 491.476L239.548 520.681L228.644 523.115C226.496 523.591 224.457 523.672 222.526 523.373C220.596 523.061 218.869 522.422 217.306 521.415C215.756 520.409 214.437 519.09 213.35 517.445C212.248 515.8 211.46 513.897 210.97 511.708ZM215.035 510.81C215.43 512.605 216.028 514.155 216.83 515.46C217.646 516.738 218.597 517.799 219.712 518.587C220.827 519.349 222.091 519.852 223.478 520.097C224.865 520.328 226.36 520.26 227.937 519.893L234.884 518.356L229.786 495.555L222.839 497.091C221.262 497.445 219.902 498.03 218.733 498.832C217.578 499.634 216.653 500.613 215.973 501.782C215.294 502.952 214.859 504.298 214.695 505.834C214.519 507.357 214.627 509.016 215.035 510.81Z" fill="#757154"></path> <path d="M138.535 502.272L142.573 502.516L140.737 532.401L136.686 532.143L138.535 502.272Z" fill="#757154"></path> <path d="M45.4633 492.129L53.1174 498.057L69.3637 477.105L72.545 479.552L56.2987 500.531L63.98 506.486L61.8863 509.165L43.3696 494.807L45.4633 492.129Z" fill="#757154"></path> <path d="M28.0606 414.874L29.4609 418.681L1.41391 429.096L0 425.289L28.0606 414.874Z" fill="#757154"></path> <path d="M26.1983 320.84C28.4144 321.18 30.3857 321.819 32.1394 322.812C33.8796 323.791 35.3343 325.014 36.4763 326.496C37.6183 327.978 38.4204 329.664 38.8963 331.582C39.3721 333.485 39.4401 335.524 39.1138 337.7C38.7875 339.875 38.1213 341.82 37.1153 343.478C36.1228 345.164 34.8449 346.551 33.3222 347.639C31.7996 348.699 30.0594 349.461 28.1017 349.896C26.1439 350.317 24.0639 350.372 21.8343 350.045C19.6182 349.692 17.6333 349.053 15.8931 348.074C14.1394 347.095 12.6983 345.858 11.5427 344.389C10.3871 342.894 9.58496 341.208 9.10912 339.304C8.61969 337.401 8.55172 335.361 8.878 333.2C9.19069 331.01 9.87046 329.08 10.8765 327.407C11.8825 325.708 13.1605 324.335 14.6968 323.261C16.233 322.173 17.9732 321.425 19.9309 321.004C21.8886 320.568 23.9823 320.514 26.1983 320.84ZM25.5729 324.96C23.7648 324.688 22.0926 324.688 20.5699 324.974C19.0472 325.246 17.7285 325.762 16.5865 326.537C15.4581 327.285 14.52 328.278 13.7995 329.501C13.0653 330.698 12.5759 332.112 12.3448 333.703C12.1137 335.307 12.168 336.775 12.5079 338.149C12.8478 339.522 13.4596 340.745 14.3161 341.806C15.1726 342.867 16.2874 343.764 17.6605 344.484C19.0336 345.178 20.6379 345.667 22.446 345.953C24.2678 346.211 25.9264 346.211 27.4491 345.939C28.9582 345.654 30.2769 345.11 31.4189 344.362C32.5473 343.587 33.4718 342.595 34.2059 341.398C34.9265 340.174 35.4023 338.774 35.6334 337.197C35.8781 335.592 35.8238 334.11 35.4975 332.724C35.1576 331.35 34.5594 330.14 33.6893 329.08C32.8328 328.019 31.718 327.136 30.3449 326.442C28.9854 325.708 27.3947 325.232 25.5729 324.96Z" fill="#757154"></path> <path d="M24.9879 227.38L54.5848 231.798L54.2857 233.797C54.2313 234.123 54.1361 234.368 54.0002 234.572C53.8642 234.776 53.6331 234.939 53.3476 235.13L28.4819 248.916C28.8354 248.943 29.1752 248.971 29.5151 248.998C29.8414 249.052 30.1541 249.079 30.4396 249.134L51.5258 252.275L51.0092 255.769L21.4124 251.364L21.725 249.297C21.7386 249.107 21.7794 248.984 21.8202 248.848C21.861 248.74 21.9018 248.631 21.9698 248.536C22.0241 248.454 22.1193 248.359 22.2145 248.277C22.3232 248.196 22.4456 248.1 22.6087 248.019L47.4337 234.205C47.0802 234.191 46.7267 234.164 46.3868 234.137C46.0469 234.11 45.7207 234.055 45.4216 234.028L24.4577 230.888L24.9879 227.38Z" fill="#757154"></path> <path d="M52.8582 135.998L51.825 138.948C51.7162 139.288 51.5395 139.533 51.2947 139.696C51.05 139.846 50.7781 139.927 50.479 139.941L42.7297 140.226L38.3385 152.898L44.2524 157.915C44.4563 158.078 44.6195 158.31 44.7282 158.595C44.837 158.881 44.8234 159.18 44.7146 159.506L43.6814 162.47L19.3187 141.369L20.6647 137.507L52.8582 135.998ZM39.6028 140.322L26.565 140.784C26.1707 140.797 25.7221 140.784 25.2191 140.784C24.716 140.77 24.1858 140.743 23.6284 140.689C24.5937 141.341 25.3822 141.926 25.994 142.456L35.9457 150.872L39.6028 140.322Z" fill="#757154"></path> <path d="M115.26 93.1017L116.483 96.2832L100.645 102.374L89.8911 74.4473L93.657 73.0061L103.187 97.7516L115.26 93.1017Z" fill="#757154"></path> <path d="M171.299 55.8357C171.055 54.9248 171 54.0546 171.109 53.1573C171.231 52.2735 171.503 51.4577 171.938 50.7235C172.36 49.9757 172.931 49.3231 173.624 48.7792C174.331 48.2082 175.147 47.8003 176.071 47.5556C176.996 47.2972 177.907 47.2292 178.79 47.338C179.688 47.474 180.503 47.7323 181.265 48.1538C182.012 48.5617 182.665 49.1327 183.222 49.8398C183.78 50.5196 184.188 51.3354 184.432 52.2327C184.677 53.1165 184.731 54.0002 184.609 54.8704C184.487 55.7542 184.201 56.5699 183.766 57.3177C183.345 58.052 182.774 58.7182 182.067 59.2756C181.36 59.8467 180.558 60.2546 179.633 60.4993C178.695 60.7576 177.798 60.8256 176.914 60.7032C176.031 60.5809 175.201 60.3089 174.453 59.8739C173.706 59.4524 173.053 58.8949 172.496 58.2151C171.938 57.5081 171.544 56.7195 171.299 55.8357ZM173.842 55.1695C174.005 55.7134 174.25 56.23 174.589 56.6651C174.916 57.0866 175.324 57.4401 175.786 57.6984C176.248 57.9704 176.751 58.1335 177.295 58.2015C177.839 58.2831 178.396 58.2423 178.954 58.0927C179.525 57.9296 180.028 57.6849 180.449 57.3313C180.884 56.9914 181.238 56.5971 181.496 56.1349C181.768 55.6726 181.931 55.1695 181.999 54.6257C182.067 54.0818 182.012 53.5244 181.863 52.9669C181.7 52.3959 181.455 51.8792 181.115 51.4441C180.789 51.009 180.381 50.6419 179.919 50.3836C179.457 50.1117 178.954 49.9349 178.41 49.8669C177.852 49.7854 177.295 49.8398 176.737 49.9893C176.166 50.1389 175.677 50.3972 175.242 50.7371C174.807 51.077 174.467 51.4849 174.195 51.9608C173.937 52.4231 173.774 52.9261 173.706 53.47C173.651 54.0274 173.692 54.5985 173.842 55.1695Z" fill="#757154"></path> </svg> 