<svg width="269" height="280" viewBox="0 0 269 280" fill="none" xmlns="http://www.w3.org/2000/svg">
<path d="M205.948 26.1905C224.176 38.7843 239.421 54.3608 250.357 72.5887C261.294 90.8165 267.922 111.696 268.254 132.906C268.585 154.117 262.288 175.659 253.672 198.195C245.055 220.4 234.118 243.931 215.559 259.838C197 275.415 171.149 283.7 148.281 278.398C125.745 272.764 106.192 253.873 85.6439 238.959C65.0961 224.377 43.5541 214.103 27.6462 197.201C11.7382 180.299 1.13295 156.437 0.138699 132.243C-1.18696 107.719 7.09842 82.8626 20.355 61.652C33.9431 40.4414 52.8338 22.8763 74.3758 12.2711C96.2492 1.66576 120.774 -1.97981 143.642 1.00293C166.509 3.98567 187.388 13.5967 205.948 26.1905Z" fill="#C4C4C4"/>
</svg>
