<svg width="330" height="303" viewBox="0 0 330 303" fill="none" xmlns="http://www.w3.org/2000/svg">
<path d="M253.674 10.5436C277.009 25.2222 288.677 58.8967 302.073 89.1174C315.468 119.338 330.593 146.537 328.864 172.009C327.136 197.912 308.122 222.952 289.109 243.675C270.095 264.398 251.514 281.667 229.907 290.733C208.733 299.367 184.534 300.662 159.903 301.526C135.272 302.389 110.208 302.821 85.1451 295.913C59.6496 289.006 34.1542 275.191 18.5976 253.604C2.60897 231.587 -3.00868 202.661 3.90535 177.189C10.8194 151.717 29.8329 130.563 45.8216 109.84C61.8103 88.6857 74.7741 68.3947 93.3555 51.1257C111.937 33.425 136.136 19.1781 165.953 9.68013C195.337 0.182195 230.34 -4.13505 253.674 10.5436Z" stroke="#E9D9C7" stroke-opacity="0.15"/>
</svg>
