<svg width="305" height="280" viewBox="0 0 305 280" fill="none" xmlns="http://www.w3.org/2000/svg">
<path d="M234.957 8.87775C256.655 22.5323 267.505 53.8574 279.961 81.9697C292.417 110.082 306.481 135.383 304.874 159.078C303.267 183.174 285.586 206.467 267.906 225.744C250.226 245.021 232.948 261.085 212.857 269.519C193.168 277.551 170.666 278.756 147.762 279.559C124.858 280.362 101.552 280.764 78.2466 274.338C54.5391 267.912 30.8316 255.061 16.366 234.981C1.49863 214.499 -3.72505 187.592 2.70409 163.897C9.13324 140.202 26.8134 120.524 41.6808 101.247C56.5482 81.5681 68.6028 62.6927 85.8812 46.6285C103.159 30.1628 125.661 16.9098 153.387 8.07454C180.711 -0.760749 213.259 -4.77679 234.957 8.87775Z" fill="#C4C4C4"/>
</svg>
