<svg width="330" height="303" viewBox="0 0 330 303" fill="none" xmlns="http://www.w3.org/2000/svg">
<path d="M253.677 10.5436C277.012 25.2222 288.679 58.8967 302.075 89.1174C315.471 119.338 330.596 146.537 328.867 172.009C327.139 197.912 308.125 222.952 289.111 243.675C270.098 264.398 251.516 281.667 229.91 290.733C208.736 299.367 184.537 300.662 159.906 301.526C135.274 302.389 110.211 302.821 85.1478 295.913C59.6523 289.006 34.1569 275.191 18.6003 253.604C2.61166 231.587 -3.00599 202.661 3.90803 177.189C10.8221 151.717 29.8356 130.563 45.8243 109.84C61.813 88.6857 74.7768 68.3947 93.3582 51.1257C111.94 33.425 136.139 19.1781 165.955 9.68013C195.34 0.182195 230.342 -4.13505 253.677 10.5436Z" stroke="#E9D9C7" stroke-opacity="0.15"/>
<path d="M245.947 23.1889C267.248 36.5507 277.899 67.2043 290.127 94.7139C302.355 122.224 316.161 146.982 314.583 170.169C313.005 193.749 295.649 216.542 278.293 235.406C260.937 254.27 243.975 269.989 224.252 278.242C204.924 286.102 182.834 287.281 160.35 288.067C137.866 288.853 114.987 289.246 92.1083 282.958C68.8352 276.67 45.5621 264.095 31.3616 244.445C16.7666 224.402 11.6386 198.071 17.95 174.885C24.2613 151.698 41.6175 132.441 56.2125 113.578C70.8075 94.3209 82.6413 75.8502 99.603 60.1304C116.565 44.0176 138.654 31.0488 165.872 22.4029C192.695 13.757 224.647 9.82708 245.947 23.1889Z" fill="#C4C4C4"/>
</svg>
