<svg width="294" height="280" viewBox="0 0 294 280" fill="none" xmlns="http://www.w3.org/2000/svg">
<path d="M208.772 20.6814C229.404 33.2699 246.538 50.0546 262.973 70.3362C279.058 90.6177 294.095 114.396 293.046 137.125C291.647 159.855 274.163 181.885 259.127 204.264C244.09 226.644 231.502 249.023 212.269 261.962C193.037 274.55 167.51 277.697 140.585 279.096C114.009 280.844 86.3839 281.194 65.7526 269.305C44.7718 257.416 30.7845 233.637 19.5947 209.859C8.75455 185.731 0.711875 161.953 0.0125123 137.475C-0.337169 113.347 6.65646 88.5196 19.245 67.5387C32.1832 46.9075 50.7163 29.7731 72.0469 17.8839C93.3775 5.99478 117.506 -0.64918 141.284 0.0501833C165.062 0.749546 188.491 8.44255 208.772 20.6814Z" fill="#C4C4C4"/>
</svg>
