<svg width="326" height="280" viewBox="0 0 326 280" fill="none" xmlns="http://www.w3.org/2000/svg">
<mask id="mask0_4086_7524" style="mask-type:alpha" maskUnits="userSpaceOnUse" x="0" y="0" width="326" height="280">
<path d="M237.365 34.9672C255.261 51.1593 271.879 63.5165 286.793 79.7086C302.133 96.3268 315.768 116.78 321.734 140.642C327.7 164.93 326.421 192.201 317.047 218.62C308.099 245.039 290.628 270.605 266.766 277.849C242.904 284.667 212.65 273.588 185.379 268.048C158.108 262.083 134.246 261.657 116.776 250.578C99.3054 239.925 88.2266 218.62 66.9212 198.167C45.6158 177.287 13.6577 157.26 3.43105 131.694C-6.36944 105.701 5.5616 74.1692 29.8498 57.977C54.138 42.211 90.3572 42.211 118.054 31.5583C145.325 20.9056 163.648 0.452414 182.397 0.026306C200.719 -0.825911 219.894 19.2012 237.365 34.9672Z" fill="#D9D9D9"/>
</mask>
<g mask="url(#mask0_4086_7524)">
<rect x="-10.8193" y="-67" width="346" height="519" fill="#C4C4C4"/>
</g>
</svg>
