<svg width="427" height="349" viewBox="0 0 427 349" fill="none" xmlns="http://www.w3.org/2000/svg">
<path fill-rule="evenodd" clip-rule="evenodd" d="M294.736 21.0792C294.409 32.6621 293.505 61.1207 292.728 84.3211C291.32 126.286 291.498 179.464 293.074 188.223C293.725 191.841 293.454 192.91 290.203 199.508C288.229 203.517 286.403 206.813 286.145 206.834C285.889 206.856 285.969 203.775 286.324 199.99C287.716 185.173 288.174 149.479 287.153 135.384C285.029 106.068 280.642 74.3988 276.758 60.3436C273.624 49.0041 264.689 28.3737 262.912 28.3737C262.497 28.3737 262.347 29.8727 262.578 31.7039C262.808 33.5359 263.222 43.2264 263.495 53.2392C264.037 73.0614 265.041 90.8234 267.059 116.291C267.775 125.327 268.773 142.111 269.277 153.589C270.468 180.727 271.793 197.924 273.247 205.096C273.889 208.271 274.904 214.127 275.501 218.11L276.587 225.351L271.826 233.678L267.066 242.007L267.04 219.333C267.016 198.502 266.505 188.191 263.895 155.809C261.796 129.756 258.56 107.358 255.042 94.5337C250.375 77.5186 243.528 61.9315 237.975 55.6813L235.411 52.7952L235.88 56.3474C238.153 73.5623 239.051 83.2448 239.505 95.4218C240.587 124.371 240.76 126.053 252.937 225.966C254.187 236.223 255.802 247.481 256.524 250.985L257.838 257.354L251.872 266.311C248.59 271.237 245.818 275.165 245.713 275.038C245.608 274.912 245.842 272.611 246.236 269.924C247.724 259.753 248.198 232.132 247.15 216.641C244.15 172.299 237.003 134.896 227.299 112.757C223.549 104.205 215.094 90.7453 211.137 87.0296L208.981 85.0049L210.285 89.3253C215.37 106.159 220.75 142.613 223.964 182.007C227.658 227.282 228.544 236.228 231.087 253.985C232.526 264.022 234.653 275.513 235.813 279.521L237.925 286.806L235.225 290.576C233.74 292.65 230.801 296.683 228.694 299.54L224.862 304.734L224.854 289.771C224.846 273.172 222.957 243.46 220.825 226.41C215.809 186.292 203.967 148.709 189.561 127.199C185.137 120.59 172.895 106.522 171.571 106.522C171.159 106.522 171.636 108.205 172.631 110.261C175.43 116.054 182.085 136.896 184.905 148.705C188.223 162.607 192.284 184.404 195.574 205.984C203.572 258.447 212.275 299.097 217.383 307.853L219.564 311.593L214.573 318.066C211.829 321.627 209.322 324.638 209.003 324.76C208.685 324.881 208.302 322.283 208.154 318.988C207.068 294.87 194.14 234.811 183.257 203.32C174.74 178.678 170.026 168.402 161.553 156.013C156.929 149.252 144.356 136.071 143.421 137.005C143.242 137.184 144.145 140.09 145.428 143.462C150.764 157.487 155.515 174.676 163.567 209.093C176.059 262.482 193.946 318.798 202.117 330.457C203.27 332.103 202.779 332.948 195.677 341.517L187.988 350.796L187.767 346.548C186.242 317.237 179.452 284.297 169.777 259.277C159.017 231.452 141.917 202.202 128.457 188.597C123.139 183.222 112.959 174.903 111.7 174.903C111.481 174.903 116.801 186.391 123.52 200.434C144.606 244.498 151.884 262.728 161.722 296.122C173.652 336.61 178.466 350.48 181.97 354.468C183.158 355.819 183.105 356.224 181.478 358.292C177.874 362.872 168.431 373.708 167.996 373.763C167.752 373.794 167.428 369.325 167.277 363.833C166.182 323.994 145.892 266.727 122.205 236.622C117.049 230.068 98.6916 211.1 98.6916 212.325C98.6916 212.62 100.513 217.008 102.739 222.078C127.29 277.989 132.629 292.048 142.719 327.372C151.655 358.654 157.527 374.78 161.386 378.637C162.718 379.969 162.328 380.649 156.305 387.476C152.717 391.543 149.538 394.743 149.24 394.587C148.943 394.43 148.437 392.07 148.116 389.342C147.308 382.468 138.049 346.553 131.983 326.76C124.508 302.373 118.929 288.348 103.546 255.271C98.5494 244.526 91.7922 229.74 88.5295 222.413C79.2543 201.582 79.982 202.677 80.5639 210.425C82.9585 242.308 89.682 275.318 100.388 307.75C107.07 327.994 112.938 342.04 123.915 364.058C135.554 387.405 139.691 394.948 142.556 398.038L144.64 400.284L138.476 407.037C135.085 410.75 132.013 413.789 131.648 413.789C131.283 413.789 130.53 411.827 129.976 409.429C127.833 400.149 114.427 365.368 102.222 337.416C98.7022 329.357 94.7163 320.166 93.3649 316.991C86.701 301.342 72.9511 272.636 62.7669 253.114C59.5993 247.044 55.2918 237.154 53.1931 231.139C51.0953 225.123 49.0188 220.199 48.5799 220.197C47.3653 220.192 48.6136 246.997 50.2547 256.16C52.4965 268.676 56.5979 284.02 60.9987 296.354C72.9778 329.925 81.369 349.839 90.0889 365.39C95.0548 374.247 118.064 409.299 123.024 415.563L126.186 419.556L121.576 424.221C119.041 426.787 116.753 428.872 116.492 428.853C116.231 428.835 114.832 426.938 113.383 424.635C111.935 422.333 109.085 418.175 107.053 415.396C105.02 412.617 100.836 405.823 97.7542 400.3C79.4453 367.474 67.6795 348.287 57.0155 333.864C44.5993 317.071 30.8956 295.636 18.9193 274.275C17.933 272.516 15.3421 268.12 13.1608 264.506C10.9795 260.892 8.55557 256.737 7.77545 255.271C5.71674 251.406 5.86068 254.025 8.44895 267.494C13.2052 292.239 18.6127 308.057 30.2275 331.2C42.6197 355.892 51.9118 371.453 64.3085 388.277C71.2025 397.632 96.2677 422.916 105.596 429.924L111.115 434.07L108.389 436.363C105.229 439.02 104.634 439.129 103.14 437.33C102.535 436.601 97.588 433.077 92.1467 429.498C79.2463 421.013 71.7854 414.745 55.6934 398.87C43.8716 387.207 22.2494 363.498 18.8153 358.431C16.5976 355.16 1.69263 339.193 0.856534 339.193C0.422047 339.193 0.0657505 344.357 0.0657505 350.668V362.143L5.97974 373.091C20.6457 400.24 30.5784 411.826 50.3818 424.882C62.4292 432.825 78.7842 440.356 90.9445 443.561C94.2587 444.435 96.8576 445.43 96.7199 445.774C96.5822 446.118 93.8127 448.643 90.5634 451.386C85.4073 455.739 84.5134 456.199 83.5236 455.008C81.3601 452.403 65.3063 442.423 53.2801 436.208C46.6305 432.771 38.8337 428.447 35.954 426.599C25.6338 419.974 17.2595 414.239 9.21929 408.291C4.72515 404.965 0.826324 402.244 0.556214 402.244C0.286992 402.244 0.0657505 407.964 0.0657505 414.955V427.666L2.50918 429.933C11.8928 438.639 28.6477 447.572 47.8229 454.092C57.1683 457.269 74.1933 461.744 76.9379 461.744C77.535 461.744 72.753 465.883 68.4401 469.098L65.2894 471.448L57.7076 467.514C53.5378 465.35 43.5606 461.137 35.5364 458.151C27.5113 455.165 16.3985 450.555 10.8408 447.908C5.28314 445.261 0.584647 443.095 0.400723 443.095C0.216799 443.095 0.0657505 447.713 0.0657505 453.356V463.619L4.74292 465.758C17.2124 471.464 37.3632 476.1 50.4849 476.282C55.003 476.345 58.701 476.477 58.7037 476.574C58.7063 476.671 56.1261 478.592 52.9709 480.843L47.2338 484.935L40.0474 482.666C31.5061 479.97 24.5854 478.915 10.473 478.158L0 477.597L0.255005 486.321L0.510011 495.046L12.505 494.955C20.0566 494.898 26.6379 494.347 30.2701 493.47C33.4439 492.702 36.1477 492.183 36.2801 492.314C36.5866 492.621 16.961 505.402 7.42715 511.106L0.128836 515.471L0.0968488 522.434L0.0657505 529.397L6.95179 525.638C22.4289 517.188 38.7093 507.148 49.1148 499.634C52.8759 496.918 55.4943 495.586 56.2229 496.02C56.8564 496.398 59.5744 498.571 62.2622 500.849C69.0363 506.592 75.7713 510.505 90.2506 517.112C104.909 523.802 119.452 528.618 129.346 530.059C137.276 531.214 153.198 532.732 153.587 532.371C153.726 532.242 148.528 529.42 142.036 526.1C135.545 522.779 123.237 515.913 114.685 510.842C98.72 501.374 84.238 493.935 72.9476 489.402L66.5378 486.827L69.5925 484.499C73.1217 481.808 74.0582 481.657 75.6096 483.525C78.8713 487.453 88.7161 492.774 103.161 498.413C123.186 506.232 127.821 507.272 153.377 509.679C169.935 511.239 185.879 513.746 190.431 515.504C194.055 516.905 191.438 514.874 183.588 510.191C170.132 502.166 165.856 500.399 123.541 485.377C115.949 482.682 104.199 479.07 97.4263 477.35C90.654 475.63 84.8706 473.98 84.5738 473.683C84.2771 473.386 85.2331 472.278 86.6983 471.22C88.1635 470.161 90.8104 467.996 92.5794 466.407C94.3494 464.819 96.0953 463.52 96.4587 463.52C96.823 463.52 98.9732 464.859 101.238 466.496C119.433 479.647 154.18 492.424 183.912 496.896C194.719 498.522 213.091 498.506 221.677 496.864C232.33 494.828 232.253 494.242 221.106 492.492C203.174 489.677 186.525 484.669 156.445 473.046C146.578 469.234 126.066 462.39 111.771 458.141L104.858 456.086L109.072 451.811C111.389 449.46 113.577 447.535 113.934 447.535C114.29 447.535 117.131 449.133 120.246 451.085C140.609 463.845 180.84 473.314 221.012 474.8C241.021 475.541 252.38 473.442 268.621 466.004C275.433 462.884 276.423 461.486 270.842 462.867C268.766 463.382 260.869 463.831 253.294 463.866C241.254 463.922 237.678 463.57 224.862 461.073C216.798 459.502 204.403 456.789 197.317 455.044C175.043 449.557 130.212 441.319 122.632 441.319C120.642 441.319 120.784 441.02 124.572 437.232L128.661 433.145L154.771 437.677C169.131 440.169 184.078 442.789 187.988 443.497C205.908 446.747 232.554 449.65 254.183 450.71C267.522 451.364 281.532 450.198 291.731 447.588C298.022 445.976 310.158 440.752 310.161 439.653C310.163 439.348 306.464 439.233 301.942 439.397C292.123 439.752 277.029 438.299 266.622 435.997C256.092 433.665 231.763 430.15 213.311 428.292C201.735 427.127 189.68 426.719 166.136 426.696L134.51 426.666L139.471 421.053L144.432 415.44L149.328 415.94C167.615 417.806 181.974 419.523 194.918 421.392C256.382 430.264 315.67 430.73 341.036 422.542C344.09 421.555 346.589 420.445 346.589 420.074C346.589 419.703 344.489 419.327 341.924 419.238C331.954 418.894 307.679 415.698 277.242 410.722C237.392 404.208 213.301 401.867 192.875 402.523C179.243 402.962 155.091 405.77 152.805 407.182C150.315 408.72 153.035 405.212 160.888 396.759L163.998 393.411L169.068 395.161C172.915 396.489 178.379 397.134 191.725 397.833C201.398 398.34 214.51 399.149 220.863 399.632C252.682 402.047 301.169 401.356 319.489 398.224C327.921 396.783 343.89 392.66 345.055 391.624C346.08 390.712 299.339 385.788 264.845 383.173C218.53 379.661 197.866 379.532 180.213 382.641C175.449 383.481 171.55 384.044 171.55 383.894C171.55 382.951 181.737 371.163 182.547 371.17C183.097 371.173 185.944 371.557 188.876 372.023C191.809 372.489 204.803 373.725 217.753 374.772C238.736 376.466 245.603 376.62 280.838 376.197C321.87 375.703 329.456 375.231 355.474 371.545C378.895 368.227 378.424 368.361 371.023 367.126C367.602 366.556 359.769 365.036 353.616 363.748C338.874 360.662 323.255 359.033 297.276 357.875C269.133 356.618 217.486 356.622 208.424 357.883C200.6 358.97 191.769 360.874 190.278 361.795C189.752 362.12 189.321 361.997 189.321 361.52C189.321 361.044 189.641 360.521 190.034 360.358C190.426 360.195 192.922 357.334 195.579 353.999C200.04 348.403 200.616 347.978 203.085 348.474C220.224 351.925 276.091 352.13 324.376 348.92C347.676 347.371 419.894 339.218 418.777 338.263C416.945 336.698 389.396 331.878 373.372 330.319C342.856 327.35 260.668 331.46 219.975 337.99C215.088 338.775 210.189 339.756 209.09 340.17C207.99 340.585 207.098 340.635 207.106 340.28C207.114 339.926 209.439 336.744 212.271 333.209L217.422 326.781L235.135 326.408C289.766 325.258 359.891 312.485 417.226 293.241L427 289.961L419.892 289.232C415.982 288.831 400.789 288.663 386.128 288.859C365.114 289.14 356.558 289.623 345.7 291.14C319.524 294.799 294.79 299.422 271.509 305.008C261.493 307.411 230.799 316.11 226.416 317.788C224.076 318.684 222.932 317.739 224.892 316.529C225.396 316.217 228.376 312.562 231.51 308.408L237.211 300.854L249.917 300.608C263.852 300.338 266.103 299.893 293.278 292.024C329.631 281.497 358.659 271.463 377.243 262.998C387.642 258.261 412.186 245.486 413.672 244.037C415.218 242.53 376.805 245.1 363.479 247.395C348.16 250.034 321.443 258.702 295.943 269.307C282.133 275.05 250.609 289.132 245.889 291.665C242.755 293.348 242.739 293.383 249.74 282.995C255.471 274.492 255.544 274.426 259.195 274.396C270.599 274.3 312.745 258.963 346.145 242.754C367.194 232.539 383.131 222.402 398.806 209.26C406.02 203.211 414.116 194.911 414.116 193.564C414.116 192.777 394.754 198.86 381.685 203.752C354.167 214.054 291.805 244.448 270.62 257.883C263.384 262.473 263.661 262.35 264.739 260.485C265.267 259.571 267.423 256.05 269.531 252.661L273.362 246.498L280.432 244.192C296.899 238.822 327.371 222.556 354.95 204.414C378.983 188.605 392.018 177.621 401.226 165.421C406.496 158.439 413.965 145.15 413.105 144.29C412.889 144.075 407.127 147.577 400.3 152.074C385.646 161.725 382.595 163.626 364.017 174.687C340.094 188.929 319.522 203.032 290.846 224.847L281.75 231.766L285.684 224.123L289.62 216.48L298.334 212.173C314.506 204.181 329.456 192.947 366.235 161.15C389.392 141.13 402.073 126.741 409.662 111.874C412.088 107.121 415.165 98.3932 414.61 97.839C414.153 97.3826 377.666 126.408 356.808 143.82C344.835 153.815 321.947 174.664 309.937 186.514C303.707 192.662 298.609 197.599 298.609 197.487C298.609 197.373 300.153 193.944 302.04 189.866C305.292 182.84 305.909 182.109 313.813 175.928C318.401 172.341 328.065 163.991 335.289 157.373C374.225 121.703 386.404 102.768 387.914 75.5631C388.296 68.6762 388.189 67.4374 387.363 69.2242C378.417 88.6033 377.056 90.4167 349.83 119.246C331.905 138.226 323.172 148.846 315.532 160.957C313.438 164.278 311.557 166.827 311.353 166.622C310.717 165.987 313.014 161.485 318.728 152.163C331.939 130.612 344.887 100.332 350.207 78.5487C352.455 69.3423 354.569 50.6239 354.568 39.9184C354.568 26.594 351.19 0.932809 349.893 4.39622C343.419 21.6849 321.816 99.585 312.462 139.38C307.323 161.241 305.415 168.118 303.097 173.126C301.005 177.645 301.067 176.818 303.803 163.775C311.435 127.385 313.831 69.7694 308.872 41.8765C306.546 28.7866 303.255 16.567 299.915 8.61092C298.12 4.33583 296.354 0.653961 295.99 0.429283C295.627 0.204605 295.062 9.4972 294.736 21.0792Z" fill="#35291D" fill-opacity="0.8"/>
</svg>
