<svg width="777" height="1139" viewBox="0 0 777 1139" fill="none" xmlns="http://www.w3.org/2000/svg">
<g filter="url(#filter0_f_2035_13209)">
<path fill-rule="evenodd" clip-rule="evenodd" d="M268.949 71.2252C279.265 101.207 304.871 174.791 325.853 234.745C363.807 343.189 406.783 482.21 409.824 506.374C411.079 516.354 412.661 518.922 426.537 533.5C434.965 542.356 442.425 549.474 443.115 549.319C443.803 549.165 441.078 541.185 437.058 531.591C421.319 494.032 390.967 401.19 382.119 363.546C363.714 285.251 349.299 198.963 347.957 159.086C346.875 126.913 353.349 65.7391 357.991 64.2872C359.072 63.9491 360.688 67.7413 361.581 72.7121C362.477 77.6845 369.314 103.329 376.779 129.701C391.556 181.911 403.444 229.117 418.981 297.275C424.492 321.457 435.598 366.105 443.659 396.492C462.717 468.338 473.305 514.328 475.37 534.248C476.286 543.063 478.421 559.185 480.115 570.074L483.196 589.871L502.427 607.731L521.657 625.593L503.204 566.358C486.25 511.937 479.162 484.594 459.523 397.895C443.721 328.14 433.873 267.005 432.581 230.641C430.864 182.395 436.007 136.097 445.399 115.239L449.735 105.608L451.412 115.268C459.541 162.081 465.106 188.101 473.867 220.273C494.692 296.757 495.614 301.293 545.44 572.164C550.555 599.971 555.537 630.692 556.513 640.431L558.285 658.138L581.178 676.657C593.769 686.842 604.215 694.836 604.385 694.419C604.558 694.003 602.066 688.186 598.844 681.492C586.649 656.143 562.85 584.398 552.931 543.086C524.54 424.834 512.645 321.318 519.896 255.578C522.699 230.182 533.777 188.126 541.074 175.19L545.047 168.142L545.171 180.49C545.647 228.606 561.38 328.2 585.17 433.704C612.511 554.957 617.507 579.044 625.371 627.494C629.815 654.883 633.648 686.628 633.892 698.042L634.33 718.793L644.459 726.433C650.029 730.636 660.997 738.77 668.833 744.51L683.081 754.945L670.876 715.863C657.34 672.505 638.001 593.369 629.637 547.1C609.96 438.235 610.176 330.416 630.213 262.476C636.366 241.603 656.832 194.869 660.291 193.787C661.365 193.451 661.494 198.236 660.577 204.416C658 221.831 657.654 281.694 659.938 314.838C662.631 353.855 669.835 414.093 678.874 473.139C700.851 616.678 711.336 729.944 705.153 756.983L702.513 768.53L720.83 781.36C730.905 788.418 739.908 794.236 740.84 794.293C741.769 794.349 740.647 787.252 738.343 778.525C721.476 714.653 706.166 547.249 708.855 456.122C710.959 384.812 714.873 354.127 726.872 314.853C733.421 293.421 755.477 248.73 758.68 250.407C759.295 250.728 759.312 259.054 758.717 268.908C756.242 309.893 757.88 358.663 764.974 455.118C775.974 604.747 775.278 766.426 763.471 803.548C761.805 808.789 763.778 810.593 789.319 827.174L816.973 845.126L814.081 833.853C794.117 756.06 784.936 664.491 789.757 591.25C795.118 509.795 815.866 419.444 839.892 372.923C849.384 354.542 869.167 324.502 872.454 323.474C873.024 323.295 868.522 357.643 862.449 399.804C843.397 532.099 839.288 585.648 840.882 680.894C842.81 796.373 841.574 836.524 835.683 849.802C833.685 854.299 834.153 855.314 840.092 859.386C853.242 868.403 886.747 888.991 887.926 888.78C888.589 888.661 885.783 876.727 881.691 862.259C852.007 757.323 858.197 591.201 895.444 493.237C903.551 471.911 935.982 407.382 936.983 410.583C937.224 411.352 936.053 424.299 934.384 439.357C915.96 605.42 913.508 646.495 916.022 746.985C918.247 835.978 916.09 882.888 909.166 896.112C906.775 900.679 908.348 902.134 929.65 915.046C942.339 922.738 953.253 928.498 953.902 927.846C954.551 927.195 953.943 920.618 952.552 913.231C949.048 894.621 943.882 793.264 943.55 736.62C943.144 666.828 946.25 625.646 959.391 526.703C963.659 494.561 969.221 450.428 971.754 428.63C978.952 366.655 977.947 370.108 982.756 390.816C1002.55 476.036 1011.96 567.735 1010.51 661.175C1009.6 719.5 1005.75 760.972 995.081 827.438C983.767 897.914 979.127 920.993 974.172 931.4L970.568 938.969L992.175 951.571C1004.06 958.499 1014.56 963.926 1015.52 963.628C1016.47 963.33 1016.83 957.59 1016.32 950.876C1014.33 924.893 1020.92 823.112 1029.95 740.148C1032.56 716.227 1035.45 688.968 1036.39 679.573C1041 633.263 1053.45 547.069 1064.09 487.769C1067.4 469.329 1070.57 439.984 1071.13 422.56C1071.7 405.137 1073.09 390.581 1074.24 390.218C1077.41 389.213 1096.04 460.235 1099.24 485.504C1103.62 520.022 1105.44 563.442 1104.03 599.247C1100.18 696.702 1094.54 755.56 1084.48 803.295C1078.75 830.479 1047.31 940.81 1039.48 961.217L1034.49 974.229L1050.33 982.647C1059.05 987.277 1066.72 990.855 1067.39 990.592C1068.06 990.333 1070.16 984.235 1072.06 977.038C1073.96 969.844 1078 956.658 1081.04 947.741C1084.08 938.822 1089.45 917.663 1092.98 900.722C1113.97 800.046 1129.01 740.329 1145.07 693.955C1163.77 639.96 1182.03 572.791 1195.85 507.225C1196.99 501.825 1200.16 488.229 1202.9 477.011C1205.64 465.791 1208.58 452.96 1209.42 448.496C1211.64 436.719 1213.4 443.676 1217.64 480.965C1225.44 549.474 1224.25 595.199 1212.83 665.122C1200.65 739.725 1189.1 787.952 1170.48 842.012C1160.12 872.073 1115.34 958.571 1096.71 984.492L1085.69 999.824L1094.68 1003.59C1105.1 1007.95 1106.74 1007.74 1109.17 1001.83C1110.16 999.43 1120.19 986.185 1131.47 972.395C1158.22 939.703 1172.58 917.239 1201.62 862.641C1222.96 822.529 1260.04 742.954 1264.87 726.919C1267.98 716.564 1298.05 651.76 1300.23 651.077C1300.23 651.077 1310.9 695.49 1310.35 754.722C1309.8 813.954 1277.77 875.966 1236.74 926.235C1211.77 956.816 1175.23 989.84 1146.1 1008.14C1138.16 1013.13 1132.19 1017.85 1132.83 1018.64C1133.47 1019.42 1142.76 1023.75 1153.49 1028.26C1170.5 1035.42 1173.21 1035.89 1174.82 1031.98C1178.34 1023.4 1212.1 984.231 1238.42 958.181C1252.98 943.775 1269.8 926.116 1275.81 918.938C1297.34 893.209 1314.52 871.394 1330.65 849.294C1339.66 836.938 1347.62 826.649 1348.32 826.428C1349.03 826.208 1354.28 840.966 1359.99 859.222L1370.37 892.417L1365.84 900.333C1348.46 930.733 1312.01 967.744 1267.28 1000.43C1245.48 1016.36 1204.69 1041.95 1197.52 1044.19C1195.96 1044.68 1211.83 1051.58 1225.71 1056.45L1235.86 1060.02L1252.44 1043.55C1261.56 1034.5 1284.16 1015.35 1302.67 1001C1321.18 986.646 1346.43 965.532 1358.78 954.08C1371.12 942.628 1381.62 933.134 1382.1 932.984C1382.58 932.834 1386.75 944.77 1391.36 959.509L1399.74 986.31L1389.28 995.716C1361.38 1020.8 1312.56 1049.36 1278.46 1060.55C1266.71 1064.41 1257.17 1067.77 1257.24 1068.03C1257.31 1068.28 1265.62 1071.19 1275.69 1074.5L1294.01 1080.5L1310.92 1068.7C1331.02 1054.69 1348.22 1046.28 1384.45 1032.78L1411.33 1022.76L1417.79 1045.75L1424.25 1068.75L1392.86 1078.3C1373.1 1084.32 1355.47 1088.26 1345.27 1088.93C1336.36 1089.52 1328.88 1090.37 1328.64 1090.82C1328.09 1091.87 1389.76 1109.23 1419.31 1116.34L1441.93 1121.78L1447.7 1139.93L1453.47 1158.09L1432.43 1153.9C1385.12 1144.47 1334.41 1131.54 1301.11 1120.42C1289.07 1116.4 1281.15 1115.06 1279.6 1116.79C1278.25 1118.29 1272.93 1126.18 1267.78 1134.33C1254.78 1154.86 1240.4 1170.58 1207.99 1199.66C1175.19 1229.1 1141.16 1253.55 1116.51 1265.39C1096.75 1274.88 1056.42 1291.85 1055.11 1291.23C1054.64 1291 1065.9 1279.39 1080.14 1265.42C1094.37 1251.44 1120.9 1223.46 1139.08 1203.23C1173.03 1165.47 1204.76 1134.22 1230.53 1113.16L1245.16 1101.2L1235.28 1097.61C1223.87 1093.47 1221.3 1093.84 1218.78 1099.99C1213.47 1112.91 1192.12 1134.84 1159.01 1161.36C1113.12 1198.14 1101.87 1204.64 1037.12 1231.8C995.166 1249.39 955.588 1268.96 945.141 1277.27C936.825 1283.88 941.997 1276.44 958.666 1257.8C987.24 1225.86 996.961 1217.75 1095.16 1143.96C1112.78 1130.73 1140.5 1111.7 1156.78 1101.67C1173.05 1091.65 1186.81 1082.62 1187.34 1081.6C1187.87 1080.59 1184.47 1078.47 1179.78 1076.9C1175.09 1075.34 1166.41 1071.84 1160.49 1069.14C1154.58 1066.44 1148.96 1064.47 1148.01 1064.77C1147.06 1065.07 1142.54 1070.32 1137.96 1076.44C1101.2 1125.65 1020.93 1187.39 946.959 1223.35C920.074 1236.42 872.097 1251.38 848.341 1254.1C818.867 1257.48 818.589 1255.89 846.261 1242.22C890.775 1220.22 930.152 1193.55 999.184 1138.63C1021.83 1120.62 1069.79 1085.99 1103.64 1063.22L1120.01 1052.21L1105.51 1044.49C1097.54 1040.24 1090.26 1037 1089.33 1037.29C1088.4 1037.58 1082.29 1044.08 1075.75 1051.72C1033.01 1101.67 935.717 1159.25 832.055 1195.94C780.422 1214.21 749.053 1218.01 700.576 1211.84C680.243 1209.26 676.517 1206.42 692.215 1205.47C698.056 1205.11 719.04 1199.84 738.843 1193.74C770.322 1184.06 779.37 1180.22 810.79 1163.23C830.558 1152.54 860.701 1135.34 877.774 1124.99C931.444 1092.48 1041.75 1034.35 1061.54 1028.16C1066.74 1026.54 1066.12 1025.87 1053.14 1019.07L1039.12 1011.74L974.664 1044.89C939.209 1063.13 902.326 1082.18 892.699 1087.22C848.568 1110.34 781.376 1139.68 725.777 1160.11C691.486 1172.71 653.958 1181.11 625.2 1182.62C607.458 1183.55 571.51 1179.82 570.602 1176.95C570.349 1176.15 579.911 1172.83 591.85 1169.57C617.777 1162.48 655.994 1146.36 681.283 1131.85C706.869 1117.16 767.513 1088.11 814.168 1068.19C843.436 1055.69 874.576 1044.78 936.023 1025.5L1018.56 999.594L1001.03 988.988L983.491 978.379L971.115 983.683C924.899 1003.49 888.814 1019.7 856.548 1035.15C703.334 1108.51 548.932 1158.15 476.022 1157.47C467.241 1157.39 459.811 1156.53 459.508 1155.56C459.205 1154.59 464.379 1151.9 471.003 1149.57C496.751 1140.53 557.515 1112.36 632.912 1074.51C731.625 1024.96 792.607 999.172 846.47 984.205C882.416 974.219 947.763 961.83 954.884 963.651C962.643 965.634 952.675 958.695 925.268 943.031L914.415 936.827L902.608 945.538C893.649 952.147 879.912 958.292 845.64 971.016C820.8 980.24 787.23 993.06 771.039 999.51C689.943 1031.8 562.794 1069.59 512.408 1076.37C489.218 1079.49 444.161 1081.77 440.271 1080.01C436.852 1078.47 554.854 1027.44 642.771 992.441C760.817 945.45 814.659 928.237 863.284 921.944C876.407 920.245 887.046 918.531 886.923 918.139C886.153 915.676 849.929 893.212 847.819 893.89C846.388 894.348 839.267 897.675 831.993 901.287C824.719 904.899 791.804 918.739 758.85 932.046C705.456 953.606 687.653 959.617 595.319 987.284C487.795 1019.5 467.604 1024.46 396.669 1036.08C332.816 1046.55 334.154 1046.51 352.466 1037.24C360.931 1032.96 380.139 1022.59 395.15 1014.21C431.117 994.107 470.564 977.099 537.439 952.858C609.885 926.594 744.722 884.431 769.41 880.321C790.722 876.771 815.333 874.535 819.98 875.721C821.619 876.141 822.643 875.466 822.254 874.221C821.865 872.978 820.6 871.874 819.441 871.768C818.286 871.663 809.432 866.229 799.77 859.691C783.554 848.718 781.702 848.08 775.663 851.392C733.736 874.401 588.053 920.555 459.375 951.603C397.279 966.584 202.081 1004.27 204.218 1000.86C207.721 995.277 275.706 960.192 316.266 943.037C393.509 910.364 611.433 853.981 723.005 837.804C736.404 835.863 749.993 834.424 753.201 834.609C756.412 834.794 758.781 834.195 758.471 833.277C758.161 832.358 749.493 825.946 739.21 819.027L720.513 806.446L673.964 819.937C530.401 861.546 336.893 885.453 171.489 882.017L143.293 881.431L161.255 873.722C171.134 869.484 210.663 856.638 249.097 845.179C304.188 828.751 326.919 823.026 356.504 818.121C427.832 806.3 496.18 798.176 561.523 793.752C589.633 791.849 676.871 789.503 689.684 790.305C696.526 790.734 698.742 787.332 692.636 785.771C691.064 785.369 680.301 778.258 668.724 769.969L647.671 754.897L614.299 764.631C577.696 775.303 571.457 775.979 494.086 777.622C390.578 779.817 306.598 777.317 251.167 770.383C220.149 766.505 145.638 753.186 140.573 750.615C135.306 747.941 237.691 723.284 274.356 718.397C316.504 712.778 393.335 713.599 468.569 720.471C509.315 724.192 603.117 735.225 617.508 737.985C627.066 739.82 627.135 739.9 600.372 718.487C578.465 700.963 578.22 700.849 568.664 703.751C538.813 712.813 416.255 707.178 315.819 692.122C252.522 682.633 202.633 669.174 150.975 647.653C127.2 637.748 99.284 622.684 98.1835 619.166C97.5408 617.111 153.059 617.183 191.173 619.288C271.43 623.721 459.065 652.171 525.347 669.958C547.987 676.035 547.164 675.941 542.826 671.951C540.702 669.995 532.196 662.561 523.925 655.429L508.889 642.465L488.547 642.216C441.171 641.638 348.331 624.044 261.512 599.186C185.854 577.525 142.852 559.484 108.847 535.141C89.3859 521.211 59.0294 492.607 60.5726 489.659C60.9601 488.919 78.8638 493.361 100.362 499.53C146.501 512.767 156.019 515.241 213.556 528.955C287.647 546.614 352.874 566.644 445.558 600.198L474.956 610.839L458.442 594.093L441.925 577.348L415.656 573.216C366.907 565.549 318.7 548.42 196.709 495.415C119.897 462.041 75.0373 434.819 43.0807 402.19C32.8655 391.759 17.7031 371.478 18.7002 369.577C19.5197 368.012 138.486 414.017 207.163 442.457C246.585 458.783 323.37 494.54 364.403 515.68C385.69 526.648 403.034 535.38 402.942 535.085C402.849 534.788 396.016 527.095 387.758 517.986C373.529 502.292 371.322 500.887 345.637 491.2C330.731 485.579 298.679 471.664 274.414 460.28C143.626 398.92 96.361 359.416 70.197 289.603C63.5739 271.929 62.8425 268.606 66.4571 272.599C105.644 315.902 110.677 319.527 205.305 372.582C267.606 407.513 299.082 428.116 328.919 453.507C337.099 460.468 344.092 465.589 344.459 464.888C345.598 462.711 335.924 452.829 313.392 433.15C261.298 387.656 202.759 319.152 171.077 266.608C157.688 244.401 136.879 197.243 128.136 169.284C117.251 134.487 105.106 64.7133 111.322 72.6989C142.348 112.562 262.381 298.361 319.31 394.65C350.582 447.543 361.182 463.945 371.326 475.132C380.477 485.224 379.639 483.116 361.843 451.288C312.193 362.484 258.872 213.975 249.033 137.082C244.413 100.998 243.023 66.3981 245.243 42.893C246.436 30.2627 248.04 19.2049 248.805 18.3214C249.571 17.4379 258.637 41.2445 268.949 71.2252Z" fill="#433B33" fill-opacity="0.1"/>
</g>
<defs>
<filter id="filter0_f_2035_13209" x="0.55332" y="0.197363" width="1471.02" height="1309.15" filterUnits="userSpaceOnUse" color-interpolation-filters="sRGB">
<feFlood flood-opacity="0" result="BackgroundImageFix"/>
<feBlend mode="normal" in="SourceGraphic" in2="BackgroundImageFix" result="shape"/>
<feGaussianBlur stdDeviation="9.05" result="effect1_foregroundBlur_2035_13209"/>
</filter>
</defs>
</svg>
