<svg width="228" height="284" viewBox="0 0 228 284" fill="none" xmlns="http://www.w3.org/2000/svg">
<path fill-rule="evenodd" clip-rule="evenodd" d="M157.376 11.0258C157.202 17.2091 156.719 32.4013 156.304 44.7865C155.553 67.1888 155.648 95.5769 156.489 100.253C156.837 102.184 156.692 102.755 154.956 106.277C153.902 108.417 152.927 110.177 152.79 110.188C152.652 110.2 152.695 108.555 152.885 106.535C153.628 98.6247 153.873 79.5702 153.328 72.0457C152.194 56.3956 149.851 39.4896 147.777 31.9865C146.104 25.933 141.333 14.9198 140.384 14.9198C140.163 14.9198 140.082 15.7201 140.206 16.6976C140.329 17.6756 140.549 22.8487 140.695 28.1939C140.985 38.7757 141.521 48.2576 142.598 61.8531C142.981 66.6768 143.514 75.6368 143.783 81.7642C144.419 96.2515 145.126 105.431 145.902 109.261C146.245 110.955 146.787 114.081 147.106 116.208L147.686 120.073L145.144 124.519L142.602 128.964L142.588 116.86C142.575 105.74 142.302 100.236 140.909 82.9494C139.788 69.041 138.06 57.0844 136.182 50.2383C133.69 41.1551 130.034 32.8341 127.069 29.4976L125.7 27.9568L125.95 29.8531C127.164 39.0431 127.643 44.2119 127.886 50.7124C128.463 66.1663 128.556 67.0646 135.058 120.401C135.725 125.877 136.587 131.887 136.973 133.757L137.675 137.157L134.489 141.939C132.737 144.569 131.257 146.665 131.201 146.598C131.144 146.53 131.269 145.302 131.48 143.868C132.274 138.438 132.527 123.693 131.968 115.423C130.366 91.752 126.55 71.785 121.368 59.9668C119.366 55.4015 114.851 48.2159 112.738 46.2324L111.587 45.1515L112.284 47.4579C114.999 56.4444 117.871 75.9047 119.587 96.9346C121.56 121.104 122.033 125.88 123.391 135.359C124.159 140.717 125.295 146.851 125.914 148.991L127.042 152.88L125.6 154.893C124.808 155.999 123.238 158.153 122.113 159.678L120.067 162.451L120.063 154.463C120.058 145.602 119.049 129.741 117.911 120.638C115.233 99.222 108.91 79.1592 101.218 67.6762C98.8552 64.1481 92.3189 56.6383 91.6115 56.6383C91.3919 56.6383 91.6466 57.5367 92.1775 58.6342C93.6725 61.7266 97.2255 72.8526 98.7313 79.1568C100.503 86.5785 102.671 98.2141 104.428 109.735C108.699 137.741 113.346 159.441 116.073 164.116L117.238 166.112L114.573 169.567C113.108 171.469 111.769 173.076 111.599 173.141C111.429 173.206 111.225 171.819 111.145 170.06C110.566 157.185 103.663 125.123 97.8513 108.312C93.3038 95.1573 90.7865 89.6718 86.2623 83.058C83.7934 79.4489 77.0801 72.4122 76.581 72.9109C76.4852 73.0067 76.9672 74.5578 77.6523 76.3579C80.5017 83.8449 83.0385 93.0211 87.3378 111.394C94.0079 139.895 103.559 169.958 107.922 176.182C108.538 177.061 108.275 177.512 104.483 182.087L100.378 187.04L100.259 184.772C99.4454 169.125 95.8197 151.541 90.6536 138.184C84.9083 123.33 75.7778 107.716 68.5906 100.453C65.7512 97.5831 60.3151 93.142 59.6428 93.142C59.5261 93.142 62.3665 99.2751 65.9547 106.772C77.2134 130.295 81.0995 140.026 86.3529 157.853C92.7231 179.467 95.2931 186.871 97.1643 189C97.7986 189.721 97.7706 189.937 96.9015 191.042C94.9771 193.486 89.9349 199.271 89.7029 199.3C89.5724 199.317 89.3997 196.931 89.3191 193.999C88.7341 172.732 77.9004 142.161 65.2525 126.09C62.4994 122.591 52.6971 112.465 52.6971 113.119C52.6971 113.277 53.6697 115.619 54.8582 118.326C67.9677 148.173 70.8181 155.678 76.2057 174.535C80.9771 191.235 84.1126 199.844 86.1731 201.903C86.8848 202.614 86.6765 202.976 83.4603 206.621C81.5445 208.792 79.847 210.5 79.6881 210.417C79.5292 210.334 79.2592 209.073 79.0879 207.617C78.6562 203.948 73.7121 184.775 70.4732 174.209C66.4818 161.19 63.5033 153.703 55.2894 136.046C52.6212 130.309 49.0132 122.416 47.271 118.505C42.3184 107.385 42.707 107.969 43.0178 112.105C44.2964 129.125 47.8864 146.747 53.6028 164.061C57.171 174.868 60.3042 182.366 66.1653 194.12C72.3799 206.583 74.5894 210.61 76.1189 212.259L77.2315 213.459L73.9403 217.064C72.1299 219.046 70.4893 220.668 70.2943 220.668C70.0993 220.668 69.6975 219.62 69.4019 218.34C68.2576 213.387 61.0993 194.819 54.5821 179.898C52.7028 175.595 50.5745 170.689 49.8529 168.994C46.2947 160.64 38.9528 145.316 33.5149 134.894C31.8235 131.653 29.5235 126.374 28.4029 123.163C27.2827 119.951 26.174 117.323 25.9396 117.322C25.2911 117.319 25.9576 131.628 26.8339 136.52C28.0309 143.201 30.2209 151.392 32.5708 157.977C38.9671 175.898 43.4476 186.529 48.1037 194.831C50.7553 199.559 63.0412 218.271 65.6895 221.615L67.378 223.747L64.9166 226.237C63.5631 227.606 62.3414 228.72 62.2019 228.71C62.0624 228.7 61.3157 227.687 60.5419 226.458C59.7686 225.229 58.247 223.009 57.1615 221.526C56.076 220.042 53.8419 216.415 52.1966 213.467C42.4204 195.944 36.138 185.701 30.4439 178.001C23.8141 169.036 16.497 157.594 10.1021 146.19C9.57547 145.251 8.19203 142.905 7.0273 140.976C5.86256 139.046 4.56831 136.828 4.15176 136.046C3.0525 133.982 3.12936 135.38 4.51138 142.57C7.05102 155.78 9.93842 164.225 16.1402 176.579C22.7571 189.76 27.7187 198.067 34.338 207.049C38.0191 212.043 51.4029 225.54 56.3839 229.281L59.3307 231.494L57.8751 232.718C56.188 234.137 55.8701 234.195 55.0726 233.235C54.7495 232.846 52.1079 230.964 49.2025 229.054C42.3142 224.524 38.3304 221.178 29.7379 212.703C23.4256 206.477 11.8803 193.821 10.0466 191.116C8.8624 189.37 0.903794 180.846 0.457353 180.846C0.225356 180.846 0.035108 183.602 0.035108 186.972V193.098L3.19293 198.942C11.0239 213.435 16.3276 219.62 26.9018 226.59C33.3346 230.83 42.0675 234.85 48.5606 236.561C50.3302 237.028 51.7179 237.559 51.6444 237.743C51.5708 237.926 50.092 239.274 48.357 240.738C45.6039 243.062 45.1266 243.308 44.5981 242.672C43.4428 241.281 34.8708 235.953 28.4494 232.636C24.8987 230.801 20.7356 228.493 19.1979 227.506C13.6874 223.97 9.21585 220.908 4.92271 217.733C2.52303 215.957 0.441222 214.505 0.296995 214.505C0.153242 214.505 0.035108 217.558 0.035108 221.29V228.076L1.3398 229.286C6.35028 233.934 15.2967 238.703 25.5354 242.183C30.5255 243.879 39.6161 246.268 41.0816 246.268C41.4004 246.268 38.847 248.478 36.5441 250.194L34.8618 251.448L30.8134 249.348C28.5869 248.193 23.2595 245.944 18.9749 244.35C14.6899 242.756 8.75613 240.295 5.78855 238.882C2.82098 237.469 0.312177 236.312 0.213969 236.312C0.115762 236.312 0.035108 238.778 0.035108 241.79V247.269L2.53252 248.411C9.19071 251.457 19.9504 253.932 26.9568 254.029C29.3693 254.063 31.3439 254.133 31.3453 254.184C31.3467 254.237 29.969 255.262 28.2843 256.464L25.2208 258.648L21.3836 257.437C16.8229 255.997 13.1276 255.434 5.59214 255.03L0 254.731L0.136162 259.388L0.272324 264.046L6.67717 263.997C10.7094 263.966 14.2235 263.673 16.163 263.204C17.8576 262.795 19.3013 262.517 19.372 262.587C19.5357 262.751 9.05645 269.574 3.96578 272.619L0.0687927 274.949L0.0517132 278.666L0.035108 282.383L3.71196 280.377C11.9761 275.866 20.6691 270.506 26.2252 266.495C28.2335 265.045 29.6316 264.334 30.0207 264.566C30.3589 264.767 31.8102 265.927 33.2454 267.144C36.8625 270.209 40.4587 272.298 48.19 275.825C56.0172 279.397 63.7823 281.968 69.0651 282.737C73.2994 283.353 81.8012 284.164 82.009 283.971C82.083 283.902 79.3076 282.396 75.8414 280.623C72.3752 278.851 65.8033 275.185 61.2369 272.478C52.7123 267.424 44.9795 263.453 38.9509 261.032L35.5284 259.658L37.1595 258.415C39.0439 256.979 39.544 256.898 40.3723 257.895C42.114 259.992 47.3707 262.833 55.0835 265.843C65.7763 270.017 68.2509 270.572 81.897 271.857C90.7381 272.69 99.2518 274.028 101.682 274.967C103.617 275.715 102.22 274.63 98.0282 272.131C90.8434 267.847 88.56 266.903 65.9656 258.884C61.912 257.445 55.6377 255.517 52.0215 254.599C48.4054 253.681 45.3173 252.8 45.1589 252.641C45.0004 252.483 45.5109 251.891 46.2932 251.326C47.0756 250.761 48.4889 249.605 49.4335 248.757C50.3786 247.91 51.3108 247.216 51.5049 247.216C51.6994 247.216 52.8475 247.931 54.0569 248.805C63.7723 255.825 82.3254 262.646 98.2014 265.033C103.972 265.901 113.782 265.893 118.366 265.016C124.054 263.929 124.013 263.617 118.061 262.682C108.487 261.179 99.5962 258.506 83.5353 252.301C78.2667 250.266 67.3139 246.613 59.6808 244.345L55.9897 243.248L58.2399 240.965C59.4772 239.71 60.6453 238.683 60.836 238.683C61.0263 238.683 62.543 239.536 64.2064 240.578C75.0794 247.39 96.5608 252.444 118.011 253.238C128.695 253.633 134.76 252.513 143.432 248.542C147.07 246.877 147.598 246.13 144.618 246.868C143.51 247.142 139.293 247.382 135.248 247.4C128.819 247.43 126.91 247.243 120.067 245.91C115.761 245.071 109.143 243.623 105.359 242.691C93.4656 239.762 69.5276 235.364 65.4802 235.364C64.4175 235.364 64.4934 235.204 66.5164 233.183L68.6997 231.001L82.641 233.42C90.3087 234.75 98.2901 236.149 100.378 236.527C109.946 238.262 124.174 239.811 135.723 240.378C142.846 240.726 150.326 240.104 155.772 238.711C159.131 237.85 165.611 235.062 165.613 234.475C165.614 234.312 163.639 234.251 161.225 234.338C155.981 234.528 147.922 233.752 142.365 232.523C136.742 231.279 123.751 229.402 113.899 228.41C107.718 227.788 101.281 227.57 88.7094 227.558L71.8229 227.542L74.4717 224.546L77.1205 221.549L79.7351 221.816C89.4994 222.812 97.1667 223.729 104.078 224.726C136.897 229.463 168.555 229.712 182.099 225.34C183.73 224.814 185.064 224.221 185.064 224.023C185.064 223.825 183.943 223.624 182.573 223.577C177.249 223.393 164.287 221.687 148.035 219.03C126.757 215.553 113.894 214.303 102.987 214.654C95.7083 214.888 82.8122 216.387 81.5915 217.141C80.2617 217.962 81.7144 216.089 85.9074 211.577L87.5679 209.789L90.275 210.724C92.3293 211.432 95.2466 211.777 102.373 212.15C107.538 212.42 114.539 212.852 117.932 213.11C134.922 214.4 160.812 214.031 170.594 212.359C175.096 211.589 183.623 209.389 184.245 208.835C184.792 208.349 159.834 205.72 141.416 204.324C116.686 202.449 105.652 202.38 96.2263 204.04C93.6824 204.488 91.6006 204.789 91.6006 204.709C91.6006 204.205 97.04 197.913 97.4727 197.916C97.7659 197.918 99.2864 198.123 100.852 198.372C102.418 198.621 109.356 199.281 116.271 199.839C127.475 200.744 131.142 200.826 149.956 200.6C171.865 200.336 175.916 200.084 189.808 198.117C202.314 196.346 202.062 196.417 198.111 195.758C196.284 195.453 192.102 194.642 188.816 193.954C180.944 192.307 172.604 191.437 158.733 190.819C143.706 190.148 116.128 190.15 111.29 190.823C107.112 191.403 102.397 192.42 101.6 192.912C101.319 193.085 101.089 193.019 101.089 192.765C101.089 192.511 101.261 192.232 101.47 192.144C101.679 192.058 103.012 190.53 104.431 188.75C106.813 185.762 107.121 185.536 108.439 185.801C117.591 187.643 147.421 187.752 173.203 186.039C185.645 185.211 224.206 180.859 223.609 180.349C222.631 179.514 207.921 176.941 199.365 176.109C183.071 174.524 139.186 176.718 117.457 180.204C114.848 180.623 112.232 181.146 111.645 181.368C111.058 181.589 110.582 181.616 110.586 181.426C110.59 181.237 111.831 179.539 113.344 177.651L116.094 174.22L125.552 174.021C154.723 173.407 192.167 166.588 222.781 156.315L228 154.564L224.205 154.175C222.117 153.961 214.004 153.871 206.176 153.976C194.955 154.126 190.387 154.384 184.589 155.194C170.612 157.147 157.405 159.615 144.974 162.597C139.626 163.88 123.237 168.524 120.897 169.419C119.647 169.897 119.036 169.393 120.083 168.747C120.352 168.58 121.943 166.63 123.617 164.412L126.661 160.379L133.445 160.248C140.886 160.104 142.088 159.866 156.598 155.666C176.009 150.046 191.509 144.689 201.432 140.17C206.985 137.641 220.09 130.822 220.884 130.048C221.709 129.244 201.198 130.616 194.082 131.841C185.903 133.25 171.637 137.877 158.021 143.538C150.647 146.604 133.815 154.122 131.294 155.474C129.621 156.372 129.613 156.391 133.351 150.845C136.411 146.307 136.45 146.271 138.399 146.255C144.488 146.204 166.993 138.016 184.827 129.364C196.066 123.91 204.576 118.499 212.946 111.483C216.798 108.254 221.121 103.823 221.121 103.104C221.121 102.684 210.782 105.931 203.804 108.543C189.11 114.043 155.812 130.268 144.5 137.44C140.636 139.89 140.784 139.825 141.36 138.829C141.641 138.341 142.793 136.461 143.918 134.652L145.964 131.362L149.739 130.131C158.532 127.264 174.802 118.581 189.528 108.896C202.361 100.457 209.321 94.5932 214.238 88.0803C217.052 84.3532 221.04 77.2591 220.581 76.8002C220.466 76.685 217.389 78.5548 213.743 80.9555C205.919 86.1072 204.29 87.1222 194.37 93.0268C181.596 100.63 170.611 108.158 155.299 119.804L150.443 123.497L152.543 119.418L154.645 115.338L159.298 113.038C167.933 108.772 175.916 102.775 195.554 85.8005C207.919 75.113 214.69 67.4316 218.742 59.4951C220.038 56.9578 221.681 52.2986 221.384 52.0028C221.14 51.7592 201.658 67.2538 190.52 76.549C184.127 81.8847 171.906 93.0145 165.493 99.3405C162.167 102.623 159.444 105.258 159.444 105.198C159.444 105.138 160.269 103.307 161.277 101.13C163.013 97.3793 163.342 96.9891 167.563 93.6896C170.012 91.7748 175.173 87.3171 179.03 83.7843C199.82 64.7421 206.324 54.6339 207.13 40.1112C207.334 36.4347 207.276 35.7734 206.836 36.7272C202.059 47.0725 201.332 48.0405 186.795 63.4304C177.223 73.5628 172.56 79.2322 168.481 85.6976C167.363 87.4702 166.358 88.8308 166.249 88.7217C165.91 88.3828 167.136 85.9792 170.188 81.0029C177.241 69.498 184.155 53.3335 186.996 41.705C188.196 36.7903 189.325 26.7977 189.324 21.0828C189.324 13.9698 187.521 0.27093 186.828 2.11982C183.371 11.3491 171.836 52.9349 166.841 74.1791C164.098 85.8489 163.079 89.5201 161.841 92.1939C160.724 94.6059 160.757 94.1646 162.218 87.2019C166.293 67.7753 167.572 37.0183 164.925 22.1281C163.683 15.1403 161.925 8.617 160.142 4.36977C159.184 2.08758 158.24 0.122071 158.046 0.00213C157.852 -0.117811 157.551 4.8429 157.376 11.0258Z" fill="#595959" fill-opacity="0.8"/>
</svg>
