<svg width="658" height="408" viewBox="0 0 658 408" fill="none" xmlns="http://www.w3.org/2000/svg">
<path fill-rule="evenodd" clip-rule="evenodd" d="M112.887 17.9212C117.717 31.5467 129.701 64.9854 139.52 92.2302C157.282 141.51 177.461 204.709 178.95 215.713C179.564 220.257 180.296 221.421 186.683 228.009C190.564 232.011 193.995 235.224 194.309 235.151C194.621 235.078 193.345 231.451 191.472 227.094C184.138 210.037 169.909 167.839 165.716 150.714C156.995 115.096 150.059 75.8182 149.278 57.6436C148.649 42.9804 151.343 15.0638 153.453 14.3823C153.944 14.2235 154.697 15.9456 155.125 18.2081C155.554 20.4712 158.78 32.1338 162.294 44.1256C169.252 67.8657 174.871 89.337 182.241 120.345C184.856 131.346 190.108 151.655 193.911 165.474C202.903 198.148 207.925 219.071 208.95 228.144C209.405 232.159 210.446 239.5 211.265 244.457L212.753 253.47L221.596 261.531L230.438 269.593L221.775 242.665C213.816 217.926 210.469 205.49 201.15 166.047C193.651 134.312 188.903 106.482 188.161 89.9088C187.174 67.9203 189.323 46.7912 193.517 37.2426L195.454 32.8333L196.259 37.2302C200.163 58.5384 202.809 70.3774 206.94 85.0076C216.757 119.789 217.196 121.853 241.055 245.134C243.505 257.79 245.906 271.775 246.392 276.211L247.274 284.276L257.79 292.622C263.573 297.212 268.369 300.813 268.444 300.622C268.522 300.431 267.361 297.79 265.864 294.752C260.197 283.246 249.044 250.638 244.348 231.846C230.905 178.054 225.045 130.911 228.073 100.909C229.244 89.3192 234.117 70.0987 237.389 64.1706L239.171 60.9406L239.279 66.5696C239.699 88.5035 247.293 133.842 258.584 181.842C271.561 237.006 273.94 247.967 277.729 270.022C279.871 282.49 281.753 296.946 281.912 302.149L282.199 311.608L286.849 315.048C289.407 316.941 294.441 320.602 298.038 323.186L304.578 327.884L298.849 310.118C292.494 290.408 283.343 254.411 279.335 233.352C269.905 183.803 269.548 134.647 278.396 103.588C281.113 94.0464 290.247 72.6535 291.819 72.1457C292.307 71.988 292.386 74.1687 291.995 76.9905C290.893 84.9407 290.988 112.234 292.169 127.335C293.561 145.111 297.1 172.544 301.47 199.425C312.095 264.772 317.354 316.366 314.649 328.72L313.494 333.995L321.899 339.767C326.522 342.942 330.651 345.557 331.077 345.579C331.5 345.6 330.959 342.37 329.871 338.4C321.912 309.352 314.225 233.097 315.067 191.54C315.725 159.021 317.38 145.015 322.685 127.059C325.58 117.26 335.446 96.7926 336.914 97.5434C337.196 97.6876 337.239 101.483 337.009 105.978C336.053 124.674 337.006 146.901 340.647 190.846C346.294 259.016 346.659 332.729 341.433 349.702C340.696 352.099 341.603 352.913 353.317 360.365L366 368.432L364.634 363.305C355.204 327.923 350.632 286.216 352.521 252.804C354.621 215.646 363.699 174.367 374.456 153.056C378.706 144.636 387.598 130.858 389.092 130.375C389.352 130.291 387.444 145.969 384.854 165.216C376.726 225.61 375.079 250.041 376.207 293.457C377.574 346.096 377.18 364.407 374.55 370.485C373.658 372.544 373.876 373.005 376.601 374.836C382.634 378.891 397.996 388.136 398.532 388.035C398.834 387.978 397.505 382.549 395.578 375.97C381.602 328.255 383.723 252.493 400.29 207.674C403.896 197.917 418.409 168.361 418.879 169.816C418.992 170.166 418.513 176.073 417.816 182.945C410.117 258.732 409.173 277.468 410.743 323.272C412.133 363.834 411.347 385.23 408.247 391.288C407.176 393.38 407.899 394.037 417.665 399.833C423.483 403.287 428.483 405.867 428.776 405.567C429.069 405.267 428.764 402.271 428.099 398.91C426.423 390.44 423.64 344.253 423.249 318.43C422.77 286.613 424.012 267.825 429.585 222.661C431.395 207.989 433.745 187.845 434.808 177.897C437.828 149.612 437.384 151.19 439.664 160.611C449.047 199.379 453.726 241.146 453.456 283.751C453.288 310.346 451.71 329.27 447.126 359.617C442.265 391.795 440.247 402.336 438.032 407.102L436.421 410.568L446.325 416.222C451.773 419.33 456.584 421.76 457.018 421.62C457.451 421.48 457.592 418.861 457.329 415.803C456.314 403.965 458.888 357.535 462.655 319.673C463.742 308.757 464.948 296.317 465.334 292.03C467.242 270.897 472.553 231.549 477.154 204.469C478.585 196.048 479.906 182.656 480.09 174.71C480.272 166.764 480.849 160.123 481.369 159.952C482.808 159.48 491.605 191.781 493.171 203.288C495.31 219.006 496.326 238.794 495.832 255.123C494.488 299.57 492.166 326.427 487.78 348.232C485.283 360.65 471.417 411.083 467.932 420.42L465.711 426.373L472.97 430.144C476.962 432.218 480.477 433.816 480.78 433.694C481.083 433.573 482.015 430.784 482.852 427.495C483.688 424.207 485.476 418.178 486.823 414.1C488.17 410.021 490.53 400.352 492.069 392.614C501.211 346.627 507.817 319.338 514.943 298.128C523.239 273.432 531.283 242.733 537.305 212.783C537.801 210.316 539.19 204.104 540.393 198.978C541.596 193.851 542.88 187.989 543.244 185.951C544.204 180.572 545.038 183.736 547.131 200.719C550.975 231.919 550.623 252.771 545.712 284.697C540.473 318.76 535.413 340.796 527.152 365.521C522.557 379.269 502.505 418.893 494.122 430.789L489.162 437.826L493.276 439.503C498.045 441.446 498.793 441.348 499.876 438.639C500.315 437.543 504.834 431.462 509.92 425.127C521.976 410.11 528.427 399.808 541.438 374.794C550.995 356.417 567.565 319.982 569.698 312.651C571.075 307.917 584.508 278.245 585.5 277.925C585.5 277.925 590.552 298.128 590.552 325.134C590.551 352.141 576.211 380.547 557.715 403.638C546.463 417.686 529.942 432.896 516.739 441.362C513.141 443.67 510.438 445.848 510.733 446.203C511.029 446.558 515.284 448.494 520.192 450.505C527.98 453.697 529.217 453.9 529.935 452.107C531.504 448.185 546.729 430.183 558.619 418.195C565.192 411.566 572.787 403.445 575.496 400.147C585.204 388.326 592.943 378.308 600.204 368.164C604.263 362.493 607.846 357.769 608.167 357.665C608.486 357.562 610.942 364.268 613.623 372.567L618.497 387.657L616.466 391.285C608.668 405.218 592.209 422.245 571.953 437.335C562.08 444.689 543.591 456.527 540.334 457.579C539.625 457.808 546.887 460.889 553.239 463.052L557.879 464.634L565.368 457.058C569.487 452.891 579.712 444.065 588.09 437.444C596.469 430.823 607.89 421.091 613.471 415.818C619.051 410.545 623.797 406.172 624.015 406.102C624.233 406.031 626.183 411.456 628.347 418.155L632.282 430.339L627.552 434.671C614.941 446.225 592.805 459.453 577.302 464.699C571.964 466.506 567.626 468.079 567.66 468.195C567.694 468.312 571.493 469.603 576.101 471.067L584.478 473.724L592.137 468.276C601.239 461.801 609.048 457.896 625.506 451.588L637.72 446.908L640.763 457.363L643.806 467.818L629.535 472.308C620.552 475.135 612.53 477.004 607.883 477.355C603.822 477.66 600.414 478.08 600.307 478.287C600.061 478.768 628.253 486.419 641.755 489.535L652.09 491.921L654.798 500.174L657.505 508.428L647.891 506.605C626.283 502.506 603.112 496.827 587.882 491.896C582.377 490.114 578.759 489.536 578.061 490.331C577.454 491.021 575.061 494.643 572.745 498.379C566.908 507.792 560.415 515.02 545.765 528.414C530.934 541.975 515.522 553.266 504.333 558.77C495.364 563.18 477.05 571.086 476.45 570.806C476.236 570.706 481.323 565.364 487.753 558.933C494.184 552.503 506.158 539.634 514.363 530.336C529.679 512.977 544.014 498.594 555.674 488.884L562.294 483.371L557.776 481.777C552.556 479.936 551.387 480.115 550.262 482.928C547.897 488.842 538.254 498.931 523.273 511.163C502.506 528.122 497.405 531.133 467.998 543.787C448.946 551.985 430.984 561.073 426.257 564.905C422.493 567.957 424.82 564.543 432.341 555.975C445.233 541.29 449.63 537.553 494.088 503.499C502.064 497.389 514.625 488.598 522.003 483.959C529.38 479.321 535.611 475.147 535.85 474.68C536.088 474.214 534.528 473.265 532.384 472.57C530.239 471.875 526.268 470.319 523.559 469.111C520.85 467.904 518.279 467.031 517.848 467.17C517.416 467.31 515.377 469.724 513.317 472.535C496.766 495.122 460.429 523.61 426.858 540.315C414.656 546.388 392.847 553.412 382.028 554.753C368.605 556.419 368.471 555.695 381.029 549.344C401.23 539.129 419.07 526.802 450.31 501.473C460.558 493.165 482.277 477.177 497.614 466.654L505.03 461.565L498.389 458.105C494.737 456.201 491.403 454.755 490.979 454.892C490.556 455.029 487.798 458.014 484.849 461.526C465.576 484.48 421.462 511.142 374.357 528.305C350.894 536.854 336.609 538.717 314.483 536.112C305.202 535.019 303.491 533.739 310.644 533.24C313.305 533.054 322.85 530.56 331.852 527.698C346.163 523.149 350.271 521.361 364.525 513.484C373.491 508.528 387.161 500.556 394.901 495.768C419.232 480.717 469.278 453.752 478.273 450.846C480.635 450.083 480.352 449.783 474.403 446.738L467.984 443.454L438.736 458.842C422.649 467.305 405.914 476.145 401.546 478.484C381.524 489.211 351.015 502.871 325.753 512.421C310.173 518.31 293.1 522.297 279.995 523.107C271.91 523.605 255.505 522.055 255.08 520.751C254.961 520.39 259.306 518.836 264.735 517.297C276.526 513.955 293.881 506.445 305.349 499.722C316.952 492.918 344.477 479.418 365.663 470.14C378.954 464.319 393.105 459.215 421.037 450.162L458.558 438.004L450.518 433.243L442.479 428.48L436.859 430.951C415.873 440.175 399.49 447.718 384.845 454.898C315.304 488.991 245.121 512.271 211.878 512.272C207.874 512.272 204.483 511.912 204.341 511.471C204.199 511.03 206.546 509.78 209.557 508.691C221.257 504.46 248.84 491.361 283.055 473.787C327.849 450.779 355.542 438.765 380.035 431.715C396.381 427.01 426.121 421.086 429.375 421.886C432.921 422.757 428.347 419.636 415.786 412.61L410.811 409.828L405.466 413.849C401.409 416.9 395.172 419.76 379.601 425.705C368.315 430.015 353.065 436.002 345.711 439.01C308.875 454.075 251.066 471.84 228.124 475.144C217.565 476.665 197.033 477.892 195.252 477.109C193.687 476.419 247.269 452.656 287.203 436.329C340.822 414.408 365.296 406.333 387.438 403.258C393.414 402.428 398.257 401.602 398.199 401.424C397.838 400.305 381.228 390.216 380.269 390.534C379.619 390.749 376.386 392.296 373.085 393.973C369.784 395.651 354.837 402.099 339.869 408.305C315.617 418.359 307.526 421.175 265.548 434.179C216.663 449.321 207.479 451.668 175.188 457.265C146.121 462.304 146.731 462.282 155.041 457.979C158.882 455.991 167.595 451.184 174.403 447.297C190.716 437.982 208.628 430.061 239.014 418.728C271.932 406.448 333.227 386.656 344.465 384.679C354.166 382.97 365.377 381.847 367.501 382.368C368.249 382.552 368.714 382.241 368.531 381.675C368.348 381.11 367.767 380.612 367.238 380.568C366.711 380.525 362.652 378.085 358.219 375.145C350.78 370.211 349.933 369.928 347.194 371.463C328.176 382.13 261.953 403.787 203.42 418.485C175.173 425.577 86.3405 443.581 87.3006 442.018C88.8739 439.459 119.72 423.176 138.139 415.184C173.217 399.962 272.331 373.337 323.129 365.491C329.23 364.55 335.419 363.836 336.882 363.907C338.347 363.978 339.425 363.695 339.279 363.277C339.134 362.859 335.155 359.973 330.438 356.862L321.861 351.205L300.696 357.552C235.42 377.128 147.3 388.844 71.8773 387.976L59.0203 387.828L67.1765 384.237C71.6626 382.263 89.6297 376.24 107.104 370.853C132.151 363.131 142.489 360.426 155.957 358.064C188.425 352.374 219.552 348.382 249.323 346.089C262.13 345.103 301.893 343.665 307.738 343.976C310.859 344.143 311.855 342.583 309.064 341.897C308.346 341.72 303.409 338.524 298.096 334.794L288.434 328.011L273.261 332.59C256.618 337.61 253.777 337.944 218.51 339.02C171.33 340.458 133.032 339.672 107.732 336.745C93.5741 335.108 59.5481 329.35 57.2282 328.199C54.8156 327.003 101.389 315.33 118.084 312.947C137.276 310.207 172.307 310.257 206.636 313.072C225.227 314.597 268.039 319.231 274.611 320.428C278.977 321.224 279.008 321.261 266.717 311.612C256.655 303.715 256.543 303.664 252.199 305.027C238.628 309.285 182.729 307.233 136.876 300.793C107.979 296.734 85.1778 290.808 61.5355 281.215C50.655 276.799 37.8642 270.05 37.3476 268.45C37.0459 267.516 62.3572 267.315 79.7422 268.114C116.351 269.796 202.014 281.974 232.308 289.804C242.655 292.478 242.279 292.439 240.285 290.638C239.308 289.756 235.399 286.402 231.598 283.186L224.688 277.339L215.413 277.311C193.812 277.248 151.412 269.618 111.725 258.652C77.141 249.096 57.4601 241.052 41.8545 230.098C32.9233 223.83 18.9629 210.917 19.654 209.567C19.8275 209.228 28.0087 211.177 37.8356 213.899C58.9264 219.739 63.2766 220.826 89.5657 226.836C123.419 234.574 153.24 243.43 195.637 258.336L209.085 263.064L201.485 255.499L193.884 247.934L181.89 246.161C159.633 242.872 137.583 235.266 81.7432 211.616C46.5838 196.725 26.017 184.503 11.3101 169.763C6.60897 165.05 -0.389227 155.868 0.0573311 154.997C0.424315 154.281 54.8556 174.752 86.2859 187.428C104.327 194.705 139.485 210.682 158.281 220.147C168.033 225.058 175.976 228.965 175.933 228.831C175.89 228.696 172.742 225.218 168.939 221.1C162.385 214.005 161.373 213.374 149.623 209.066C142.803 206.566 128.132 200.357 117.021 195.27C57.1356 167.848 35.4203 150.037 23.1973 118.319C20.1032 110.29 19.7557 108.778 21.4205 110.583C39.4687 130.16 41.7785 131.791 85.1439 155.58C113.695 171.242 128.131 180.502 141.842 191.952C145.6 195.091 148.81 197.396 148.974 197.075C149.485 196.078 145.032 191.613 134.677 182.737C110.735 162.215 83.7576 131.231 69.0919 107.41C62.8939 97.3422 53.2079 75.9306 49.104 63.221C43.9949 47.4027 38.1634 15.644 41.0309 19.2584C55.344 37.3011 110.852 121.501 137.212 165.159C151.693 189.142 156.595 196.574 161.266 201.632C165.481 206.194 165.09 205.236 156.842 190.801C133.832 150.525 108.896 83.0441 104.085 48.0298C101.827 31.5982 101.047 15.8299 101.96 5.10448C102.451 -0.658747 103.135 -5.70683 103.48 -6.11286C103.826 -6.51889 108.059 4.29637 112.887 17.9212Z" fill="#595959" fill-opacity="0.8"/>
</svg>
