<svg width="201" height="263" viewBox="0 0 201 263" fill="none" xmlns="http://www.w3.org/2000/svg">
<path fill-rule="evenodd" clip-rule="evenodd" d="M51.8492 11.5811C54.0415 17.7663 59.4818 32.9456 63.9389 45.3131C72.0016 67.6834 81.162 96.3721 81.8375 101.367C82.1164 103.43 82.4488 103.958 85.3483 106.949C87.1097 108.766 88.6671 110.224 88.8097 110.191C88.9517 110.158 88.3724 108.511 87.5221 106.534C84.193 98.7908 77.7336 79.635 75.8302 71.8614C71.8713 55.6931 68.7227 37.8631 68.3685 29.6128C68.083 22.9566 69.3056 10.284 70.2634 9.97468C70.4864 9.90263 70.8283 10.6843 71.0225 11.7114C71.2175 12.7387 72.6816 18.0328 74.277 23.4764C77.4353 34.2531 79.9861 43.9998 83.3319 58.0755C84.5189 63.0697 86.9028 72.2884 88.6293 78.5617C92.7111 93.3939 94.9906 102.892 95.456 107.01C95.6625 108.833 96.1352 112.165 96.5068 114.415L97.1822 118.507L101.196 122.166L105.21 125.826L101.278 113.602C97.665 102.372 96.1456 96.7266 91.9151 78.8217C88.5112 64.4159 86.356 51.7826 86.0188 44.2594C85.5711 34.2778 86.5467 24.6864 88.4504 20.3519L89.3295 18.3504L89.6951 20.3463C91.4671 30.019 92.6685 35.3933 94.5434 42.0345C98.9997 57.8233 99.1993 58.7604 110.03 114.723C111.142 120.468 112.232 126.816 112.452 128.83L112.853 132.491L117.626 136.279C120.252 138.363 122.429 139.998 122.463 139.911C122.498 139.824 121.971 138.625 121.292 137.246C118.719 132.023 113.657 117.221 111.524 108.691C105.422 84.2723 102.762 62.8719 104.137 49.2529C104.668 43.9917 106.88 35.2667 108.366 32.5757L109.174 31.1095L109.224 33.6647C109.415 43.6215 112.861 64.2027 117.987 85.9916C123.878 111.033 124.958 116.008 126.678 126.02C127.65 131.68 128.504 138.242 128.577 140.604L128.707 144.898L130.818 146.46C131.979 147.319 134.264 148.981 135.897 150.154L138.865 152.286L136.265 144.221C133.38 135.274 129.226 118.934 127.407 109.374C123.126 86.8818 122.964 64.5678 126.981 50.4691C128.214 46.1376 132.36 36.4265 133.074 36.1959C133.295 36.1244 133.331 37.1143 133.153 38.3952C132.653 42.0041 132.696 54.3937 133.233 61.2485C133.865 69.3181 135.471 81.7709 137.455 93.9733C142.278 123.637 144.665 147.058 143.437 152.666L142.913 155.061L146.728 157.68C148.827 159.122 150.701 160.309 150.894 160.319C151.087 160.328 150.841 158.862 150.347 157.06C146.734 143.874 143.245 109.258 143.627 90.3942C143.926 75.6323 144.677 69.2744 147.085 61.1234C148.399 56.6754 152.878 47.3842 153.544 47.7251C153.672 47.7905 153.692 49.5135 153.587 51.5539C153.154 60.0406 153.586 70.1306 155.239 90.079C157.802 121.024 157.968 154.486 155.596 162.191C155.261 163.279 155.673 163.648 160.99 167.031L166.748 170.693L166.128 168.365C161.847 152.304 159.772 133.371 160.629 118.204C161.582 101.337 165.703 82.5986 170.586 72.9246C172.515 69.1025 176.552 62.8477 177.23 62.6286C177.348 62.5906 176.482 69.7076 175.306 78.4446C171.617 105.86 170.869 116.95 171.381 136.659C172.001 160.554 171.823 168.866 170.629 171.625C170.224 172.559 170.323 172.768 171.56 173.6C174.298 175.441 181.272 179.637 181.515 179.591C181.653 179.566 181.049 177.101 180.174 174.115C173.83 152.455 174.793 118.063 182.313 97.7178C183.95 93.2888 190.538 79.872 190.752 80.5325C190.803 80.6914 190.586 83.373 190.269 86.4924C186.774 120.895 186.346 129.4 187.058 150.193C187.689 168.606 187.333 178.318 185.925 181.068C185.439 182.018 185.768 182.316 190.201 184.947C192.842 186.515 195.111 187.686 195.244 187.55C195.378 187.414 195.239 186.054 194.937 184.528C194.176 180.683 192.913 159.717 192.736 147.995C192.518 133.552 193.082 125.023 195.612 104.521C196.433 97.8609 197.5 88.7169 197.982 84.2009C199.353 71.361 199.152 72.0777 200.187 76.3541C204.446 93.9526 206.57 112.912 206.448 132.253C206.371 144.325 205.655 152.915 203.574 166.691C201.368 181.298 200.452 186.083 199.446 188.247L198.715 189.82L203.211 192.387C205.683 193.798 207.868 194.901 208.064 194.837C208.261 194.773 208.325 193.585 208.206 192.196C207.745 186.823 208.913 165.746 210.624 148.559C211.117 143.604 211.664 137.957 211.84 136.011C212.706 126.418 215.117 108.556 217.205 96.263C217.855 92.4403 218.454 86.3613 218.538 82.7543C218.621 79.1474 218.882 76.1323 219.118 76.055C219.772 75.8408 223.765 90.5034 224.476 95.7269C225.447 102.862 225.908 111.845 225.684 119.257C225.074 139.433 224.02 151.625 222.029 161.523C220.895 167.16 214.601 190.054 213.019 194.292L212.011 196.995L215.306 198.706C217.118 199.648 218.714 200.374 218.851 200.318C218.989 200.263 219.412 198.997 219.792 197.504C220.171 196.011 220.983 193.275 221.594 191.424C222.206 189.572 223.277 185.183 223.976 181.67C228.126 160.794 231.124 148.407 234.359 138.779C238.125 127.568 241.776 113.633 244.51 100.037C244.735 98.9173 245.366 96.0975 245.912 93.7706C246.458 91.4432 247.041 88.7822 247.206 87.8568C247.642 85.4153 248.02 86.8517 248.971 94.5607C250.715 108.724 250.556 118.189 248.327 132.682C245.948 148.145 243.651 158.148 239.901 169.371C237.816 175.612 228.713 193.599 224.907 198.999L222.656 202.194L224.524 202.955C226.688 203.837 227.028 203.792 227.52 202.563C227.719 202.065 229.77 199.305 232.079 196.429C237.552 189.612 240.48 184.936 246.386 173.581C250.725 165.238 258.246 148.699 259.215 145.371C259.84 143.222 265.937 129.753 266.388 129.608C266.388 129.608 268.681 138.779 268.681 151.038C268.681 163.298 262.171 176.193 253.775 186.674C248.668 193.051 241.168 199.956 235.174 203.799C233.541 204.846 232.314 205.835 232.448 205.996C232.582 206.158 234.514 207.036 236.742 207.949C240.277 209.398 240.839 209.49 241.165 208.676C241.877 206.896 248.788 198.724 254.185 193.283C257.17 190.273 260.617 186.587 261.847 185.09C266.254 179.724 269.767 175.176 273.063 170.571C274.905 167.997 276.532 165.852 276.677 165.805C276.822 165.758 277.937 168.802 279.154 172.57L281.367 179.42L280.445 181.067C276.905 187.391 269.434 195.121 260.238 201.971C255.757 205.309 247.364 210.683 245.885 211.161C245.563 211.264 248.86 212.663 251.743 213.645L253.85 214.363L257.249 210.924C259.119 209.032 263.761 205.026 267.564 202.02C271.367 199.015 276.552 194.597 279.085 192.203C281.618 189.81 283.773 187.825 283.872 187.793C283.971 187.761 284.856 190.223 285.838 193.264L287.624 198.795L285.477 200.762C279.753 206.006 269.704 212.011 262.667 214.392C260.244 215.213 258.274 215.927 258.29 215.979C258.305 216.033 260.03 216.619 262.121 217.283L265.924 218.49L269.401 216.016C273.533 213.077 277.078 211.304 284.549 208.441L290.093 206.316L291.474 211.062L292.855 215.809L286.377 217.846C282.299 219.13 278.658 219.978 276.548 220.137C274.705 220.276 273.158 220.467 273.11 220.561C272.998 220.779 285.796 224.252 291.924 225.667L296.616 226.749L297.845 230.496L299.074 234.243L294.71 233.415C284.901 231.555 274.383 228.977 267.469 226.738C264.97 225.929 263.328 225.667 263.011 226.028C262.735 226.341 261.649 227.985 260.598 229.681C257.948 233.954 255.001 237.235 248.351 243.315C241.618 249.471 234.622 254.597 229.543 257.095C225.472 259.097 217.158 262.686 216.886 262.559C216.788 262.514 219.097 260.088 222.017 257.169C224.936 254.25 230.371 248.409 234.096 244.188C241.049 236.308 247.556 229.779 252.849 225.371L255.854 222.868L253.803 222.145C251.433 221.309 250.903 221.391 250.392 222.667C249.318 225.352 244.941 229.932 238.141 235.484C228.713 243.183 226.398 244.55 213.049 250.294C204.4 254.015 196.247 258.141 194.101 259.88C192.392 261.266 193.449 259.716 196.863 255.826C202.715 249.161 204.711 247.464 224.892 232.005C228.513 229.232 234.215 225.241 237.564 223.136C240.913 221.03 243.741 219.135 243.85 218.923C243.958 218.712 243.25 218.281 242.276 217.965C241.303 217.65 239.5 216.944 238.27 216.395C237.04 215.848 235.874 215.451 235.678 215.514C235.482 215.578 234.556 216.674 233.621 217.95C226.108 228.203 209.613 241.135 194.374 248.718C188.835 251.475 178.934 254.663 174.023 255.272C167.93 256.028 167.869 255.699 173.57 252.816C182.74 248.179 190.838 242.583 205.02 231.086C209.672 227.315 219.531 220.057 226.493 215.28L229.859 212.97L226.845 211.399C225.187 210.535 223.673 209.879 223.481 209.941C223.289 210.003 222.037 211.358 220.698 212.952C211.949 223.372 191.924 235.475 170.541 243.266C159.891 247.147 153.406 247.992 143.362 246.81C139.149 246.314 138.372 245.733 141.619 245.506C142.827 245.422 147.16 244.29 151.247 242.99C157.743 240.925 159.608 240.114 166.078 236.538C170.148 234.288 176.354 230.669 179.867 228.496C190.912 221.664 213.63 209.423 217.713 208.104C218.786 207.758 218.657 207.621 215.957 206.239L213.042 204.748L199.765 211.734C192.463 215.575 184.866 219.588 182.883 220.65C173.795 225.52 159.945 231.72 148.478 236.055C141.406 238.729 133.655 240.539 127.706 240.906C124.036 241.132 116.59 240.429 116.396 239.837C116.342 239.673 118.315 238.967 120.779 238.269C126.132 236.752 134.01 233.343 139.216 230.291C144.483 227.202 156.978 221.074 166.595 216.862C172.628 214.22 179.052 211.903 191.731 207.794L208.763 202.275L205.114 200.113L201.465 197.951L198.914 199.073C189.387 203.26 181.95 206.684 175.302 209.943C143.735 225.42 111.875 235.987 96.7851 235.988C94.9677 235.988 93.4284 235.824 93.3638 235.624C93.2992 235.424 94.3649 234.856 95.7314 234.362C101.043 232.442 113.564 226.495 129.095 218.518C149.429 208.074 162 202.62 173.119 199.419C180.539 197.284 194.039 194.595 195.516 194.958C197.126 195.353 195.049 193.936 189.348 190.747L187.089 189.484L184.663 191.31C182.821 192.695 179.99 193.993 172.922 196.692C167.799 198.648 160.876 201.366 157.537 202.731C140.816 209.57 114.574 217.634 104.16 219.134C99.3666 219.824 90.0464 220.381 89.238 220.026C88.5274 219.713 112.851 208.926 130.978 201.514C155.318 191.563 166.428 187.898 176.479 186.502C179.192 186.125 181.39 185.75 181.364 185.669C181.2 185.161 173.66 180.581 173.225 180.726C172.93 180.823 171.462 181.526 169.964 182.287C168.465 183.048 161.68 185.976 154.886 188.793C143.877 193.357 140.204 194.635 121.148 200.538C98.9572 207.412 94.7881 208.477 80.1302 211.018C66.9354 213.305 67.2123 213.295 70.9843 211.342C72.728 210.44 76.6833 208.257 79.7739 206.493C87.1789 202.265 95.3099 198.669 109.104 193.524C124.046 187.95 151.871 178.966 156.972 178.068C161.376 177.292 166.465 176.782 167.429 177.019C167.769 177.103 167.979 176.961 167.896 176.704C167.814 176.448 167.55 176.222 167.31 176.202C167.07 176.182 165.228 175.075 163.216 173.74C159.839 171.5 159.454 171.372 158.211 172.069C149.578 176.911 119.517 186.742 92.9455 193.414C80.1231 196.633 39.7984 204.806 40.2342 204.097C40.9484 202.935 54.951 195.543 63.312 191.915C79.2352 185.006 124.228 172.919 147.287 169.358C150.056 168.93 152.866 168.606 153.53 168.639C154.195 168.671 154.684 168.542 154.618 168.353C154.552 168.163 152.746 166.853 150.605 165.441L146.711 162.873L137.103 165.754C107.472 174.64 67.4707 179.959 33.233 179.564L27.3966 179.497L31.0991 177.868C33.1355 176.971 41.2915 174.237 49.2237 171.792C60.5936 168.287 65.2868 167.058 71.4002 165.986C86.1391 163.403 100.269 161.591 113.783 160.55C119.597 160.103 137.647 159.45 140.3 159.591C141.717 159.667 142.169 158.959 140.902 158.647C140.576 158.567 138.335 157.116 135.923 155.423L131.537 152.344L124.649 154.422C117.095 156.701 115.805 156.853 99.7956 157.341C78.3785 157.994 60.9938 157.638 49.5089 156.309C43.082 155.566 27.6362 152.952 26.5831 152.43C25.4879 151.886 46.6296 146.587 54.2082 145.506C62.9202 144.262 78.8221 144.285 94.4054 145.563C102.845 146.255 122.279 148.358 125.262 148.902C127.244 149.263 127.258 149.28 121.679 144.9C117.111 141.315 117.061 141.292 115.088 141.911C108.928 143.843 83.5533 142.912 62.7388 139.988C49.621 138.146 39.2706 135.456 28.5384 131.101C23.5992 129.097 17.793 126.033 17.5585 125.307C17.4215 124.883 28.9114 124.791 36.8032 125.154C53.4213 125.918 92.3076 131.446 106.059 135C110.756 136.214 110.586 136.196 109.68 135.379C109.237 134.978 107.462 133.456 105.737 131.996L102.6 129.342L98.39 129.329C88.5841 129.3 69.3369 125.837 51.3217 120.859C35.6224 116.521 26.6884 112.87 19.6043 107.897C15.5501 105.052 9.21288 99.19 9.52659 98.5771C9.60535 98.4232 13.3191 99.3081 17.78 100.544C27.354 103.195 29.3287 103.688 41.2624 106.416C56.6297 109.929 70.167 113.949 89.4127 120.716L95.5172 122.862L92.0674 119.428L88.6171 115.994L83.1726 115.189C73.0691 113.696 63.0597 110.243 37.7115 99.5073C21.7512 92.7477 12.415 87.1998 5.73896 80.5085C3.6049 78.3692 0.428125 74.2011 0.63083 73.8059C0.797422 73.4804 25.5061 82.7734 39.7736 88.5275C47.9634 91.8306 63.923 99.0835 72.4553 103.38C76.8819 105.609 80.4879 107.383 80.4683 107.322C80.4485 107.261 79.0198 105.682 77.2933 103.813C74.3183 100.592 73.8589 100.305 68.5248 98.3497C65.4291 97.215 58.7691 94.3966 53.7257 92.0872C26.541 79.6391 16.6836 71.5542 11.1351 57.1561C9.7305 53.5112 9.57278 52.8249 10.3285 53.6442C18.5213 62.531 19.5698 63.2715 39.2552 74.0702C52.2156 81.1798 58.7691 85.3835 64.9928 90.581C66.6989 92.006 68.1559 93.0523 68.2305 92.9066C68.4622 92.4539 66.4411 90.4272 61.7402 86.3978C50.8721 77.0824 38.6259 63.0174 31.9685 52.204C29.155 47.6337 24.7581 37.914 22.8952 32.1446C20.5759 24.9641 17.9288 10.5474 19.2305 12.1882C25.7278 20.3785 50.9251 58.6004 62.8913 78.4187C69.4645 89.3053 71.6897 92.6793 73.8104 94.9751C75.7236 97.0462 75.5462 96.6115 71.8021 90.0586C61.3567 71.7754 50.0371 41.1432 47.8535 25.2487C46.8283 17.7897 46.4743 10.6318 46.8888 5.7631C47.1116 3.14692 47.4223 0.855387 47.579 0.671074C47.7356 0.48676 49.6575 5.39627 51.8492 11.5811Z" fill="#35291D" fill-opacity="0.8"/>
</svg>
