<svg width="40" height="39" viewBox="0 0 40 39" fill="none" xmlns="http://www.w3.org/2000/svg">
<path d="M20.9048 4.41699H19.3633V31.7664H20.9048V4.41699Z" fill="#EFDABE"/>
<path d="M39.9277 19.9368L39.1061 19.8763C34.9571 19.6151 29.1594 18.5646 25.1092 15.0834C19.7045 10.4308 19.3445 3.02282 19.3692 0.866981L19.3747 0.102539H20.1386C30.9893 0.102539 39.87 8.62964 39.9222 19.1146L39.9277 19.9368ZM20.9189 1.66442C21.0096 4.27672 21.724 10.1338 26.1094 13.912C29.577 16.8955 34.5367 17.9459 38.3615 18.2787C37.8669 9.28409 30.2804 2.04664 20.9189 1.66442Z" fill="#EFDABE"/>
<path d="M0.344727 19.9368L0.350222 19.1146C0.399681 8.62964 9.26932 0.102539 20.1283 0.102539H20.8922L20.8977 0.866981C20.9279 3.02282 20.5927 10.406 15.1604 15.0834C11.1075 18.5646 5.31535 19.6151 1.16629 19.8763L0.344727 19.9368ZM19.3534 1.66442C9.98647 2.04664 2.40002 9.28409 1.91093 18.2787C5.7385 17.9459 10.6899 16.8955 14.1575 13.912C18.5676 10.12 19.271 4.27672 19.3534 1.66442Z" fill="#EFDABE"/>
<path d="M20.8922 38.2932H20.1283C9.27207 38.2932 0.399682 29.7661 0.35297 19.2812L0.344727 18.459L1.16904 18.5195C5.31535 18.7807 11.1075 19.8311 15.1604 23.3261C20.5954 27.9898 20.9279 35.3729 20.8977 37.5288L20.8922 38.2932ZM1.91367 20.1171C2.40002 29.1089 9.98648 36.3519 19.3535 36.7313C19.271 34.119 18.5676 28.2867 14.1575 24.4948C10.6899 21.514 5.7385 20.4526 1.91367 20.1171Z" fill="#EFDABE"/>
<path d="M20.1386 38.2932H19.3747L19.3692 37.5288C19.3445 35.3729 19.7045 27.965 25.1092 23.3261C29.1594 19.8311 34.9516 18.7807 39.1061 18.5195L39.9277 18.459L39.9222 19.2812C39.87 29.7661 30.9893 38.2932 20.1386 38.2932ZM38.3615 20.1171C34.5367 20.4526 29.577 21.5003 26.1094 24.4948C21.724 28.2647 21.0096 34.119 20.9189 36.7313C30.2804 36.3519 37.8669 29.1089 38.3615 20.1171Z" fill="#EFDABE"/>
</svg>
