<svg width="340" height="564" viewBox="0 0 340 564" fill="none" xmlns="http://www.w3.org/2000/svg">
  <g opacity="0.67">
    <path d="M321.647 510.091L306.762 504.087L308.247 520.112L306.061 521.746L304.375 503.005L298.7 495.416L300.721 493.9L306.438 501.555L323.861 508.432L321.647 510.091Z" fill="#CFCFCF" fill-opacity="0.46" />
    <path d="M228.618 534.627L233.701 552.382C234.114 553.825 234.422 555.026 234.615 555.996C234.809 556.967 234.88 557.793 234.83 558.458C234.768 559.147 234.601 559.751 234.318 560.295C233.835 561.229 233.149 561.922 232.268 562.398C231.388 562.874 230.401 563.109 229.315 563.093C228.227 563.091 227.154 562.801 226.091 562.255C225.089 561.739 224.289 561.088 223.68 560.305C223.083 559.517 222.716 558.675 222.592 557.776C222.475 556.868 222.636 555.976 223.095 555.102C223.594 554.149 224.298 553.453 225.231 552.988C226.159 552.534 227.222 552.202 228.414 552.006C229.603 551.822 230.892 551.671 232.269 551.558C233.442 551.424 234.551 551.255 235.601 551.038C236.647 550.819 237.552 550.488 238.32 550.047C239.099 549.6 239.71 548.94 240.149 548.082C240.629 547.162 240.778 546.246 240.574 545.329C240.378 544.421 239.955 543.582 239.305 542.831C238.653 542.091 237.902 541.478 237.025 541.032C235.878 540.433 234.687 540.145 233.448 540.164C232.21 540.183 230.996 540.457 229.791 541.003C228.593 541.542 227.481 542.32 226.47 543.304C225.454 544.285 224.603 545.444 223.904 546.787L222.06 545.822C222.899 544.214 223.943 542.833 225.185 541.686C226.434 540.529 227.777 539.67 229.239 539.075C230.692 538.489 232.19 538.205 233.727 538.236C235.256 538.275 236.741 538.657 238.163 539.395C239.477 540.079 240.553 540.966 241.393 542.06C242.225 543.145 242.73 544.314 242.914 545.544C243.095 546.786 242.863 548.013 242.229 549.235C241.645 550.355 240.851 551.214 239.867 551.781C238.883 552.347 237.788 552.747 236.565 552.982C235.355 553.212 234.112 553.384 232.836 553.499C231.538 553.612 230.369 553.749 229.336 553.885C228.3 554.033 227.431 554.268 226.722 554.597C226.012 554.927 225.482 555.415 225.149 556.061C224.723 556.883 224.677 557.709 225.027 558.552C225.364 559.401 226.013 560.074 226.969 560.568C227.666 560.934 228.377 561.107 229.072 561.111C229.775 561.105 230.416 560.941 230.987 560.626C231.559 560.312 231.989 559.87 232.287 559.307C232.465 558.946 232.575 558.531 232.608 558.056C232.634 557.589 232.559 556.934 232.368 556.108C232.178 555.282 231.879 554.149 231.46 552.734L225.756 533.135L228.618 534.627Z" fill="#CFCFCF" fill-opacity="0.46" />
    <path d="M149.241 509.114C149.297 509.646 149.429 510.189 149.634 510.73C149.841 511.27 150.112 511.817 150.47 512.352C150.821 512.897 151.226 513.424 151.708 513.933C152.185 514.437 152.729 514.918 153.356 515.353C155.171 516.641 156.751 517.238 158.095 517.146C159.434 517.05 160.523 516.411 161.367 515.213C161.942 514.4 162.193 513.612 162.133 512.858C162.057 512.107 161.692 511.284 161.04 510.387C160.39 509.479 159.504 508.412 158.399 507.158C157.133 505.79 156.11 504.521 155.341 503.328C154.564 502.146 154.15 500.97 154.078 499.828C153.999 498.684 154.409 497.488 155.285 496.239C155.971 495.278 156.743 494.574 157.61 494.135C158.478 493.695 159.41 493.479 160.397 493.481C161.397 493.476 162.435 493.69 163.507 494.119C164.591 494.541 165.677 495.138 166.778 495.904C167.844 496.674 168.801 497.513 169.622 498.434C170.461 499.351 171.16 500.347 171.727 501.41C172.293 502.472 172.72 503.612 173.003 504.825L170.792 505.781C170.699 505.127 170.512 504.445 170.235 503.738C169.958 503.032 169.593 502.318 169.156 501.594C168.716 500.865 168.178 500.171 167.547 499.513C166.92 498.841 166.21 498.245 165.43 497.688C163.771 496.509 162.255 495.9 160.895 495.853C159.548 495.801 158.45 496.372 157.604 497.565C157.001 498.421 156.754 499.275 156.855 500.124C156.961 500.977 157.362 501.893 158.066 502.892C158.778 503.882 159.698 505.022 160.848 506.298C162.06 507.654 163.018 508.886 163.731 510.002C164.439 511.114 164.802 512.187 164.825 513.211C164.85 514.235 164.467 515.31 163.683 516.413C162.777 517.7 161.683 518.572 160.423 519.013C159.162 519.454 157.815 519.511 156.374 519.182C154.934 518.851 153.494 518.178 152.048 517.154C151.123 516.511 150.332 515.82 149.679 515.064C149.017 514.318 148.469 513.537 148.037 512.708C147.611 511.883 147.3 510.992 147.084 510.05L149.241 509.114Z" fill="#CFCFCF" fill-opacity="0.46" />
    <path d="M103.635 444.129C104.924 445.373 105.84 446.76 106.39 448.294C106.948 449.817 107.163 451.397 107.068 453.014C106.969 454.625 106.588 456.186 105.935 457.686C105.279 459.2 104.385 460.54 103.261 461.698C102.078 462.918 100.737 463.886 99.2372 464.572C97.7382 465.274 96.1828 465.665 94.561 465.785C92.9425 465.89 91.3632 465.699 89.8229 465.194C88.2827 464.689 86.9088 463.847 85.6848 462.669C84.3957 461.425 83.487 460.029 82.9489 458.49C82.4152 456.937 82.212 455.351 82.3218 453.746C82.4337 452.129 82.8185 450.572 83.4718 449.071C84.125 447.571 84.999 446.246 86.1153 445.1C87.2925 443.875 88.6316 442.92 90.1349 442.221C91.6305 441.532 93.1893 441.128 94.7936 441.01C96.4056 440.883 97.9817 441.088 99.5089 441.598C101.037 442.109 102.415 442.955 103.635 444.129ZM101.449 459.958C102.409 458.968 103.18 457.843 103.737 456.611C104.294 455.379 104.622 454.12 104.705 452.825C104.793 451.532 104.623 450.269 104.199 449.04C103.775 447.81 103.059 446.724 102.063 445.759C101.019 444.741 99.8632 444.057 98.6013 443.695C97.3469 443.323 96.0741 443.219 94.7751 443.376C93.4806 443.537 92.2338 443.922 91.0479 444.529C89.8534 445.144 88.8033 445.922 87.8914 446.872C86.9316 447.863 86.1696 448.978 85.6196 450.201C85.0696 451.424 84.7446 452.7 84.6576 454.008C84.5718 455.318 84.737 456.577 85.1718 457.783C85.5979 458.999 86.3098 460.082 87.3055 461.045C88.3338 462.037 89.4762 462.726 90.7186 463.104C91.9729 463.476 93.2458 463.579 94.5447 463.423C95.8436 463.266 97.0828 462.889 98.2871 462.281C99.4828 461.682 100.537 460.908 101.449 459.958Z" fill="#CFCFCF" fill-opacity="0.46" />
    <path d="M50.4514 379.274C51.4916 380.995 52.0601 382.637 52.1601 384.188C52.2612 385.757 52.0025 387.196 51.3894 388.51C50.7818 389.826 49.9079 391.043 48.7872 392.156C47.6774 393.246 46.4176 394.218 45.0165 395.061L34.0273 401.669L32.7392 399.548L43.7426 392.936C44.8654 392.263 45.9068 391.478 46.8524 390.585C47.7894 389.702 48.5329 388.727 49.0731 387.685C49.6079 386.637 49.8568 385.505 49.8188 384.3C49.7731 383.105 49.347 381.826 48.5285 380.47C47.6948 379.071 46.7426 378.078 45.6611 377.485C44.5926 376.885 43.4665 376.585 42.2959 376.577C41.1198 376.566 39.9263 376.775 38.7132 377.205C37.5045 377.621 36.348 378.158 35.2414 378.828L24.2381 385.442L22.9424 383.283L33.9382 376.68C35.3958 375.803 36.8904 375.128 38.4208 374.653C39.9458 374.176 41.4285 374.008 42.8785 374.128C44.3165 374.253 45.6861 374.732 46.9872 375.532C48.285 376.346 49.4372 377.59 50.4514 379.274Z" fill="#CFCFCF" fill-opacity="0.46" />
    <path d="M26.3166 311.72L0.829391 312.142L0.788086 309.63L24.0503 309.243L23.8112 294.523L26.0351 294.488L26.3166 311.72Z" fill="#CFCFCF" fill-opacity="0.46" />
    <path d="M44.0694 228.03C43.8173 227.233 43.8803 226.483 44.2716 225.774C44.6607 225.048 45.2357 224.581 46.0194 224.325C46.8129 224.077 47.5706 224.131 48.2847 224.495C49.0075 224.849 49.4967 225.427 49.7423 226.234C50.0064 227.056 49.9499 227.827 49.5782 228.551C49.201 229.272 48.6227 229.752 47.8216 230.01C47.0455 230.256 46.2858 230.185 45.5521 229.806C44.8183 229.425 44.3194 228.84 44.0694 228.03ZM45.5151 226.449C45.3216 226.86 45.2879 227.258 45.4075 227.65C45.5521 228.08 45.814 228.382 46.189 228.57C46.5792 228.771 46.9803 228.808 47.3977 228.669C47.8282 228.54 48.151 228.263 48.3488 227.887C48.4195 227.709 48.4716 227.515 48.4923 227.312C48.5086 227.105 48.4847 226.897 48.4216 226.69C48.351 226.493 48.2553 226.308 48.1227 226.139C47.9749 225.99 47.8336 225.862 47.6695 225.762C47.4858 225.648 47.2869 225.583 47.0705 225.569C46.8521 225.568 46.6368 225.6 46.439 225.662C46.0053 225.803 45.6977 226.061 45.5151 226.449Z" fill="#CFCFCF" fill-opacity="0.46" />
    <path d="M127.749 200.875L119.089 203.635L126.133 225.807L123.746 226.561L116.697 204.384L108.032 207.141L107.362 205.024L127.076 198.754L127.749 200.875Z" fill="#CFCFCF" fill-opacity="0.46" />
    <path d="M194.602 204.046L186.884 179.753L197.156 176.485C198.201 176.156 199.232 176.066 200.237 176.222C201.243 176.378 202.177 176.73 203.072 177.253C203.956 177.799 204.721 178.455 205.362 179.247C205.998 180.035 206.467 180.895 206.757 181.832C207.134 182.995 207.259 184.16 207.142 185.323C207.018 186.495 206.668 187.566 206.083 188.529C205.498 189.491 204.695 190.265 203.675 190.834L212.612 198.319L209.905 199.179L201.339 192.035L194.149 194.319L197.006 203.275L194.602 204.046ZM193.475 192.197L201.411 189.677C202.381 189.366 203.125 188.844 203.66 188.092C204.208 187.335 204.534 186.481 204.646 185.503C204.764 184.515 204.664 183.556 204.362 182.594C204.059 181.615 203.551 180.773 202.832 180.09C202.127 179.389 201.32 178.904 200.411 178.635C199.51 178.358 198.601 178.357 197.69 178.653L189.961 181.103L193.475 192.197Z" fill="#CFCFCF" fill-opacity="0.46" />
    <path d="M231.856 112.882L232.952 111.07L260.252 115.136L258.894 117.396L250.41 116.029L244.408 126.02L249.599 132.848L248.22 135.155L231.856 112.882ZM248.309 115.692L234.917 113.513L243.123 124.323L248.309 115.692Z" fill="#CFCFCF" fill-opacity="0.46" />
    <path d="M296.74 66.1465L278.95 47.8952L285.132 41.8702C287.066 39.981 289.076 38.8256 291.16 38.3853C293.239 37.9408 295.29 38.0853 297.28 38.8386C299.277 39.5821 301.092 40.7908 302.73 42.4702C304.533 44.3267 305.748 46.28 306.38 48.3463C307 50.4061 307.031 52.4485 306.457 54.4822C305.886 56.5007 304.704 58.3932 302.925 60.1258L296.74 66.1465ZM300.937 44.2213C299.517 42.7626 297.981 41.7441 296.338 41.1267C294.697 40.5256 293.059 40.3962 291.403 40.7538C289.745 41.1104 288.174 42.0202 286.694 43.4571L282.294 47.7365L296.983 62.803L301.371 58.529C302.886 57.0573 303.816 55.4953 304.195 53.8246C304.567 52.1637 304.47 50.4909 303.886 48.8376C303.304 47.1833 302.319 45.6495 300.937 44.2213Z" fill="#CFCFCF" fill-opacity="0.46" />
  </g>
</svg>