<svg width="609" height="564" viewBox="0 0 609 564" fill="none" xmlns="http://www.w3.org/2000/svg">
<g opacity="0.67">
<path d="M520.941 422.574C519.943 421.796 519.261 420.83 518.88 419.711C518.5 418.592 518.424 417.434 518.663 416.227C518.896 415.016 519.412 413.905 520.214 412.896L527.664 403.461L547.676 419.252L540.065 428.889C539.317 429.832 538.434 430.447 537.388 430.746C536.351 431.034 535.296 431.058 534.227 430.805C533.163 430.555 532.206 430.091 531.365 429.422C530.363 428.641 529.644 427.66 529.196 426.488C528.76 425.31 528.676 424.113 528.982 422.882C527.735 423.758 526.392 424.164 524.944 424.11C523.496 424.057 522.162 423.545 520.941 422.574ZM522.84 420.868C523.517 421.407 524.254 421.743 525.069 421.902C525.88 422.046 526.662 422.01 527.431 421.773C528.199 421.537 528.838 421.089 529.358 420.435L535.407 412.773L527.825 406.789L521.925 414.256C521.402 414.923 521.091 415.68 521.023 416.505C520.948 417.338 521.065 418.138 521.382 418.923C521.693 419.705 522.174 420.354 522.84 420.868ZM544.402 419.867L537.019 414.039L531.588 420.907C531.065 421.573 530.784 422.292 530.725 423.076C530.673 423.851 530.814 424.622 531.134 425.363C531.464 426.111 531.946 426.73 532.585 427.238C533.262 427.778 533.987 428.119 534.761 428.28C535.543 428.431 536.29 428.397 537.016 428.175C537.744 427.953 538.343 427.535 538.839 426.91L544.402 419.867Z" fill="#CFCFCF" fill-opacity="0.46"/>
<path d="M455.925 446.69C457.711 446.714 459.339 447.083 460.789 447.814C462.246 448.547 463.489 449.538 464.536 450.777C465.576 452.014 466.374 453.417 466.935 454.96C467.5 456.508 467.765 458.1 467.75 459.736C467.734 461.432 467.42 463.051 466.809 464.588C466.197 466.126 465.335 467.495 464.235 468.691C463.139 469.891 461.857 470.832 460.385 471.529C458.913 472.226 457.334 472.554 455.637 472.538C453.844 472.524 452.222 472.127 450.769 471.379C449.311 470.628 448.069 469.625 447.038 468.365C446.008 467.106 445.22 465.711 444.652 464.176C444.094 462.65 443.826 461.071 443.84 459.467C443.857 457.769 444.173 456.139 444.789 454.604C445.4 453.067 446.25 451.703 447.333 450.508C448.424 449.305 449.706 448.364 451.175 447.681C452.636 447.007 454.215 446.679 455.925 446.69ZM465.235 459.712C465.255 458.316 465.037 456.981 464.597 455.691C464.155 454.413 463.509 453.271 462.687 452.272C461.856 451.266 460.869 450.465 459.709 449.872C458.561 449.273 457.285 448.964 455.895 448.956C454.434 448.94 453.126 449.232 451.957 449.825C450.789 450.434 449.784 451.234 448.955 452.238C448.118 453.251 447.478 454.39 447.037 455.655C446.596 456.919 446.362 458.209 446.347 459.53C446.334 460.917 446.555 462.238 446.997 463.516C447.448 464.783 448.081 465.931 448.922 466.945C449.758 467.955 450.75 468.76 451.9 469.345C453.033 469.933 454.299 470.235 455.691 470.242C457.13 470.257 458.43 469.974 459.599 469.381C460.768 468.79 461.761 467.994 462.603 466.986C463.433 465.982 464.084 464.838 464.535 463.58C464.994 462.313 465.222 461.02 465.235 459.712Z" fill="#CFCFCF" fill-opacity="0.46"/>
<path d="M372.259 439.809L387.528 460.223L380.601 465.399C378.435 467.018 376.284 467.927 374.161 468.09C372.032 468.263 370.019 467.855 368.144 466.849C366.26 465.853 364.615 464.42 363.212 462.534C361.662 460.47 360.714 458.366 360.367 456.238C360.015 454.107 360.259 452.074 361.084 450.14C361.927 448.191 363.345 446.478 365.333 444.985L372.259 439.809ZM365.231 461.033C366.447 462.66 367.827 463.883 369.378 464.694C370.931 465.505 372.543 465.845 374.235 465.7C375.919 465.565 377.605 464.866 379.271 463.62L384.184 459.948L371.581 443.098L366.66 446.778C364.982 448.032 363.843 449.463 363.248 451.077C362.662 452.683 362.546 454.348 362.9 456.073C363.261 457.788 364.035 459.439 365.231 461.033Z" fill="#CFCFCF" fill-opacity="0.46"/>
<path d="M320.859 510.091L305.974 504.087L307.459 520.112L305.273 521.746L303.587 503.005L297.912 495.416L299.933 493.9L305.65 501.555L323.073 508.432L320.859 510.091Z" fill="#CFCFCF" fill-opacity="0.46"/>
<path d="M227.83 534.627L232.913 552.382C233.326 553.825 233.634 555.026 233.827 555.996C234.021 556.967 234.092 557.793 234.042 558.458C233.98 559.147 233.813 559.751 233.53 560.295C233.047 561.229 232.361 561.922 231.48 562.398C230.6 562.874 229.613 563.109 228.527 563.093C227.439 563.091 226.366 562.801 225.303 562.255C224.301 561.739 223.501 561.088 222.892 560.305C222.295 559.517 221.928 558.675 221.804 557.776C221.687 556.868 221.848 555.976 222.307 555.102C222.806 554.149 223.51 553.453 224.443 552.988C225.37 552.534 226.433 552.202 227.626 552.006C228.815 551.822 230.104 551.671 231.481 551.558C232.654 551.424 233.763 551.255 234.813 551.038C235.859 550.819 236.764 550.488 237.531 550.047C238.311 549.6 238.922 548.94 239.361 548.082C239.841 547.162 239.99 546.246 239.786 545.329C239.59 544.421 239.167 543.582 238.517 542.831C237.865 542.091 237.114 541.478 236.237 541.032C235.09 540.433 233.899 540.145 232.66 540.164C231.422 540.183 230.207 540.457 229.003 541.003C227.805 541.542 226.693 542.32 225.682 543.304C224.666 544.285 223.815 545.444 223.116 546.787L221.271 545.822C222.111 544.214 223.155 542.833 224.397 541.686C225.645 540.529 226.989 539.67 228.451 539.075C229.904 538.489 231.402 538.205 232.939 538.236C234.468 538.275 235.953 538.657 237.375 539.395C238.689 540.079 239.765 540.966 240.605 542.06C241.437 543.145 241.942 544.314 242.126 545.544C242.306 546.786 242.075 548.013 241.441 549.235C240.856 550.355 240.063 551.214 239.079 551.781C238.094 552.347 237 552.747 235.777 552.982C234.567 553.212 233.324 553.384 232.048 553.499C230.75 553.612 229.581 553.749 228.548 553.885C227.512 554.033 226.643 554.268 225.933 554.597C225.224 554.927 224.694 555.415 224.361 556.061C223.935 556.883 223.889 557.709 224.239 558.552C224.576 559.401 225.225 560.074 226.181 560.568C226.878 560.934 227.589 561.107 228.284 561.111C228.987 561.105 229.628 560.941 230.199 560.626C230.77 560.312 231.201 559.87 231.499 559.307C231.677 558.946 231.787 558.531 231.819 558.056C231.846 557.589 231.771 556.934 231.58 556.108C231.39 555.282 231.091 554.149 230.672 552.734L224.968 533.135L227.83 534.627Z" fill="#CFCFCF" fill-opacity="0.46"/>
<path d="M148.452 509.114C148.509 509.646 148.64 510.189 148.846 510.73C149.052 511.27 149.324 511.817 149.682 512.352C150.033 512.897 150.438 513.424 150.92 513.933C151.397 514.437 151.941 514.918 152.568 515.353C154.383 516.641 155.963 517.238 157.307 517.146C158.646 517.05 159.735 516.411 160.579 515.213C161.154 514.4 161.405 513.612 161.345 512.858C161.269 512.107 160.904 511.284 160.251 510.387C159.601 509.479 158.716 508.412 157.611 507.158C156.345 505.79 155.322 504.521 154.553 503.328C153.776 502.146 153.362 500.97 153.289 499.828C153.211 498.684 153.621 497.488 154.497 496.239C155.183 495.278 155.955 494.574 156.822 494.135C157.69 493.695 158.622 493.479 159.609 493.481C160.609 493.476 161.647 493.69 162.719 494.119C163.803 494.541 164.888 495.138 165.99 495.904C167.056 496.674 168.012 497.513 168.834 498.434C169.673 499.351 170.372 500.347 170.939 501.41C171.505 502.472 171.932 503.612 172.215 504.825L170.004 505.781C169.911 505.127 169.724 504.445 169.447 503.738C169.17 503.032 168.805 502.318 168.368 501.594C167.928 500.865 167.39 500.171 166.759 499.513C166.132 498.841 165.422 498.245 164.642 497.688C162.983 496.509 161.467 495.9 160.107 495.853C158.76 495.801 157.662 496.372 156.816 497.565C156.213 498.421 155.966 499.275 156.067 500.124C156.173 500.977 156.574 501.893 157.278 502.892C157.99 503.882 158.91 505.022 160.06 506.298C161.272 507.654 162.23 508.886 162.943 510.002C163.65 511.114 164.013 512.187 164.037 513.211C164.062 514.235 163.679 515.31 162.895 516.413C161.988 517.7 160.895 518.572 159.635 519.013C158.374 519.454 157.026 519.511 155.586 519.182C154.146 518.851 152.706 518.178 151.26 517.154C150.335 516.511 149.544 515.82 148.89 515.064C148.229 514.318 147.681 513.537 147.249 512.708C146.823 511.883 146.512 510.992 146.296 510.05L148.452 509.114Z" fill="#CFCFCF" fill-opacity="0.46"/>
<path d="M102.847 444.129C104.136 445.373 105.052 446.76 105.602 448.294C106.16 449.817 106.375 451.397 106.28 453.014C106.181 454.625 105.8 456.186 105.147 457.686C104.49 459.2 103.597 460.54 102.473 461.698C101.29 462.918 99.9491 463.886 98.4491 464.572C96.9501 465.274 95.3947 465.665 93.7729 465.785C92.1544 465.89 90.5751 465.699 89.0348 465.194C87.4946 464.689 86.1207 463.847 84.8967 462.669C83.6076 461.425 82.6989 460.029 82.1608 458.49C81.6271 456.937 81.4239 455.351 81.5337 453.746C81.6456 452.129 82.0304 450.572 82.6837 449.071C83.3369 447.571 84.2109 446.246 85.3272 445.1C86.5044 443.875 87.8435 442.92 89.3468 442.221C90.8425 441.532 92.4012 441.128 94.0055 441.01C95.6175 440.883 97.1936 441.088 98.7208 441.598C100.249 442.109 101.627 442.955 102.847 444.129ZM100.661 459.958C101.621 458.968 102.391 457.843 102.949 456.611C103.506 455.379 103.834 454.12 103.917 452.825C104.005 451.532 103.835 450.269 103.411 449.04C102.987 447.81 102.271 446.724 101.275 445.759C100.231 444.741 99.0752 444.057 97.8132 443.695C96.5588 443.323 95.286 443.219 93.9871 443.376C92.6925 443.537 91.4457 443.922 90.2598 444.529C89.0653 445.144 88.0153 445.922 87.1033 446.872C86.1435 447.863 85.3815 448.978 84.8315 450.201C84.2815 451.424 83.9565 452.7 83.8696 454.008C83.7837 455.318 83.9489 456.577 84.3837 457.783C84.8098 458.999 85.5218 460.082 86.5174 461.045C87.5457 462.037 88.6881 462.726 89.9305 463.104C91.1849 463.476 92.4577 463.579 93.7566 463.423C95.0556 463.266 96.2947 462.889 97.4991 462.281C98.6947 461.682 99.7491 460.908 100.661 459.958Z" fill="#CFCFCF" fill-opacity="0.46"/>
<path d="M49.6633 379.274C50.7035 380.995 51.272 382.637 51.372 384.188C51.4731 385.757 51.2144 387.196 50.6013 388.51C49.9937 389.826 49.1198 391.043 47.9991 392.156C46.8893 393.246 45.6296 394.218 44.2284 395.061L33.2392 401.669L31.9511 399.548L42.9545 392.936C44.0774 392.263 45.1187 391.478 46.0643 390.585C47.0013 389.702 47.7448 388.727 48.285 387.685C48.8198 386.637 49.0687 385.505 49.0307 384.3C48.985 383.105 48.5589 381.826 47.7404 380.47C46.9067 379.071 45.9546 378.078 44.873 377.485C43.8045 376.885 42.6784 376.585 41.5078 376.577C40.3317 376.566 39.1382 376.775 37.9251 377.205C36.7164 377.621 35.5599 378.158 34.4533 378.828L23.45 385.442L22.1543 383.283L33.1501 376.68C34.6077 375.803 36.1023 375.128 37.6327 374.653C39.1577 374.176 40.6404 374.008 42.0904 374.128C43.5284 374.253 44.898 374.732 46.1991 375.532C47.497 376.346 48.6491 377.59 49.6633 379.274Z" fill="#CFCFCF" fill-opacity="0.46"/>
<path d="M25.5285 311.72L0.0413049 312.142L0 309.63L23.2622 309.243L23.0231 294.523L25.247 294.488L25.5285 311.72Z" fill="#CFCFCF" fill-opacity="0.46"/>
<path d="M43.2813 228.03C43.0292 227.233 43.0922 226.483 43.4835 225.774C43.8727 225.048 44.4477 224.581 45.2314 224.325C46.0248 224.077 46.7825 224.131 47.4966 224.495C48.2194 224.849 48.7086 225.427 48.9542 226.234C49.2184 227.056 49.1618 227.827 48.7901 228.551C48.4129 229.272 47.8347 229.752 47.0336 230.01C46.2575 230.256 45.4977 230.185 44.764 229.806C44.0303 229.425 43.5313 228.84 43.2813 228.03ZM44.727 226.449C44.5335 226.86 44.4998 227.258 44.6194 227.65C44.764 228.08 45.0259 228.382 45.4009 228.57C45.7912 228.771 46.1922 228.808 46.6096 228.669C47.0401 228.54 47.3629 228.263 47.5607 227.887C47.6314 227.709 47.6836 227.515 47.7042 227.312C47.7205 227.105 47.6966 226.897 47.6336 226.69C47.5629 226.493 47.4673 226.308 47.3346 226.139C47.1868 225.99 47.0455 225.862 46.8814 225.762C46.6977 225.648 46.4988 225.583 46.2825 225.569C46.064 225.568 45.8488 225.6 45.6509 225.662C45.2172 225.803 44.9096 226.061 44.727 226.449Z" fill="#CFCFCF" fill-opacity="0.46"/>
<path d="M126.961 200.875L118.3 203.635L125.345 225.807L122.958 226.561L115.909 204.384L107.244 207.141L106.574 205.024L126.287 198.754L126.961 200.875Z" fill="#CFCFCF" fill-opacity="0.46"/>
<path d="M193.814 204.046L186.096 179.753L196.368 176.485C197.413 176.156 198.444 176.066 199.449 176.222C200.455 176.378 201.389 176.73 202.284 177.253C203.168 177.799 203.933 178.455 204.574 179.247C205.21 180.035 205.679 180.895 205.969 181.832C206.346 182.995 206.471 184.16 206.354 185.323C206.23 186.495 205.88 187.566 205.295 188.529C204.71 189.491 203.907 190.265 202.887 190.834L211.824 198.319L209.117 199.179L200.551 192.035L193.361 194.319L196.218 203.275L193.814 204.046ZM192.687 192.197L200.623 189.677C201.593 189.366 202.337 188.844 202.872 188.092C203.42 187.335 203.746 186.481 203.858 185.503C203.976 184.515 203.876 183.556 203.574 182.594C203.271 181.615 202.763 180.773 202.044 180.09C201.339 179.389 200.532 178.904 199.623 178.635C198.722 178.358 197.813 178.357 196.902 178.653L189.173 181.103L192.687 192.197Z" fill="#CFCFCF" fill-opacity="0.46"/>
<path d="M231.068 112.882L232.164 111.07L259.464 115.136L258.106 117.396L249.622 116.029L243.62 126.02L248.811 132.848L247.432 135.155L231.068 112.882ZM247.521 115.692L234.129 113.513L242.335 124.323L247.521 115.692Z" fill="#CFCFCF" fill-opacity="0.46"/>
<path d="M295.951 66.1465L278.162 47.8952L284.344 41.8702C286.277 39.981 288.288 38.8256 290.372 38.3853C292.451 37.9408 294.501 38.0853 296.492 38.8386C298.488 39.5821 300.304 40.7908 301.942 42.4702C303.745 44.3267 304.96 46.28 305.592 48.3463C306.212 50.4061 306.243 52.4485 305.669 54.4822C305.098 56.5007 303.916 58.3932 302.137 60.1258L295.951 66.1465ZM300.149 44.2213C298.729 42.7626 297.193 41.7441 295.55 41.1267C293.909 40.5256 292.271 40.3962 290.614 40.7538C288.957 41.1104 287.386 42.0202 285.906 43.4571L281.506 47.7365L296.195 62.803L300.583 58.529C302.098 57.0573 303.028 55.4953 303.407 53.8246C303.779 52.1637 303.682 50.4909 303.098 48.8376C302.516 47.1833 301.531 45.6495 300.149 44.2213Z" fill="#CFCFCF" fill-opacity="0.46"/>
<path d="M362.57 0.0004033L366.402 25.2012L363.916 25.5793L360.083 0.378545L362.57 0.0004033Z" fill="#CFCFCF" fill-opacity="0.46"/>
<path d="M452.383 21.9836L444.214 18.0118L434.026 38.936L431.769 37.8294L441.956 16.9053L433.786 12.9335L434.764 10.9346L453.354 19.9945L452.383 21.9836Z" fill="#CFCFCF" fill-opacity="0.46"/>
<path d="M496.988 83.0224L476.156 97.7158L474.705 95.6586L495.537 80.9652L496.988 83.0224Z" fill="#CFCFCF" fill-opacity="0.46"/>
<path d="M519.516 159.514C518.485 158.052 517.841 156.52 517.588 154.908C517.34 153.3 517.417 151.715 517.81 150.148C518.208 148.584 518.884 147.114 519.811 145.751C520.743 144.392 521.87 143.251 523.195 142.314C524.585 141.335 526.075 140.654 527.687 140.243C529.29 139.841 530.897 139.741 532.508 139.94C534.122 140.127 535.644 140.616 537.052 141.407C538.471 142.191 539.673 143.273 540.643 144.672C541.674 146.134 542.311 147.675 542.546 149.289C542.775 150.912 542.685 152.502 542.269 154.068C541.854 155.635 541.181 157.091 540.262 158.443C539.342 159.797 538.227 160.933 536.917 161.85C535.532 162.834 534.031 163.52 532.427 163.922C530.831 164.313 529.213 164.437 527.612 164.245C526.007 164.066 524.503 163.574 523.094 162.784C521.686 161.993 520.494 160.903 519.516 159.514ZM524.645 144.361C523.51 145.167 522.554 146.114 521.768 147.229C520.978 148.341 520.427 149.517 520.094 150.773C519.766 152.031 519.692 153.306 519.881 154.585C520.075 155.867 520.57 157.076 521.367 158.212C522.208 159.399 523.205 160.301 524.368 160.897C525.544 161.487 526.77 161.836 528.08 161.922C529.391 162.008 530.676 161.87 531.967 161.487C533.246 161.109 534.426 160.542 535.5 159.783C536.64 158.98 537.592 158.029 538.362 156.933C539.14 155.827 539.687 154.648 540.017 153.375C540.361 152.096 540.427 150.831 540.23 149.562C540.046 148.287 539.548 147.092 538.751 145.956C537.924 144.781 536.933 143.9 535.774 143.29C534.622 142.689 533.389 142.349 532.087 142.254C530.776 142.168 529.475 142.307 528.197 142.672C526.896 143.048 525.713 143.611 524.645 144.361Z" fill="#CFCFCF" fill-opacity="0.46"/>
<path d="M598.062 206.661L578.289 213.323L577.492 210.932L601.646 202.797L602.312 204.77L587.518 227.411L607.624 220.638L608.424 223.016L584.3 231.143L583.559 228.937L598.062 206.661Z" fill="#CFCFCF" fill-opacity="0.46"/>
<path d="M579.274 311.836C579.806 311.71 580.324 311.51 580.836 311.242C581.347 310.974 581.85 310.637 582.353 310.222C582.839 309.807 583.314 309.338 583.764 308.802C584.212 308.279 584.62 307.678 584.988 306.998C586.042 305.043 586.445 303.402 586.19 302.087C585.944 300.761 585.174 299.756 583.895 299.068C583.015 298.588 582.202 298.427 581.461 298.591C580.726 298.744 579.95 299.209 579.132 299.97C578.322 300.722 577.352 301.725 576.246 302.978C575.048 304.395 573.904 305.556 572.815 306.463C571.731 307.374 570.62 307.932 569.494 308.136C568.355 308.344 567.121 308.083 565.776 307.36C564.744 306.804 563.963 306.12 563.421 305.314C562.879 304.506 562.55 303.601 562.438 302.617C562.316 301.627 562.398 300.578 562.699 299.451C562.991 298.334 563.454 297.181 564.089 296.007C564.717 294.843 565.437 293.8 566.258 292.868C567.073 291.931 567.973 291.126 568.956 290.432C569.942 289.743 571.02 289.188 572.203 288.764L573.415 290.827C572.772 291.005 572.121 291.271 571.45 291.632C570.779 291.993 570.113 292.435 569.44 292.967C568.786 293.482 568.162 294.101 567.57 294.806C566.987 295.519 566.471 296.285 566.012 297.129C565.049 298.92 564.624 300.48 564.735 301.839C564.84 303.194 565.54 304.206 566.816 304.908C567.742 305.41 568.623 305.544 569.451 305.34C570.281 305.137 571.145 304.631 572.054 303.802C572.954 302.996 573.97 301.937 575.108 300.644C576.298 299.286 577.413 298.18 578.437 297.346C579.456 296.509 580.478 296.02 581.493 295.87C582.506 295.719 583.613 295.972 584.818 296.617C586.201 297.371 587.189 298.346 587.772 299.546C588.358 300.751 588.575 302.084 588.422 303.548C588.27 305.011 587.761 306.537 586.929 308.087C586.394 309.074 585.795 309.945 585.132 310.69C584.474 311.438 583.759 312.062 582.985 312.591C582.219 313.111 581.376 313.539 580.461 313.863L579.274 311.836Z" fill="#CFCFCF" fill-opacity="0.46"/>
<path d="M548.055 368.356C548.78 368.775 549.242 369.378 549.429 370.17C549.615 370.961 549.507 371.708 549.099 372.419C548.683 373.138 548.08 373.6 547.309 373.82C546.53 374.031 545.783 373.923 545.05 373.513C544.315 373.069 543.835 372.468 543.631 371.678C543.42 370.898 543.53 370.138 543.946 369.418C544.359 368.711 544.962 368.249 545.769 368.044C546.567 367.831 547.33 367.936 548.055 368.356ZM548.043 370.511C547.915 370.079 547.677 369.749 547.321 369.545C546.932 369.314 546.525 369.273 546.123 369.393C545.695 369.507 545.374 369.753 545.162 370.119C544.932 370.516 544.869 370.921 544.987 371.345C545.05 371.521 545.144 371.689 545.265 371.863C545.393 372.027 545.548 372.168 545.728 372.278C545.918 372.383 546.118 372.448 546.318 372.482C546.53 372.493 546.725 372.491 546.911 372.466C547.129 372.42 547.316 372.333 547.483 372.2C547.642 372.06 547.785 371.89 547.891 371.708C548.125 371.314 548.169 370.925 548.043 370.511Z" fill="#CFCFCF" fill-opacity="0.46"/>
</g>
</svg>
