<svg width="273" height="260" viewBox="0 0 273 260" fill="none" xmlns="http://www.w3.org/2000/svg">
<path d="M193.86 19.2042C213.018 30.8935 228.928 46.4793 244.189 65.3122C259.126 84.145 273.088 106.225 272.114 127.331C270.815 148.436 254.58 168.893 240.617 189.674C226.655 210.455 214.966 231.236 197.107 243.25C179.248 254.939 155.545 257.862 130.543 259.161C105.865 260.784 80.2136 261.109 61.056 250.069C41.5738 239.029 28.5856 216.949 18.1951 194.869C8.12922 172.465 0.661027 150.385 0.0116186 127.655C-0.313086 105.251 6.181 82.1968 17.8704 62.7145C29.8844 43.557 47.0937 27.6465 66.9007 16.6065C86.7077 5.56658 109.112 -0.60281 131.192 0.0465988C153.272 0.696007 175.027 7.83951 193.86 19.2042Z" fill="black"/>
</svg>
